  0
SECTION
  2
HEADER
  9
$ANGBASE
  50
0.0
  9
$ANGDIR
  70
1
  9
$MEASUREMENT
  70
1
  0
ENDSEC
  0
SECTION
  2
TABLES
  0
TABLE
  2
LTYPE
  70
4
  0
LTYPE
  5
40F
  2
CONTINUOUS
  70
0
  3
Solid line
  72
65
  73
0
  40
0.0
  0
LTYPE
  5
410
  2
DASHDOT
 70
0
  3
Dash Dot ____ _ ____ _
 72
65
 73
4
 40
2.0
 49
1.25
 49
-0.25
 49
0.25
 49
-0.25
  0
LTYPE
  5
411
  2
DASHED
 70
0
  3
Dashed __ __ __ __ __
 72
65
 73
2
 40
0.75
 49
0.5
 49
-0.25
  0
LTYPE
  5
43B
  2
DOTTED
 70
0
  3
Dotted .  .  .  .
 72
65
 73
2
 40
0.2
 49
0.0
 49
-0.2
  0
ENDTAB
  0
TABLE
  2
STYLE
  70
4
  0
STYLE
  2
KICAD
  70
0
  40
0
  41
1
  42
1
  50
0
  71
0
  3
isocp.shx
  0
STYLE
  2
KICADB
  70
0
  40
0
  41
1
  42
1
  50
0
  71
0
  3
isocp.shx
  0
STYLE
  2
KICADI
  70
0
  40
0
  41
1
  42
1
  50
15
  71
0
  3
isocp.shx
  0
STYLE
  2
KICADBI
  70
0
  40
0
  41
1
  42
1
  50
15
  71
0
  3
isocp.shx
  0
ENDTAB
  0
TABLE
  2
LAYER
  70
1
  0
LAYER
  2
BLACK
  70
0
  62
7
  6
CONTINUOUS
  0
ENDTAB
  0
ENDSEC
  0
SECTION
  2
ENTITIES
0
ARC
8
BLACK
10
60
20
85
40
5
50
-0
51
90
0
ARC
8
BLACK
10
5
20
5
40
5
50
-180
51
-90
0
ARC
8
BLACK
10
60
20
5
40
5
50
-90
51
-0
0
LINE
8
BLACK
6
CONTINUOUS
10
60
20
0
11
5
21
0
0
LINE
8
BLACK
6
CONTINUOUS
10
5
20
90
11
60
21
90
0
LINE
8
BLACK
6
CONTINUOUS
10
0
20
5
11
0
21
85
0
LINE
8
BLACK
6
CONTINUOUS
10
65
20
85
11
65
21
5
0
ARC
8
BLACK
10
5
20
85
40
5
50
90
51
180
0
LINE
8
BLACK
6
CONTINUOUS
10
7.05
20
43.55
11
7.45
21
43.15
0
LINE
8
BLACK
6
CONTINUOUS
10
7.45
20
43.55
11
7.05
21
43.15
0
LINE
8
BLACK
6
CONTINUOUS
10
23.3
20
32.4
11
23.7
21
32
0
LINE
8
BLACK
6
CONTINUOUS
10
23.7
20
32.4
11
23.3
21
32
0
LINE
8
BLACK
6
CONTINUOUS
10
23.3
20
28.95
11
23.7
21
28.55
0
LINE
8
BLACK
6
CONTINUOUS
10
23.7
20
28.95
11
23.3
21
28.55
0
LINE
8
BLACK
6
CONTINUOUS
10
23.3
20
25.5
11
23.7
21
25.1
0
LINE
8
BLACK
6
CONTINUOUS
10
23.7
20
25.5
11
23.3
21
25.1
0
LINE
8
BLACK
6
CONTINUOUS
10
23.3
20
22.05
11
23.7
21
21.65
0
LINE
8
BLACK
6
CONTINUOUS
10
23.7
20
22.05
11
23.3
21
21.65
0
LINE
8
BLACK
6
CONTINUOUS
10
25.95
20
31.25
11
26.35
21
30.85
0
LINE
8
BLACK
6
CONTINUOUS
10
26.35
20
31.25
11
25.95
21
30.85
0
LINE
8
BLACK
6
CONTINUOUS
10
25.95
20
27.8
11
26.35
21
27.4
0
LINE
8
BLACK
6
CONTINUOUS
10
26.35
20
27.8
11
25.95
21
27.4
0
LINE
8
BLACK
6
CONTINUOUS
10
25.95
20
24.35
11
26.35
21
23.95
0
LINE
8
BLACK
6
CONTINUOUS
10
26.35
20
24.35
11
25.95
21
23.95
0
LINE
8
BLACK
6
CONTINUOUS
10
25.95
20
20.9
11
26.35
21
20.5
0
LINE
8
BLACK
6
CONTINUOUS
10
26.35
20
20.9
11
25.95
21
20.5
0
LINE
8
BLACK
6
CONTINUOUS
10
28.925
20
27.525
11
29.325
21
27.125
0
LINE
8
BLACK
6
CONTINUOUS
10
29.325
20
27.525
11
28.925
21
27.125
0
LINE
8
BLACK
6
CONTINUOUS
10
28.9375
20
24.1125
11
29.3375
21
23.7125
0
LINE
8
BLACK
6
CONTINUOUS
10
29.3375
20
24.1125
11
28.9375
21
23.7125
0
LINE
8
BLACK
6
CONTINUOUS
10
28.95
20
34.45
11
29.35
21
34.05
0
LINE
8
BLACK
6
CONTINUOUS
10
29.35
20
34.45
11
28.95
21
34.05
0
LINE
8
BLACK
6
CONTINUOUS
10
28.975
20
31.025
11
29.375
21
30.625
0
LINE
8
BLACK
6
CONTINUOUS
10
29.375
20
31.025
11
28.975
21
30.625
0
LINE
8
BLACK
6
CONTINUOUS
10
29.4
20
14.8
11
29.8
21
14.4
0
LINE
8
BLACK
6
CONTINUOUS
10
29.8
20
14.8
11
29.4
21
14.4
0
LINE
8
BLACK
6
CONTINUOUS
10
29.4
20
5.6
11
29.8
21
5.2
0
LINE
8
BLACK
6
CONTINUOUS
10
29.8
20
5.6
11
29.4
21
5.2
0
LINE
8
BLACK
6
CONTINUOUS
10
31.94
20
14.8
11
32.34
21
14.4
0
LINE
8
BLACK
6
CONTINUOUS
10
32.34
20
14.8
11
31.94
21
14.4
0
LINE
8
BLACK
6
CONTINUOUS
10
31.94
20
5.6
11
32.34
21
5.2
0
LINE
8
BLACK
6
CONTINUOUS
10
32.34
20
5.6
11
31.94
21
5.2
0
LINE
8
BLACK
6
CONTINUOUS
10
33.8
20
54.95
11
34.2
21
54.55
0
LINE
8
BLACK
6
CONTINUOUS
10
34.2
20
54.95
11
33.8
21
54.55
0
LINE
8
BLACK
6
CONTINUOUS
10
33.8
20
48.1
11
34.2
21
47.7
0
LINE
8
BLACK
6
CONTINUOUS
10
34.2
20
48.1
11
33.8
21
47.7
0
LINE
8
BLACK
6
CONTINUOUS
10
33.8
20
44.65
11
34.2
21
44.25
0
LINE
8
BLACK
6
CONTINUOUS
10
34.2
20
44.65
11
33.8
21
44.25
0
LINE
8
BLACK
6
CONTINUOUS
10
33.8979
20
51.5086
11
34.2979
21
51.1086
0
LINE
8
BLACK
6
CONTINUOUS
10
34.2979
20
51.5086
11
33.8979
21
51.1086
0
LINE
8
BLACK
6
CONTINUOUS
10
34.48
20
14.8
11
34.88
21
14.4
0
LINE
8
BLACK
6
CONTINUOUS
10
34.88
20
14.8
11
34.48
21
14.4
0
LINE
8
BLACK
6
CONTINUOUS
10
34.48
20
5.6
11
34.88
21
5.2
0
LINE
8
BLACK
6
CONTINUOUS
10
34.88
20
5.6
11
34.48
21
5.2
0
LINE
8
BLACK
6
CONTINUOUS
10
36.35
20
67.15
11
36.75
21
66.75
0
LINE
8
BLACK
6
CONTINUOUS
10
36.75
20
67.15
11
36.35
21
66.75
0
LINE
8
BLACK
6
CONTINUOUS
10
36.4021
20
46.9914
11
36.8021
21
46.5914
0
LINE
8
BLACK
6
CONTINUOUS
10
36.8021
20
46.9914
11
36.4021
21
46.5914
0
LINE
8
BLACK
6
CONTINUOUS
10
36.4021
20
43.5414
11
36.8021
21
43.1414
0
LINE
8
BLACK
6
CONTINUOUS
10
36.8021
20
43.5414
11
36.4021
21
43.1414
0
LINE
8
BLACK
6
CONTINUOUS
10
36.45
20
53.85
11
36.85
21
53.45
0
LINE
8
BLACK
6
CONTINUOUS
10
36.85
20
53.85
11
36.45
21
53.45
0
LINE
8
BLACK
6
CONTINUOUS
10
36.45
20
50.4
11
36.85
21
50
0
LINE
8
BLACK
6
CONTINUOUS
10
36.85
20
50.4
11
36.45
21
50
0
LINE
8
BLACK
6
CONTINUOUS
10
37.02
20
14.8
11
37.42
21
14.4
0
LINE
8
BLACK
6
CONTINUOUS
10
37.42
20
14.8
11
37.02
21
14.4
0
LINE
8
BLACK
6
CONTINUOUS
10
37.02
20
5.6
11
37.42
21
5.2
0
LINE
8
BLACK
6
CONTINUOUS
10
37.42
20
5.6
11
37.02
21
5.2
0
LINE
8
BLACK
6
CONTINUOUS
10
37.75
20
45
11
38.15
21
44.6
0
LINE
8
BLACK
6
CONTINUOUS
10
38.15
20
45
11
37.75
21
44.6
0
LINE
8
BLACK
6
CONTINUOUS
10
37.95
20
62.9
11
38.35
21
62.5
0
LINE
8
BLACK
6
CONTINUOUS
10
38.35
20
62.9
11
37.95
21
62.5
0
LINE
8
BLACK
6
CONTINUOUS
10
39.425
20
53.575
11
39.825
21
53.175
0
LINE
8
BLACK
6
CONTINUOUS
10
39.825
20
53.575
11
39.425
21
53.175
0
LINE
8
BLACK
6
CONTINUOUS
10
39.425
20
50.125
11
39.825
21
49.725
0
LINE
8
BLACK
6
CONTINUOUS
10
39.825
20
50.125
11
39.425
21
49.725
0
LINE
8
BLACK
6
CONTINUOUS
10
39.45
20
57.05
11
39.85
21
56.65
0
LINE
8
BLACK
6
CONTINUOUS
10
39.85
20
57.05
11
39.45
21
56.65
0
LINE
8
BLACK
6
CONTINUOUS
10
39.56
20
14.8
11
39.96
21
14.4
0
LINE
8
BLACK
6
CONTINUOUS
10
39.96
20
14.8
11
39.56
21
14.4
0
LINE
8
BLACK
6
CONTINUOUS
10
39.56
20
5.6
11
39.96
21
5.2
0
LINE
8
BLACK
6
CONTINUOUS
10
39.96
20
5.6
11
39.56
21
5.2
0
LINE
8
BLACK
6
CONTINUOUS
10
40.4
20
67.35
11
40.8
21
66.95
0
LINE
8
BLACK
6
CONTINUOUS
10
40.8
20
67.35
11
40.4
21
66.95
0
LINE
8
BLACK
6
CONTINUOUS
10
40.4
20
64.61
11
40.8
21
64.21
0
LINE
8
BLACK
6
CONTINUOUS
10
40.8
20
64.61
11
40.4
21
64.21
0
LINE
8
BLACK
6
CONTINUOUS
10
40.4
20
61.21
11
40.8
21
60.81
0
LINE
8
BLACK
6
CONTINUOUS
10
40.8
20
61.21
11
40.4
21
60.81
0
LINE
8
BLACK
6
CONTINUOUS
10
42.1
20
14.8
11
42.5
21
14.4
0
LINE
8
BLACK
6
CONTINUOUS
10
42.5
20
14.8
11
42.1
21
14.4
0
LINE
8
BLACK
6
CONTINUOUS
10
42.1
20
5.6
11
42.5
21
5.2
0
LINE
8
BLACK
6
CONTINUOUS
10
42.5
20
5.6
11
42.1
21
5.2
0
LINE
8
BLACK
6
CONTINUOUS
10
42.85
20
62.9
11
43.25
21
62.5
0
LINE
8
BLACK
6
CONTINUOUS
10
43.25
20
62.9
11
42.85
21
62.5
0
LINE
8
BLACK
6
CONTINUOUS
10
44.64
20
14.8
11
45.04
21
14.4
0
LINE
8
BLACK
6
CONTINUOUS
10
45.04
20
14.8
11
44.64
21
14.4
0
LINE
8
BLACK
6
CONTINUOUS
10
44.64
20
5.6
11
45.04
21
5.2
0
LINE
8
BLACK
6
CONTINUOUS
10
45.04
20
5.6
11
44.64
21
5.2
0
LINE
8
BLACK
6
CONTINUOUS
10
47.18
20
14.8
11
47.58
21
14.4
0
LINE
8
BLACK
6
CONTINUOUS
10
47.58
20
14.8
11
47.18
21
14.4
0
LINE
8
BLACK
6
CONTINUOUS
10
47.18
20
5.6
11
47.58
21
5.2
0
LINE
8
BLACK
6
CONTINUOUS
10
47.58
20
5.6
11
47.18
21
5.2
0
LINE
8
BLACK
6
CONTINUOUS
10
55.65
20
70.16
11
56.05
21
69.76
0
LINE
8
BLACK
6
CONTINUOUS
10
56.05
20
70.16
11
55.65
21
69.76
0
CIRCLE
8
BLACK
10
2.6
20
85
40
0.25
0
CIRCLE
8
BLACK
10
2.6
20
5
40
0.25
0
CIRCLE
8
BLACK
10
3.30294
20
86.6971
40
0.25
0
CIRCLE
8
BLACK
10
3.30294
20
83.3029
40
0.25
0
CIRCLE
8
BLACK
10
3.30294
20
6.69706
40
0.25
0
CIRCLE
8
BLACK
10
3.30294
20
3.30294
40
0.25
0
CIRCLE
8
BLACK
10
5
20
87.4
40
0.25
0
CIRCLE
8
BLACK
10
5
20
82.6
40
0.25
0
CIRCLE
8
BLACK
10
5
20
7.4
40
0.25
0
CIRCLE
8
BLACK
10
5
20
2.6
40
0.25
0
CIRCLE
8
BLACK
10
6.69706
20
86.6971
40
0.25
0
CIRCLE
8
BLACK
10
6.69706
20
83.3029
40
0.25
0
CIRCLE
8
BLACK
10
6.69706
20
6.69706
40
0.25
0
CIRCLE
8
BLACK
10
6.69706
20
3.30294
40
0.25
0
CIRCLE
8
BLACK
10
7.4
20
85
40
0.25
0
CIRCLE
8
BLACK
10
7.4
20
5
40
0.25
0
CIRCLE
8
BLACK
10
41.95
20
79.15
40
0.25
0
CIRCLE
8
BLACK
10
42.95
20
79.15
40
0.25
0
CIRCLE
8
BLACK
10
52
20
45
40
0.25
0
CIRCLE
8
BLACK
10
52
20
44
40
0.25
0
CIRCLE
8
BLACK
10
57.6
20
45
40
0.25
0
CIRCLE
8
BLACK
10
58.3029
20
46.6971
40
0.25
0
CIRCLE
8
BLACK
10
58.3029
20
43.3029
40
0.25
0
CIRCLE
8
BLACK
10
60
20
47.4
40
0.25
0
CIRCLE
8
BLACK
10
60
20
42.6
40
0.25
0
CIRCLE
8
BLACK
10
61.6971
20
46.6971
40
0.25
0
CIRCLE
8
BLACK
10
61.6971
20
43.3029
40
0.25
0
CIRCLE
8
BLACK
10
62.4
20
45
40
0.25
0
LINE
8
BLACK
6
CONTINUOUS
10
56.865
20
60.91
11
56.865
21
60.17
0
LINE
8
BLACK
6
CONTINUOUS
10
56.495
20
60.54
11
57.235
21
60.54
0
LINE
8
BLACK
6
CONTINUOUS
10
56.865
20
59.64
11
56.865
21
58.9
0
LINE
8
BLACK
6
CONTINUOUS
10
56.495
20
59.27
11
57.235
21
59.27
0
LINE
8
BLACK
6
CONTINUOUS
10
56.865
20
58.37
11
56.865
21
57.63
0
LINE
8
BLACK
6
CONTINUOUS
10
56.495
20
58
11
57.235
21
58
0
LINE
8
BLACK
6
CONTINUOUS
10
56.865
20
57.1
11
56.865
21
56.36
0
LINE
8
BLACK
6
CONTINUOUS
10
56.495
20
56.73
11
57.235
21
56.73
0
LINE
8
BLACK
6
CONTINUOUS
10
56.865
20
55.83
11
56.865
21
55.09
0
LINE
8
BLACK
6
CONTINUOUS
10
56.495
20
55.46
11
57.235
21
55.46
0
LINE
8
BLACK
6
CONTINUOUS
10
56.865
20
34.91
11
56.865
21
34.17
0
LINE
8
BLACK
6
CONTINUOUS
10
56.495
20
34.54
11
57.235
21
34.54
0
LINE
8
BLACK
6
CONTINUOUS
10
56.865
20
33.64
11
56.865
21
32.9
0
LINE
8
BLACK
6
CONTINUOUS
10
56.495
20
33.27
11
57.235
21
33.27
0
LINE
8
BLACK
6
CONTINUOUS
10
56.865
20
32.37
11
56.865
21
31.63
0
LINE
8
BLACK
6
CONTINUOUS
10
56.495
20
32
11
57.235
21
32
0
LINE
8
BLACK
6
CONTINUOUS
10
56.865
20
31.1
11
56.865
21
30.36
0
LINE
8
BLACK
6
CONTINUOUS
10
56.495
20
30.73
11
57.235
21
30.73
0
LINE
8
BLACK
6
CONTINUOUS
10
56.865
20
29.83
11
56.865
21
29.09
0
LINE
8
BLACK
6
CONTINUOUS
10
56.495
20
29.46
11
57.235
21
29.46
0
LINE
8
BLACK
6
CONTINUOUS
10
58.135
20
60.91
11
58.135
21
60.17
0
LINE
8
BLACK
6
CONTINUOUS
10
57.765
20
60.54
11
58.505
21
60.54
0
LINE
8
BLACK
6
CONTINUOUS
10
58.135
20
59.64
11
58.135
21
58.9
0
LINE
8
BLACK
6
CONTINUOUS
10
57.765
20
59.27
11
58.505
21
59.27
0
LINE
8
BLACK
6
CONTINUOUS
10
58.135
20
58.37
11
58.135
21
57.63
0
LINE
8
BLACK
6
CONTINUOUS
10
57.765
20
58
11
58.505
21
58
0
LINE
8
BLACK
6
CONTINUOUS
10
58.135
20
57.1
11
58.135
21
56.36
0
LINE
8
BLACK
6
CONTINUOUS
10
57.765
20
56.73
11
58.505
21
56.73
0
LINE
8
BLACK
6
CONTINUOUS
10
58.135
20
55.83
11
58.135
21
55.09
0
LINE
8
BLACK
6
CONTINUOUS
10
57.765
20
55.46
11
58.505
21
55.46
0
LINE
8
BLACK
6
CONTINUOUS
10
58.135
20
34.91
11
58.135
21
34.17
0
LINE
8
BLACK
6
CONTINUOUS
10
57.765
20
34.54
11
58.505
21
34.54
0
LINE
8
BLACK
6
CONTINUOUS
10
58.135
20
33.64
11
58.135
21
32.9
0
LINE
8
BLACK
6
CONTINUOUS
10
57.765
20
33.27
11
58.505
21
33.27
0
LINE
8
BLACK
6
CONTINUOUS
10
58.135
20
32.37
11
58.135
21
31.63
0
LINE
8
BLACK
6
CONTINUOUS
10
57.765
20
32
11
58.505
21
32
0
LINE
8
BLACK
6
CONTINUOUS
10
58.135
20
31.1
11
58.135
21
30.36
0
LINE
8
BLACK
6
CONTINUOUS
10
57.765
20
30.73
11
58.505
21
30.73
0
LINE
8
BLACK
6
CONTINUOUS
10
58.135
20
29.83
11
58.135
21
29.09
0
LINE
8
BLACK
6
CONTINUOUS
10
57.765
20
29.46
11
58.505
21
29.46
0
LINE
8
BLACK
6
CONTINUOUS
10
12.5736
20
88.0064
11
12.5736
21
88.7136
0
LINE
8
BLACK
6
CONTINUOUS
10
12.5736
20
88.7136
11
11.8664
21
88.7136
0
LINE
8
BLACK
6
CONTINUOUS
10
11.8664
20
88.7136
11
11.8664
21
88.0064
0
LINE
8
BLACK
6
CONTINUOUS
10
11.8664
20
88.0064
11
12.5736
21
88.0064
0
LINE
8
BLACK
6
CONTINUOUS
10
12.5736
20
85.4664
11
12.5736
21
86.1736
0
LINE
8
BLACK
6
CONTINUOUS
10
12.5736
20
86.1736
11
11.8664
21
86.1736
0
LINE
8
BLACK
6
CONTINUOUS
10
11.8664
20
86.1736
11
11.8664
21
85.4664
0
LINE
8
BLACK
6
CONTINUOUS
10
11.8664
20
85.4664
11
12.5736
21
85.4664
0
LINE
8
BLACK
6
CONTINUOUS
10
12.5736
20
82.9264
11
12.5736
21
83.6336
0
LINE
8
BLACK
6
CONTINUOUS
10
12.5736
20
83.6336
11
11.8664
21
83.6336
0
LINE
8
BLACK
6
CONTINUOUS
10
11.8664
20
83.6336
11
11.8664
21
82.9264
0
LINE
8
BLACK
6
CONTINUOUS
10
11.8664
20
82.9264
11
12.5736
21
82.9264
0
LINE
8
BLACK
6
CONTINUOUS
10
12.5736
20
80.3864
11
12.5736
21
81.0936
0
LINE
8
BLACK
6
CONTINUOUS
10
12.5736
20
81.0936
11
11.8664
21
81.0936
0
LINE
8
BLACK
6
CONTINUOUS
10
11.8664
20
81.0936
11
11.8664
21
80.3864
0
LINE
8
BLACK
6
CONTINUOUS
10
11.8664
20
80.3864
11
12.5736
21
80.3864
0
LINE
8
BLACK
6
CONTINUOUS
10
12.5736
20
77.8464
11
12.5736
21
78.5536
0
LINE
8
BLACK
6
CONTINUOUS
10
12.5736
20
78.5536
11
11.8664
21
78.5536
0
LINE
8
BLACK
6
CONTINUOUS
10
11.8664
20
78.5536
11
11.8664
21
77.8464
0
LINE
8
BLACK
6
CONTINUOUS
10
11.8664
20
77.8464
11
12.5736
21
77.8464
0
LINE
8
BLACK
6
CONTINUOUS
10
12.5736
20
75.3064
11
12.5736
21
76.0136
0
LINE
8
BLACK
6
CONTINUOUS
10
12.5736
20
76.0136
11
11.8664
21
76.0136
0
LINE
8
BLACK
6
CONTINUOUS
10
11.8664
20
76.0136
11
11.8664
21
75.3064
0
LINE
8
BLACK
6
CONTINUOUS
10
11.8664
20
75.3064
11
12.5736
21
75.3064
0
LINE
8
BLACK
6
CONTINUOUS
10
12.5736
20
72.7664
11
12.5736
21
73.4736
0
LINE
8
BLACK
6
CONTINUOUS
10
12.5736
20
73.4736
11
11.8664
21
73.4736
0
LINE
8
BLACK
6
CONTINUOUS
10
11.8664
20
73.4736
11
11.8664
21
72.7664
0
LINE
8
BLACK
6
CONTINUOUS
10
11.8664
20
72.7664
11
12.5736
21
72.7664
0
LINE
8
BLACK
6
CONTINUOUS
10
12.5736
20
70.2264
11
12.5736
21
70.9336
0
LINE
8
BLACK
6
CONTINUOUS
10
12.5736
20
70.9336
11
11.8664
21
70.9336
0
LINE
8
BLACK
6
CONTINUOUS
10
11.8664
20
70.9336
11
11.8664
21
70.2264
0
LINE
8
BLACK
6
CONTINUOUS
10
11.8664
20
70.2264
11
12.5736
21
70.2264
0
LINE
8
BLACK
6
CONTINUOUS
10
12.5736
20
67.6864
11
12.5736
21
68.3936
0
LINE
8
BLACK
6
CONTINUOUS
10
12.5736
20
68.3936
11
11.8664
21
68.3936
0
LINE
8
BLACK
6
CONTINUOUS
10
11.8664
20
68.3936
11
11.8664
21
67.6864
0
LINE
8
BLACK
6
CONTINUOUS
10
11.8664
20
67.6864
11
12.5736
21
67.6864
0
LINE
8
BLACK
6
CONTINUOUS
10
12.5736
20
65.1464
11
12.5736
21
65.8536
0
LINE
8
BLACK
6
CONTINUOUS
10
12.5736
20
65.8536
11
11.8664
21
65.8536
0
LINE
8
BLACK
6
CONTINUOUS
10
11.8664
20
65.8536
11
11.8664
21
65.1464
0
LINE
8
BLACK
6
CONTINUOUS
10
11.8664
20
65.1464
11
12.5736
21
65.1464
0
LINE
8
BLACK
6
CONTINUOUS
10
12.5736
20
62.6064
11
12.5736
21
63.3136
0
LINE
8
BLACK
6
CONTINUOUS
10
12.5736
20
63.3136
11
11.8664
21
63.3136
0
LINE
8
BLACK
6
CONTINUOUS
10
11.8664
20
63.3136
11
11.8664
21
62.6064
0
LINE
8
BLACK
6
CONTINUOUS
10
11.8664
20
62.6064
11
12.5736
21
62.6064
0
LINE
8
BLACK
6
CONTINUOUS
10
12.5736
20
60.0664
11
12.5736
21
60.7736
0
LINE
8
BLACK
6
CONTINUOUS
10
12.5736
20
60.7736
11
11.8664
21
60.7736
0
LINE
8
BLACK
6
CONTINUOUS
10
11.8664
20
60.7736
11
11.8664
21
60.0664
0
LINE
8
BLACK
6
CONTINUOUS
10
11.8664
20
60.0664
11
12.5736
21
60.0664
0
LINE
8
BLACK
6
CONTINUOUS
10
12.5736
20
57.5264
11
12.5736
21
58.2336
0
LINE
8
BLACK
6
CONTINUOUS
10
12.5736
20
58.2336
11
11.8664
21
58.2336
0
LINE
8
BLACK
6
CONTINUOUS
10
11.8664
20
58.2336
11
11.8664
21
57.5264
0
LINE
8
BLACK
6
CONTINUOUS
10
11.8664
20
57.5264
11
12.5736
21
57.5264
0
LINE
8
BLACK
6
CONTINUOUS
10
12.5736
20
54.9864
11
12.5736
21
55.6936
0
LINE
8
BLACK
6
CONTINUOUS
10
12.5736
20
55.6936
11
11.8664
21
55.6936
0
LINE
8
BLACK
6
CONTINUOUS
10
11.8664
20
55.6936
11
11.8664
21
54.9864
0
LINE
8
BLACK
6
CONTINUOUS
10
11.8664
20
54.9864
11
12.5736
21
54.9864
0
LINE
8
BLACK
6
CONTINUOUS
10
12.5736
20
52.4464
11
12.5736
21
53.1536
0
LINE
8
BLACK
6
CONTINUOUS
10
12.5736
20
53.1536
11
11.8664
21
53.1536
0
LINE
8
BLACK
6
CONTINUOUS
10
11.8664
20
53.1536
11
11.8664
21
52.4464
0
LINE
8
BLACK
6
CONTINUOUS
10
11.8664
20
52.4464
11
12.5736
21
52.4464
0
LINE
8
BLACK
6
CONTINUOUS
10
12.5736
20
49.9064
11
12.5736
21
50.6136
0
LINE
8
BLACK
6
CONTINUOUS
10
12.5736
20
50.6136
11
11.8664
21
50.6136
0
LINE
8
BLACK
6
CONTINUOUS
10
11.8664
20
50.6136
11
11.8664
21
49.9064
0
LINE
8
BLACK
6
CONTINUOUS
10
11.8664
20
49.9064
11
12.5736
21
49.9064
0
LINE
8
BLACK
6
CONTINUOUS
10
12.5736
20
47.3664
11
12.5736
21
48.0736
0
LINE
8
BLACK
6
CONTINUOUS
10
12.5736
20
48.0736
11
11.8664
21
48.0736
0
LINE
8
BLACK
6
CONTINUOUS
10
11.8664
20
48.0736
11
11.8664
21
47.3664
0
LINE
8
BLACK
6
CONTINUOUS
10
11.8664
20
47.3664
11
12.5736
21
47.3664
0
LINE
8
BLACK
6
CONTINUOUS
10
12.5736
20
44.8264
11
12.5736
21
45.5336
0
LINE
8
BLACK
6
CONTINUOUS
10
12.5736
20
45.5336
11
11.8664
21
45.5336
0
LINE
8
BLACK
6
CONTINUOUS
10
11.8664
20
45.5336
11
11.8664
21
44.8264
0
LINE
8
BLACK
6
CONTINUOUS
10
11.8664
20
44.8264
11
12.5736
21
44.8264
0
LINE
8
BLACK
6
CONTINUOUS
10
12.5736
20
42.2864
11
12.5736
21
42.9936
0
LINE
8
BLACK
6
CONTINUOUS
10
12.5736
20
42.9936
11
11.8664
21
42.9936
0
LINE
8
BLACK
6
CONTINUOUS
10
11.8664
20
42.9936
11
11.8664
21
42.2864
0
LINE
8
BLACK
6
CONTINUOUS
10
11.8664
20
42.2864
11
12.5736
21
42.2864
0
LINE
8
BLACK
6
CONTINUOUS
10
12.5736
20
39.7464
11
12.5736
21
40.4536
0
LINE
8
BLACK
6
CONTINUOUS
10
12.5736
20
40.4536
11
11.8664
21
40.4536
0
LINE
8
BLACK
6
CONTINUOUS
10
11.8664
20
40.4536
11
11.8664
21
39.7464
0
LINE
8
BLACK
6
CONTINUOUS
10
11.8664
20
39.7464
11
12.5736
21
39.7464
0
LINE
8
BLACK
6
CONTINUOUS
10
15.7994
20
69.5764
11
15.7994
21
70.2836
0
LINE
8
BLACK
6
CONTINUOUS
10
15.7994
20
70.2836
11
15.0922
21
70.2836
0
LINE
8
BLACK
6
CONTINUOUS
10
15.0922
20
70.2836
11
15.0922
21
69.5764
0
LINE
8
BLACK
6
CONTINUOUS
10
15.0922
20
69.5764
11
15.7994
21
69.5764
0
LINE
8
BLACK
6
CONTINUOUS
10
18.3394
20
69.5764
11
18.3394
21
70.2836
0
LINE
8
BLACK
6
CONTINUOUS
10
18.3394
20
70.2836
11
17.6322
21
70.2836
0
LINE
8
BLACK
6
CONTINUOUS
10
17.6322
20
70.2836
11
17.6322
21
69.5764
0
LINE
8
BLACK
6
CONTINUOUS
10
17.6322
20
69.5764
11
18.3394
21
69.5764
0
LINE
8
BLACK
6
CONTINUOUS
10
20.8794
20
69.5764
11
20.8794
21
70.2836
0
LINE
8
BLACK
6
CONTINUOUS
10
20.8794
20
70.2836
11
20.1722
21
70.2836
0
LINE
8
BLACK
6
CONTINUOUS
10
20.1722
20
70.2836
11
20.1722
21
69.5764
0
LINE
8
BLACK
6
CONTINUOUS
10
20.1722
20
69.5764
11
20.8794
21
69.5764
0
LINE
8
BLACK
6
CONTINUOUS
10
30.3536
20
88.0064
11
30.3536
21
88.7136
0
LINE
8
BLACK
6
CONTINUOUS
10
30.3536
20
88.7136
11
29.6464
21
88.7136
0
LINE
8
BLACK
6
CONTINUOUS
10
29.6464
20
88.7136
11
29.6464
21
88.0064
0
LINE
8
BLACK
6
CONTINUOUS
10
29.6464
20
88.0064
11
30.3536
21
88.0064
0
LINE
8
BLACK
6
CONTINUOUS
10
30.3536
20
85.4664
11
30.3536
21
86.1736
0
LINE
8
BLACK
6
CONTINUOUS
10
30.3536
20
86.1736
11
29.6464
21
86.1736
0
LINE
8
BLACK
6
CONTINUOUS
10
29.6464
20
86.1736
11
29.6464
21
85.4664
0
LINE
8
BLACK
6
CONTINUOUS
10
29.6464
20
85.4664
11
30.3536
21
85.4664
0
LINE
8
BLACK
6
CONTINUOUS
10
30.3536
20
82.9264
11
30.3536
21
83.6336
0
LINE
8
BLACK
6
CONTINUOUS
10
30.3536
20
83.6336
11
29.6464
21
83.6336
0
LINE
8
BLACK
6
CONTINUOUS
10
29.6464
20
83.6336
11
29.6464
21
82.9264
0
LINE
8
BLACK
6
CONTINUOUS
10
29.6464
20
82.9264
11
30.3536
21
82.9264
0
LINE
8
BLACK
6
CONTINUOUS
10
30.3536
20
80.3864
11
30.3536
21
81.0936
0
LINE
8
BLACK
6
CONTINUOUS
10
30.3536
20
81.0936
11
29.6464
21
81.0936
0
LINE
8
BLACK
6
CONTINUOUS
10
29.6464
20
81.0936
11
29.6464
21
80.3864
0
LINE
8
BLACK
6
CONTINUOUS
10
29.6464
20
80.3864
11
30.3536
21
80.3864
0
LINE
8
BLACK
6
CONTINUOUS
10
30.3536
20
77.8464
11
30.3536
21
78.5536
0
LINE
8
BLACK
6
CONTINUOUS
10
30.3536
20
78.5536
11
29.6464
21
78.5536
0
LINE
8
BLACK
6
CONTINUOUS
10
29.6464
20
78.5536
11
29.6464
21
77.8464
0
LINE
8
BLACK
6
CONTINUOUS
10
29.6464
20
77.8464
11
30.3536
21
77.8464
0
LINE
8
BLACK
6
CONTINUOUS
10
30.3536
20
75.3064
11
30.3536
21
76.0136
0
LINE
8
BLACK
6
CONTINUOUS
10
30.3536
20
76.0136
11
29.6464
21
76.0136
0
LINE
8
BLACK
6
CONTINUOUS
10
29.6464
20
76.0136
11
29.6464
21
75.3064
0
LINE
8
BLACK
6
CONTINUOUS
10
29.6464
20
75.3064
11
30.3536
21
75.3064
0
LINE
8
BLACK
6
CONTINUOUS
10
30.3536
20
72.7664
11
30.3536
21
73.4736
0
LINE
8
BLACK
6
CONTINUOUS
10
30.3536
20
73.4736
11
29.6464
21
73.4736
0
LINE
8
BLACK
6
CONTINUOUS
10
29.6464
20
73.4736
11
29.6464
21
72.7664
0
LINE
8
BLACK
6
CONTINUOUS
10
29.6464
20
72.7664
11
30.3536
21
72.7664
0
LINE
8
BLACK
6
CONTINUOUS
10
30.3536
20
70.2264
11
30.3536
21
70.9336
0
LINE
8
BLACK
6
CONTINUOUS
10
30.3536
20
70.9336
11
29.6464
21
70.9336
0
LINE
8
BLACK
6
CONTINUOUS
10
29.6464
20
70.9336
11
29.6464
21
70.2264
0
LINE
8
BLACK
6
CONTINUOUS
10
29.6464
20
70.2264
11
30.3536
21
70.2264
0
LINE
8
BLACK
6
CONTINUOUS
10
30.3536
20
67.6864
11
30.3536
21
68.3936
0
LINE
8
BLACK
6
CONTINUOUS
10
30.3536
20
68.3936
11
29.6464
21
68.3936
0
LINE
8
BLACK
6
CONTINUOUS
10
29.6464
20
68.3936
11
29.6464
21
67.6864
0
LINE
8
BLACK
6
CONTINUOUS
10
29.6464
20
67.6864
11
30.3536
21
67.6864
0
LINE
8
BLACK
6
CONTINUOUS
10
30.3536
20
65.1464
11
30.3536
21
65.8536
0
LINE
8
BLACK
6
CONTINUOUS
10
30.3536
20
65.8536
11
29.6464
21
65.8536
0
LINE
8
BLACK
6
CONTINUOUS
10
29.6464
20
65.8536
11
29.6464
21
65.1464
0
LINE
8
BLACK
6
CONTINUOUS
10
29.6464
20
65.1464
11
30.3536
21
65.1464
0
LINE
8
BLACK
6
CONTINUOUS
10
30.3536
20
62.6064
11
30.3536
21
63.3136
0
LINE
8
BLACK
6
CONTINUOUS
10
30.3536
20
63.3136
11
29.6464
21
63.3136
0
LINE
8
BLACK
6
CONTINUOUS
10
29.6464
20
63.3136
11
29.6464
21
62.6064
0
LINE
8
BLACK
6
CONTINUOUS
10
29.6464
20
62.6064
11
30.3536
21
62.6064
0
LINE
8
BLACK
6
CONTINUOUS
10
30.3536
20
60.0664
11
30.3536
21
60.7736
0
LINE
8
BLACK
6
CONTINUOUS
10
30.3536
20
60.7736
11
29.6464
21
60.7736
0
LINE
8
BLACK
6
CONTINUOUS
10
29.6464
20
60.7736
11
29.6464
21
60.0664
0
LINE
8
BLACK
6
CONTINUOUS
10
29.6464
20
60.0664
11
30.3536
21
60.0664
0
LINE
8
BLACK
6
CONTINUOUS
10
30.3536
20
57.5264
11
30.3536
21
58.2336
0
LINE
8
BLACK
6
CONTINUOUS
10
30.3536
20
58.2336
11
29.6464
21
58.2336
0
LINE
8
BLACK
6
CONTINUOUS
10
29.6464
20
58.2336
11
29.6464
21
57.5264
0
LINE
8
BLACK
6
CONTINUOUS
10
29.6464
20
57.5264
11
30.3536
21
57.5264
0
LINE
8
BLACK
6
CONTINUOUS
10
30.3536
20
54.9864
11
30.3536
21
55.6936
0
LINE
8
BLACK
6
CONTINUOUS
10
30.3536
20
55.6936
11
29.6464
21
55.6936
0
LINE
8
BLACK
6
CONTINUOUS
10
29.6464
20
55.6936
11
29.6464
21
54.9864
0
LINE
8
BLACK
6
CONTINUOUS
10
29.6464
20
54.9864
11
30.3536
21
54.9864
0
LINE
8
BLACK
6
CONTINUOUS
10
30.3536
20
52.4464
11
30.3536
21
53.1536
0
LINE
8
BLACK
6
CONTINUOUS
10
30.3536
20
53.1536
11
29.6464
21
53.1536
0
LINE
8
BLACK
6
CONTINUOUS
10
29.6464
20
53.1536
11
29.6464
21
52.4464
0
LINE
8
BLACK
6
CONTINUOUS
10
29.6464
20
52.4464
11
30.3536
21
52.4464
0
LINE
8
BLACK
6
CONTINUOUS
10
30.3536
20
49.9064
11
30.3536
21
50.6136
0
LINE
8
BLACK
6
CONTINUOUS
10
30.3536
20
50.6136
11
29.6464
21
50.6136
0
LINE
8
BLACK
6
CONTINUOUS
10
29.6464
20
50.6136
11
29.6464
21
49.9064
0
LINE
8
BLACK
6
CONTINUOUS
10
29.6464
20
49.9064
11
30.3536
21
49.9064
0
LINE
8
BLACK
6
CONTINUOUS
10
30.3536
20
47.3664
11
30.3536
21
48.0736
0
LINE
8
BLACK
6
CONTINUOUS
10
30.3536
20
48.0736
11
29.6464
21
48.0736
0
LINE
8
BLACK
6
CONTINUOUS
10
29.6464
20
48.0736
11
29.6464
21
47.3664
0
LINE
8
BLACK
6
CONTINUOUS
10
29.6464
20
47.3664
11
30.3536
21
47.3664
0
LINE
8
BLACK
6
CONTINUOUS
10
30.3536
20
44.8264
11
30.3536
21
45.5336
0
LINE
8
BLACK
6
CONTINUOUS
10
30.3536
20
45.5336
11
29.6464
21
45.5336
0
LINE
8
BLACK
6
CONTINUOUS
10
29.6464
20
45.5336
11
29.6464
21
44.8264
0
LINE
8
BLACK
6
CONTINUOUS
10
29.6464
20
44.8264
11
30.3536
21
44.8264
0
LINE
8
BLACK
6
CONTINUOUS
10
30.3536
20
42.2864
11
30.3536
21
42.9936
0
LINE
8
BLACK
6
CONTINUOUS
10
30.3536
20
42.9936
11
29.6464
21
42.9936
0
LINE
8
BLACK
6
CONTINUOUS
10
29.6464
20
42.9936
11
29.6464
21
42.2864
0
LINE
8
BLACK
6
CONTINUOUS
10
29.6464
20
42.2864
11
30.3536
21
42.2864
0
LINE
8
BLACK
6
CONTINUOUS
10
30.3536
20
39.7464
11
30.3536
21
40.4536
0
LINE
8
BLACK
6
CONTINUOUS
10
30.3536
20
40.4536
11
29.6464
21
40.4536
0
LINE
8
BLACK
6
CONTINUOUS
10
29.6464
20
40.4536
11
29.6464
21
39.7464
0
LINE
8
BLACK
6
CONTINUOUS
10
29.6464
20
39.7464
11
30.3536
21
39.7464
0
LINE
8
BLACK
6
CONTINUOUS
10
50.5
20
68.36
11
51.14
21
69
0
LINE
8
BLACK
6
CONTINUOUS
10
51.14
20
69
11
50.5
21
69.64
0
LINE
8
BLACK
6
CONTINUOUS
10
50.5
20
69.64
11
49.86
21
69
0
LINE
8
BLACK
6
CONTINUOUS
10
49.86
20
69
11
50.5
21
68.36
0
LINE
8
BLACK
6
CONTINUOUS
10
50.5
20
65.82
11
51.14
21
66.46
0
LINE
8
BLACK
6
CONTINUOUS
10
51.14
20
66.46
11
50.5
21
67.1
0
LINE
8
BLACK
6
CONTINUOUS
10
50.5
20
67.1
11
49.86
21
66.46
0
LINE
8
BLACK
6
CONTINUOUS
10
49.86
20
66.46
11
50.5
21
65.82
0
LINE
8
BLACK
6
CONTINUOUS
10
50.5
20
63.28
11
51.14
21
63.92
0
LINE
8
BLACK
6
CONTINUOUS
10
51.14
20
63.92
11
50.5
21
64.56
0
LINE
8
BLACK
6
CONTINUOUS
10
50.5
20
64.56
11
49.86
21
63.92
0
LINE
8
BLACK
6
CONTINUOUS
10
49.86
20
63.92
11
50.5
21
63.28
0
LINE
8
BLACK
6
CONTINUOUS
10
3.4
20
86.6
11
6.6
21
83.4
0
LINE
8
BLACK
6
CONTINUOUS
10
6.6
20
86.6
11
3.4
21
83.4
0
CIRCLE
8
BLACK
10
5
20
85
40
1.6
0
LINE
8
BLACK
6
CONTINUOUS
10
3.4
20
6.6
11
6.6
21
3.4
0
LINE
8
BLACK
6
CONTINUOUS
10
6.6
20
6.6
11
3.4
21
3.4
0
CIRCLE
8
BLACK
10
5
20
5
40
1.6
0
LINE
8
BLACK
6
CONTINUOUS
10
58.4
20
46.6
11
61.6
21
43.4
0
LINE
8
BLACK
6
CONTINUOUS
10
61.6
20
46.6
11
58.4
21
43.4
0
CIRCLE
8
BLACK
10
60
20
45
40
1.6
0
LINE
8
BLACK
6
CONTINUOUS
10
2.57119
20
-3.10976
11
2.57119
21
-1.10976
0
LINE
8
BLACK
6
CONTINUOUS
10
2.57119
20
-1.10976
11
3.04738
21
-1.10976
0
LINE
8
BLACK
6
CONTINUOUS
10
3.04738
20
-1.10976
11
3.33309
21
-1.205
0
LINE
8
BLACK
6
CONTINUOUS
10
3.33309
20
-1.205
11
3.52357
21
-1.39548
0
LINE
8
BLACK
6
CONTINUOUS
10
3.52357
20
-1.39548
11
3.61881
21
-1.58595
0
LINE
8
BLACK
6
CONTINUOUS
10
3.61881
20
-1.58595
11
3.71405
21
-1.9669
0
LINE
8
BLACK
6
CONTINUOUS
10
3.71405
20
-1.9669
11
3.71405
21
-2.25262
0
LINE
8
BLACK
6
CONTINUOUS
10
3.71405
20
-2.25262
11
3.61881
21
-2.63357
0
LINE
8
BLACK
6
CONTINUOUS
10
3.61881
20
-2.63357
11
3.52357
21
-2.82405
0
LINE
8
BLACK
6
CONTINUOUS
10
3.52357
20
-2.82405
11
3.33309
21
-3.01452
0
LINE
8
BLACK
6
CONTINUOUS
10
3.33309
20
-3.01452
11
3.04738
21
-3.10976
0
LINE
8
BLACK
6
CONTINUOUS
10
3.04738
20
-3.10976
11
2.57119
21
-3.10976
0
LINE
8
BLACK
6
CONTINUOUS
10
4.57119
20
-3.10976
11
4.57119
21
-1.77643
0
LINE
8
BLACK
6
CONTINUOUS
10
4.57119
20
-2.15738
11
4.66643
21
-1.9669
0
LINE
8
BLACK
6
CONTINUOUS
10
4.66643
20
-1.9669
11
4.76167
21
-1.87167
0
LINE
8
BLACK
6
CONTINUOUS
10
4.76167
20
-1.87167
11
4.95214
21
-1.77643
0
LINE
8
BLACK
6
CONTINUOUS
10
4.95214
20
-1.77643
11
5.14262
21
-1.77643
0
LINE
8
BLACK
6
CONTINUOUS
10
5.80929
20
-3.10976
11
5.80929
21
-1.77643
0
LINE
8
BLACK
6
CONTINUOUS
10
5.80929
20
-1.10976
11
5.71405
21
-1.205
0
LINE
8
BLACK
6
CONTINUOUS
10
5.71405
20
-1.205
11
5.80929
21
-1.30024
0
LINE
8
BLACK
6
CONTINUOUS
10
5.80929
20
-1.30024
11
5.90452
21
-1.205
0
LINE
8
BLACK
6
CONTINUOUS
10
5.90452
20
-1.205
11
5.80929
21
-1.10976
0
LINE
8
BLACK
6
CONTINUOUS
10
5.80929
20
-1.10976
11
5.80929
21
-1.30024
0
LINE
8
BLACK
6
CONTINUOUS
10
7.04738
20
-3.10976
11
6.8569
21
-3.01452
0
LINE
8
BLACK
6
CONTINUOUS
10
6.8569
20
-3.01452
11
6.76167
21
-2.82405
0
LINE
8
BLACK
6
CONTINUOUS
10
6.76167
20
-2.82405
11
6.76167
21
-1.10976
0
LINE
8
BLACK
6
CONTINUOUS
10
8.095
20
-3.10976
11
7.90452
21
-3.01452
0
LINE
8
BLACK
6
CONTINUOUS
10
7.90452
20
-3.01452
11
7.80929
21
-2.82405
0
LINE
8
BLACK
6
CONTINUOUS
10
7.80929
20
-2.82405
11
7.80929
21
-1.10976
0
LINE
8
BLACK
6
CONTINUOUS
10
10.3807
20
-3.10976
11
10.3807
21
-1.10976
0
LINE
8
BLACK
6
CONTINUOUS
10
10.3807
20
-1.10976
11
11.0474
21
-2.53833
0
LINE
8
BLACK
6
CONTINUOUS
10
11.0474
20
-2.53833
11
11.714
21
-1.10976
0
LINE
8
BLACK
6
CONTINUOUS
10
11.714
20
-1.10976
11
11.714
21
-3.10976
0
LINE
8
BLACK
6
CONTINUOUS
10
13.5236
20
-3.10976
11
13.5236
21
-2.06214
0
LINE
8
BLACK
6
CONTINUOUS
10
13.5236
20
-2.06214
11
13.4283
21
-1.87167
0
LINE
8
BLACK
6
CONTINUOUS
10
13.4283
20
-1.87167
11
13.2379
21
-1.77643
0
LINE
8
BLACK
6
CONTINUOUS
10
13.2379
20
-1.77643
11
12.8569
21
-1.77643
0
LINE
8
BLACK
6
CONTINUOUS
10
12.8569
20
-1.77643
11
12.6664
21
-1.87167
0
LINE
8
BLACK
6
CONTINUOUS
10
13.5236
20
-3.01452
11
13.3331
21
-3.10976
0
LINE
8
BLACK
6
CONTINUOUS
10
13.3331
20
-3.10976
11
12.8569
21
-3.10976
0
LINE
8
BLACK
6
CONTINUOUS
10
12.8569
20
-3.10976
11
12.6664
21
-3.01452
0
LINE
8
BLACK
6
CONTINUOUS
10
12.6664
20
-3.01452
11
12.5712
21
-2.82405
0
LINE
8
BLACK
6
CONTINUOUS
10
12.5712
20
-2.82405
11
12.5712
21
-2.63357
0
LINE
8
BLACK
6
CONTINUOUS
10
12.5712
20
-2.63357
11
12.6664
21
-2.4431
0
LINE
8
BLACK
6
CONTINUOUS
10
12.6664
20
-2.4431
11
12.8569
21
-2.34786
0
LINE
8
BLACK
6
CONTINUOUS
10
12.8569
20
-2.34786
11
13.3331
21
-2.34786
0
LINE
8
BLACK
6
CONTINUOUS
10
13.3331
20
-2.34786
11
13.5236
21
-2.25262
0
LINE
8
BLACK
6
CONTINUOUS
10
14.476
20
-1.77643
11
14.476
21
-3.77643
0
LINE
8
BLACK
6
CONTINUOUS
10
14.476
20
-1.87167
11
14.6664
21
-1.77643
0
LINE
8
BLACK
6
CONTINUOUS
10
14.6664
20
-1.77643
11
15.0474
21
-1.77643
0
LINE
8
BLACK
6
CONTINUOUS
10
15.0474
20
-1.77643
11
15.2379
21
-1.87167
0
LINE
8
BLACK
6
CONTINUOUS
10
15.2379
20
-1.87167
11
15.3331
21
-1.9669
0
LINE
8
BLACK
6
CONTINUOUS
10
15.3331
20
-1.9669
11
15.4283
21
-2.15738
0
LINE
8
BLACK
6
CONTINUOUS
10
15.4283
20
-2.15738
11
15.4283
21
-2.72881
0
LINE
8
BLACK
6
CONTINUOUS
10
15.4283
20
-2.72881
11
15.3331
21
-2.91928
0
LINE
8
BLACK
6
CONTINUOUS
10
15.3331
20
-2.91928
11
15.2379
21
-3.01452
0
LINE
8
BLACK
6
CONTINUOUS
10
15.2379
20
-3.01452
11
15.0474
21
-3.10976
0
LINE
8
BLACK
6
CONTINUOUS
10
15.0474
20
-3.10976
11
14.6664
21
-3.10976
0
LINE
8
BLACK
6
CONTINUOUS
10
14.6664
20
-3.10976
11
14.476
21
-3.01452
0
LINE
8
BLACK
6
CONTINUOUS
10
16.2855
20
-2.91928
11
16.3807
21
-3.01452
0
LINE
8
BLACK
6
CONTINUOUS
10
16.3807
20
-3.01452
11
16.2855
21
-3.10976
0
LINE
8
BLACK
6
CONTINUOUS
10
16.2855
20
-3.10976
11
16.1902
21
-3.01452
0
LINE
8
BLACK
6
CONTINUOUS
10
16.1902
20
-3.01452
11
16.2855
21
-2.91928
0
LINE
8
BLACK
6
CONTINUOUS
10
16.2855
20
-2.91928
11
16.2855
21
-3.10976
0
LINE
8
BLACK
6
CONTINUOUS
10
16.2855
20
-1.87167
11
16.3807
21
-1.9669
0
LINE
8
BLACK
6
CONTINUOUS
10
16.3807
20
-1.9669
11
16.2855
21
-2.06214
0
LINE
8
BLACK
6
CONTINUOUS
10
16.2855
20
-2.06214
11
16.1902
21
-1.9669
0
LINE
8
BLACK
6
CONTINUOUS
10
16.1902
20
-1.9669
11
16.2855
21
-1.87167
0
LINE
8
BLACK
6
CONTINUOUS
10
16.2855
20
-1.87167
11
16.2855
21
-2.06214
0
LINE
8
BLACK
6
CONTINUOUS
10
-0.405
20
-6.205
11
-0.005
21
-6.605
0
LINE
8
BLACK
6
CONTINUOUS
10
-0.005
20
-6.205
11
-0.405
21
-6.605
0
LINE
8
BLACK
6
CONTINUOUS
10
2.95214
20
-5.30976
11
3.14262
21
-5.30976
0
LINE
8
BLACK
6
CONTINUOUS
10
3.14262
20
-5.30976
11
3.33309
21
-5.405
0
LINE
8
BLACK
6
CONTINUOUS
10
3.33309
20
-5.405
11
3.42833
21
-5.50024
0
LINE
8
BLACK
6
CONTINUOUS
10
3.42833
20
-5.50024
11
3.52357
21
-5.69071
0
LINE
8
BLACK
6
CONTINUOUS
10
3.52357
20
-5.69071
11
3.61881
21
-6.07167
0
LINE
8
BLACK
6
CONTINUOUS
10
3.61881
20
-6.07167
11
3.61881
21
-6.54786
0
LINE
8
BLACK
6
CONTINUOUS
10
3.61881
20
-6.54786
11
3.52357
21
-6.92881
0
LINE
8
BLACK
6
CONTINUOUS
10
3.52357
20
-6.92881
11
3.42833
21
-7.11928
0
LINE
8
BLACK
6
CONTINUOUS
10
3.42833
20
-7.11928
11
3.33309
21
-7.21452
0
LINE
8
BLACK
6
CONTINUOUS
10
3.33309
20
-7.21452
11
3.14262
21
-7.30976
0
LINE
8
BLACK
6
CONTINUOUS
10
3.14262
20
-7.30976
11
2.95214
21
-7.30976
0
LINE
8
BLACK
6
CONTINUOUS
10
2.95214
20
-7.30976
11
2.76167
21
-7.21452
0
LINE
8
BLACK
6
CONTINUOUS
10
2.76167
20
-7.21452
11
2.66643
21
-7.11928
0
LINE
8
BLACK
6
CONTINUOUS
10
2.66643
20
-7.11928
11
2.57119
21
-6.92881
0
LINE
8
BLACK
6
CONTINUOUS
10
2.57119
20
-6.92881
11
2.47595
21
-6.54786
0
LINE
8
BLACK
6
CONTINUOUS
10
2.47595
20
-6.54786
11
2.47595
21
-6.07167
0
LINE
8
BLACK
6
CONTINUOUS
10
2.47595
20
-6.07167
11
2.57119
21
-5.69071
0
LINE
8
BLACK
6
CONTINUOUS
10
2.57119
20
-5.69071
11
2.66643
21
-5.50024
0
LINE
8
BLACK
6
CONTINUOUS
10
2.66643
20
-5.50024
11
2.76167
21
-5.405
0
LINE
8
BLACK
6
CONTINUOUS
10
2.76167
20
-5.405
11
2.95214
21
-5.30976
0
LINE
8
BLACK
6
CONTINUOUS
10
4.47595
20
-7.11928
11
4.57119
21
-7.21452
0
LINE
8
BLACK
6
CONTINUOUS
10
4.57119
20
-7.21452
11
4.47595
21
-7.30976
0
LINE
8
BLACK
6
CONTINUOUS
10
4.47595
20
-7.30976
11
4.38071
21
-7.21452
0
LINE
8
BLACK
6
CONTINUOUS
10
4.38071
20
-7.21452
11
4.47595
21
-7.11928
0
LINE
8
BLACK
6
CONTINUOUS
10
4.47595
20
-7.11928
11
4.47595
21
-7.30976
0
LINE
8
BLACK
6
CONTINUOUS
10
6.28548
20
-5.97643
11
6.28548
21
-7.30976
0
LINE
8
BLACK
6
CONTINUOUS
10
5.80929
20
-5.21452
11
5.3331
21
-6.64309
0
LINE
8
BLACK
6
CONTINUOUS
10
5.3331
20
-6.64309
11
6.57119
21
-6.64309
0
LINE
8
BLACK
6
CONTINUOUS
10
7.71405
20
-5.30976
11
7.90452
21
-5.30976
0
LINE
8
BLACK
6
CONTINUOUS
10
7.90452
20
-5.30976
11
8.095
21
-5.405
0
LINE
8
BLACK
6
CONTINUOUS
10
8.095
20
-5.405
11
8.19024
21
-5.50024
0
LINE
8
BLACK
6
CONTINUOUS
10
8.19024
20
-5.50024
11
8.28548
21
-5.69071
0
LINE
8
BLACK
6
CONTINUOUS
10
8.28548
20
-5.69071
11
8.38071
21
-6.07167
0
LINE
8
BLACK
6
CONTINUOUS
10
8.38071
20
-6.07167
11
8.38071
21
-6.54786
0
LINE
8
BLACK
6
CONTINUOUS
10
8.38071
20
-6.54786
11
8.28548
21
-6.92881
0
LINE
8
BLACK
6
CONTINUOUS
10
8.28548
20
-6.92881
11
8.19024
21
-7.11928
0
LINE
8
BLACK
6
CONTINUOUS
10
8.19024
20
-7.11928
11
8.095
21
-7.21452
0
LINE
8
BLACK
6
CONTINUOUS
10
8.095
20
-7.21452
11
7.90452
21
-7.30976
0
LINE
8
BLACK
6
CONTINUOUS
10
7.90452
20
-7.30976
11
7.71405
21
-7.30976
0
LINE
8
BLACK
6
CONTINUOUS
10
7.71405
20
-7.30976
11
7.52357
21
-7.21452
0
LINE
8
BLACK
6
CONTINUOUS
10
7.52357
20
-7.21452
11
7.42833
21
-7.11928
0
LINE
8
BLACK
6
CONTINUOUS
10
7.42833
20
-7.11928
11
7.33309
21
-6.92881
0
LINE
8
BLACK
6
CONTINUOUS
10
7.33309
20
-6.92881
11
7.23786
21
-6.54786
0
LINE
8
BLACK
6
CONTINUOUS
10
7.23786
20
-6.54786
11
7.23786
21
-6.07167
0
LINE
8
BLACK
6
CONTINUOUS
10
7.23786
20
-6.07167
11
7.33309
21
-5.69071
0
LINE
8
BLACK
6
CONTINUOUS
10
7.33309
20
-5.69071
11
7.42833
21
-5.50024
0
LINE
8
BLACK
6
CONTINUOUS
10
7.42833
20
-5.50024
11
7.52357
21
-5.405
0
LINE
8
BLACK
6
CONTINUOUS
10
7.52357
20
-5.405
11
7.71405
21
-5.30976
0
LINE
8
BLACK
6
CONTINUOUS
10
9.61881
20
-5.30976
11
9.80928
21
-5.30976
0
LINE
8
BLACK
6
CONTINUOUS
10
9.80928
20
-5.30976
11
9.99976
21
-5.405
0
LINE
8
BLACK
6
CONTINUOUS
10
9.99976
20
-5.405
11
10.095
21
-5.50024
0
LINE
8
BLACK
6
CONTINUOUS
10
10.095
20
-5.50024
11
10.1902
21
-5.69071
0
LINE
8
BLACK
6
CONTINUOUS
10
10.1902
20
-5.69071
11
10.2855
21
-6.07167
0
LINE
8
BLACK
6
CONTINUOUS
10
10.2855
20
-6.07167
11
10.2855
21
-6.54786
0
LINE
8
BLACK
6
CONTINUOUS
10
10.2855
20
-6.54786
11
10.1902
21
-6.92881
0
LINE
8
BLACK
6
CONTINUOUS
10
10.1902
20
-6.92881
11
10.095
21
-7.11928
0
LINE
8
BLACK
6
CONTINUOUS
10
10.095
20
-7.11928
11
9.99976
21
-7.21452
0
LINE
8
BLACK
6
CONTINUOUS
10
9.99976
20
-7.21452
11
9.80928
21
-7.30976
0
LINE
8
BLACK
6
CONTINUOUS
10
9.80928
20
-7.30976
11
9.61881
21
-7.30976
0
LINE
8
BLACK
6
CONTINUOUS
10
9.61881
20
-7.30976
11
9.42833
21
-7.21452
0
LINE
8
BLACK
6
CONTINUOUS
10
9.42833
20
-7.21452
11
9.3331
21
-7.11928
0
LINE
8
BLACK
6
CONTINUOUS
10
9.3331
20
-7.11928
11
9.23786
21
-6.92881
0
LINE
8
BLACK
6
CONTINUOUS
10
9.23786
20
-6.92881
11
9.14262
21
-6.54786
0
LINE
8
BLACK
6
CONTINUOUS
10
9.14262
20
-6.54786
11
9.14262
21
-6.07167
0
LINE
8
BLACK
6
CONTINUOUS
10
9.14262
20
-6.07167
11
9.23786
21
-5.69071
0
LINE
8
BLACK
6
CONTINUOUS
10
9.23786
20
-5.69071
11
9.3331
21
-5.50024
0
LINE
8
BLACK
6
CONTINUOUS
10
9.3331
20
-5.50024
11
9.42833
21
-5.405
0
LINE
8
BLACK
6
CONTINUOUS
10
9.42833
20
-5.405
11
9.61881
21
-5.30976
0
LINE
8
BLACK
6
CONTINUOUS
10
11.1426
20
-7.30976
11
11.1426
21
-5.97643
0
LINE
8
BLACK
6
CONTINUOUS
10
11.1426
20
-6.1669
11
11.2379
21
-6.07167
0
LINE
8
BLACK
6
CONTINUOUS
10
11.2379
20
-6.07167
11
11.4283
21
-5.97643
0
LINE
8
BLACK
6
CONTINUOUS
10
11.4283
20
-5.97643
11
11.714
21
-5.97643
0
LINE
8
BLACK
6
CONTINUOUS
10
11.714
20
-5.97643
11
11.9045
21
-6.07167
0
LINE
8
BLACK
6
CONTINUOUS
10
11.9045
20
-6.07167
11
11.9998
21
-6.26214
0
LINE
8
BLACK
6
CONTINUOUS
10
11.9998
20
-6.26214
11
11.9998
21
-7.30976
0
LINE
8
BLACK
6
CONTINUOUS
10
11.9998
20
-6.26214
11
12.095
21
-6.07167
0
LINE
8
BLACK
6
CONTINUOUS
10
12.095
20
-6.07167
11
12.2855
21
-5.97643
0
LINE
8
BLACK
6
CONTINUOUS
10
12.2855
20
-5.97643
11
12.5712
21
-5.97643
0
LINE
8
BLACK
6
CONTINUOUS
10
12.5712
20
-5.97643
11
12.7617
21
-6.07167
0
LINE
8
BLACK
6
CONTINUOUS
10
12.7617
20
-6.07167
11
12.8569
21
-6.26214
0
LINE
8
BLACK
6
CONTINUOUS
10
12.8569
20
-6.26214
11
12.8569
21
-7.30976
0
LINE
8
BLACK
6
CONTINUOUS
10
13.8093
20
-7.30976
11
13.8093
21
-5.97643
0
LINE
8
BLACK
6
CONTINUOUS
10
13.8093
20
-6.1669
11
13.9045
21
-6.07167
0
LINE
8
BLACK
6
CONTINUOUS
10
13.9045
20
-6.07167
11
14.095
21
-5.97643
0
LINE
8
BLACK
6
CONTINUOUS
10
14.095
20
-5.97643
11
14.3807
21
-5.97643
0
LINE
8
BLACK
6
CONTINUOUS
10
14.3807
20
-5.97643
11
14.5712
21
-6.07167
0
LINE
8
BLACK
6
CONTINUOUS
10
14.5712
20
-6.07167
11
14.6664
21
-6.26214
0
LINE
8
BLACK
6
CONTINUOUS
10
14.6664
20
-6.26214
11
14.6664
21
-7.30976
0
LINE
8
BLACK
6
CONTINUOUS
10
14.6664
20
-6.26214
11
14.7617
21
-6.07167
0
LINE
8
BLACK
6
CONTINUOUS
10
14.7617
20
-6.07167
11
14.9521
21
-5.97643
0
LINE
8
BLACK
6
CONTINUOUS
10
14.9521
20
-5.97643
11
15.2379
21
-5.97643
0
LINE
8
BLACK
6
CONTINUOUS
10
15.2379
20
-5.97643
11
15.4283
21
-6.07167
0
LINE
8
BLACK
6
CONTINUOUS
10
15.4283
20
-6.07167
11
15.5236
21
-6.26214
0
LINE
8
BLACK
6
CONTINUOUS
10
15.5236
20
-6.26214
11
15.5236
21
-7.30976
0
LINE
8
BLACK
6
CONTINUOUS
10
19.4283
20
-5.21452
11
17.714
21
-7.78595
0
LINE
8
BLACK
6
CONTINUOUS
10
21.9998
20
-5.30976
11
22.1902
21
-5.30976
0
LINE
8
BLACK
6
CONTINUOUS
10
22.1902
20
-5.30976
11
22.3807
21
-5.405
0
LINE
8
BLACK
6
CONTINUOUS
10
22.3807
20
-5.405
11
22.476
21
-5.50024
0
LINE
8
BLACK
6
CONTINUOUS
10
22.476
20
-5.50024
11
22.5712
21
-5.69071
0
LINE
8
BLACK
6
CONTINUOUS
10
22.5712
20
-5.69071
11
22.6664
21
-6.07167
0
LINE
8
BLACK
6
CONTINUOUS
10
22.6664
20
-6.07167
11
22.6664
21
-6.54786
0
LINE
8
BLACK
6
CONTINUOUS
10
22.6664
20
-6.54786
11
22.5712
21
-6.92881
0
LINE
8
BLACK
6
CONTINUOUS
10
22.5712
20
-6.92881
11
22.476
21
-7.11928
0
LINE
8
BLACK
6
CONTINUOUS
10
22.476
20
-7.11928
11
22.3807
21
-7.21452
0
LINE
8
BLACK
6
CONTINUOUS
10
22.3807
20
-7.21452
11
22.1902
21
-7.30976
0
LINE
8
BLACK
6
CONTINUOUS
10
22.1902
20
-7.30976
11
21.9998
21
-7.30976
0
LINE
8
BLACK
6
CONTINUOUS
10
21.9998
20
-7.30976
11
21.8093
21
-7.21452
0
LINE
8
BLACK
6
CONTINUOUS
10
21.8093
20
-7.21452
11
21.714
21
-7.11928
0
LINE
8
BLACK
6
CONTINUOUS
10
21.714
20
-7.11928
11
21.6188
21
-6.92881
0
LINE
8
BLACK
6
CONTINUOUS
10
21.6188
20
-6.92881
11
21.5236
21
-6.54786
0
LINE
8
BLACK
6
CONTINUOUS
10
21.5236
20
-6.54786
11
21.5236
21
-6.07167
0
LINE
8
BLACK
6
CONTINUOUS
10
21.5236
20
-6.07167
11
21.6188
21
-5.69071
0
LINE
8
BLACK
6
CONTINUOUS
10
21.6188
20
-5.69071
11
21.714
21
-5.50024
0
LINE
8
BLACK
6
CONTINUOUS
10
21.714
20
-5.50024
11
21.8093
21
-5.405
0
LINE
8
BLACK
6
CONTINUOUS
10
21.8093
20
-5.405
11
21.9998
21
-5.30976
0
LINE
8
BLACK
6
CONTINUOUS
10
23.5236
20
-7.11928
11
23.6188
21
-7.21452
0
LINE
8
BLACK
6
CONTINUOUS
10
23.6188
20
-7.21452
11
23.5236
21
-7.30976
0
LINE
8
BLACK
6
CONTINUOUS
10
23.5236
20
-7.30976
11
23.4283
21
-7.21452
0
LINE
8
BLACK
6
CONTINUOUS
10
23.4283
20
-7.21452
11
23.5236
21
-7.11928
0
LINE
8
BLACK
6
CONTINUOUS
10
23.5236
20
-7.11928
11
23.5236
21
-7.30976
0
LINE
8
BLACK
6
CONTINUOUS
10
24.8569
20
-5.30976
11
25.0474
21
-5.30976
0
LINE
8
BLACK
6
CONTINUOUS
10
25.0474
20
-5.30976
11
25.2379
21
-5.405
0
LINE
8
BLACK
6
CONTINUOUS
10
25.2379
20
-5.405
11
25.3331
21
-5.50024
0
LINE
8
BLACK
6
CONTINUOUS
10
25.3331
20
-5.50024
11
25.4283
21
-5.69071
0
LINE
8
BLACK
6
CONTINUOUS
10
25.4283
20
-5.69071
11
25.5236
21
-6.07167
0
LINE
8
BLACK
6
CONTINUOUS
10
25.5236
20
-6.07167
11
25.5236
21
-6.54786
0
LINE
8
BLACK
6
CONTINUOUS
10
25.5236
20
-6.54786
11
25.4283
21
-6.92881
0
LINE
8
BLACK
6
CONTINUOUS
10
25.4283
20
-6.92881
11
25.3331
21
-7.11928
0
LINE
8
BLACK
6
CONTINUOUS
10
25.3331
20
-7.11928
11
25.2379
21
-7.21452
0
LINE
8
BLACK
6
CONTINUOUS
10
25.2379
20
-7.21452
11
25.0474
21
-7.30976
0
LINE
8
BLACK
6
CONTINUOUS
10
25.0474
20
-7.30976
11
24.8569
21
-7.30976
0
LINE
8
BLACK
6
CONTINUOUS
10
24.8569
20
-7.30976
11
24.6664
21
-7.21452
0
LINE
8
BLACK
6
CONTINUOUS
10
24.6664
20
-7.21452
11
24.5712
21
-7.11928
0
LINE
8
BLACK
6
CONTINUOUS
10
24.5712
20
-7.11928
11
24.476
21
-6.92881
0
LINE
8
BLACK
6
CONTINUOUS
10
24.476
20
-6.92881
11
24.3807
21
-6.54786
0
LINE
8
BLACK
6
CONTINUOUS
10
24.3807
20
-6.54786
11
24.3807
21
-6.07167
0
LINE
8
BLACK
6
CONTINUOUS
10
24.3807
20
-6.07167
11
24.476
21
-5.69071
0
LINE
8
BLACK
6
CONTINUOUS
10
24.476
20
-5.69071
11
24.5712
21
-5.50024
0
LINE
8
BLACK
6
CONTINUOUS
10
24.5712
20
-5.50024
11
24.6664
21
-5.405
0
LINE
8
BLACK
6
CONTINUOUS
10
24.6664
20
-5.405
11
24.8569
21
-5.30976
0
LINE
8
BLACK
6
CONTINUOUS
10
27.4283
20
-7.30976
11
26.2855
21
-7.30976
0
LINE
8
BLACK
6
CONTINUOUS
10
26.8569
20
-7.30976
11
26.8569
21
-5.30976
0
LINE
8
BLACK
6
CONTINUOUS
10
26.8569
20
-5.30976
11
26.6664
21
-5.59548
0
LINE
8
BLACK
6
CONTINUOUS
10
26.6664
20
-5.59548
11
26.476
21
-5.78595
0
LINE
8
BLACK
6
CONTINUOUS
10
26.476
20
-5.78595
11
26.2855
21
-5.88119
0
LINE
8
BLACK
6
CONTINUOUS
10
29.2379
20
-5.30976
11
28.2855
21
-5.30976
0
LINE
8
BLACK
6
CONTINUOUS
10
28.2855
20
-5.30976
11
28.1902
21
-6.26214
0
LINE
8
BLACK
6
CONTINUOUS
10
28.1902
20
-6.26214
11
28.2855
21
-6.1669
0
LINE
8
BLACK
6
CONTINUOUS
10
28.2855
20
-6.1669
11
28.476
21
-6.07167
0
LINE
8
BLACK
6
CONTINUOUS
10
28.476
20
-6.07167
11
28.9521
21
-6.07167
0
LINE
8
BLACK
6
CONTINUOUS
10
28.9521
20
-6.07167
11
29.1426
21
-6.1669
0
LINE
8
BLACK
6
CONTINUOUS
10
29.1426
20
-6.1669
11
29.2379
21
-6.26214
0
LINE
8
BLACK
6
CONTINUOUS
10
29.2379
20
-6.26214
11
29.3331
21
-6.45262
0
LINE
8
BLACK
6
CONTINUOUS
10
29.3331
20
-6.45262
11
29.3331
21
-6.92881
0
LINE
8
BLACK
6
CONTINUOUS
10
29.3331
20
-6.92881
11
29.2379
21
-7.11928
0
LINE
8
BLACK
6
CONTINUOUS
10
29.2379
20
-7.11928
11
29.1426
21
-7.21452
0
LINE
8
BLACK
6
CONTINUOUS
10
29.1426
20
-7.21452
11
28.9521
21
-7.30976
0
LINE
8
BLACK
6
CONTINUOUS
10
28.9521
20
-7.30976
11
28.476
21
-7.30976
0
LINE
8
BLACK
6
CONTINUOUS
10
28.476
20
-7.30976
11
28.2855
21
-7.21452
0
LINE
8
BLACK
6
CONTINUOUS
10
28.2855
20
-7.21452
11
28.1902
21
-7.11928
0
LINE
8
BLACK
6
CONTINUOUS
10
29.9998
20
-5.30976
11
31.3331
21
-5.30976
0
LINE
8
BLACK
6
CONTINUOUS
10
31.3331
20
-5.30976
11
30.476
21
-7.30976
0
LINE
8
BLACK
6
CONTINUOUS
10
31.9998
20
-5.30976
11
31.9998
21
-5.69071
0
LINE
8
BLACK
6
CONTINUOUS
10
32.7617
20
-5.30976
11
32.7617
21
-5.69071
0
LINE
8
BLACK
6
CONTINUOUS
10
35.714
20
-8.07167
11
35.6188
21
-7.97643
0
LINE
8
BLACK
6
CONTINUOUS
10
35.6188
20
-7.97643
11
35.4283
21
-7.69071
0
LINE
8
BLACK
6
CONTINUOUS
10
35.4283
20
-7.69071
11
35.3331
21
-7.50024
0
LINE
8
BLACK
6
CONTINUOUS
10
35.3331
20
-7.50024
11
35.2379
21
-7.21452
0
LINE
8
BLACK
6
CONTINUOUS
10
35.2379
20
-7.21452
11
35.1426
21
-6.73833
0
LINE
8
BLACK
6
CONTINUOUS
10
35.1426
20
-6.73833
11
35.1426
21
-6.35738
0
LINE
8
BLACK
6
CONTINUOUS
10
35.1426
20
-6.35738
11
35.2379
21
-5.88119
0
LINE
8
BLACK
6
CONTINUOUS
10
35.2379
20
-5.88119
11
35.3331
21
-5.59548
0
LINE
8
BLACK
6
CONTINUOUS
10
35.3331
20
-5.59548
11
35.4283
21
-5.405
0
LINE
8
BLACK
6
CONTINUOUS
10
35.4283
20
-5.405
11
35.6188
21
-5.11928
0
LINE
8
BLACK
6
CONTINUOUS
10
35.6188
20
-5.11928
11
35.714
21
-5.02405
0
LINE
8
BLACK
6
CONTINUOUS
10
37.3331
20
-5.97643
11
37.3331
21
-7.30976
0
LINE
8
BLACK
6
CONTINUOUS
10
36.8569
20
-5.21452
11
36.3807
21
-6.64309
0
LINE
8
BLACK
6
CONTINUOUS
10
36.3807
20
-6.64309
11
37.6188
21
-6.64309
0
LINE
8
BLACK
6
CONTINUOUS
10
38.6664
20
-6.1669
11
38.476
21
-6.07167
0
LINE
8
BLACK
6
CONTINUOUS
10
38.476
20
-6.07167
11
38.3807
21
-5.97643
0
LINE
8
BLACK
6
CONTINUOUS
10
38.3807
20
-5.97643
11
38.2855
21
-5.78595
0
LINE
8
BLACK
6
CONTINUOUS
10
38.2855
20
-5.78595
11
38.2855
21
-5.69071
0
LINE
8
BLACK
6
CONTINUOUS
10
38.2855
20
-5.69071
11
38.3807
21
-5.50024
0
LINE
8
BLACK
6
CONTINUOUS
10
38.3807
20
-5.50024
11
38.476
21
-5.405
0
LINE
8
BLACK
6
CONTINUOUS
10
38.476
20
-5.405
11
38.6664
21
-5.30976
0
LINE
8
BLACK
6
CONTINUOUS
10
38.6664
20
-5.30976
11
39.0474
21
-5.30976
0
LINE
8
BLACK
6
CONTINUOUS
10
39.0474
20
-5.30976
11
39.2379
21
-5.405
0
LINE
8
BLACK
6
CONTINUOUS
10
39.2379
20
-5.405
11
39.3331
21
-5.50024
0
LINE
8
BLACK
6
CONTINUOUS
10
39.3331
20
-5.50024
11
39.4283
21
-5.69071
0
LINE
8
BLACK
6
CONTINUOUS
10
39.4283
20
-5.69071
11
39.4283
21
-5.78595
0
LINE
8
BLACK
6
CONTINUOUS
10
39.4283
20
-5.78595
11
39.3331
21
-5.97643
0
LINE
8
BLACK
6
CONTINUOUS
10
39.3331
20
-5.97643
11
39.2379
21
-6.07167
0
LINE
8
BLACK
6
CONTINUOUS
10
39.2379
20
-6.07167
11
39.0474
21
-6.1669
0
LINE
8
BLACK
6
CONTINUOUS
10
39.0474
20
-6.1669
11
38.6664
21
-6.1669
0
LINE
8
BLACK
6
CONTINUOUS
10
38.6664
20
-6.1669
11
38.476
21
-6.26214
0
LINE
8
BLACK
6
CONTINUOUS
10
38.476
20
-6.26214
11
38.3807
21
-6.35738
0
LINE
8
BLACK
6
CONTINUOUS
10
38.3807
20
-6.35738
11
38.2855
21
-6.54786
0
LINE
8
BLACK
6
CONTINUOUS
10
38.2855
20
-6.54786
11
38.2855
21
-6.92881
0
LINE
8
BLACK
6
CONTINUOUS
10
38.2855
20
-6.92881
11
38.3807
21
-7.11928
0
LINE
8
BLACK
6
CONTINUOUS
10
38.3807
20
-7.11928
11
38.476
21
-7.21452
0
LINE
8
BLACK
6
CONTINUOUS
10
38.476
20
-7.21452
11
38.6664
21
-7.30976
0
LINE
8
BLACK
6
CONTINUOUS
10
38.6664
20
-7.30976
11
39.0474
21
-7.30976
0
LINE
8
BLACK
6
CONTINUOUS
10
39.0474
20
-7.30976
11
39.2379
21
-7.21452
0
LINE
8
BLACK
6
CONTINUOUS
10
39.2379
20
-7.21452
11
39.3331
21
-7.11928
0
LINE
8
BLACK
6
CONTINUOUS
10
39.3331
20
-7.11928
11
39.4283
21
-6.92881
0
LINE
8
BLACK
6
CONTINUOUS
10
39.4283
20
-6.92881
11
39.4283
21
-6.54786
0
LINE
8
BLACK
6
CONTINUOUS
10
39.4283
20
-6.54786
11
39.3331
21
-6.35738
0
LINE
8
BLACK
6
CONTINUOUS
10
39.3331
20
-6.35738
11
39.2379
21
-6.26214
0
LINE
8
BLACK
6
CONTINUOUS
10
39.2379
20
-6.26214
11
39.0474
21
-6.1669
0
LINE
8
BLACK
6
CONTINUOUS
10
41.8093
20
-7.30976
11
41.8093
21
-5.30976
0
LINE
8
BLACK
6
CONTINUOUS
10
42.6664
20
-7.30976
11
42.6664
21
-6.26214
0
LINE
8
BLACK
6
CONTINUOUS
10
42.6664
20
-6.26214
11
42.5712
21
-6.07167
0
LINE
8
BLACK
6
CONTINUOUS
10
42.5712
20
-6.07167
11
42.3807
21
-5.97643
0
LINE
8
BLACK
6
CONTINUOUS
10
42.3807
20
-5.97643
11
42.095
21
-5.97643
0
LINE
8
BLACK
6
CONTINUOUS
10
42.095
20
-5.97643
11
41.9045
21
-6.07167
0
LINE
8
BLACK
6
CONTINUOUS
10
41.9045
20
-6.07167
11
41.8093
21
-6.1669
0
LINE
8
BLACK
6
CONTINUOUS
10
43.9045
20
-7.30976
11
43.714
21
-7.21452
0
LINE
8
BLACK
6
CONTINUOUS
10
43.714
20
-7.21452
11
43.6188
21
-7.11928
0
LINE
8
BLACK
6
CONTINUOUS
10
43.6188
20
-7.11928
11
43.5236
21
-6.92881
0
LINE
8
BLACK
6
CONTINUOUS
10
43.5236
20
-6.92881
11
43.5236
21
-6.35738
0
LINE
8
BLACK
6
CONTINUOUS
10
43.5236
20
-6.35738
11
43.6188
21
-6.1669
0
LINE
8
BLACK
6
CONTINUOUS
10
43.6188
20
-6.1669
11
43.714
21
-6.07167
0
LINE
8
BLACK
6
CONTINUOUS
10
43.714
20
-6.07167
11
43.9045
21
-5.97643
0
LINE
8
BLACK
6
CONTINUOUS
10
43.9045
20
-5.97643
11
44.1902
21
-5.97643
0
LINE
8
BLACK
6
CONTINUOUS
10
44.1902
20
-5.97643
11
44.3807
21
-6.07167
0
LINE
8
BLACK
6
CONTINUOUS
10
44.3807
20
-6.07167
11
44.476
21
-6.1669
0
LINE
8
BLACK
6
CONTINUOUS
10
44.476
20
-6.1669
11
44.5712
21
-6.35738
0
LINE
8
BLACK
6
CONTINUOUS
10
44.5712
20
-6.35738
11
44.5712
21
-6.92881
0
LINE
8
BLACK
6
CONTINUOUS
10
44.5712
20
-6.92881
11
44.476
21
-7.11928
0
LINE
8
BLACK
6
CONTINUOUS
10
44.476
20
-7.11928
11
44.3807
21
-7.21452
0
LINE
8
BLACK
6
CONTINUOUS
10
44.3807
20
-7.21452
11
44.1902
21
-7.30976
0
LINE
8
BLACK
6
CONTINUOUS
10
44.1902
20
-7.30976
11
43.9045
21
-7.30976
0
LINE
8
BLACK
6
CONTINUOUS
10
45.714
20
-7.30976
11
45.5236
21
-7.21452
0
LINE
8
BLACK
6
CONTINUOUS
10
45.5236
20
-7.21452
11
45.4283
21
-7.02405
0
LINE
8
BLACK
6
CONTINUOUS
10
45.4283
20
-7.02405
11
45.4283
21
-5.30976
0
LINE
8
BLACK
6
CONTINUOUS
10
47.2379
20
-7.21452
11
47.0474
21
-7.30976
0
LINE
8
BLACK
6
CONTINUOUS
10
47.0474
20
-7.30976
11
46.6664
21
-7.30976
0
LINE
8
BLACK
6
CONTINUOUS
10
46.6664
20
-7.30976
11
46.476
21
-7.21452
0
LINE
8
BLACK
6
CONTINUOUS
10
46.476
20
-7.21452
11
46.3807
21
-7.02405
0
LINE
8
BLACK
6
CONTINUOUS
10
46.3807
20
-7.02405
11
46.3807
21
-6.26214
0
LINE
8
BLACK
6
CONTINUOUS
10
46.3807
20
-6.26214
11
46.476
21
-6.07167
0
LINE
8
BLACK
6
CONTINUOUS
10
46.476
20
-6.07167
11
46.6664
21
-5.97643
0
LINE
8
BLACK
6
CONTINUOUS
10
46.6664
20
-5.97643
11
47.0474
21
-5.97643
0
LINE
8
BLACK
6
CONTINUOUS
10
47.0474
20
-5.97643
11
47.2379
21
-6.07167
0
LINE
8
BLACK
6
CONTINUOUS
10
47.2379
20
-6.07167
11
47.3331
21
-6.26214
0
LINE
8
BLACK
6
CONTINUOUS
10
47.3331
20
-6.26214
11
47.3331
21
-6.45262
0
LINE
8
BLACK
6
CONTINUOUS
10
47.3331
20
-6.45262
11
46.3807
21
-6.64309
0
LINE
8
BLACK
6
CONTINUOUS
10
48.095
20
-7.21452
11
48.2855
21
-7.30976
0
LINE
8
BLACK
6
CONTINUOUS
10
48.2855
20
-7.30976
11
48.6664
21
-7.30976
0
LINE
8
BLACK
6
CONTINUOUS
10
48.6664
20
-7.30976
11
48.8569
21
-7.21452
0
LINE
8
BLACK
6
CONTINUOUS
10
48.8569
20
-7.21452
11
48.9521
21
-7.02405
0
LINE
8
BLACK
6
CONTINUOUS
10
48.9521
20
-7.02405
11
48.9521
21
-6.92881
0
LINE
8
BLACK
6
CONTINUOUS
10
48.9521
20
-6.92881
11
48.8569
21
-6.73833
0
LINE
8
BLACK
6
CONTINUOUS
10
48.8569
20
-6.73833
11
48.6664
21
-6.64309
0
LINE
8
BLACK
6
CONTINUOUS
10
48.6664
20
-6.64309
11
48.3807
21
-6.64309
0
LINE
8
BLACK
6
CONTINUOUS
10
48.3807
20
-6.64309
11
48.1902
21
-6.54786
0
LINE
8
BLACK
6
CONTINUOUS
10
48.1902
20
-6.54786
11
48.095
21
-6.35738
0
LINE
8
BLACK
6
CONTINUOUS
10
48.095
20
-6.35738
11
48.095
21
-6.26214
0
LINE
8
BLACK
6
CONTINUOUS
10
48.095
20
-6.26214
11
48.1902
21
-6.07167
0
LINE
8
BLACK
6
CONTINUOUS
10
48.1902
20
-6.07167
11
48.3807
21
-5.97643
0
LINE
8
BLACK
6
CONTINUOUS
10
48.3807
20
-5.97643
11
48.6664
21
-5.97643
0
LINE
8
BLACK
6
CONTINUOUS
10
48.6664
20
-5.97643
11
48.8569
21
-6.07167
0
LINE
8
BLACK
6
CONTINUOUS
10
49.6188
20
-8.07167
11
49.714
21
-7.97643
0
LINE
8
BLACK
6
CONTINUOUS
10
49.714
20
-7.97643
11
49.9045
21
-7.69071
0
LINE
8
BLACK
6
CONTINUOUS
10
49.9045
20
-7.69071
11
49.9998
21
-7.50024
0
LINE
8
BLACK
6
CONTINUOUS
10
49.9998
20
-7.50024
11
50.095
21
-7.21452
0
LINE
8
BLACK
6
CONTINUOUS
10
50.095
20
-7.21452
11
50.1902
21
-6.73833
0
LINE
8
BLACK
6
CONTINUOUS
10
50.1902
20
-6.73833
11
50.1902
21
-6.35738
0
LINE
8
BLACK
6
CONTINUOUS
10
50.1902
20
-6.35738
11
50.095
21
-5.88119
0
LINE
8
BLACK
6
CONTINUOUS
10
50.095
20
-5.88119
11
49.9998
21
-5.59548
0
LINE
8
BLACK
6
CONTINUOUS
10
49.9998
20
-5.59548
11
49.9045
21
-5.405
0
LINE
8
BLACK
6
CONTINUOUS
10
49.9045
20
-5.405
11
49.714
21
-5.11928
0
LINE
8
BLACK
6
CONTINUOUS
10
49.714
20
-5.11928
11
49.6188
21
-5.02405
0
CIRCLE
8
BLACK
10
-0.255
20
-9.045
40
0.25
0
LINE
8
BLACK
6
CONTINUOUS
10
2.95214
20
-7.94976
11
3.14262
21
-7.94976
0
LINE
8
BLACK
6
CONTINUOUS
10
3.14262
20
-7.94976
11
3.33309
21
-8.045
0
LINE
8
BLACK
6
CONTINUOUS
10
3.33309
20
-8.045
11
3.42833
21
-8.14024
0
LINE
8
BLACK
6
CONTINUOUS
10
3.42833
20
-8.14024
11
3.52357
21
-8.33071
0
LINE
8
BLACK
6
CONTINUOUS
10
3.52357
20
-8.33071
11
3.61881
21
-8.71167
0
LINE
8
BLACK
6
CONTINUOUS
10
3.61881
20
-8.71167
11
3.61881
21
-9.18786
0
LINE
8
BLACK
6
CONTINUOUS
10
3.61881
20
-9.18786
11
3.52357
21
-9.56881
0
LINE
8
BLACK
6
CONTINUOUS
10
3.52357
20
-9.56881
11
3.42833
21
-9.75929
0
LINE
8
BLACK
6
CONTINUOUS
10
3.42833
20
-9.75929
11
3.33309
21
-9.85452
0
LINE
8
BLACK
6
CONTINUOUS
10
3.33309
20
-9.85452
11
3.14262
21
-9.94976
0
LINE
8
BLACK
6
CONTINUOUS
10
3.14262
20
-9.94976
11
2.95214
21
-9.94976
0
LINE
8
BLACK
6
CONTINUOUS
10
2.95214
20
-9.94976
11
2.76167
21
-9.85452
0
LINE
8
BLACK
6
CONTINUOUS
10
2.76167
20
-9.85452
11
2.66643
21
-9.75929
0
LINE
8
BLACK
6
CONTINUOUS
10
2.66643
20
-9.75929
11
2.57119
21
-9.56881
0
LINE
8
BLACK
6
CONTINUOUS
10
2.57119
20
-9.56881
11
2.47595
21
-9.18786
0
LINE
8
BLACK
6
CONTINUOUS
10
2.47595
20
-9.18786
11
2.47595
21
-8.71167
0
LINE
8
BLACK
6
CONTINUOUS
10
2.47595
20
-8.71167
11
2.57119
21
-8.33071
0
LINE
8
BLACK
6
CONTINUOUS
10
2.57119
20
-8.33071
11
2.66643
21
-8.14024
0
LINE
8
BLACK
6
CONTINUOUS
10
2.66643
20
-8.14024
11
2.76167
21
-8.045
0
LINE
8
BLACK
6
CONTINUOUS
10
2.76167
20
-8.045
11
2.95214
21
-7.94976
0
LINE
8
BLACK
6
CONTINUOUS
10
4.47595
20
-9.75929
11
4.57119
21
-9.85452
0
LINE
8
BLACK
6
CONTINUOUS
10
4.57119
20
-9.85452
11
4.47595
21
-9.94976
0
LINE
8
BLACK
6
CONTINUOUS
10
4.47595
20
-9.94976
11
4.38071
21
-9.85452
0
LINE
8
BLACK
6
CONTINUOUS
10
4.38071
20
-9.85452
11
4.47595
21
-9.75929
0
LINE
8
BLACK
6
CONTINUOUS
10
4.47595
20
-9.75929
11
4.47595
21
-9.94976
0
LINE
8
BLACK
6
CONTINUOUS
10
6.38071
20
-7.94976
11
5.42833
21
-7.94976
0
LINE
8
BLACK
6
CONTINUOUS
10
5.42833
20
-7.94976
11
5.3331
21
-8.90214
0
LINE
8
BLACK
6
CONTINUOUS
10
5.3331
20
-8.90214
11
5.42833
21
-8.8069
0
LINE
8
BLACK
6
CONTINUOUS
10
5.42833
20
-8.8069
11
5.61881
21
-8.71167
0
LINE
8
BLACK
6
CONTINUOUS
10
5.61881
20
-8.71167
11
6.095
21
-8.71167
0
LINE
8
BLACK
6
CONTINUOUS
10
6.095
20
-8.71167
11
6.28548
21
-8.8069
0
LINE
8
BLACK
6
CONTINUOUS
10
6.28548
20
-8.8069
11
6.38071
21
-8.90214
0
LINE
8
BLACK
6
CONTINUOUS
10
6.38071
20
-8.90214
11
6.47595
21
-9.09262
0
LINE
8
BLACK
6
CONTINUOUS
10
6.47595
20
-9.09262
11
6.47595
21
-9.56881
0
LINE
8
BLACK
6
CONTINUOUS
10
6.47595
20
-9.56881
11
6.38071
21
-9.75929
0
LINE
8
BLACK
6
CONTINUOUS
10
6.38071
20
-9.75929
11
6.28548
21
-9.85452
0
LINE
8
BLACK
6
CONTINUOUS
10
6.28548
20
-9.85452
11
6.095
21
-9.94976
0
LINE
8
BLACK
6
CONTINUOUS
10
6.095
20
-9.94976
11
5.61881
21
-9.94976
0
LINE
8
BLACK
6
CONTINUOUS
10
5.61881
20
-9.94976
11
5.42833
21
-9.85452
0
LINE
8
BLACK
6
CONTINUOUS
10
5.42833
20
-9.85452
11
5.3331
21
-9.75929
0
LINE
8
BLACK
6
CONTINUOUS
10
7.71405
20
-7.94976
11
7.90452
21
-7.94976
0
LINE
8
BLACK
6
CONTINUOUS
10
7.90452
20
-7.94976
11
8.095
21
-8.045
0
LINE
8
BLACK
6
CONTINUOUS
10
8.095
20
-8.045
11
8.19024
21
-8.14024
0
LINE
8
BLACK
6
CONTINUOUS
10
8.19024
20
-8.14024
11
8.28548
21
-8.33071
0
LINE
8
BLACK
6
CONTINUOUS
10
8.28548
20
-8.33071
11
8.38071
21
-8.71167
0
LINE
8
BLACK
6
CONTINUOUS
10
8.38071
20
-8.71167
11
8.38071
21
-9.18786
0
LINE
8
BLACK
6
CONTINUOUS
10
8.38071
20
-9.18786
11
8.28548
21
-9.56881
0
LINE
8
BLACK
6
CONTINUOUS
10
8.28548
20
-9.56881
11
8.19024
21
-9.75929
0
LINE
8
BLACK
6
CONTINUOUS
10
8.19024
20
-9.75929
11
8.095
21
-9.85452
0
LINE
8
BLACK
6
CONTINUOUS
10
8.095
20
-9.85452
11
7.90452
21
-9.94976
0
LINE
8
BLACK
6
CONTINUOUS
10
7.90452
20
-9.94976
11
7.71405
21
-9.94976
0
LINE
8
BLACK
6
CONTINUOUS
10
7.71405
20
-9.94976
11
7.52357
21
-9.85452
0
LINE
8
BLACK
6
CONTINUOUS
10
7.52357
20
-9.85452
11
7.42833
21
-9.75929
0
LINE
8
BLACK
6
CONTINUOUS
10
7.42833
20
-9.75929
11
7.33309
21
-9.56881
0
LINE
8
BLACK
6
CONTINUOUS
10
7.33309
20
-9.56881
11
7.23786
21
-9.18786
0
LINE
8
BLACK
6
CONTINUOUS
10
7.23786
20
-9.18786
11
7.23786
21
-8.71167
0
LINE
8
BLACK
6
CONTINUOUS
10
7.23786
20
-8.71167
11
7.33309
21
-8.33071
0
LINE
8
BLACK
6
CONTINUOUS
10
7.33309
20
-8.33071
11
7.42833
21
-8.14024
0
LINE
8
BLACK
6
CONTINUOUS
10
7.42833
20
-8.14024
11
7.52357
21
-8.045
0
LINE
8
BLACK
6
CONTINUOUS
10
7.52357
20
-8.045
11
7.71405
21
-7.94976
0
LINE
8
BLACK
6
CONTINUOUS
10
9.61881
20
-7.94976
11
9.80928
21
-7.94976
0
LINE
8
BLACK
6
CONTINUOUS
10
9.80928
20
-7.94976
11
9.99976
21
-8.045
0
LINE
8
BLACK
6
CONTINUOUS
10
9.99976
20
-8.045
11
10.095
21
-8.14024
0
LINE
8
BLACK
6
CONTINUOUS
10
10.095
20
-8.14024
11
10.1902
21
-8.33071
0
LINE
8
BLACK
6
CONTINUOUS
10
10.1902
20
-8.33071
11
10.2855
21
-8.71167
0
LINE
8
BLACK
6
CONTINUOUS
10
10.2855
20
-8.71167
11
10.2855
21
-9.18786
0
LINE
8
BLACK
6
CONTINUOUS
10
10.2855
20
-9.18786
11
10.1902
21
-9.56881
0
LINE
8
BLACK
6
CONTINUOUS
10
10.1902
20
-9.56881
11
10.095
21
-9.75929
0
LINE
8
BLACK
6
CONTINUOUS
10
10.095
20
-9.75929
11
9.99976
21
-9.85452
0
LINE
8
BLACK
6
CONTINUOUS
10
9.99976
20
-9.85452
11
9.80928
21
-9.94976
0
LINE
8
BLACK
6
CONTINUOUS
10
9.80928
20
-9.94976
11
9.61881
21
-9.94976
0
LINE
8
BLACK
6
CONTINUOUS
10
9.61881
20
-9.94976
11
9.42833
21
-9.85452
0
LINE
8
BLACK
6
CONTINUOUS
10
9.42833
20
-9.85452
11
9.3331
21
-9.75929
0
LINE
8
BLACK
6
CONTINUOUS
10
9.3331
20
-9.75929
11
9.23786
21
-9.56881
0
LINE
8
BLACK
6
CONTINUOUS
10
9.23786
20
-9.56881
11
9.14262
21
-9.18786
0
LINE
8
BLACK
6
CONTINUOUS
10
9.14262
20
-9.18786
11
9.14262
21
-8.71167
0
LINE
8
BLACK
6
CONTINUOUS
10
9.14262
20
-8.71167
11
9.23786
21
-8.33071
0
LINE
8
BLACK
6
CONTINUOUS
10
9.23786
20
-8.33071
11
9.3331
21
-8.14024
0
LINE
8
BLACK
6
CONTINUOUS
10
9.3331
20
-8.14024
11
9.42833
21
-8.045
0
LINE
8
BLACK
6
CONTINUOUS
10
9.42833
20
-8.045
11
9.61881
21
-7.94976
0
LINE
8
BLACK
6
CONTINUOUS
10
11.1426
20
-9.94976
11
11.1426
21
-8.61643
0
LINE
8
BLACK
6
CONTINUOUS
10
11.1426
20
-8.8069
11
11.2379
21
-8.71167
0
LINE
8
BLACK
6
CONTINUOUS
10
11.2379
20
-8.71167
11
11.4283
21
-8.61643
0
LINE
8
BLACK
6
CONTINUOUS
10
11.4283
20
-8.61643
11
11.714
21
-8.61643
0
LINE
8
BLACK
6
CONTINUOUS
10
11.714
20
-8.61643
11
11.9045
21
-8.71167
0
LINE
8
BLACK
6
CONTINUOUS
10
11.9045
20
-8.71167
11
11.9998
21
-8.90214
0
LINE
8
BLACK
6
CONTINUOUS
10
11.9998
20
-8.90214
11
11.9998
21
-9.94976
0
LINE
8
BLACK
6
CONTINUOUS
10
11.9998
20
-8.90214
11
12.095
21
-8.71167
0
LINE
8
BLACK
6
CONTINUOUS
10
12.095
20
-8.71167
11
12.2855
21
-8.61643
0
LINE
8
BLACK
6
CONTINUOUS
10
12.2855
20
-8.61643
11
12.5712
21
-8.61643
0
LINE
8
BLACK
6
CONTINUOUS
10
12.5712
20
-8.61643
11
12.7617
21
-8.71167
0
LINE
8
BLACK
6
CONTINUOUS
10
12.7617
20
-8.71167
11
12.8569
21
-8.90214
0
LINE
8
BLACK
6
CONTINUOUS
10
12.8569
20
-8.90214
11
12.8569
21
-9.94976
0
LINE
8
BLACK
6
CONTINUOUS
10
13.8093
20
-9.94976
11
13.8093
21
-8.61643
0
LINE
8
BLACK
6
CONTINUOUS
10
13.8093
20
-8.8069
11
13.9045
21
-8.71167
0
LINE
8
BLACK
6
CONTINUOUS
10
13.9045
20
-8.71167
11
14.095
21
-8.61643
0
LINE
8
BLACK
6
CONTINUOUS
10
14.095
20
-8.61643
11
14.3807
21
-8.61643
0
LINE
8
BLACK
6
CONTINUOUS
10
14.3807
20
-8.61643
11
14.5712
21
-8.71167
0
LINE
8
BLACK
6
CONTINUOUS
10
14.5712
20
-8.71167
11
14.6664
21
-8.90214
0
LINE
8
BLACK
6
CONTINUOUS
10
14.6664
20
-8.90214
11
14.6664
21
-9.94976
0
LINE
8
BLACK
6
CONTINUOUS
10
14.6664
20
-8.90214
11
14.7617
21
-8.71167
0
LINE
8
BLACK
6
CONTINUOUS
10
14.7617
20
-8.71167
11
14.9521
21
-8.61643
0
LINE
8
BLACK
6
CONTINUOUS
10
14.9521
20
-8.61643
11
15.2379
21
-8.61643
0
LINE
8
BLACK
6
CONTINUOUS
10
15.2379
20
-8.61643
11
15.4283
21
-8.71167
0
LINE
8
BLACK
6
CONTINUOUS
10
15.4283
20
-8.71167
11
15.5236
21
-8.90214
0
LINE
8
BLACK
6
CONTINUOUS
10
15.5236
20
-8.90214
11
15.5236
21
-9.94976
0
LINE
8
BLACK
6
CONTINUOUS
10
19.4283
20
-7.85452
11
17.714
21
-10.426
0
LINE
8
BLACK
6
CONTINUOUS
10
21.9998
20
-7.94976
11
22.1902
21
-7.94976
0
LINE
8
BLACK
6
CONTINUOUS
10
22.1902
20
-7.94976
11
22.3807
21
-8.045
0
LINE
8
BLACK
6
CONTINUOUS
10
22.3807
20
-8.045
11
22.476
21
-8.14024
0
LINE
8
BLACK
6
CONTINUOUS
10
22.476
20
-8.14024
11
22.5712
21
-8.33071
0
LINE
8
BLACK
6
CONTINUOUS
10
22.5712
20
-8.33071
11
22.6664
21
-8.71167
0
LINE
8
BLACK
6
CONTINUOUS
10
22.6664
20
-8.71167
11
22.6664
21
-9.18786
0
LINE
8
BLACK
6
CONTINUOUS
10
22.6664
20
-9.18786
11
22.5712
21
-9.56881
0
LINE
8
BLACK
6
CONTINUOUS
10
22.5712
20
-9.56881
11
22.476
21
-9.75929
0
LINE
8
BLACK
6
CONTINUOUS
10
22.476
20
-9.75929
11
22.3807
21
-9.85452
0
LINE
8
BLACK
6
CONTINUOUS
10
22.3807
20
-9.85452
11
22.1902
21
-9.94976
0
LINE
8
BLACK
6
CONTINUOUS
10
22.1902
20
-9.94976
11
21.9998
21
-9.94976
0
LINE
8
BLACK
6
CONTINUOUS
10
21.9998
20
-9.94976
11
21.8093
21
-9.85452
0
LINE
8
BLACK
6
CONTINUOUS
10
21.8093
20
-9.85452
11
21.714
21
-9.75929
0
LINE
8
BLACK
6
CONTINUOUS
10
21.714
20
-9.75929
11
21.6188
21
-9.56881
0
LINE
8
BLACK
6
CONTINUOUS
10
21.6188
20
-9.56881
11
21.5236
21
-9.18786
0
LINE
8
BLACK
6
CONTINUOUS
10
21.5236
20
-9.18786
11
21.5236
21
-8.71167
0
LINE
8
BLACK
6
CONTINUOUS
10
21.5236
20
-8.71167
11
21.6188
21
-8.33071
0
LINE
8
BLACK
6
CONTINUOUS
10
21.6188
20
-8.33071
11
21.714
21
-8.14024
0
LINE
8
BLACK
6
CONTINUOUS
10
21.714
20
-8.14024
11
21.8093
21
-8.045
0
LINE
8
BLACK
6
CONTINUOUS
10
21.8093
20
-8.045
11
21.9998
21
-7.94976
0
LINE
8
BLACK
6
CONTINUOUS
10
23.5236
20
-9.75929
11
23.6188
21
-9.85452
0
LINE
8
BLACK
6
CONTINUOUS
10
23.6188
20
-9.85452
11
23.5236
21
-9.94976
0
LINE
8
BLACK
6
CONTINUOUS
10
23.5236
20
-9.94976
11
23.4283
21
-9.85452
0
LINE
8
BLACK
6
CONTINUOUS
10
23.4283
20
-9.85452
11
23.5236
21
-9.75929
0
LINE
8
BLACK
6
CONTINUOUS
10
23.5236
20
-9.75929
11
23.5236
21
-9.94976
0
LINE
8
BLACK
6
CONTINUOUS
10
24.8569
20
-7.94976
11
25.0474
21
-7.94976
0
LINE
8
BLACK
6
CONTINUOUS
10
25.0474
20
-7.94976
11
25.2379
21
-8.045
0
LINE
8
BLACK
6
CONTINUOUS
10
25.2379
20
-8.045
11
25.3331
21
-8.14024
0
LINE
8
BLACK
6
CONTINUOUS
10
25.3331
20
-8.14024
11
25.4283
21
-8.33071
0
LINE
8
BLACK
6
CONTINUOUS
10
25.4283
20
-8.33071
11
25.5236
21
-8.71167
0
LINE
8
BLACK
6
CONTINUOUS
10
25.5236
20
-8.71167
11
25.5236
21
-9.18786
0
LINE
8
BLACK
6
CONTINUOUS
10
25.5236
20
-9.18786
11
25.4283
21
-9.56881
0
LINE
8
BLACK
6
CONTINUOUS
10
25.4283
20
-9.56881
11
25.3331
21
-9.75929
0
LINE
8
BLACK
6
CONTINUOUS
10
25.3331
20
-9.75929
11
25.2379
21
-9.85452
0
LINE
8
BLACK
6
CONTINUOUS
10
25.2379
20
-9.85452
11
25.0474
21
-9.94976
0
LINE
8
BLACK
6
CONTINUOUS
10
25.0474
20
-9.94976
11
24.8569
21
-9.94976
0
LINE
8
BLACK
6
CONTINUOUS
10
24.8569
20
-9.94976
11
24.6664
21
-9.85452
0
LINE
8
BLACK
6
CONTINUOUS
10
24.6664
20
-9.85452
11
24.5712
21
-9.75929
0
LINE
8
BLACK
6
CONTINUOUS
10
24.5712
20
-9.75929
11
24.476
21
-9.56881
0
LINE
8
BLACK
6
CONTINUOUS
10
24.476
20
-9.56881
11
24.3807
21
-9.18786
0
LINE
8
BLACK
6
CONTINUOUS
10
24.3807
20
-9.18786
11
24.3807
21
-8.71167
0
LINE
8
BLACK
6
CONTINUOUS
10
24.3807
20
-8.71167
11
24.476
21
-8.33071
0
LINE
8
BLACK
6
CONTINUOUS
10
24.476
20
-8.33071
11
24.5712
21
-8.14024
0
LINE
8
BLACK
6
CONTINUOUS
10
24.5712
20
-8.14024
11
24.6664
21
-8.045
0
LINE
8
BLACK
6
CONTINUOUS
10
24.6664
20
-8.045
11
24.8569
21
-7.94976
0
LINE
8
BLACK
6
CONTINUOUS
10
27.4283
20
-9.94976
11
26.2855
21
-9.94976
0
LINE
8
BLACK
6
CONTINUOUS
10
26.8569
20
-9.94976
11
26.8569
21
-7.94976
0
LINE
8
BLACK
6
CONTINUOUS
10
26.8569
20
-7.94976
11
26.6664
21
-8.23548
0
LINE
8
BLACK
6
CONTINUOUS
10
26.6664
20
-8.23548
11
26.476
21
-8.42595
0
LINE
8
BLACK
6
CONTINUOUS
10
26.476
20
-8.42595
11
26.2855
21
-8.52119
0
LINE
8
BLACK
6
CONTINUOUS
10
28.3807
20
-9.94976
11
28.7617
21
-9.94976
0
LINE
8
BLACK
6
CONTINUOUS
10
28.7617
20
-9.94976
11
28.9521
21
-9.85452
0
LINE
8
BLACK
6
CONTINUOUS
10
28.9521
20
-9.85452
11
29.0474
21
-9.75929
0
LINE
8
BLACK
6
CONTINUOUS
10
29.0474
20
-9.75929
11
29.2379
21
-9.47357
0
LINE
8
BLACK
6
CONTINUOUS
10
29.2379
20
-9.47357
11
29.3331
21
-9.09262
0
LINE
8
BLACK
6
CONTINUOUS
10
29.3331
20
-9.09262
11
29.3331
21
-8.33071
0
LINE
8
BLACK
6
CONTINUOUS
10
29.3331
20
-8.33071
11
29.2379
21
-8.14024
0
LINE
8
BLACK
6
CONTINUOUS
10
29.2379
20
-8.14024
11
29.1426
21
-8.045
0
LINE
8
BLACK
6
CONTINUOUS
10
29.1426
20
-8.045
11
28.9521
21
-7.94976
0
LINE
8
BLACK
6
CONTINUOUS
10
28.9521
20
-7.94976
11
28.5712
21
-7.94976
0
LINE
8
BLACK
6
CONTINUOUS
10
28.5712
20
-7.94976
11
28.3807
21
-8.045
0
LINE
8
BLACK
6
CONTINUOUS
10
28.3807
20
-8.045
11
28.2855
21
-8.14024
0
LINE
8
BLACK
6
CONTINUOUS
10
28.2855
20
-8.14024
11
28.1902
21
-8.33071
0
LINE
8
BLACK
6
CONTINUOUS
10
28.1902
20
-8.33071
11
28.1902
21
-8.8069
0
LINE
8
BLACK
6
CONTINUOUS
10
28.1902
20
-8.8069
11
28.2855
21
-8.99738
0
LINE
8
BLACK
6
CONTINUOUS
10
28.2855
20
-8.99738
11
28.3807
21
-9.09262
0
LINE
8
BLACK
6
CONTINUOUS
10
28.3807
20
-9.09262
11
28.5712
21
-9.18786
0
LINE
8
BLACK
6
CONTINUOUS
10
28.5712
20
-9.18786
11
28.9521
21
-9.18786
0
LINE
8
BLACK
6
CONTINUOUS
10
28.9521
20
-9.18786
11
29.1426
21
-9.09262
0
LINE
8
BLACK
6
CONTINUOUS
10
29.1426
20
-9.09262
11
29.2379
21
-8.99738
0
LINE
8
BLACK
6
CONTINUOUS
10
29.2379
20
-8.99738
11
29.3331
21
-8.8069
0
LINE
8
BLACK
6
CONTINUOUS
10
29.9998
20
-7.94976
11
31.3331
21
-7.94976
0
LINE
8
BLACK
6
CONTINUOUS
10
31.3331
20
-7.94976
11
30.476
21
-9.94976
0
LINE
8
BLACK
6
CONTINUOUS
10
31.9998
20
-7.94976
11
31.9998
21
-8.33071
0
LINE
8
BLACK
6
CONTINUOUS
10
32.7617
20
-7.94976
11
32.7617
21
-8.33071
0
LINE
8
BLACK
6
CONTINUOUS
10
35.714
20
-10.7117
11
35.6188
21
-10.6164
0
LINE
8
BLACK
6
CONTINUOUS
10
35.6188
20
-10.6164
11
35.4283
21
-10.3307
0
LINE
8
BLACK
6
CONTINUOUS
10
35.4283
20
-10.3307
11
35.3331
21
-10.1402
0
LINE
8
BLACK
6
CONTINUOUS
10
35.3331
20
-10.1402
11
35.2379
21
-9.85452
0
LINE
8
BLACK
6
CONTINUOUS
10
35.2379
20
-9.85452
11
35.1426
21
-9.37833
0
LINE
8
BLACK
6
CONTINUOUS
10
35.1426
20
-9.37833
11
35.1426
21
-8.99738
0
LINE
8
BLACK
6
CONTINUOUS
10
35.1426
20
-8.99738
11
35.2379
21
-8.52119
0
LINE
8
BLACK
6
CONTINUOUS
10
35.2379
20
-8.52119
11
35.3331
21
-8.23548
0
LINE
8
BLACK
6
CONTINUOUS
10
35.3331
20
-8.23548
11
35.4283
21
-8.045
0
LINE
8
BLACK
6
CONTINUOUS
10
35.4283
20
-8.045
11
35.6188
21
-7.75928
0
LINE
8
BLACK
6
CONTINUOUS
10
35.6188
20
-7.75928
11
35.714
21
-7.66405
0
LINE
8
BLACK
6
CONTINUOUS
10
36.3807
20
-8.14024
11
36.476
21
-8.045
0
LINE
8
BLACK
6
CONTINUOUS
10
36.476
20
-8.045
11
36.6664
21
-7.94976
0
LINE
8
BLACK
6
CONTINUOUS
10
36.6664
20
-7.94976
11
37.1426
21
-7.94976
0
LINE
8
BLACK
6
CONTINUOUS
10
37.1426
20
-7.94976
11
37.3331
21
-8.045
0
LINE
8
BLACK
6
CONTINUOUS
10
37.3331
20
-8.045
11
37.4283
21
-8.14024
0
LINE
8
BLACK
6
CONTINUOUS
10
37.4283
20
-8.14024
11
37.5236
21
-8.33071
0
LINE
8
BLACK
6
CONTINUOUS
10
37.5236
20
-8.33071
11
37.5236
21
-8.52119
0
LINE
8
BLACK
6
CONTINUOUS
10
37.5236
20
-8.52119
11
37.4283
21
-8.8069
0
LINE
8
BLACK
6
CONTINUOUS
10
37.4283
20
-8.8069
11
36.2855
21
-9.94976
0
LINE
8
BLACK
6
CONTINUOUS
10
36.2855
20
-9.94976
11
37.5236
21
-9.94976
0
LINE
8
BLACK
6
CONTINUOUS
10
38.6664
20
-8.8069
11
38.476
21
-8.71167
0
LINE
8
BLACK
6
CONTINUOUS
10
38.476
20
-8.71167
11
38.3807
21
-8.61643
0
LINE
8
BLACK
6
CONTINUOUS
10
38.3807
20
-8.61643
11
38.2855
21
-8.42595
0
LINE
8
BLACK
6
CONTINUOUS
10
38.2855
20
-8.42595
11
38.2855
21
-8.33071
0
LINE
8
BLACK
6
CONTINUOUS
10
38.2855
20
-8.33071
11
38.3807
21
-8.14024
0
LINE
8
BLACK
6
CONTINUOUS
10
38.3807
20
-8.14024
11
38.476
21
-8.045
0
LINE
8
BLACK
6
CONTINUOUS
10
38.476
20
-8.045
11
38.6664
21
-7.94976
0
LINE
8
BLACK
6
CONTINUOUS
10
38.6664
20
-7.94976
11
39.0474
21
-7.94976
0
LINE
8
BLACK
6
CONTINUOUS
10
39.0474
20
-7.94976
11
39.2379
21
-8.045
0
LINE
8
BLACK
6
CONTINUOUS
10
39.2379
20
-8.045
11
39.3331
21
-8.14024
0
LINE
8
BLACK
6
CONTINUOUS
10
39.3331
20
-8.14024
11
39.4283
21
-8.33071
0
LINE
8
BLACK
6
CONTINUOUS
10
39.4283
20
-8.33071
11
39.4283
21
-8.42595
0
LINE
8
BLACK
6
CONTINUOUS
10
39.4283
20
-8.42595
11
39.3331
21
-8.61643
0
LINE
8
BLACK
6
CONTINUOUS
10
39.3331
20
-8.61643
11
39.2379
21
-8.71167
0
LINE
8
BLACK
6
CONTINUOUS
10
39.2379
20
-8.71167
11
39.0474
21
-8.8069
0
LINE
8
BLACK
6
CONTINUOUS
10
39.0474
20
-8.8069
11
38.6664
21
-8.8069
0
LINE
8
BLACK
6
CONTINUOUS
10
38.6664
20
-8.8069
11
38.476
21
-8.90214
0
LINE
8
BLACK
6
CONTINUOUS
10
38.476
20
-8.90214
11
38.3807
21
-8.99738
0
LINE
8
BLACK
6
CONTINUOUS
10
38.3807
20
-8.99738
11
38.2855
21
-9.18786
0
LINE
8
BLACK
6
CONTINUOUS
10
38.2855
20
-9.18786
11
38.2855
21
-9.56881
0
LINE
8
BLACK
6
CONTINUOUS
10
38.2855
20
-9.56881
11
38.3807
21
-9.75929
0
LINE
8
BLACK
6
CONTINUOUS
10
38.3807
20
-9.75929
11
38.476
21
-9.85452
0
LINE
8
BLACK
6
CONTINUOUS
10
38.476
20
-9.85452
11
38.6664
21
-9.94976
0
LINE
8
BLACK
6
CONTINUOUS
10
38.6664
20
-9.94976
11
39.0474
21
-9.94976
0
LINE
8
BLACK
6
CONTINUOUS
10
39.0474
20
-9.94976
11
39.2379
21
-9.85452
0
LINE
8
BLACK
6
CONTINUOUS
10
39.2379
20
-9.85452
11
39.3331
21
-9.75929
0
LINE
8
BLACK
6
CONTINUOUS
10
39.3331
20
-9.75929
11
39.4283
21
-9.56881
0
LINE
8
BLACK
6
CONTINUOUS
10
39.4283
20
-9.56881
11
39.4283
21
-9.18786
0
LINE
8
BLACK
6
CONTINUOUS
10
39.4283
20
-9.18786
11
39.3331
21
-8.99738
0
LINE
8
BLACK
6
CONTINUOUS
10
39.3331
20
-8.99738
11
39.2379
21
-8.90214
0
LINE
8
BLACK
6
CONTINUOUS
10
39.2379
20
-8.90214
11
39.0474
21
-8.8069
0
LINE
8
BLACK
6
CONTINUOUS
10
41.8093
20
-9.94976
11
41.8093
21
-7.94976
0
LINE
8
BLACK
6
CONTINUOUS
10
42.6664
20
-9.94976
11
42.6664
21
-8.90214
0
LINE
8
BLACK
6
CONTINUOUS
10
42.6664
20
-8.90214
11
42.5712
21
-8.71167
0
LINE
8
BLACK
6
CONTINUOUS
10
42.5712
20
-8.71167
11
42.3807
21
-8.61643
0
LINE
8
BLACK
6
CONTINUOUS
10
42.3807
20
-8.61643
11
42.095
21
-8.61643
0
LINE
8
BLACK
6
CONTINUOUS
10
42.095
20
-8.61643
11
41.9045
21
-8.71167
0
LINE
8
BLACK
6
CONTINUOUS
10
41.9045
20
-8.71167
11
41.8093
21
-8.8069
0
LINE
8
BLACK
6
CONTINUOUS
10
43.9045
20
-9.94976
11
43.714
21
-9.85452
0
LINE
8
BLACK
6
CONTINUOUS
10
43.714
20
-9.85452
11
43.6188
21
-9.75929
0
LINE
8
BLACK
6
CONTINUOUS
10
43.6188
20
-9.75929
11
43.5236
21
-9.56881
0
LINE
8
BLACK
6
CONTINUOUS
10
43.5236
20
-9.56881
11
43.5236
21
-8.99738
0
LINE
8
BLACK
6
CONTINUOUS
10
43.5236
20
-8.99738
11
43.6188
21
-8.8069
0
LINE
8
BLACK
6
CONTINUOUS
10
43.6188
20
-8.8069
11
43.714
21
-8.71167
0
LINE
8
BLACK
6
CONTINUOUS
10
43.714
20
-8.71167
11
43.9045
21
-8.61643
0
LINE
8
BLACK
6
CONTINUOUS
10
43.9045
20
-8.61643
11
44.1902
21
-8.61643
0
LINE
8
BLACK
6
CONTINUOUS
10
44.1902
20
-8.61643
11
44.3807
21
-8.71167
0
LINE
8
BLACK
6
CONTINUOUS
10
44.3807
20
-8.71167
11
44.476
21
-8.8069
0
LINE
8
BLACK
6
CONTINUOUS
10
44.476
20
-8.8069
11
44.5712
21
-8.99738
0
LINE
8
BLACK
6
CONTINUOUS
10
44.5712
20
-8.99738
11
44.5712
21
-9.56881
0
LINE
8
BLACK
6
CONTINUOUS
10
44.5712
20
-9.56881
11
44.476
21
-9.75929
0
LINE
8
BLACK
6
CONTINUOUS
10
44.476
20
-9.75929
11
44.3807
21
-9.85452
0
LINE
8
BLACK
6
CONTINUOUS
10
44.3807
20
-9.85452
11
44.1902
21
-9.94976
0
LINE
8
BLACK
6
CONTINUOUS
10
44.1902
20
-9.94976
11
43.9045
21
-9.94976
0
LINE
8
BLACK
6
CONTINUOUS
10
45.714
20
-9.94976
11
45.5236
21
-9.85452
0
LINE
8
BLACK
6
CONTINUOUS
10
45.5236
20
-9.85452
11
45.4283
21
-9.66405
0
LINE
8
BLACK
6
CONTINUOUS
10
45.4283
20
-9.66405
11
45.4283
21
-7.94976
0
LINE
8
BLACK
6
CONTINUOUS
10
47.2379
20
-9.85452
11
47.0474
21
-9.94976
0
LINE
8
BLACK
6
CONTINUOUS
10
47.0474
20
-9.94976
11
46.6664
21
-9.94976
0
LINE
8
BLACK
6
CONTINUOUS
10
46.6664
20
-9.94976
11
46.476
21
-9.85452
0
LINE
8
BLACK
6
CONTINUOUS
10
46.476
20
-9.85452
11
46.3807
21
-9.66405
0
LINE
8
BLACK
6
CONTINUOUS
10
46.3807
20
-9.66405
11
46.3807
21
-8.90214
0
LINE
8
BLACK
6
CONTINUOUS
10
46.3807
20
-8.90214
11
46.476
21
-8.71167
0
LINE
8
BLACK
6
CONTINUOUS
10
46.476
20
-8.71167
11
46.6664
21
-8.61643
0
LINE
8
BLACK
6
CONTINUOUS
10
46.6664
20
-8.61643
11
47.0474
21
-8.61643
0
LINE
8
BLACK
6
CONTINUOUS
10
47.0474
20
-8.61643
11
47.2379
21
-8.71167
0
LINE
8
BLACK
6
CONTINUOUS
10
47.2379
20
-8.71167
11
47.3331
21
-8.90214
0
LINE
8
BLACK
6
CONTINUOUS
10
47.3331
20
-8.90214
11
47.3331
21
-9.09262
0
LINE
8
BLACK
6
CONTINUOUS
10
47.3331
20
-9.09262
11
46.3807
21
-9.28309
0
LINE
8
BLACK
6
CONTINUOUS
10
48.095
20
-9.85452
11
48.2855
21
-9.94976
0
LINE
8
BLACK
6
CONTINUOUS
10
48.2855
20
-9.94976
11
48.6664
21
-9.94976
0
LINE
8
BLACK
6
CONTINUOUS
10
48.6664
20
-9.94976
11
48.8569
21
-9.85452
0
LINE
8
BLACK
6
CONTINUOUS
10
48.8569
20
-9.85452
11
48.9521
21
-9.66405
0
LINE
8
BLACK
6
CONTINUOUS
10
48.9521
20
-9.66405
11
48.9521
21
-9.56881
0
LINE
8
BLACK
6
CONTINUOUS
10
48.9521
20
-9.56881
11
48.8569
21
-9.37833
0
LINE
8
BLACK
6
CONTINUOUS
10
48.8569
20
-9.37833
11
48.6664
21
-9.28309
0
LINE
8
BLACK
6
CONTINUOUS
10
48.6664
20
-9.28309
11
48.3807
21
-9.28309
0
LINE
8
BLACK
6
CONTINUOUS
10
48.3807
20
-9.28309
11
48.1902
21
-9.18786
0
LINE
8
BLACK
6
CONTINUOUS
10
48.1902
20
-9.18786
11
48.095
21
-8.99738
0
LINE
8
BLACK
6
CONTINUOUS
10
48.095
20
-8.99738
11
48.095
21
-8.90214
0
LINE
8
BLACK
6
CONTINUOUS
10
48.095
20
-8.90214
11
48.1902
21
-8.71167
0
LINE
8
BLACK
6
CONTINUOUS
10
48.1902
20
-8.71167
11
48.3807
21
-8.61643
0
LINE
8
BLACK
6
CONTINUOUS
10
48.3807
20
-8.61643
11
48.6664
21
-8.61643
0
LINE
8
BLACK
6
CONTINUOUS
10
48.6664
20
-8.61643
11
48.8569
21
-8.71167
0
LINE
8
BLACK
6
CONTINUOUS
10
49.6188
20
-10.7117
11
49.714
21
-10.6164
0
LINE
8
BLACK
6
CONTINUOUS
10
49.714
20
-10.6164
11
49.9045
21
-10.3307
0
LINE
8
BLACK
6
CONTINUOUS
10
49.9045
20
-10.3307
11
49.9998
21
-10.1402
0
LINE
8
BLACK
6
CONTINUOUS
10
49.9998
20
-10.1402
11
50.095
21
-9.85452
0
LINE
8
BLACK
6
CONTINUOUS
10
50.095
20
-9.85452
11
50.1902
21
-9.37833
0
LINE
8
BLACK
6
CONTINUOUS
10
50.1902
20
-9.37833
11
50.1902
21
-8.99738
0
LINE
8
BLACK
6
CONTINUOUS
10
50.1902
20
-8.99738
11
50.095
21
-8.52119
0
LINE
8
BLACK
6
CONTINUOUS
10
50.095
20
-8.52119
11
49.9998
21
-8.23548
0
LINE
8
BLACK
6
CONTINUOUS
10
49.9998
20
-8.23548
11
49.9045
21
-8.045
0
LINE
8
BLACK
6
CONTINUOUS
10
49.9045
20
-8.045
11
49.714
21
-7.75928
0
LINE
8
BLACK
6
CONTINUOUS
10
49.714
20
-7.75928
11
49.6188
21
-7.66405
0
LINE
8
BLACK
6
CONTINUOUS
10
-0.375
20
-11.315
11
-0.375
21
-12.055
0
LINE
8
BLACK
6
CONTINUOUS
10
-0.745
20
-11.685
11
-0.005
21
-11.685
0
LINE
8
BLACK
6
CONTINUOUS
10
2.95214
20
-10.5898
11
3.14262
21
-10.5898
0
LINE
8
BLACK
6
CONTINUOUS
10
3.14262
20
-10.5898
11
3.33309
21
-10.685
0
LINE
8
BLACK
6
CONTINUOUS
10
3.33309
20
-10.685
11
3.42833
21
-10.7802
0
LINE
8
BLACK
6
CONTINUOUS
10
3.42833
20
-10.7802
11
3.52357
21
-10.9707
0
LINE
8
BLACK
6
CONTINUOUS
10
3.52357
20
-10.9707
11
3.61881
21
-11.3517
0
LINE
8
BLACK
6
CONTINUOUS
10
3.61881
20
-11.3517
11
3.61881
21
-11.8279
0
LINE
8
BLACK
6
CONTINUOUS
10
3.61881
20
-11.8279
11
3.52357
21
-12.2088
0
LINE
8
BLACK
6
CONTINUOUS
10
3.52357
20
-12.2088
11
3.42833
21
-12.3993
0
LINE
8
BLACK
6
CONTINUOUS
10
3.42833
20
-12.3993
11
3.33309
21
-12.4945
0
LINE
8
BLACK
6
CONTINUOUS
10
3.33309
20
-12.4945
11
3.14262
21
-12.5898
0
LINE
8
BLACK
6
CONTINUOUS
10
3.14262
20
-12.5898
11
2.95214
21
-12.5898
0
LINE
8
BLACK
6
CONTINUOUS
10
2.95214
20
-12.5898
11
2.76167
21
-12.4945
0
LINE
8
BLACK
6
CONTINUOUS
10
2.76167
20
-12.4945
11
2.66643
21
-12.3993
0
LINE
8
BLACK
6
CONTINUOUS
10
2.66643
20
-12.3993
11
2.57119
21
-12.2088
0
LINE
8
BLACK
6
CONTINUOUS
10
2.57119
20
-12.2088
11
2.47595
21
-11.8279
0
LINE
8
BLACK
6
CONTINUOUS
10
2.47595
20
-11.8279
11
2.47595
21
-11.3517
0
LINE
8
BLACK
6
CONTINUOUS
10
2.47595
20
-11.3517
11
2.57119
21
-10.9707
0
LINE
8
BLACK
6
CONTINUOUS
10
2.57119
20
-10.9707
11
2.66643
21
-10.7802
0
LINE
8
BLACK
6
CONTINUOUS
10
2.66643
20
-10.7802
11
2.76167
21
-10.685
0
LINE
8
BLACK
6
CONTINUOUS
10
2.76167
20
-10.685
11
2.95214
21
-10.5898
0
LINE
8
BLACK
6
CONTINUOUS
10
4.47595
20
-12.3993
11
4.57119
21
-12.4945
0
LINE
8
BLACK
6
CONTINUOUS
10
4.57119
20
-12.4945
11
4.47595
21
-12.5898
0
LINE
8
BLACK
6
CONTINUOUS
10
4.47595
20
-12.5898
11
4.38071
21
-12.4945
0
LINE
8
BLACK
6
CONTINUOUS
10
4.38071
20
-12.4945
11
4.47595
21
-12.3993
0
LINE
8
BLACK
6
CONTINUOUS
10
4.47595
20
-12.3993
11
4.47595
21
-12.5898
0
LINE
8
BLACK
6
CONTINUOUS
10
5.23786
20
-10.5898
11
6.57119
21
-10.5898
0
LINE
8
BLACK
6
CONTINUOUS
10
6.57119
20
-10.5898
11
5.71405
21
-12.5898
0
LINE
8
BLACK
6
CONTINUOUS
10
8.19024
20
-11.2564
11
8.19024
21
-12.5898
0
LINE
8
BLACK
6
CONTINUOUS
10
7.71405
20
-10.4945
11
7.23786
21
-11.9231
0
LINE
8
BLACK
6
CONTINUOUS
10
7.23786
20
-11.9231
11
8.47595
21
-11.9231
0
LINE
8
BLACK
6
CONTINUOUS
10
9.61881
20
-10.5898
11
9.80928
21
-10.5898
0
LINE
8
BLACK
6
CONTINUOUS
10
9.80928
20
-10.5898
11
9.99976
21
-10.685
0
LINE
8
BLACK
6
CONTINUOUS
10
9.99976
20
-10.685
11
10.095
21
-10.7802
0
LINE
8
BLACK
6
CONTINUOUS
10
10.095
20
-10.7802
11
10.1902
21
-10.9707
0
LINE
8
BLACK
6
CONTINUOUS
10
10.1902
20
-10.9707
11
10.2855
21
-11.3517
0
LINE
8
BLACK
6
CONTINUOUS
10
10.2855
20
-11.3517
11
10.2855
21
-11.8279
0
LINE
8
BLACK
6
CONTINUOUS
10
10.2855
20
-11.8279
11
10.1902
21
-12.2088
0
LINE
8
BLACK
6
CONTINUOUS
10
10.1902
20
-12.2088
11
10.095
21
-12.3993
0
LINE
8
BLACK
6
CONTINUOUS
10
10.095
20
-12.3993
11
9.99976
21
-12.4945
0
LINE
8
BLACK
6
CONTINUOUS
10
9.99976
20
-12.4945
11
9.80928
21
-12.5898
0
LINE
8
BLACK
6
CONTINUOUS
10
9.80928
20
-12.5898
11
9.61881
21
-12.5898
0
LINE
8
BLACK
6
CONTINUOUS
10
9.61881
20
-12.5898
11
9.42833
21
-12.4945
0
LINE
8
BLACK
6
CONTINUOUS
10
9.42833
20
-12.4945
11
9.3331
21
-12.3993
0
LINE
8
BLACK
6
CONTINUOUS
10
9.3331
20
-12.3993
11
9.23786
21
-12.2088
0
LINE
8
BLACK
6
CONTINUOUS
10
9.23786
20
-12.2088
11
9.14262
21
-11.8279
0
LINE
8
BLACK
6
CONTINUOUS
10
9.14262
20
-11.8279
11
9.14262
21
-11.3517
0
LINE
8
BLACK
6
CONTINUOUS
10
9.14262
20
-11.3517
11
9.23786
21
-10.9707
0
LINE
8
BLACK
6
CONTINUOUS
10
9.23786
20
-10.9707
11
9.3331
21
-10.7802
0
LINE
8
BLACK
6
CONTINUOUS
10
9.3331
20
-10.7802
11
9.42833
21
-10.685
0
LINE
8
BLACK
6
CONTINUOUS
10
9.42833
20
-10.685
11
9.61881
21
-10.5898
0
LINE
8
BLACK
6
CONTINUOUS
10
11.1426
20
-12.5898
11
11.1426
21
-11.2564
0
LINE
8
BLACK
6
CONTINUOUS
10
11.1426
20
-11.4469
11
11.2379
21
-11.3517
0
LINE
8
BLACK
6
CONTINUOUS
10
11.2379
20
-11.3517
11
11.4283
21
-11.2564
0
LINE
8
BLACK
6
CONTINUOUS
10
11.4283
20
-11.2564
11
11.714
21
-11.2564
0
LINE
8
BLACK
6
CONTINUOUS
10
11.714
20
-11.2564
11
11.9045
21
-11.3517
0
LINE
8
BLACK
6
CONTINUOUS
10
11.9045
20
-11.3517
11
11.9998
21
-11.5421
0
LINE
8
BLACK
6
CONTINUOUS
10
11.9998
20
-11.5421
11
11.9998
21
-12.5898
0
LINE
8
BLACK
6
CONTINUOUS
10
11.9998
20
-11.5421
11
12.095
21
-11.3517
0
LINE
8
BLACK
6
CONTINUOUS
10
12.095
20
-11.3517
11
12.2855
21
-11.2564
0
LINE
8
BLACK
6
CONTINUOUS
10
12.2855
20
-11.2564
11
12.5712
21
-11.2564
0
LINE
8
BLACK
6
CONTINUOUS
10
12.5712
20
-11.2564
11
12.7617
21
-11.3517
0
LINE
8
BLACK
6
CONTINUOUS
10
12.7617
20
-11.3517
11
12.8569
21
-11.5421
0
LINE
8
BLACK
6
CONTINUOUS
10
12.8569
20
-11.5421
11
12.8569
21
-12.5898
0
LINE
8
BLACK
6
CONTINUOUS
10
13.8093
20
-12.5898
11
13.8093
21
-11.2564
0
LINE
8
BLACK
6
CONTINUOUS
10
13.8093
20
-11.4469
11
13.9045
21
-11.3517
0
LINE
8
BLACK
6
CONTINUOUS
10
13.9045
20
-11.3517
11
14.095
21
-11.2564
0
LINE
8
BLACK
6
CONTINUOUS
10
14.095
20
-11.2564
11
14.3807
21
-11.2564
0
LINE
8
BLACK
6
CONTINUOUS
10
14.3807
20
-11.2564
11
14.5712
21
-11.3517
0
LINE
8
BLACK
6
CONTINUOUS
10
14.5712
20
-11.3517
11
14.6664
21
-11.5421
0
LINE
8
BLACK
6
CONTINUOUS
10
14.6664
20
-11.5421
11
14.6664
21
-12.5898
0
LINE
8
BLACK
6
CONTINUOUS
10
14.6664
20
-11.5421
11
14.7617
21
-11.3517
0
LINE
8
BLACK
6
CONTINUOUS
10
14.7617
20
-11.3517
11
14.9521
21
-11.2564
0
LINE
8
BLACK
6
CONTINUOUS
10
14.9521
20
-11.2564
11
15.2379
21
-11.2564
0
LINE
8
BLACK
6
CONTINUOUS
10
15.2379
20
-11.2564
11
15.4283
21
-11.3517
0
LINE
8
BLACK
6
CONTINUOUS
10
15.4283
20
-11.3517
11
15.5236
21
-11.5421
0
LINE
8
BLACK
6
CONTINUOUS
10
15.5236
20
-11.5421
11
15.5236
21
-12.5898
0
LINE
8
BLACK
6
CONTINUOUS
10
19.4283
20
-10.4945
11
17.714
21
-13.066
0
LINE
8
BLACK
6
CONTINUOUS
10
21.9998
20
-10.5898
11
22.1902
21
-10.5898
0
LINE
8
BLACK
6
CONTINUOUS
10
22.1902
20
-10.5898
11
22.3807
21
-10.685
0
LINE
8
BLACK
6
CONTINUOUS
10
22.3807
20
-10.685
11
22.476
21
-10.7802
0
LINE
8
BLACK
6
CONTINUOUS
10
22.476
20
-10.7802
11
22.5712
21
-10.9707
0
LINE
8
BLACK
6
CONTINUOUS
10
22.5712
20
-10.9707
11
22.6664
21
-11.3517
0
LINE
8
BLACK
6
CONTINUOUS
10
22.6664
20
-11.3517
11
22.6664
21
-11.8279
0
LINE
8
BLACK
6
CONTINUOUS
10
22.6664
20
-11.8279
11
22.5712
21
-12.2088
0
LINE
8
BLACK
6
CONTINUOUS
10
22.5712
20
-12.2088
11
22.476
21
-12.3993
0
LINE
8
BLACK
6
CONTINUOUS
10
22.476
20
-12.3993
11
22.3807
21
-12.4945
0
LINE
8
BLACK
6
CONTINUOUS
10
22.3807
20
-12.4945
11
22.1902
21
-12.5898
0
LINE
8
BLACK
6
CONTINUOUS
10
22.1902
20
-12.5898
11
21.9998
21
-12.5898
0
LINE
8
BLACK
6
CONTINUOUS
10
21.9998
20
-12.5898
11
21.8093
21
-12.4945
0
LINE
8
BLACK
6
CONTINUOUS
10
21.8093
20
-12.4945
11
21.714
21
-12.3993
0
LINE
8
BLACK
6
CONTINUOUS
10
21.714
20
-12.3993
11
21.6188
21
-12.2088
0
LINE
8
BLACK
6
CONTINUOUS
10
21.6188
20
-12.2088
11
21.5236
21
-11.8279
0
LINE
8
BLACK
6
CONTINUOUS
10
21.5236
20
-11.8279
11
21.5236
21
-11.3517
0
LINE
8
BLACK
6
CONTINUOUS
10
21.5236
20
-11.3517
11
21.6188
21
-10.9707
0
LINE
8
BLACK
6
CONTINUOUS
10
21.6188
20
-10.9707
11
21.714
21
-10.7802
0
LINE
8
BLACK
6
CONTINUOUS
10
21.714
20
-10.7802
11
21.8093
21
-10.685
0
LINE
8
BLACK
6
CONTINUOUS
10
21.8093
20
-10.685
11
21.9998
21
-10.5898
0
LINE
8
BLACK
6
CONTINUOUS
10
23.5236
20
-12.3993
11
23.6188
21
-12.4945
0
LINE
8
BLACK
6
CONTINUOUS
10
23.6188
20
-12.4945
11
23.5236
21
-12.5898
0
LINE
8
BLACK
6
CONTINUOUS
10
23.5236
20
-12.5898
11
23.4283
21
-12.4945
0
LINE
8
BLACK
6
CONTINUOUS
10
23.4283
20
-12.4945
11
23.5236
21
-12.3993
0
LINE
8
BLACK
6
CONTINUOUS
10
23.5236
20
-12.3993
11
23.5236
21
-12.5898
0
LINE
8
BLACK
6
CONTINUOUS
10
24.8569
20
-10.5898
11
25.0474
21
-10.5898
0
LINE
8
BLACK
6
CONTINUOUS
10
25.0474
20
-10.5898
11
25.2379
21
-10.685
0
LINE
8
BLACK
6
CONTINUOUS
10
25.2379
20
-10.685
11
25.3331
21
-10.7802
0
LINE
8
BLACK
6
CONTINUOUS
10
25.3331
20
-10.7802
11
25.4283
21
-10.9707
0
LINE
8
BLACK
6
CONTINUOUS
10
25.4283
20
-10.9707
11
25.5236
21
-11.3517
0
LINE
8
BLACK
6
CONTINUOUS
10
25.5236
20
-11.3517
11
25.5236
21
-11.8279
0
LINE
8
BLACK
6
CONTINUOUS
10
25.5236
20
-11.8279
11
25.4283
21
-12.2088
0
LINE
8
BLACK
6
CONTINUOUS
10
25.4283
20
-12.2088
11
25.3331
21
-12.3993
0
LINE
8
BLACK
6
CONTINUOUS
10
25.3331
20
-12.3993
11
25.2379
21
-12.4945
0
LINE
8
BLACK
6
CONTINUOUS
10
25.2379
20
-12.4945
11
25.0474
21
-12.5898
0
LINE
8
BLACK
6
CONTINUOUS
10
25.0474
20
-12.5898
11
24.8569
21
-12.5898
0
LINE
8
BLACK
6
CONTINUOUS
10
24.8569
20
-12.5898
11
24.6664
21
-12.4945
0
LINE
8
BLACK
6
CONTINUOUS
10
24.6664
20
-12.4945
11
24.5712
21
-12.3993
0
LINE
8
BLACK
6
CONTINUOUS
10
24.5712
20
-12.3993
11
24.476
21
-12.2088
0
LINE
8
BLACK
6
CONTINUOUS
10
24.476
20
-12.2088
11
24.3807
21
-11.8279
0
LINE
8
BLACK
6
CONTINUOUS
10
24.3807
20
-11.8279
11
24.3807
21
-11.3517
0
LINE
8
BLACK
6
CONTINUOUS
10
24.3807
20
-11.3517
11
24.476
21
-10.9707
0
LINE
8
BLACK
6
CONTINUOUS
10
24.476
20
-10.9707
11
24.5712
21
-10.7802
0
LINE
8
BLACK
6
CONTINUOUS
10
24.5712
20
-10.7802
11
24.6664
21
-10.685
0
LINE
8
BLACK
6
CONTINUOUS
10
24.6664
20
-10.685
11
24.8569
21
-10.5898
0
LINE
8
BLACK
6
CONTINUOUS
10
26.2855
20
-10.7802
11
26.3807
21
-10.685
0
LINE
8
BLACK
6
CONTINUOUS
10
26.3807
20
-10.685
11
26.5712
21
-10.5898
0
LINE
8
BLACK
6
CONTINUOUS
10
26.5712
20
-10.5898
11
27.0474
21
-10.5898
0
LINE
8
BLACK
6
CONTINUOUS
10
27.0474
20
-10.5898
11
27.2379
21
-10.685
0
LINE
8
BLACK
6
CONTINUOUS
10
27.2379
20
-10.685
11
27.3331
21
-10.7802
0
LINE
8
BLACK
6
CONTINUOUS
10
27.3331
20
-10.7802
11
27.4283
21
-10.9707
0
LINE
8
BLACK
6
CONTINUOUS
10
27.4283
20
-10.9707
11
27.4283
21
-11.1612
0
LINE
8
BLACK
6
CONTINUOUS
10
27.4283
20
-11.1612
11
27.3331
21
-11.4469
0
LINE
8
BLACK
6
CONTINUOUS
10
27.3331
20
-11.4469
11
26.1902
21
-12.5898
0
LINE
8
BLACK
6
CONTINUOUS
10
26.1902
20
-12.5898
11
27.4283
21
-12.5898
0
LINE
8
BLACK
6
CONTINUOUS
10
28.3807
20
-12.5898
11
28.7617
21
-12.5898
0
LINE
8
BLACK
6
CONTINUOUS
10
28.7617
20
-12.5898
11
28.9521
21
-12.4945
0
LINE
8
BLACK
6
CONTINUOUS
10
28.9521
20
-12.4945
11
29.0474
21
-12.3993
0
LINE
8
BLACK
6
CONTINUOUS
10
29.0474
20
-12.3993
11
29.2379
21
-12.1136
0
LINE
8
BLACK
6
CONTINUOUS
10
29.2379
20
-12.1136
11
29.3331
21
-11.7326
0
LINE
8
BLACK
6
CONTINUOUS
10
29.3331
20
-11.7326
11
29.3331
21
-10.9707
0
LINE
8
BLACK
6
CONTINUOUS
10
29.3331
20
-10.9707
11
29.2379
21
-10.7802
0
LINE
8
BLACK
6
CONTINUOUS
10
29.2379
20
-10.7802
11
29.1426
21
-10.685
0
LINE
8
BLACK
6
CONTINUOUS
10
29.1426
20
-10.685
11
28.9521
21
-10.5898
0
LINE
8
BLACK
6
CONTINUOUS
10
28.9521
20
-10.5898
11
28.5712
21
-10.5898
0
LINE
8
BLACK
6
CONTINUOUS
10
28.5712
20
-10.5898
11
28.3807
21
-10.685
0
LINE
8
BLACK
6
CONTINUOUS
10
28.3807
20
-10.685
11
28.2855
21
-10.7802
0
LINE
8
BLACK
6
CONTINUOUS
10
28.2855
20
-10.7802
11
28.1902
21
-10.9707
0
LINE
8
BLACK
6
CONTINUOUS
10
28.1902
20
-10.9707
11
28.1902
21
-11.4469
0
LINE
8
BLACK
6
CONTINUOUS
10
28.1902
20
-11.4469
11
28.2855
21
-11.6374
0
LINE
8
BLACK
6
CONTINUOUS
10
28.2855
20
-11.6374
11
28.3807
21
-11.7326
0
LINE
8
BLACK
6
CONTINUOUS
10
28.3807
20
-11.7326
11
28.5712
21
-11.8279
0
LINE
8
BLACK
6
CONTINUOUS
10
28.5712
20
-11.8279
11
28.9521
21
-11.8279
0
LINE
8
BLACK
6
CONTINUOUS
10
28.9521
20
-11.8279
11
29.1426
21
-11.7326
0
LINE
8
BLACK
6
CONTINUOUS
10
29.1426
20
-11.7326
11
29.2379
21
-11.6374
0
LINE
8
BLACK
6
CONTINUOUS
10
29.2379
20
-11.6374
11
29.3331
21
-11.4469
0
LINE
8
BLACK
6
CONTINUOUS
10
31.2379
20
-12.5898
11
30.095
21
-12.5898
0
LINE
8
BLACK
6
CONTINUOUS
10
30.6664
20
-12.5898
11
30.6664
21
-10.5898
0
LINE
8
BLACK
6
CONTINUOUS
10
30.6664
20
-10.5898
11
30.476
21
-10.8755
0
LINE
8
BLACK
6
CONTINUOUS
10
30.476
20
-10.8755
11
30.2855
21
-11.066
0
LINE
8
BLACK
6
CONTINUOUS
10
30.2855
20
-11.066
11
30.095
21
-11.1612
0
LINE
8
BLACK
6
CONTINUOUS
10
31.9998
20
-10.5898
11
31.9998
21
-10.9707
0
LINE
8
BLACK
6
CONTINUOUS
10
32.7617
20
-10.5898
11
32.7617
21
-10.9707
0
LINE
8
BLACK
6
CONTINUOUS
10
35.714
20
-13.3517
11
35.6188
21
-13.2564
0
LINE
8
BLACK
6
CONTINUOUS
10
35.6188
20
-13.2564
11
35.4283
21
-12.9707
0
LINE
8
BLACK
6
CONTINUOUS
10
35.4283
20
-12.9707
11
35.3331
21
-12.7802
0
LINE
8
BLACK
6
CONTINUOUS
10
35.3331
20
-12.7802
11
35.2379
21
-12.4945
0
LINE
8
BLACK
6
CONTINUOUS
10
35.2379
20
-12.4945
11
35.1426
21
-12.0183
0
LINE
8
BLACK
6
CONTINUOUS
10
35.1426
20
-12.0183
11
35.1426
21
-11.6374
0
LINE
8
BLACK
6
CONTINUOUS
10
35.1426
20
-11.6374
11
35.2379
21
-11.1612
0
LINE
8
BLACK
6
CONTINUOUS
10
35.2379
20
-11.1612
11
35.3331
21
-10.8755
0
LINE
8
BLACK
6
CONTINUOUS
10
35.3331
20
-10.8755
11
35.4283
21
-10.685
0
LINE
8
BLACK
6
CONTINUOUS
10
35.4283
20
-10.685
11
35.6188
21
-10.3993
0
LINE
8
BLACK
6
CONTINUOUS
10
35.6188
20
-10.3993
11
35.714
21
-10.304
0
LINE
8
BLACK
6
CONTINUOUS
10
36.3807
20
-10.7802
11
36.476
21
-10.685
0
LINE
8
BLACK
6
CONTINUOUS
10
36.476
20
-10.685
11
36.6664
21
-10.5898
0
LINE
8
BLACK
6
CONTINUOUS
10
36.6664
20
-10.5898
11
37.1426
21
-10.5898
0
LINE
8
BLACK
6
CONTINUOUS
10
37.1426
20
-10.5898
11
37.3331
21
-10.685
0
LINE
8
BLACK
6
CONTINUOUS
10
37.3331
20
-10.685
11
37.4283
21
-10.7802
0
LINE
8
BLACK
6
CONTINUOUS
10
37.4283
20
-10.7802
11
37.5236
21
-10.9707
0
LINE
8
BLACK
6
CONTINUOUS
10
37.5236
20
-10.9707
11
37.5236
21
-11.1612
0
LINE
8
BLACK
6
CONTINUOUS
10
37.5236
20
-11.1612
11
37.4283
21
-11.4469
0
LINE
8
BLACK
6
CONTINUOUS
10
37.4283
20
-11.4469
11
36.2855
21
-12.5898
0
LINE
8
BLACK
6
CONTINUOUS
10
36.2855
20
-12.5898
11
37.5236
21
-12.5898
0
LINE
8
BLACK
6
CONTINUOUS
10
38.7617
20
-10.5898
11
38.9521
21
-10.5898
0
LINE
8
BLACK
6
CONTINUOUS
10
38.9521
20
-10.5898
11
39.1426
21
-10.685
0
LINE
8
BLACK
6
CONTINUOUS
10
39.1426
20
-10.685
11
39.2379
21
-10.7802
0
LINE
8
BLACK
6
CONTINUOUS
10
39.2379
20
-10.7802
11
39.3331
21
-10.9707
0
LINE
8
BLACK
6
CONTINUOUS
10
39.3331
20
-10.9707
11
39.4283
21
-11.3517
0
LINE
8
BLACK
6
CONTINUOUS
10
39.4283
20
-11.3517
11
39.4283
21
-11.8279
0
LINE
8
BLACK
6
CONTINUOUS
10
39.4283
20
-11.8279
11
39.3331
21
-12.2088
0
LINE
8
BLACK
6
CONTINUOUS
10
39.3331
20
-12.2088
11
39.2379
21
-12.3993
0
LINE
8
BLACK
6
CONTINUOUS
10
39.2379
20
-12.3993
11
39.1426
21
-12.4945
0
LINE
8
BLACK
6
CONTINUOUS
10
39.1426
20
-12.4945
11
38.9521
21
-12.5898
0
LINE
8
BLACK
6
CONTINUOUS
10
38.9521
20
-12.5898
11
38.7617
21
-12.5898
0
LINE
8
BLACK
6
CONTINUOUS
10
38.7617
20
-12.5898
11
38.5712
21
-12.4945
0
LINE
8
BLACK
6
CONTINUOUS
10
38.5712
20
-12.4945
11
38.476
21
-12.3993
0
LINE
8
BLACK
6
CONTINUOUS
10
38.476
20
-12.3993
11
38.3807
21
-12.2088
0
LINE
8
BLACK
6
CONTINUOUS
10
38.3807
20
-12.2088
11
38.2855
21
-11.8279
0
LINE
8
BLACK
6
CONTINUOUS
10
38.2855
20
-11.8279
11
38.2855
21
-11.3517
0
LINE
8
BLACK
6
CONTINUOUS
10
38.2855
20
-11.3517
11
38.3807
21
-10.9707
0
LINE
8
BLACK
6
CONTINUOUS
10
38.3807
20
-10.9707
11
38.476
21
-10.7802
0
LINE
8
BLACK
6
CONTINUOUS
10
38.476
20
-10.7802
11
38.5712
21
-10.685
0
LINE
8
BLACK
6
CONTINUOUS
10
38.5712
20
-10.685
11
38.7617
21
-10.5898
0
LINE
8
BLACK
6
CONTINUOUS
10
41.8093
20
-12.5898
11
41.8093
21
-10.5898
0
LINE
8
BLACK
6
CONTINUOUS
10
42.6664
20
-12.5898
11
42.6664
21
-11.5421
0
LINE
8
BLACK
6
CONTINUOUS
10
42.6664
20
-11.5421
11
42.5712
21
-11.3517
0
LINE
8
BLACK
6
CONTINUOUS
10
42.5712
20
-11.3517
11
42.3807
21
-11.2564
0
LINE
8
BLACK
6
CONTINUOUS
10
42.3807
20
-11.2564
11
42.095
21
-11.2564
0
LINE
8
BLACK
6
CONTINUOUS
10
42.095
20
-11.2564
11
41.9045
21
-11.3517
0
LINE
8
BLACK
6
CONTINUOUS
10
41.9045
20
-11.3517
11
41.8093
21
-11.4469
0
LINE
8
BLACK
6
CONTINUOUS
10
43.9045
20
-12.5898
11
43.714
21
-12.4945
0
LINE
8
BLACK
6
CONTINUOUS
10
43.714
20
-12.4945
11
43.6188
21
-12.3993
0
LINE
8
BLACK
6
CONTINUOUS
10
43.6188
20
-12.3993
11
43.5236
21
-12.2088
0
LINE
8
BLACK
6
CONTINUOUS
10
43.5236
20
-12.2088
11
43.5236
21
-11.6374
0
LINE
8
BLACK
6
CONTINUOUS
10
43.5236
20
-11.6374
11
43.6188
21
-11.4469
0
LINE
8
BLACK
6
CONTINUOUS
10
43.6188
20
-11.4469
11
43.714
21
-11.3517
0
LINE
8
BLACK
6
CONTINUOUS
10
43.714
20
-11.3517
11
43.9045
21
-11.2564
0
LINE
8
BLACK
6
CONTINUOUS
10
43.9045
20
-11.2564
11
44.1902
21
-11.2564
0
LINE
8
BLACK
6
CONTINUOUS
10
44.1902
20
-11.2564
11
44.3807
21
-11.3517
0
LINE
8
BLACK
6
CONTINUOUS
10
44.3807
20
-11.3517
11
44.476
21
-11.4469
0
LINE
8
BLACK
6
CONTINUOUS
10
44.476
20
-11.4469
11
44.5712
21
-11.6374
0
LINE
8
BLACK
6
CONTINUOUS
10
44.5712
20
-11.6374
11
44.5712
21
-12.2088
0
LINE
8
BLACK
6
CONTINUOUS
10
44.5712
20
-12.2088
11
44.476
21
-12.3993
0
LINE
8
BLACK
6
CONTINUOUS
10
44.476
20
-12.3993
11
44.3807
21
-12.4945
0
LINE
8
BLACK
6
CONTINUOUS
10
44.3807
20
-12.4945
11
44.1902
21
-12.5898
0
LINE
8
BLACK
6
CONTINUOUS
10
44.1902
20
-12.5898
11
43.9045
21
-12.5898
0
LINE
8
BLACK
6
CONTINUOUS
10
45.714
20
-12.5898
11
45.5236
21
-12.4945
0
LINE
8
BLACK
6
CONTINUOUS
10
45.5236
20
-12.4945
11
45.4283
21
-12.304
0
LINE
8
BLACK
6
CONTINUOUS
10
45.4283
20
-12.304
11
45.4283
21
-10.5898
0
LINE
8
BLACK
6
CONTINUOUS
10
47.2379
20
-12.4945
11
47.0474
21
-12.5898
0
LINE
8
BLACK
6
CONTINUOUS
10
47.0474
20
-12.5898
11
46.6664
21
-12.5898
0
LINE
8
BLACK
6
CONTINUOUS
10
46.6664
20
-12.5898
11
46.476
21
-12.4945
0
LINE
8
BLACK
6
CONTINUOUS
10
46.476
20
-12.4945
11
46.3807
21
-12.304
0
LINE
8
BLACK
6
CONTINUOUS
10
46.3807
20
-12.304
11
46.3807
21
-11.5421
0
LINE
8
BLACK
6
CONTINUOUS
10
46.3807
20
-11.5421
11
46.476
21
-11.3517
0
LINE
8
BLACK
6
CONTINUOUS
10
46.476
20
-11.3517
11
46.6664
21
-11.2564
0
LINE
8
BLACK
6
CONTINUOUS
10
46.6664
20
-11.2564
11
47.0474
21
-11.2564
0
LINE
8
BLACK
6
CONTINUOUS
10
47.0474
20
-11.2564
11
47.2379
21
-11.3517
0
LINE
8
BLACK
6
CONTINUOUS
10
47.2379
20
-11.3517
11
47.3331
21
-11.5421
0
LINE
8
BLACK
6
CONTINUOUS
10
47.3331
20
-11.5421
11
47.3331
21
-11.7326
0
LINE
8
BLACK
6
CONTINUOUS
10
47.3331
20
-11.7326
11
46.3807
21
-11.9231
0
LINE
8
BLACK
6
CONTINUOUS
10
48.095
20
-12.4945
11
48.2855
21
-12.5898
0
LINE
8
BLACK
6
CONTINUOUS
10
48.2855
20
-12.5898
11
48.6664
21
-12.5898
0
LINE
8
BLACK
6
CONTINUOUS
10
48.6664
20
-12.5898
11
48.8569
21
-12.4945
0
LINE
8
BLACK
6
CONTINUOUS
10
48.8569
20
-12.4945
11
48.9521
21
-12.304
0
LINE
8
BLACK
6
CONTINUOUS
10
48.9521
20
-12.304
11
48.9521
21
-12.2088
0
LINE
8
BLACK
6
CONTINUOUS
10
48.9521
20
-12.2088
11
48.8569
21
-12.0183
0
LINE
8
BLACK
6
CONTINUOUS
10
48.8569
20
-12.0183
11
48.6664
21
-11.9231
0
LINE
8
BLACK
6
CONTINUOUS
10
48.6664
20
-11.9231
11
48.3807
21
-11.9231
0
LINE
8
BLACK
6
CONTINUOUS
10
48.3807
20
-11.9231
11
48.1902
21
-11.8279
0
LINE
8
BLACK
6
CONTINUOUS
10
48.1902
20
-11.8279
11
48.095
21
-11.6374
0
LINE
8
BLACK
6
CONTINUOUS
10
48.095
20
-11.6374
11
48.095
21
-11.5421
0
LINE
8
BLACK
6
CONTINUOUS
10
48.095
20
-11.5421
11
48.1902
21
-11.3517
0
LINE
8
BLACK
6
CONTINUOUS
10
48.1902
20
-11.3517
11
48.3807
21
-11.2564
0
LINE
8
BLACK
6
CONTINUOUS
10
48.3807
20
-11.2564
11
48.6664
21
-11.2564
0
LINE
8
BLACK
6
CONTINUOUS
10
48.6664
20
-11.2564
11
48.8569
21
-11.3517
0
LINE
8
BLACK
6
CONTINUOUS
10
49.6188
20
-13.3517
11
49.714
21
-13.2564
0
LINE
8
BLACK
6
CONTINUOUS
10
49.714
20
-13.2564
11
49.9045
21
-12.9707
0
LINE
8
BLACK
6
CONTINUOUS
10
49.9045
20
-12.9707
11
49.9998
21
-12.7802
0
LINE
8
BLACK
6
CONTINUOUS
10
49.9998
20
-12.7802
11
50.095
21
-12.4945
0
LINE
8
BLACK
6
CONTINUOUS
10
50.095
20
-12.4945
11
50.1902
21
-12.0183
0
LINE
8
BLACK
6
CONTINUOUS
10
50.1902
20
-12.0183
11
50.1902
21
-11.6374
0
LINE
8
BLACK
6
CONTINUOUS
10
50.1902
20
-11.6374
11
50.095
21
-11.1612
0
LINE
8
BLACK
6
CONTINUOUS
10
50.095
20
-11.1612
11
49.9998
21
-10.8755
0
LINE
8
BLACK
6
CONTINUOUS
10
49.9998
20
-10.8755
11
49.9045
21
-10.685
0
LINE
8
BLACK
6
CONTINUOUS
10
49.9045
20
-10.685
11
49.714
21
-10.3993
0
LINE
8
BLACK
6
CONTINUOUS
10
49.714
20
-10.3993
11
49.6188
21
-10.304
0
LINE
8
BLACK
6
CONTINUOUS
10
-0.151443
20
-14.6786
11
-0.151443
21
-13.9714
0
LINE
8
BLACK
6
CONTINUOUS
10
-0.151443
20
-13.9714
11
-0.858557
21
-13.9714
0
LINE
8
BLACK
6
CONTINUOUS
10
-0.858557
20
-13.9714
11
-0.858557
21
-14.6786
0
LINE
8
BLACK
6
CONTINUOUS
10
-0.858557
20
-14.6786
11
-0.151443
21
-14.6786
0
LINE
8
BLACK
6
CONTINUOUS
10
3.61881
20
-15.2298
11
2.47595
21
-15.2298
0
LINE
8
BLACK
6
CONTINUOUS
10
3.04738
20
-15.2298
11
3.04738
21
-13.2298
0
LINE
8
BLACK
6
CONTINUOUS
10
3.04738
20
-13.2298
11
2.8569
21
-13.5155
0
LINE
8
BLACK
6
CONTINUOUS
10
2.8569
20
-13.5155
11
2.66643
21
-13.706
0
LINE
8
BLACK
6
CONTINUOUS
10
2.66643
20
-13.706
11
2.47595
21
-13.8012
0
LINE
8
BLACK
6
CONTINUOUS
10
4.47595
20
-15.0393
11
4.57119
21
-15.1345
0
LINE
8
BLACK
6
CONTINUOUS
10
4.57119
20
-15.1345
11
4.47595
21
-15.2298
0
LINE
8
BLACK
6
CONTINUOUS
10
4.47595
20
-15.2298
11
4.38071
21
-15.1345
0
LINE
8
BLACK
6
CONTINUOUS
10
4.38071
20
-15.1345
11
4.47595
21
-15.0393
0
LINE
8
BLACK
6
CONTINUOUS
10
4.47595
20
-15.0393
11
4.47595
21
-15.2298
0
LINE
8
BLACK
6
CONTINUOUS
10
5.80929
20
-13.2298
11
5.99976
21
-13.2298
0
LINE
8
BLACK
6
CONTINUOUS
10
5.99976
20
-13.2298
11
6.19024
21
-13.325
0
LINE
8
BLACK
6
CONTINUOUS
10
6.19024
20
-13.325
11
6.28548
21
-13.4202
0
LINE
8
BLACK
6
CONTINUOUS
10
6.28548
20
-13.4202
11
6.38071
21
-13.6107
0
LINE
8
BLACK
6
CONTINUOUS
10
6.38071
20
-13.6107
11
6.47595
21
-13.9917
0
LINE
8
BLACK
6
CONTINUOUS
10
6.47595
20
-13.9917
11
6.47595
21
-14.4679
0
LINE
8
BLACK
6
CONTINUOUS
10
6.47595
20
-14.4679
11
6.38071
21
-14.8488
0
LINE
8
BLACK
6
CONTINUOUS
10
6.38071
20
-14.8488
11
6.28548
21
-15.0393
0
LINE
8
BLACK
6
CONTINUOUS
10
6.28548
20
-15.0393
11
6.19024
21
-15.1345
0
LINE
8
BLACK
6
CONTINUOUS
10
6.19024
20
-15.1345
11
5.99976
21
-15.2298
0
LINE
8
BLACK
6
CONTINUOUS
10
5.99976
20
-15.2298
11
5.80929
21
-15.2298
0
LINE
8
BLACK
6
CONTINUOUS
10
5.80929
20
-15.2298
11
5.61881
21
-15.1345
0
LINE
8
BLACK
6
CONTINUOUS
10
5.61881
20
-15.1345
11
5.52357
21
-15.0393
0
LINE
8
BLACK
6
CONTINUOUS
10
5.52357
20
-15.0393
11
5.42833
21
-14.8488
0
LINE
8
BLACK
6
CONTINUOUS
10
5.42833
20
-14.8488
11
5.3331
21
-14.4679
0
LINE
8
BLACK
6
CONTINUOUS
10
5.3331
20
-14.4679
11
5.3331
21
-13.9917
0
LINE
8
BLACK
6
CONTINUOUS
10
5.3331
20
-13.9917
11
5.42833
21
-13.6107
0
LINE
8
BLACK
6
CONTINUOUS
10
5.42833
20
-13.6107
11
5.52357
21
-13.4202
0
LINE
8
BLACK
6
CONTINUOUS
10
5.52357
20
-13.4202
11
5.61881
21
-13.325
0
LINE
8
BLACK
6
CONTINUOUS
10
5.61881
20
-13.325
11
5.80929
21
-13.2298
0
LINE
8
BLACK
6
CONTINUOUS
10
7.71405
20
-13.2298
11
7.90452
21
-13.2298
0
LINE
8
BLACK
6
CONTINUOUS
10
7.90452
20
-13.2298
11
8.095
21
-13.325
0
LINE
8
BLACK
6
CONTINUOUS
10
8.095
20
-13.325
11
8.19024
21
-13.4202
0
LINE
8
BLACK
6
CONTINUOUS
10
8.19024
20
-13.4202
11
8.28548
21
-13.6107
0
LINE
8
BLACK
6
CONTINUOUS
10
8.28548
20
-13.6107
11
8.38071
21
-13.9917
0
LINE
8
BLACK
6
CONTINUOUS
10
8.38071
20
-13.9917
11
8.38071
21
-14.4679
0
LINE
8
BLACK
6
CONTINUOUS
10
8.38071
20
-14.4679
11
8.28548
21
-14.8488
0
LINE
8
BLACK
6
CONTINUOUS
10
8.28548
20
-14.8488
11
8.19024
21
-15.0393
0
LINE
8
BLACK
6
CONTINUOUS
10
8.19024
20
-15.0393
11
8.095
21
-15.1345
0
LINE
8
BLACK
6
CONTINUOUS
10
8.095
20
-15.1345
11
7.90452
21
-15.2298
0
LINE
8
BLACK
6
CONTINUOUS
10
7.90452
20
-15.2298
11
7.71405
21
-15.2298
0
LINE
8
BLACK
6
CONTINUOUS
10
7.71405
20
-15.2298
11
7.52357
21
-15.1345
0
LINE
8
BLACK
6
CONTINUOUS
10
7.52357
20
-15.1345
11
7.42833
21
-15.0393
0
LINE
8
BLACK
6
CONTINUOUS
10
7.42833
20
-15.0393
11
7.33309
21
-14.8488
0
LINE
8
BLACK
6
CONTINUOUS
10
7.33309
20
-14.8488
11
7.23786
21
-14.4679
0
LINE
8
BLACK
6
CONTINUOUS
10
7.23786
20
-14.4679
11
7.23786
21
-13.9917
0
LINE
8
BLACK
6
CONTINUOUS
10
7.23786
20
-13.9917
11
7.33309
21
-13.6107
0
LINE
8
BLACK
6
CONTINUOUS
10
7.33309
20
-13.6107
11
7.42833
21
-13.4202
0
LINE
8
BLACK
6
CONTINUOUS
10
7.42833
20
-13.4202
11
7.52357
21
-13.325
0
LINE
8
BLACK
6
CONTINUOUS
10
7.52357
20
-13.325
11
7.71405
21
-13.2298
0
LINE
8
BLACK
6
CONTINUOUS
10
9.61881
20
-13.2298
11
9.80928
21
-13.2298
0
LINE
8
BLACK
6
CONTINUOUS
10
9.80928
20
-13.2298
11
9.99976
21
-13.325
0
LINE
8
BLACK
6
CONTINUOUS
10
9.99976
20
-13.325
11
10.095
21
-13.4202
0
LINE
8
BLACK
6
CONTINUOUS
10
10.095
20
-13.4202
11
10.1902
21
-13.6107
0
LINE
8
BLACK
6
CONTINUOUS
10
10.1902
20
-13.6107
11
10.2855
21
-13.9917
0
LINE
8
BLACK
6
CONTINUOUS
10
10.2855
20
-13.9917
11
10.2855
21
-14.4679
0
LINE
8
BLACK
6
CONTINUOUS
10
10.2855
20
-14.4679
11
10.1902
21
-14.8488
0
LINE
8
BLACK
6
CONTINUOUS
10
10.1902
20
-14.8488
11
10.095
21
-15.0393
0
LINE
8
BLACK
6
CONTINUOUS
10
10.095
20
-15.0393
11
9.99976
21
-15.1345
0
LINE
8
BLACK
6
CONTINUOUS
10
9.99976
20
-15.1345
11
9.80928
21
-15.2298
0
LINE
8
BLACK
6
CONTINUOUS
10
9.80928
20
-15.2298
11
9.61881
21
-15.2298
0
LINE
8
BLACK
6
CONTINUOUS
10
9.61881
20
-15.2298
11
9.42833
21
-15.1345
0
LINE
8
BLACK
6
CONTINUOUS
10
9.42833
20
-15.1345
11
9.3331
21
-15.0393
0
LINE
8
BLACK
6
CONTINUOUS
10
9.3331
20
-15.0393
11
9.23786
21
-14.8488
0
LINE
8
BLACK
6
CONTINUOUS
10
9.23786
20
-14.8488
11
9.14262
21
-14.4679
0
LINE
8
BLACK
6
CONTINUOUS
10
9.14262
20
-14.4679
11
9.14262
21
-13.9917
0
LINE
8
BLACK
6
CONTINUOUS
10
9.14262
20
-13.9917
11
9.23786
21
-13.6107
0
LINE
8
BLACK
6
CONTINUOUS
10
9.23786
20
-13.6107
11
9.3331
21
-13.4202
0
LINE
8
BLACK
6
CONTINUOUS
10
9.3331
20
-13.4202
11
9.42833
21
-13.325
0
LINE
8
BLACK
6
CONTINUOUS
10
9.42833
20
-13.325
11
9.61881
21
-13.2298
0
LINE
8
BLACK
6
CONTINUOUS
10
11.1426
20
-15.2298
11
11.1426
21
-13.8964
0
LINE
8
BLACK
6
CONTINUOUS
10
11.1426
20
-14.0869
11
11.2379
21
-13.9917
0
LINE
8
BLACK
6
CONTINUOUS
10
11.2379
20
-13.9917
11
11.4283
21
-13.8964
0
LINE
8
BLACK
6
CONTINUOUS
10
11.4283
20
-13.8964
11
11.714
21
-13.8964
0
LINE
8
BLACK
6
CONTINUOUS
10
11.714
20
-13.8964
11
11.9045
21
-13.9917
0
LINE
8
BLACK
6
CONTINUOUS
10
11.9045
20
-13.9917
11
11.9998
21
-14.1821
0
LINE
8
BLACK
6
CONTINUOUS
10
11.9998
20
-14.1821
11
11.9998
21
-15.2298
0
LINE
8
BLACK
6
CONTINUOUS
10
11.9998
20
-14.1821
11
12.095
21
-13.9917
0
LINE
8
BLACK
6
CONTINUOUS
10
12.095
20
-13.9917
11
12.2855
21
-13.8964
0
LINE
8
BLACK
6
CONTINUOUS
10
12.2855
20
-13.8964
11
12.5712
21
-13.8964
0
LINE
8
BLACK
6
CONTINUOUS
10
12.5712
20
-13.8964
11
12.7617
21
-13.9917
0
LINE
8
BLACK
6
CONTINUOUS
10
12.7617
20
-13.9917
11
12.8569
21
-14.1821
0
LINE
8
BLACK
6
CONTINUOUS
10
12.8569
20
-14.1821
11
12.8569
21
-15.2298
0
LINE
8
BLACK
6
CONTINUOUS
10
13.8093
20
-15.2298
11
13.8093
21
-13.8964
0
LINE
8
BLACK
6
CONTINUOUS
10
13.8093
20
-14.0869
11
13.9045
21
-13.9917
0
LINE
8
BLACK
6
CONTINUOUS
10
13.9045
20
-13.9917
11
14.095
21
-13.8964
0
LINE
8
BLACK
6
CONTINUOUS
10
14.095
20
-13.8964
11
14.3807
21
-13.8964
0
LINE
8
BLACK
6
CONTINUOUS
10
14.3807
20
-13.8964
11
14.5712
21
-13.9917
0
LINE
8
BLACK
6
CONTINUOUS
10
14.5712
20
-13.9917
11
14.6664
21
-14.1821
0
LINE
8
BLACK
6
CONTINUOUS
10
14.6664
20
-14.1821
11
14.6664
21
-15.2298
0
LINE
8
BLACK
6
CONTINUOUS
10
14.6664
20
-14.1821
11
14.7617
21
-13.9917
0
LINE
8
BLACK
6
CONTINUOUS
10
14.7617
20
-13.9917
11
14.9521
21
-13.8964
0
LINE
8
BLACK
6
CONTINUOUS
10
14.9521
20
-13.8964
11
15.2379
21
-13.8964
0
LINE
8
BLACK
6
CONTINUOUS
10
15.2379
20
-13.8964
11
15.4283
21
-13.9917
0
LINE
8
BLACK
6
CONTINUOUS
10
15.4283
20
-13.9917
11
15.5236
21
-14.1821
0
LINE
8
BLACK
6
CONTINUOUS
10
15.5236
20
-14.1821
11
15.5236
21
-15.2298
0
LINE
8
BLACK
6
CONTINUOUS
10
19.4283
20
-13.1345
11
17.714
21
-15.706
0
LINE
8
BLACK
6
CONTINUOUS
10
21.9998
20
-13.2298
11
22.1902
21
-13.2298
0
LINE
8
BLACK
6
CONTINUOUS
10
22.1902
20
-13.2298
11
22.3807
21
-13.325
0
LINE
8
BLACK
6
CONTINUOUS
10
22.3807
20
-13.325
11
22.476
21
-13.4202
0
LINE
8
BLACK
6
CONTINUOUS
10
22.476
20
-13.4202
11
22.5712
21
-13.6107
0
LINE
8
BLACK
6
CONTINUOUS
10
22.5712
20
-13.6107
11
22.6664
21
-13.9917
0
LINE
8
BLACK
6
CONTINUOUS
10
22.6664
20
-13.9917
11
22.6664
21
-14.4679
0
LINE
8
BLACK
6
CONTINUOUS
10
22.6664
20
-14.4679
11
22.5712
21
-14.8488
0
LINE
8
BLACK
6
CONTINUOUS
10
22.5712
20
-14.8488
11
22.476
21
-15.0393
0
LINE
8
BLACK
6
CONTINUOUS
10
22.476
20
-15.0393
11
22.3807
21
-15.1345
0
LINE
8
BLACK
6
CONTINUOUS
10
22.3807
20
-15.1345
11
22.1902
21
-15.2298
0
LINE
8
BLACK
6
CONTINUOUS
10
22.1902
20
-15.2298
11
21.9998
21
-15.2298
0
LINE
8
BLACK
6
CONTINUOUS
10
21.9998
20
-15.2298
11
21.8093
21
-15.1345
0
LINE
8
BLACK
6
CONTINUOUS
10
21.8093
20
-15.1345
11
21.714
21
-15.0393
0
LINE
8
BLACK
6
CONTINUOUS
10
21.714
20
-15.0393
11
21.6188
21
-14.8488
0
LINE
8
BLACK
6
CONTINUOUS
10
21.6188
20
-14.8488
11
21.5236
21
-14.4679
0
LINE
8
BLACK
6
CONTINUOUS
10
21.5236
20
-14.4679
11
21.5236
21
-13.9917
0
LINE
8
BLACK
6
CONTINUOUS
10
21.5236
20
-13.9917
11
21.6188
21
-13.6107
0
LINE
8
BLACK
6
CONTINUOUS
10
21.6188
20
-13.6107
11
21.714
21
-13.4202
0
LINE
8
BLACK
6
CONTINUOUS
10
21.714
20
-13.4202
11
21.8093
21
-13.325
0
LINE
8
BLACK
6
CONTINUOUS
10
21.8093
20
-13.325
11
21.9998
21
-13.2298
0
LINE
8
BLACK
6
CONTINUOUS
10
23.5236
20
-15.0393
11
23.6188
21
-15.1345
0
LINE
8
BLACK
6
CONTINUOUS
10
23.6188
20
-15.1345
11
23.5236
21
-15.2298
0
LINE
8
BLACK
6
CONTINUOUS
10
23.5236
20
-15.2298
11
23.4283
21
-15.1345
0
LINE
8
BLACK
6
CONTINUOUS
10
23.4283
20
-15.1345
11
23.5236
21
-15.0393
0
LINE
8
BLACK
6
CONTINUOUS
10
23.5236
20
-15.0393
11
23.5236
21
-15.2298
0
LINE
8
BLACK
6
CONTINUOUS
10
24.8569
20
-13.2298
11
25.0474
21
-13.2298
0
LINE
8
BLACK
6
CONTINUOUS
10
25.0474
20
-13.2298
11
25.2379
21
-13.325
0
LINE
8
BLACK
6
CONTINUOUS
10
25.2379
20
-13.325
11
25.3331
21
-13.4202
0
LINE
8
BLACK
6
CONTINUOUS
10
25.3331
20
-13.4202
11
25.4283
21
-13.6107
0
LINE
8
BLACK
6
CONTINUOUS
10
25.4283
20
-13.6107
11
25.5236
21
-13.9917
0
LINE
8
BLACK
6
CONTINUOUS
10
25.5236
20
-13.9917
11
25.5236
21
-14.4679
0
LINE
8
BLACK
6
CONTINUOUS
10
25.5236
20
-14.4679
11
25.4283
21
-14.8488
0
LINE
8
BLACK
6
CONTINUOUS
10
25.4283
20
-14.8488
11
25.3331
21
-15.0393
0
LINE
8
BLACK
6
CONTINUOUS
10
25.3331
20
-15.0393
11
25.2379
21
-15.1345
0
LINE
8
BLACK
6
CONTINUOUS
10
25.2379
20
-15.1345
11
25.0474
21
-15.2298
0
LINE
8
BLACK
6
CONTINUOUS
10
25.0474
20
-15.2298
11
24.8569
21
-15.2298
0
LINE
8
BLACK
6
CONTINUOUS
10
24.8569
20
-15.2298
11
24.6664
21
-15.1345
0
LINE
8
BLACK
6
CONTINUOUS
10
24.6664
20
-15.1345
11
24.5712
21
-15.0393
0
LINE
8
BLACK
6
CONTINUOUS
10
24.5712
20
-15.0393
11
24.476
21
-14.8488
0
LINE
8
BLACK
6
CONTINUOUS
10
24.476
20
-14.8488
11
24.3807
21
-14.4679
0
LINE
8
BLACK
6
CONTINUOUS
10
24.3807
20
-14.4679
11
24.3807
21
-13.9917
0
LINE
8
BLACK
6
CONTINUOUS
10
24.3807
20
-13.9917
11
24.476
21
-13.6107
0
LINE
8
BLACK
6
CONTINUOUS
10
24.476
20
-13.6107
11
24.5712
21
-13.4202
0
LINE
8
BLACK
6
CONTINUOUS
10
24.5712
20
-13.4202
11
24.6664
21
-13.325
0
LINE
8
BLACK
6
CONTINUOUS
10
24.6664
20
-13.325
11
24.8569
21
-13.2298
0
LINE
8
BLACK
6
CONTINUOUS
10
26.1902
20
-13.2298
11
27.4283
21
-13.2298
0
LINE
8
BLACK
6
CONTINUOUS
10
27.4283
20
-13.2298
11
26.7617
21
-13.9917
0
LINE
8
BLACK
6
CONTINUOUS
10
26.7617
20
-13.9917
11
27.0474
21
-13.9917
0
LINE
8
BLACK
6
CONTINUOUS
10
27.0474
20
-13.9917
11
27.2379
21
-14.0869
0
LINE
8
BLACK
6
CONTINUOUS
10
27.2379
20
-14.0869
11
27.3331
21
-14.1821
0
LINE
8
BLACK
6
CONTINUOUS
10
27.3331
20
-14.1821
11
27.4283
21
-14.3726
0
LINE
8
BLACK
6
CONTINUOUS
10
27.4283
20
-14.3726
11
27.4283
21
-14.8488
0
LINE
8
BLACK
6
CONTINUOUS
10
27.4283
20
-14.8488
11
27.3331
21
-15.0393
0
LINE
8
BLACK
6
CONTINUOUS
10
27.3331
20
-15.0393
11
27.2379
21
-15.1345
0
LINE
8
BLACK
6
CONTINUOUS
10
27.2379
20
-15.1345
11
27.0474
21
-15.2298
0
LINE
8
BLACK
6
CONTINUOUS
10
27.0474
20
-15.2298
11
26.476
21
-15.2298
0
LINE
8
BLACK
6
CONTINUOUS
10
26.476
20
-15.2298
11
26.2855
21
-15.1345
0
LINE
8
BLACK
6
CONTINUOUS
10
26.2855
20
-15.1345
11
26.1902
21
-15.0393
0
LINE
8
BLACK
6
CONTINUOUS
10
28.3807
20
-15.2298
11
28.7617
21
-15.2298
0
LINE
8
BLACK
6
CONTINUOUS
10
28.7617
20
-15.2298
11
28.9521
21
-15.1345
0
LINE
8
BLACK
6
CONTINUOUS
10
28.9521
20
-15.1345
11
29.0474
21
-15.0393
0
LINE
8
BLACK
6
CONTINUOUS
10
29.0474
20
-15.0393
11
29.2379
21
-14.7536
0
LINE
8
BLACK
6
CONTINUOUS
10
29.2379
20
-14.7536
11
29.3331
21
-14.3726
0
LINE
8
BLACK
6
CONTINUOUS
10
29.3331
20
-14.3726
11
29.3331
21
-13.6107
0
LINE
8
BLACK
6
CONTINUOUS
10
29.3331
20
-13.6107
11
29.2379
21
-13.4202
0
LINE
8
BLACK
6
CONTINUOUS
10
29.2379
20
-13.4202
11
29.1426
21
-13.325
0
LINE
8
BLACK
6
CONTINUOUS
10
29.1426
20
-13.325
11
28.9521
21
-13.2298
0
LINE
8
BLACK
6
CONTINUOUS
10
28.9521
20
-13.2298
11
28.5712
21
-13.2298
0
LINE
8
BLACK
6
CONTINUOUS
10
28.5712
20
-13.2298
11
28.3807
21
-13.325
0
LINE
8
BLACK
6
CONTINUOUS
10
28.3807
20
-13.325
11
28.2855
21
-13.4202
0
LINE
8
BLACK
6
CONTINUOUS
10
28.2855
20
-13.4202
11
28.1902
21
-13.6107
0
LINE
8
BLACK
6
CONTINUOUS
10
28.1902
20
-13.6107
11
28.1902
21
-14.0869
0
LINE
8
BLACK
6
CONTINUOUS
10
28.1902
20
-14.0869
11
28.2855
21
-14.2774
0
LINE
8
BLACK
6
CONTINUOUS
10
28.2855
20
-14.2774
11
28.3807
21
-14.3726
0
LINE
8
BLACK
6
CONTINUOUS
10
28.3807
20
-14.3726
11
28.5712
21
-14.4679
0
LINE
8
BLACK
6
CONTINUOUS
10
28.5712
20
-14.4679
11
28.9521
21
-14.4679
0
LINE
8
BLACK
6
CONTINUOUS
10
28.9521
20
-14.4679
11
29.1426
21
-14.3726
0
LINE
8
BLACK
6
CONTINUOUS
10
29.1426
20
-14.3726
11
29.2379
21
-14.2774
0
LINE
8
BLACK
6
CONTINUOUS
10
29.2379
20
-14.2774
11
29.3331
21
-14.0869
0
LINE
8
BLACK
6
CONTINUOUS
10
31.0474
20
-13.8964
11
31.0474
21
-15.2298
0
LINE
8
BLACK
6
CONTINUOUS
10
30.5712
20
-13.1345
11
30.095
21
-14.5631
0
LINE
8
BLACK
6
CONTINUOUS
10
30.095
20
-14.5631
11
31.3331
21
-14.5631
0
LINE
8
BLACK
6
CONTINUOUS
10
31.9998
20
-13.2298
11
31.9998
21
-13.6107
0
LINE
8
BLACK
6
CONTINUOUS
10
32.7617
20
-13.2298
11
32.7617
21
-13.6107
0
LINE
8
BLACK
6
CONTINUOUS
10
35.714
20
-15.9917
11
35.6188
21
-15.8964
0
LINE
8
BLACK
6
CONTINUOUS
10
35.6188
20
-15.8964
11
35.4283
21
-15.6107
0
LINE
8
BLACK
6
CONTINUOUS
10
35.4283
20
-15.6107
11
35.3331
21
-15.4202
0
LINE
8
BLACK
6
CONTINUOUS
10
35.3331
20
-15.4202
11
35.2379
21
-15.1345
0
LINE
8
BLACK
6
CONTINUOUS
10
35.2379
20
-15.1345
11
35.1426
21
-14.6583
0
LINE
8
BLACK
6
CONTINUOUS
10
35.1426
20
-14.6583
11
35.1426
21
-14.2774
0
LINE
8
BLACK
6
CONTINUOUS
10
35.1426
20
-14.2774
11
35.2379
21
-13.8012
0
LINE
8
BLACK
6
CONTINUOUS
10
35.2379
20
-13.8012
11
35.3331
21
-13.5155
0
LINE
8
BLACK
6
CONTINUOUS
10
35.3331
20
-13.5155
11
35.4283
21
-13.325
0
LINE
8
BLACK
6
CONTINUOUS
10
35.4283
20
-13.325
11
35.6188
21
-13.0393
0
LINE
8
BLACK
6
CONTINUOUS
10
35.6188
20
-13.0393
11
35.714
21
-12.944
0
LINE
8
BLACK
6
CONTINUOUS
10
37.3331
20
-13.8964
11
37.3331
21
-15.2298
0
LINE
8
BLACK
6
CONTINUOUS
10
36.8569
20
-13.1345
11
36.3807
21
-14.5631
0
LINE
8
BLACK
6
CONTINUOUS
10
36.3807
20
-14.5631
11
37.6188
21
-14.5631
0
LINE
8
BLACK
6
CONTINUOUS
10
38.1902
20
-13.2298
11
39.4283
21
-13.2298
0
LINE
8
BLACK
6
CONTINUOUS
10
39.4283
20
-13.2298
11
38.7617
21
-13.9917
0
LINE
8
BLACK
6
CONTINUOUS
10
38.7617
20
-13.9917
11
39.0474
21
-13.9917
0
LINE
8
BLACK
6
CONTINUOUS
10
39.0474
20
-13.9917
11
39.2379
21
-14.0869
0
LINE
8
BLACK
6
CONTINUOUS
10
39.2379
20
-14.0869
11
39.3331
21
-14.1821
0
LINE
8
BLACK
6
CONTINUOUS
10
39.3331
20
-14.1821
11
39.4283
21
-14.3726
0
LINE
8
BLACK
6
CONTINUOUS
10
39.4283
20
-14.3726
11
39.4283
21
-14.8488
0
LINE
8
BLACK
6
CONTINUOUS
10
39.4283
20
-14.8488
11
39.3331
21
-15.0393
0
LINE
8
BLACK
6
CONTINUOUS
10
39.3331
20
-15.0393
11
39.2379
21
-15.1345
0
LINE
8
BLACK
6
CONTINUOUS
10
39.2379
20
-15.1345
11
39.0474
21
-15.2298
0
LINE
8
BLACK
6
CONTINUOUS
10
39.0474
20
-15.2298
11
38.476
21
-15.2298
0
LINE
8
BLACK
6
CONTINUOUS
10
38.476
20
-15.2298
11
38.2855
21
-15.1345
0
LINE
8
BLACK
6
CONTINUOUS
10
38.2855
20
-15.1345
11
38.1902
21
-15.0393
0
LINE
8
BLACK
6
CONTINUOUS
10
41.8093
20
-15.2298
11
41.8093
21
-13.2298
0
LINE
8
BLACK
6
CONTINUOUS
10
42.6664
20
-15.2298
11
42.6664
21
-14.1821
0
LINE
8
BLACK
6
CONTINUOUS
10
42.6664
20
-14.1821
11
42.5712
21
-13.9917
0
LINE
8
BLACK
6
CONTINUOUS
10
42.5712
20
-13.9917
11
42.3807
21
-13.8964
0
LINE
8
BLACK
6
CONTINUOUS
10
42.3807
20
-13.8964
11
42.095
21
-13.8964
0
LINE
8
BLACK
6
CONTINUOUS
10
42.095
20
-13.8964
11
41.9045
21
-13.9917
0
LINE
8
BLACK
6
CONTINUOUS
10
41.9045
20
-13.9917
11
41.8093
21
-14.0869
0
LINE
8
BLACK
6
CONTINUOUS
10
43.9045
20
-15.2298
11
43.714
21
-15.1345
0
LINE
8
BLACK
6
CONTINUOUS
10
43.714
20
-15.1345
11
43.6188
21
-15.0393
0
LINE
8
BLACK
6
CONTINUOUS
10
43.6188
20
-15.0393
11
43.5236
21
-14.8488
0
LINE
8
BLACK
6
CONTINUOUS
10
43.5236
20
-14.8488
11
43.5236
21
-14.2774
0
LINE
8
BLACK
6
CONTINUOUS
10
43.5236
20
-14.2774
11
43.6188
21
-14.0869
0
LINE
8
BLACK
6
CONTINUOUS
10
43.6188
20
-14.0869
11
43.714
21
-13.9917
0
LINE
8
BLACK
6
CONTINUOUS
10
43.714
20
-13.9917
11
43.9045
21
-13.8964
0
LINE
8
BLACK
6
CONTINUOUS
10
43.9045
20
-13.8964
11
44.1902
21
-13.8964
0
LINE
8
BLACK
6
CONTINUOUS
10
44.1902
20
-13.8964
11
44.3807
21
-13.9917
0
LINE
8
BLACK
6
CONTINUOUS
10
44.3807
20
-13.9917
11
44.476
21
-14.0869
0
LINE
8
BLACK
6
CONTINUOUS
10
44.476
20
-14.0869
11
44.5712
21
-14.2774
0
LINE
8
BLACK
6
CONTINUOUS
10
44.5712
20
-14.2774
11
44.5712
21
-14.8488
0
LINE
8
BLACK
6
CONTINUOUS
10
44.5712
20
-14.8488
11
44.476
21
-15.0393
0
LINE
8
BLACK
6
CONTINUOUS
10
44.476
20
-15.0393
11
44.3807
21
-15.1345
0
LINE
8
BLACK
6
CONTINUOUS
10
44.3807
20
-15.1345
11
44.1902
21
-15.2298
0
LINE
8
BLACK
6
CONTINUOUS
10
44.1902
20
-15.2298
11
43.9045
21
-15.2298
0
LINE
8
BLACK
6
CONTINUOUS
10
45.714
20
-15.2298
11
45.5236
21
-15.1345
0
LINE
8
BLACK
6
CONTINUOUS
10
45.5236
20
-15.1345
11
45.4283
21
-14.944
0
LINE
8
BLACK
6
CONTINUOUS
10
45.4283
20
-14.944
11
45.4283
21
-13.2298
0
LINE
8
BLACK
6
CONTINUOUS
10
47.2379
20
-15.1345
11
47.0474
21
-15.2298
0
LINE
8
BLACK
6
CONTINUOUS
10
47.0474
20
-15.2298
11
46.6664
21
-15.2298
0
LINE
8
BLACK
6
CONTINUOUS
10
46.6664
20
-15.2298
11
46.476
21
-15.1345
0
LINE
8
BLACK
6
CONTINUOUS
10
46.476
20
-15.1345
11
46.3807
21
-14.944
0
LINE
8
BLACK
6
CONTINUOUS
10
46.3807
20
-14.944
11
46.3807
21
-14.1821
0
LINE
8
BLACK
6
CONTINUOUS
10
46.3807
20
-14.1821
11
46.476
21
-13.9917
0
LINE
8
BLACK
6
CONTINUOUS
10
46.476
20
-13.9917
11
46.6664
21
-13.8964
0
LINE
8
BLACK
6
CONTINUOUS
10
46.6664
20
-13.8964
11
47.0474
21
-13.8964
0
LINE
8
BLACK
6
CONTINUOUS
10
47.0474
20
-13.8964
11
47.2379
21
-13.9917
0
LINE
8
BLACK
6
CONTINUOUS
10
47.2379
20
-13.9917
11
47.3331
21
-14.1821
0
LINE
8
BLACK
6
CONTINUOUS
10
47.3331
20
-14.1821
11
47.3331
21
-14.3726
0
LINE
8
BLACK
6
CONTINUOUS
10
47.3331
20
-14.3726
11
46.3807
21
-14.5631
0
LINE
8
BLACK
6
CONTINUOUS
10
48.095
20
-15.1345
11
48.2855
21
-15.2298
0
LINE
8
BLACK
6
CONTINUOUS
10
48.2855
20
-15.2298
11
48.6664
21
-15.2298
0
LINE
8
BLACK
6
CONTINUOUS
10
48.6664
20
-15.2298
11
48.8569
21
-15.1345
0
LINE
8
BLACK
6
CONTINUOUS
10
48.8569
20
-15.1345
11
48.9521
21
-14.944
0
LINE
8
BLACK
6
CONTINUOUS
10
48.9521
20
-14.944
11
48.9521
21
-14.8488
0
LINE
8
BLACK
6
CONTINUOUS
10
48.9521
20
-14.8488
11
48.8569
21
-14.6583
0
LINE
8
BLACK
6
CONTINUOUS
10
48.8569
20
-14.6583
11
48.6664
21
-14.5631
0
LINE
8
BLACK
6
CONTINUOUS
10
48.6664
20
-14.5631
11
48.3807
21
-14.5631
0
LINE
8
BLACK
6
CONTINUOUS
10
48.3807
20
-14.5631
11
48.1902
21
-14.4679
0
LINE
8
BLACK
6
CONTINUOUS
10
48.1902
20
-14.4679
11
48.095
21
-14.2774
0
LINE
8
BLACK
6
CONTINUOUS
10
48.095
20
-14.2774
11
48.095
21
-14.1821
0
LINE
8
BLACK
6
CONTINUOUS
10
48.095
20
-14.1821
11
48.1902
21
-13.9917
0
LINE
8
BLACK
6
CONTINUOUS
10
48.1902
20
-13.9917
11
48.3807
21
-13.8964
0
LINE
8
BLACK
6
CONTINUOUS
10
48.3807
20
-13.8964
11
48.6664
21
-13.8964
0
LINE
8
BLACK
6
CONTINUOUS
10
48.6664
20
-13.8964
11
48.8569
21
-13.9917
0
LINE
8
BLACK
6
CONTINUOUS
10
49.6188
20
-15.9917
11
49.714
21
-15.8964
0
LINE
8
BLACK
6
CONTINUOUS
10
49.714
20
-15.8964
11
49.9045
21
-15.6107
0
LINE
8
BLACK
6
CONTINUOUS
10
49.9045
20
-15.6107
11
49.9998
21
-15.4202
0
LINE
8
BLACK
6
CONTINUOUS
10
49.9998
20
-15.4202
11
50.095
21
-15.1345
0
LINE
8
BLACK
6
CONTINUOUS
10
50.095
20
-15.1345
11
50.1902
21
-14.6583
0
LINE
8
BLACK
6
CONTINUOUS
10
50.1902
20
-14.6583
11
50.1902
21
-14.2774
0
LINE
8
BLACK
6
CONTINUOUS
10
50.1902
20
-14.2774
11
50.095
21
-13.8012
0
LINE
8
BLACK
6
CONTINUOUS
10
50.095
20
-13.8012
11
49.9998
21
-13.5155
0
LINE
8
BLACK
6
CONTINUOUS
10
49.9998
20
-13.5155
11
49.9045
21
-13.325
0
LINE
8
BLACK
6
CONTINUOUS
10
49.9045
20
-13.325
11
49.714
21
-13.0393
0
LINE
8
BLACK
6
CONTINUOUS
10
49.714
20
-13.0393
11
49.6188
21
-12.944
0
LINE
8
BLACK
6
CONTINUOUS
10
-0.645
20
-17.605
11
-0.005
21
-16.965
0
LINE
8
BLACK
6
CONTINUOUS
10
-0.005
20
-16.965
11
-0.645
21
-16.325
0
LINE
8
BLACK
6
CONTINUOUS
10
-0.645
20
-16.325
11
-1.285
21
-16.965
0
LINE
8
BLACK
6
CONTINUOUS
10
-1.285
20
-16.965
11
-0.645
21
-17.605
0
LINE
8
BLACK
6
CONTINUOUS
10
3.61881
20
-17.8698
11
2.47595
21
-17.8698
0
LINE
8
BLACK
6
CONTINUOUS
10
3.04738
20
-17.8698
11
3.04738
21
-15.8698
0
LINE
8
BLACK
6
CONTINUOUS
10
3.04738
20
-15.8698
11
2.8569
21
-16.1555
0
LINE
8
BLACK
6
CONTINUOUS
10
2.8569
20
-16.1555
11
2.66643
21
-16.346
0
LINE
8
BLACK
6
CONTINUOUS
10
2.66643
20
-16.346
11
2.47595
21
-16.4412
0
LINE
8
BLACK
6
CONTINUOUS
10
4.47595
20
-17.6793
11
4.57119
21
-17.7745
0
LINE
8
BLACK
6
CONTINUOUS
10
4.57119
20
-17.7745
11
4.47595
21
-17.8698
0
LINE
8
BLACK
6
CONTINUOUS
10
4.47595
20
-17.8698
11
4.38071
21
-17.7745
0
LINE
8
BLACK
6
CONTINUOUS
10
4.38071
20
-17.7745
11
4.47595
21
-17.6793
0
LINE
8
BLACK
6
CONTINUOUS
10
4.47595
20
-17.6793
11
4.47595
21
-17.8698
0
LINE
8
BLACK
6
CONTINUOUS
10
5.3331
20
-16.0602
11
5.42833
21
-15.965
0
LINE
8
BLACK
6
CONTINUOUS
10
5.42833
20
-15.965
11
5.61881
21
-15.8698
0
LINE
8
BLACK
6
CONTINUOUS
10
5.61881
20
-15.8698
11
6.095
21
-15.8698
0
LINE
8
BLACK
6
CONTINUOUS
10
6.095
20
-15.8698
11
6.28548
21
-15.965
0
LINE
8
BLACK
6
CONTINUOUS
10
6.28548
20
-15.965
11
6.38071
21
-16.0602
0
LINE
8
BLACK
6
CONTINUOUS
10
6.38071
20
-16.0602
11
6.47595
21
-16.2507
0
LINE
8
BLACK
6
CONTINUOUS
10
6.47595
20
-16.2507
11
6.47595
21
-16.4412
0
LINE
8
BLACK
6
CONTINUOUS
10
6.47595
20
-16.4412
11
6.38071
21
-16.7269
0
LINE
8
BLACK
6
CONTINUOUS
10
6.38071
20
-16.7269
11
5.23786
21
-17.8698
0
LINE
8
BLACK
6
CONTINUOUS
10
5.23786
20
-17.8698
11
6.47595
21
-17.8698
0
LINE
8
BLACK
6
CONTINUOUS
10
7.61881
20
-16.7269
11
7.42833
21
-16.6317
0
LINE
8
BLACK
6
CONTINUOUS
10
7.42833
20
-16.6317
11
7.33309
21
-16.5364
0
LINE
8
BLACK
6
CONTINUOUS
10
7.33309
20
-16.5364
11
7.23786
21
-16.346
0
LINE
8
BLACK
6
CONTINUOUS
10
7.23786
20
-16.346
11
7.23786
21
-16.2507
0
LINE
8
BLACK
6
CONTINUOUS
10
7.23786
20
-16.2507
11
7.33309
21
-16.0602
0
LINE
8
BLACK
6
CONTINUOUS
10
7.33309
20
-16.0602
11
7.42833
21
-15.965
0
LINE
8
BLACK
6
CONTINUOUS
10
7.42833
20
-15.965
11
7.61881
21
-15.8698
0
LINE
8
BLACK
6
CONTINUOUS
10
7.61881
20
-15.8698
11
7.99976
21
-15.8698
0
LINE
8
BLACK
6
CONTINUOUS
10
7.99976
20
-15.8698
11
8.19024
21
-15.965
0
LINE
8
BLACK
6
CONTINUOUS
10
8.19024
20
-15.965
11
8.28548
21
-16.0602
0
LINE
8
BLACK
6
CONTINUOUS
10
8.28548
20
-16.0602
11
8.38071
21
-16.2507
0
LINE
8
BLACK
6
CONTINUOUS
10
8.38071
20
-16.2507
11
8.38071
21
-16.346
0
LINE
8
BLACK
6
CONTINUOUS
10
8.38071
20
-16.346
11
8.28548
21
-16.5364
0
LINE
8
BLACK
6
CONTINUOUS
10
8.28548
20
-16.5364
11
8.19024
21
-16.6317
0
LINE
8
BLACK
6
CONTINUOUS
10
8.19024
20
-16.6317
11
7.99976
21
-16.7269
0
LINE
8
BLACK
6
CONTINUOUS
10
7.99976
20
-16.7269
11
7.61881
21
-16.7269
0
LINE
8
BLACK
6
CONTINUOUS
10
7.61881
20
-16.7269
11
7.42833
21
-16.8221
0
LINE
8
BLACK
6
CONTINUOUS
10
7.42833
20
-16.8221
11
7.33309
21
-16.9174
0
LINE
8
BLACK
6
CONTINUOUS
10
7.33309
20
-16.9174
11
7.23786
21
-17.1079
0
LINE
8
BLACK
6
CONTINUOUS
10
7.23786
20
-17.1079
11
7.23786
21
-17.4888
0
LINE
8
BLACK
6
CONTINUOUS
10
7.23786
20
-17.4888
11
7.33309
21
-17.6793
0
LINE
8
BLACK
6
CONTINUOUS
10
7.33309
20
-17.6793
11
7.42833
21
-17.7745
0
LINE
8
BLACK
6
CONTINUOUS
10
7.42833
20
-17.7745
11
7.61881
21
-17.8698
0
LINE
8
BLACK
6
CONTINUOUS
10
7.61881
20
-17.8698
11
7.99976
21
-17.8698
0
LINE
8
BLACK
6
CONTINUOUS
10
7.99976
20
-17.8698
11
8.19024
21
-17.7745
0
LINE
8
BLACK
6
CONTINUOUS
10
8.19024
20
-17.7745
11
8.28548
21
-17.6793
0
LINE
8
BLACK
6
CONTINUOUS
10
8.28548
20
-17.6793
11
8.38071
21
-17.4888
0
LINE
8
BLACK
6
CONTINUOUS
10
8.38071
20
-17.4888
11
8.38071
21
-17.1079
0
LINE
8
BLACK
6
CONTINUOUS
10
8.38071
20
-17.1079
11
8.28548
21
-16.9174
0
LINE
8
BLACK
6
CONTINUOUS
10
8.28548
20
-16.9174
11
8.19024
21
-16.8221
0
LINE
8
BLACK
6
CONTINUOUS
10
8.19024
20
-16.8221
11
7.99976
21
-16.7269
0
LINE
8
BLACK
6
CONTINUOUS
10
9.61881
20
-15.8698
11
9.80928
21
-15.8698
0
LINE
8
BLACK
6
CONTINUOUS
10
9.80928
20
-15.8698
11
9.99976
21
-15.965
0
LINE
8
BLACK
6
CONTINUOUS
10
9.99976
20
-15.965
11
10.095
21
-16.0602
0
LINE
8
BLACK
6
CONTINUOUS
10
10.095
20
-16.0602
11
10.1902
21
-16.2507
0
LINE
8
BLACK
6
CONTINUOUS
10
10.1902
20
-16.2507
11
10.2855
21
-16.6317
0
LINE
8
BLACK
6
CONTINUOUS
10
10.2855
20
-16.6317
11
10.2855
21
-17.1079
0
LINE
8
BLACK
6
CONTINUOUS
10
10.2855
20
-17.1079
11
10.1902
21
-17.4888
0
LINE
8
BLACK
6
CONTINUOUS
10
10.1902
20
-17.4888
11
10.095
21
-17.6793
0
LINE
8
BLACK
6
CONTINUOUS
10
10.095
20
-17.6793
11
9.99976
21
-17.7745
0
LINE
8
BLACK
6
CONTINUOUS
10
9.99976
20
-17.7745
11
9.80928
21
-17.8698
0
LINE
8
BLACK
6
CONTINUOUS
10
9.80928
20
-17.8698
11
9.61881
21
-17.8698
0
LINE
8
BLACK
6
CONTINUOUS
10
9.61881
20
-17.8698
11
9.42833
21
-17.7745
0
LINE
8
BLACK
6
CONTINUOUS
10
9.42833
20
-17.7745
11
9.3331
21
-17.6793
0
LINE
8
BLACK
6
CONTINUOUS
10
9.3331
20
-17.6793
11
9.23786
21
-17.4888
0
LINE
8
BLACK
6
CONTINUOUS
10
9.23786
20
-17.4888
11
9.14262
21
-17.1079
0
LINE
8
BLACK
6
CONTINUOUS
10
9.14262
20
-17.1079
11
9.14262
21
-16.6317
0
LINE
8
BLACK
6
CONTINUOUS
10
9.14262
20
-16.6317
11
9.23786
21
-16.2507
0
LINE
8
BLACK
6
CONTINUOUS
10
9.23786
20
-16.2507
11
9.3331
21
-16.0602
0
LINE
8
BLACK
6
CONTINUOUS
10
9.3331
20
-16.0602
11
9.42833
21
-15.965
0
LINE
8
BLACK
6
CONTINUOUS
10
9.42833
20
-15.965
11
9.61881
21
-15.8698
0
LINE
8
BLACK
6
CONTINUOUS
10
11.1426
20
-17.8698
11
11.1426
21
-16.5364
0
LINE
8
BLACK
6
CONTINUOUS
10
11.1426
20
-16.7269
11
11.2379
21
-16.6317
0
LINE
8
BLACK
6
CONTINUOUS
10
11.2379
20
-16.6317
11
11.4283
21
-16.5364
0
LINE
8
BLACK
6
CONTINUOUS
10
11.4283
20
-16.5364
11
11.714
21
-16.5364
0
LINE
8
BLACK
6
CONTINUOUS
10
11.714
20
-16.5364
11
11.9045
21
-16.6317
0
LINE
8
BLACK
6
CONTINUOUS
10
11.9045
20
-16.6317
11
11.9998
21
-16.8221
0
LINE
8
BLACK
6
CONTINUOUS
10
11.9998
20
-16.8221
11
11.9998
21
-17.8698
0
LINE
8
BLACK
6
CONTINUOUS
10
11.9998
20
-16.8221
11
12.095
21
-16.6317
0
LINE
8
BLACK
6
CONTINUOUS
10
12.095
20
-16.6317
11
12.2855
21
-16.5364
0
LINE
8
BLACK
6
CONTINUOUS
10
12.2855
20
-16.5364
11
12.5712
21
-16.5364
0
LINE
8
BLACK
6
CONTINUOUS
10
12.5712
20
-16.5364
11
12.7617
21
-16.6317
0
LINE
8
BLACK
6
CONTINUOUS
10
12.7617
20
-16.6317
11
12.8569
21
-16.8221
0
LINE
8
BLACK
6
CONTINUOUS
10
12.8569
20
-16.8221
11
12.8569
21
-17.8698
0
LINE
8
BLACK
6
CONTINUOUS
10
13.8093
20
-17.8698
11
13.8093
21
-16.5364
0
LINE
8
BLACK
6
CONTINUOUS
10
13.8093
20
-16.7269
11
13.9045
21
-16.6317
0
LINE
8
BLACK
6
CONTINUOUS
10
13.9045
20
-16.6317
11
14.095
21
-16.5364
0
LINE
8
BLACK
6
CONTINUOUS
10
14.095
20
-16.5364
11
14.3807
21
-16.5364
0
LINE
8
BLACK
6
CONTINUOUS
10
14.3807
20
-16.5364
11
14.5712
21
-16.6317
0
LINE
8
BLACK
6
CONTINUOUS
10
14.5712
20
-16.6317
11
14.6664
21
-16.8221
0
LINE
8
BLACK
6
CONTINUOUS
10
14.6664
20
-16.8221
11
14.6664
21
-17.8698
0
LINE
8
BLACK
6
CONTINUOUS
10
14.6664
20
-16.8221
11
14.7617
21
-16.6317
0
LINE
8
BLACK
6
CONTINUOUS
10
14.7617
20
-16.6317
11
14.9521
21
-16.5364
0
LINE
8
BLACK
6
CONTINUOUS
10
14.9521
20
-16.5364
11
15.2379
21
-16.5364
0
LINE
8
BLACK
6
CONTINUOUS
10
15.2379
20
-16.5364
11
15.4283
21
-16.6317
0
LINE
8
BLACK
6
CONTINUOUS
10
15.4283
20
-16.6317
11
15.5236
21
-16.8221
0
LINE
8
BLACK
6
CONTINUOUS
10
15.5236
20
-16.8221
11
15.5236
21
-17.8698
0
LINE
8
BLACK
6
CONTINUOUS
10
19.4283
20
-15.7745
11
17.714
21
-18.346
0
LINE
8
BLACK
6
CONTINUOUS
10
21.9998
20
-15.8698
11
22.1902
21
-15.8698
0
LINE
8
BLACK
6
CONTINUOUS
10
22.1902
20
-15.8698
11
22.3807
21
-15.965
0
LINE
8
BLACK
6
CONTINUOUS
10
22.3807
20
-15.965
11
22.476
21
-16.0602
0
LINE
8
BLACK
6
CONTINUOUS
10
22.476
20
-16.0602
11
22.5712
21
-16.2507
0
LINE
8
BLACK
6
CONTINUOUS
10
22.5712
20
-16.2507
11
22.6664
21
-16.6317
0
LINE
8
BLACK
6
CONTINUOUS
10
22.6664
20
-16.6317
11
22.6664
21
-17.1079
0
LINE
8
BLACK
6
CONTINUOUS
10
22.6664
20
-17.1079
11
22.5712
21
-17.4888
0
LINE
8
BLACK
6
CONTINUOUS
10
22.5712
20
-17.4888
11
22.476
21
-17.6793
0
LINE
8
BLACK
6
CONTINUOUS
10
22.476
20
-17.6793
11
22.3807
21
-17.7745
0
LINE
8
BLACK
6
CONTINUOUS
10
22.3807
20
-17.7745
11
22.1902
21
-17.8698
0
LINE
8
BLACK
6
CONTINUOUS
10
22.1902
20
-17.8698
11
21.9998
21
-17.8698
0
LINE
8
BLACK
6
CONTINUOUS
10
21.9998
20
-17.8698
11
21.8093
21
-17.7745
0
LINE
8
BLACK
6
CONTINUOUS
10
21.8093
20
-17.7745
11
21.714
21
-17.6793
0
LINE
8
BLACK
6
CONTINUOUS
10
21.714
20
-17.6793
11
21.6188
21
-17.4888
0
LINE
8
BLACK
6
CONTINUOUS
10
21.6188
20
-17.4888
11
21.5236
21
-17.1079
0
LINE
8
BLACK
6
CONTINUOUS
10
21.5236
20
-17.1079
11
21.5236
21
-16.6317
0
LINE
8
BLACK
6
CONTINUOUS
10
21.5236
20
-16.6317
11
21.6188
21
-16.2507
0
LINE
8
BLACK
6
CONTINUOUS
10
21.6188
20
-16.2507
11
21.714
21
-16.0602
0
LINE
8
BLACK
6
CONTINUOUS
10
21.714
20
-16.0602
11
21.8093
21
-15.965
0
LINE
8
BLACK
6
CONTINUOUS
10
21.8093
20
-15.965
11
21.9998
21
-15.8698
0
LINE
8
BLACK
6
CONTINUOUS
10
23.5236
20
-17.6793
11
23.6188
21
-17.7745
0
LINE
8
BLACK
6
CONTINUOUS
10
23.6188
20
-17.7745
11
23.5236
21
-17.8698
0
LINE
8
BLACK
6
CONTINUOUS
10
23.5236
20
-17.8698
11
23.4283
21
-17.7745
0
LINE
8
BLACK
6
CONTINUOUS
10
23.4283
20
-17.7745
11
23.5236
21
-17.6793
0
LINE
8
BLACK
6
CONTINUOUS
10
23.5236
20
-17.6793
11
23.5236
21
-17.8698
0
LINE
8
BLACK
6
CONTINUOUS
10
24.8569
20
-15.8698
11
25.0474
21
-15.8698
0
LINE
8
BLACK
6
CONTINUOUS
10
25.0474
20
-15.8698
11
25.2379
21
-15.965
0
LINE
8
BLACK
6
CONTINUOUS
10
25.2379
20
-15.965
11
25.3331
21
-16.0602
0
LINE
8
BLACK
6
CONTINUOUS
10
25.3331
20
-16.0602
11
25.4283
21
-16.2507
0
LINE
8
BLACK
6
CONTINUOUS
10
25.4283
20
-16.2507
11
25.5236
21
-16.6317
0
LINE
8
BLACK
6
CONTINUOUS
10
25.5236
20
-16.6317
11
25.5236
21
-17.1079
0
LINE
8
BLACK
6
CONTINUOUS
10
25.5236
20
-17.1079
11
25.4283
21
-17.4888
0
LINE
8
BLACK
6
CONTINUOUS
10
25.4283
20
-17.4888
11
25.3331
21
-17.6793
0
LINE
8
BLACK
6
CONTINUOUS
10
25.3331
20
-17.6793
11
25.2379
21
-17.7745
0
LINE
8
BLACK
6
CONTINUOUS
10
25.2379
20
-17.7745
11
25.0474
21
-17.8698
0
LINE
8
BLACK
6
CONTINUOUS
10
25.0474
20
-17.8698
11
24.8569
21
-17.8698
0
LINE
8
BLACK
6
CONTINUOUS
10
24.8569
20
-17.8698
11
24.6664
21
-17.7745
0
LINE
8
BLACK
6
CONTINUOUS
10
24.6664
20
-17.7745
11
24.5712
21
-17.6793
0
LINE
8
BLACK
6
CONTINUOUS
10
24.5712
20
-17.6793
11
24.476
21
-17.4888
0
LINE
8
BLACK
6
CONTINUOUS
10
24.476
20
-17.4888
11
24.3807
21
-17.1079
0
LINE
8
BLACK
6
CONTINUOUS
10
24.3807
20
-17.1079
11
24.3807
21
-16.6317
0
LINE
8
BLACK
6
CONTINUOUS
10
24.3807
20
-16.6317
11
24.476
21
-16.2507
0
LINE
8
BLACK
6
CONTINUOUS
10
24.476
20
-16.2507
11
24.5712
21
-16.0602
0
LINE
8
BLACK
6
CONTINUOUS
10
24.5712
20
-16.0602
11
24.6664
21
-15.965
0
LINE
8
BLACK
6
CONTINUOUS
10
24.6664
20
-15.965
11
24.8569
21
-15.8698
0
LINE
8
BLACK
6
CONTINUOUS
10
27.3331
20
-15.8698
11
26.3807
21
-15.8698
0
LINE
8
BLACK
6
CONTINUOUS
10
26.3807
20
-15.8698
11
26.2855
21
-16.8221
0
LINE
8
BLACK
6
CONTINUOUS
10
26.2855
20
-16.8221
11
26.3807
21
-16.7269
0
LINE
8
BLACK
6
CONTINUOUS
10
26.3807
20
-16.7269
11
26.5712
21
-16.6317
0
LINE
8
BLACK
6
CONTINUOUS
10
26.5712
20
-16.6317
11
27.0474
21
-16.6317
0
LINE
8
BLACK
6
CONTINUOUS
10
27.0474
20
-16.6317
11
27.2379
21
-16.7269
0
LINE
8
BLACK
6
CONTINUOUS
10
27.2379
20
-16.7269
11
27.3331
21
-16.8221
0
LINE
8
BLACK
6
CONTINUOUS
10
27.3331
20
-16.8221
11
27.4283
21
-17.0126
0
LINE
8
BLACK
6
CONTINUOUS
10
27.4283
20
-17.0126
11
27.4283
21
-17.4888
0
LINE
8
BLACK
6
CONTINUOUS
10
27.4283
20
-17.4888
11
27.3331
21
-17.6793
0
LINE
8
BLACK
6
CONTINUOUS
10
27.3331
20
-17.6793
11
27.2379
21
-17.7745
0
LINE
8
BLACK
6
CONTINUOUS
10
27.2379
20
-17.7745
11
27.0474
21
-17.8698
0
LINE
8
BLACK
6
CONTINUOUS
10
27.0474
20
-17.8698
11
26.5712
21
-17.8698
0
LINE
8
BLACK
6
CONTINUOUS
10
26.5712
20
-17.8698
11
26.3807
21
-17.7745
0
LINE
8
BLACK
6
CONTINUOUS
10
26.3807
20
-17.7745
11
26.2855
21
-17.6793
0
LINE
8
BLACK
6
CONTINUOUS
10
28.6664
20
-15.8698
11
28.8569
21
-15.8698
0
LINE
8
BLACK
6
CONTINUOUS
10
28.8569
20
-15.8698
11
29.0474
21
-15.965
0
LINE
8
BLACK
6
CONTINUOUS
10
29.0474
20
-15.965
11
29.1426
21
-16.0602
0
LINE
8
BLACK
6
CONTINUOUS
10
29.1426
20
-16.0602
11
29.2379
21
-16.2507
0
LINE
8
BLACK
6
CONTINUOUS
10
29.2379
20
-16.2507
11
29.3331
21
-16.6317
0
LINE
8
BLACK
6
CONTINUOUS
10
29.3331
20
-16.6317
11
29.3331
21
-17.1079
0
LINE
8
BLACK
6
CONTINUOUS
10
29.3331
20
-17.1079
11
29.2379
21
-17.4888
0
LINE
8
BLACK
6
CONTINUOUS
10
29.2379
20
-17.4888
11
29.1426
21
-17.6793
0
LINE
8
BLACK
6
CONTINUOUS
10
29.1426
20
-17.6793
11
29.0474
21
-17.7745
0
LINE
8
BLACK
6
CONTINUOUS
10
29.0474
20
-17.7745
11
28.8569
21
-17.8698
0
LINE
8
BLACK
6
CONTINUOUS
10
28.8569
20
-17.8698
11
28.6664
21
-17.8698
0
LINE
8
BLACK
6
CONTINUOUS
10
28.6664
20
-17.8698
11
28.476
21
-17.7745
0
LINE
8
BLACK
6
CONTINUOUS
10
28.476
20
-17.7745
11
28.3807
21
-17.6793
0
LINE
8
BLACK
6
CONTINUOUS
10
28.3807
20
-17.6793
11
28.2855
21
-17.4888
0
LINE
8
BLACK
6
CONTINUOUS
10
28.2855
20
-17.4888
11
28.1902
21
-17.1079
0
LINE
8
BLACK
6
CONTINUOUS
10
28.1902
20
-17.1079
11
28.1902
21
-16.6317
0
LINE
8
BLACK
6
CONTINUOUS
10
28.1902
20
-16.6317
11
28.2855
21
-16.2507
0
LINE
8
BLACK
6
CONTINUOUS
10
28.2855
20
-16.2507
11
28.3807
21
-16.0602
0
LINE
8
BLACK
6
CONTINUOUS
10
28.3807
20
-16.0602
11
28.476
21
-15.965
0
LINE
8
BLACK
6
CONTINUOUS
10
28.476
20
-15.965
11
28.6664
21
-15.8698
0
LINE
8
BLACK
6
CONTINUOUS
10
31.0474
20
-16.5364
11
31.0474
21
-17.8698
0
LINE
8
BLACK
6
CONTINUOUS
10
30.5712
20
-15.7745
11
30.095
21
-17.2031
0
LINE
8
BLACK
6
CONTINUOUS
10
30.095
20
-17.2031
11
31.3331
21
-17.2031
0
LINE
8
BLACK
6
CONTINUOUS
10
31.9998
20
-15.8698
11
31.9998
21
-16.2507
0
LINE
8
BLACK
6
CONTINUOUS
10
32.7617
20
-15.8698
11
32.7617
21
-16.2507
0
LINE
8
BLACK
6
CONTINUOUS
10
35.714
20
-18.6317
11
35.6188
21
-18.5364
0
LINE
8
BLACK
6
CONTINUOUS
10
35.6188
20
-18.5364
11
35.4283
21
-18.2507
0
LINE
8
BLACK
6
CONTINUOUS
10
35.4283
20
-18.2507
11
35.3331
21
-18.0602
0
LINE
8
BLACK
6
CONTINUOUS
10
35.3331
20
-18.0602
11
35.2379
21
-17.7745
0
LINE
8
BLACK
6
CONTINUOUS
10
35.2379
20
-17.7745
11
35.1426
21
-17.2983
0
LINE
8
BLACK
6
CONTINUOUS
10
35.1426
20
-17.2983
11
35.1426
21
-16.9174
0
LINE
8
BLACK
6
CONTINUOUS
10
35.1426
20
-16.9174
11
35.2379
21
-16.4412
0
LINE
8
BLACK
6
CONTINUOUS
10
35.2379
20
-16.4412
11
35.3331
21
-16.1555
0
LINE
8
BLACK
6
CONTINUOUS
10
35.3331
20
-16.1555
11
35.4283
21
-15.965
0
LINE
8
BLACK
6
CONTINUOUS
10
35.4283
20
-15.965
11
35.6188
21
-15.6793
0
LINE
8
BLACK
6
CONTINUOUS
10
35.6188
20
-15.6793
11
35.714
21
-15.584
0
LINE
8
BLACK
6
CONTINUOUS
10
36.2855
20
-15.8698
11
37.5236
21
-15.8698
0
LINE
8
BLACK
6
CONTINUOUS
10
37.5236
20
-15.8698
11
36.8569
21
-16.6317
0
LINE
8
BLACK
6
CONTINUOUS
10
36.8569
20
-16.6317
11
37.1426
21
-16.6317
0
LINE
8
BLACK
6
CONTINUOUS
10
37.1426
20
-16.6317
11
37.3331
21
-16.7269
0
LINE
8
BLACK
6
CONTINUOUS
10
37.3331
20
-16.7269
11
37.4283
21
-16.8221
0
LINE
8
BLACK
6
CONTINUOUS
10
37.4283
20
-16.8221
11
37.5236
21
-17.0126
0
LINE
8
BLACK
6
CONTINUOUS
10
37.5236
20
-17.0126
11
37.5236
21
-17.4888
0
LINE
8
BLACK
6
CONTINUOUS
10
37.5236
20
-17.4888
11
37.4283
21
-17.6793
0
LINE
8
BLACK
6
CONTINUOUS
10
37.4283
20
-17.6793
11
37.3331
21
-17.7745
0
LINE
8
BLACK
6
CONTINUOUS
10
37.3331
20
-17.7745
11
37.1426
21
-17.8698
0
LINE
8
BLACK
6
CONTINUOUS
10
37.1426
20
-17.8698
11
36.5712
21
-17.8698
0
LINE
8
BLACK
6
CONTINUOUS
10
36.5712
20
-17.8698
11
36.3807
21
-17.7745
0
LINE
8
BLACK
6
CONTINUOUS
10
36.3807
20
-17.7745
11
36.2855
21
-17.6793
0
LINE
8
BLACK
6
CONTINUOUS
10
39.9045
20
-17.8698
11
39.9045
21
-15.8698
0
LINE
8
BLACK
6
CONTINUOUS
10
40.7617
20
-17.8698
11
40.7617
21
-16.8221
0
LINE
8
BLACK
6
CONTINUOUS
10
40.7617
20
-16.8221
11
40.6664
21
-16.6317
0
LINE
8
BLACK
6
CONTINUOUS
10
40.6664
20
-16.6317
11
40.476
21
-16.5364
0
LINE
8
BLACK
6
CONTINUOUS
10
40.476
20
-16.5364
11
40.1902
21
-16.5364
0
LINE
8
BLACK
6
CONTINUOUS
10
40.1902
20
-16.5364
11
39.9998
21
-16.6317
0
LINE
8
BLACK
6
CONTINUOUS
10
39.9998
20
-16.6317
11
39.9045
21
-16.7269
0
LINE
8
BLACK
6
CONTINUOUS
10
41.9998
20
-17.8698
11
41.8093
21
-17.7745
0
LINE
8
BLACK
6
CONTINUOUS
10
41.8093
20
-17.7745
11
41.714
21
-17.6793
0
LINE
8
BLACK
6
CONTINUOUS
10
41.714
20
-17.6793
11
41.6188
21
-17.4888
0
LINE
8
BLACK
6
CONTINUOUS
10
41.6188
20
-17.4888
11
41.6188
21
-16.9174
0
LINE
8
BLACK
6
CONTINUOUS
10
41.6188
20
-16.9174
11
41.714
21
-16.7269
0
LINE
8
BLACK
6
CONTINUOUS
10
41.714
20
-16.7269
11
41.8093
21
-16.6317
0
LINE
8
BLACK
6
CONTINUOUS
10
41.8093
20
-16.6317
11
41.9998
21
-16.5364
0
LINE
8
BLACK
6
CONTINUOUS
10
41.9998
20
-16.5364
11
42.2855
21
-16.5364
0
LINE
8
BLACK
6
CONTINUOUS
10
42.2855
20
-16.5364
11
42.476
21
-16.6317
0
LINE
8
BLACK
6
CONTINUOUS
10
42.476
20
-16.6317
11
42.5712
21
-16.7269
0
LINE
8
BLACK
6
CONTINUOUS
10
42.5712
20
-16.7269
11
42.6664
21
-16.9174
0
LINE
8
BLACK
6
CONTINUOUS
10
42.6664
20
-16.9174
11
42.6664
21
-17.4888
0
LINE
8
BLACK
6
CONTINUOUS
10
42.6664
20
-17.4888
11
42.5712
21
-17.6793
0
LINE
8
BLACK
6
CONTINUOUS
10
42.5712
20
-17.6793
11
42.476
21
-17.7745
0
LINE
8
BLACK
6
CONTINUOUS
10
42.476
20
-17.7745
11
42.2855
21
-17.8698
0
LINE
8
BLACK
6
CONTINUOUS
10
42.2855
20
-17.8698
11
41.9998
21
-17.8698
0
LINE
8
BLACK
6
CONTINUOUS
10
43.8093
20
-17.8698
11
43.6188
21
-17.7745
0
LINE
8
BLACK
6
CONTINUOUS
10
43.6188
20
-17.7745
11
43.5236
21
-17.584
0
LINE
8
BLACK
6
CONTINUOUS
10
43.5236
20
-17.584
11
43.5236
21
-15.8698
0
LINE
8
BLACK
6
CONTINUOUS
10
45.3331
20
-17.7745
11
45.1426
21
-17.8698
0
LINE
8
BLACK
6
CONTINUOUS
10
45.1426
20
-17.8698
11
44.7617
21
-17.8698
0
LINE
8
BLACK
6
CONTINUOUS
10
44.7617
20
-17.8698
11
44.5712
21
-17.7745
0
LINE
8
BLACK
6
CONTINUOUS
10
44.5712
20
-17.7745
11
44.476
21
-17.584
0
LINE
8
BLACK
6
CONTINUOUS
10
44.476
20
-17.584
11
44.476
21
-16.8221
0
LINE
8
BLACK
6
CONTINUOUS
10
44.476
20
-16.8221
11
44.5712
21
-16.6317
0
LINE
8
BLACK
6
CONTINUOUS
10
44.5712
20
-16.6317
11
44.7617
21
-16.5364
0
LINE
8
BLACK
6
CONTINUOUS
10
44.7617
20
-16.5364
11
45.1426
21
-16.5364
0
LINE
8
BLACK
6
CONTINUOUS
10
45.1426
20
-16.5364
11
45.3331
21
-16.6317
0
LINE
8
BLACK
6
CONTINUOUS
10
45.3331
20
-16.6317
11
45.4283
21
-16.8221
0
LINE
8
BLACK
6
CONTINUOUS
10
45.4283
20
-16.8221
11
45.4283
21
-17.0126
0
LINE
8
BLACK
6
CONTINUOUS
10
45.4283
20
-17.0126
11
44.476
21
-17.2031
0
LINE
8
BLACK
6
CONTINUOUS
10
46.1902
20
-17.7745
11
46.3807
21
-17.8698
0
LINE
8
BLACK
6
CONTINUOUS
10
46.3807
20
-17.8698
11
46.7617
21
-17.8698
0
LINE
8
BLACK
6
CONTINUOUS
10
46.7617
20
-17.8698
11
46.9521
21
-17.7745
0
LINE
8
BLACK
6
CONTINUOUS
10
46.9521
20
-17.7745
11
47.0474
21
-17.584
0
LINE
8
BLACK
6
CONTINUOUS
10
47.0474
20
-17.584
11
47.0474
21
-17.4888
0
LINE
8
BLACK
6
CONTINUOUS
10
47.0474
20
-17.4888
11
46.9521
21
-17.2983
0
LINE
8
BLACK
6
CONTINUOUS
10
46.9521
20
-17.2983
11
46.7617
21
-17.2031
0
LINE
8
BLACK
6
CONTINUOUS
10
46.7617
20
-17.2031
11
46.476
21
-17.2031
0
LINE
8
BLACK
6
CONTINUOUS
10
46.476
20
-17.2031
11
46.2855
21
-17.1079
0
LINE
8
BLACK
6
CONTINUOUS
10
46.2855
20
-17.1079
11
46.1902
21
-16.9174
0
LINE
8
BLACK
6
CONTINUOUS
10
46.1902
20
-16.9174
11
46.1902
21
-16.8221
0
LINE
8
BLACK
6
CONTINUOUS
10
46.1902
20
-16.8221
11
46.2855
21
-16.6317
0
LINE
8
BLACK
6
CONTINUOUS
10
46.2855
20
-16.6317
11
46.476
21
-16.5364
0
LINE
8
BLACK
6
CONTINUOUS
10
46.476
20
-16.5364
11
46.7617
21
-16.5364
0
LINE
8
BLACK
6
CONTINUOUS
10
46.7617
20
-16.5364
11
46.9521
21
-16.6317
0
LINE
8
BLACK
6
CONTINUOUS
10
47.714
20
-18.6317
11
47.8093
21
-18.5364
0
LINE
8
BLACK
6
CONTINUOUS
10
47.8093
20
-18.5364
11
47.9998
21
-18.2507
0
LINE
8
BLACK
6
CONTINUOUS
10
47.9998
20
-18.2507
11
48.095
21
-18.0602
0
LINE
8
BLACK
6
CONTINUOUS
10
48.095
20
-18.0602
11
48.1902
21
-17.7745
0
LINE
8
BLACK
6
CONTINUOUS
10
48.1902
20
-17.7745
11
48.2855
21
-17.2983
0
LINE
8
BLACK
6
CONTINUOUS
10
48.2855
20
-17.2983
11
48.2855
21
-16.9174
0
LINE
8
BLACK
6
CONTINUOUS
10
48.2855
20
-16.9174
11
48.1902
21
-16.4412
0
LINE
8
BLACK
6
CONTINUOUS
10
48.1902
20
-16.4412
11
48.095
21
-16.1555
0
LINE
8
BLACK
6
CONTINUOUS
10
48.095
20
-16.1555
11
47.9998
21
-15.965
0
LINE
8
BLACK
6
CONTINUOUS
10
47.9998
20
-15.965
11
47.8093
21
-15.6793
0
LINE
8
BLACK
6
CONTINUOUS
10
47.8093
20
-15.6793
11
47.714
21
-15.584
0
LINE
8
BLACK
6
CONTINUOUS
10
-2.005
20
-18.605
11
-0.005
21
-20.605
0
LINE
8
BLACK
6
CONTINUOUS
10
-0.005
20
-18.605
11
-2.005
21
-20.605
0
CIRCLE
8
BLACK
10
-1.005
20
-19.605
40
1
0
LINE
8
BLACK
6
CONTINUOUS
10
2.38071
20
-18.5098
11
3.61881
21
-18.5098
0
LINE
8
BLACK
6
CONTINUOUS
10
3.61881
20
-18.5098
11
2.95214
21
-19.2717
0
LINE
8
BLACK
6
CONTINUOUS
10
2.95214
20
-19.2717
11
3.23786
21
-19.2717
0
LINE
8
BLACK
6
CONTINUOUS
10
3.23786
20
-19.2717
11
3.42833
21
-19.3669
0
LINE
8
BLACK
6
CONTINUOUS
10
3.42833
20
-19.3669
11
3.52357
21
-19.4621
0
LINE
8
BLACK
6
CONTINUOUS
10
3.52357
20
-19.4621
11
3.61881
21
-19.6526
0
LINE
8
BLACK
6
CONTINUOUS
10
3.61881
20
-19.6526
11
3.61881
21
-20.1288
0
LINE
8
BLACK
6
CONTINUOUS
10
3.61881
20
-20.1288
11
3.52357
21
-20.3193
0
LINE
8
BLACK
6
CONTINUOUS
10
3.52357
20
-20.3193
11
3.42833
21
-20.4145
0
LINE
8
BLACK
6
CONTINUOUS
10
3.42833
20
-20.4145
11
3.23786
21
-20.5098
0
LINE
8
BLACK
6
CONTINUOUS
10
3.23786
20
-20.5098
11
2.66643
21
-20.5098
0
LINE
8
BLACK
6
CONTINUOUS
10
2.66643
20
-20.5098
11
2.47595
21
-20.4145
0
LINE
8
BLACK
6
CONTINUOUS
10
2.47595
20
-20.4145
11
2.38071
21
-20.3193
0
LINE
8
BLACK
6
CONTINUOUS
10
4.47595
20
-20.3193
11
4.57119
21
-20.4145
0
LINE
8
BLACK
6
CONTINUOUS
10
4.57119
20
-20.4145
11
4.47595
21
-20.5098
0
LINE
8
BLACK
6
CONTINUOUS
10
4.47595
20
-20.5098
11
4.38071
21
-20.4145
0
LINE
8
BLACK
6
CONTINUOUS
10
4.38071
20
-20.4145
11
4.47595
21
-20.3193
0
LINE
8
BLACK
6
CONTINUOUS
10
4.47595
20
-20.3193
11
4.47595
21
-20.5098
0
LINE
8
BLACK
6
CONTINUOUS
10
5.3331
20
-18.7002
11
5.42833
21
-18.605
0
LINE
8
BLACK
6
CONTINUOUS
10
5.42833
20
-18.605
11
5.61881
21
-18.5098
0
LINE
8
BLACK
6
CONTINUOUS
10
5.61881
20
-18.5098
11
6.095
21
-18.5098
0
LINE
8
BLACK
6
CONTINUOUS
10
6.095
20
-18.5098
11
6.28548
21
-18.605
0
LINE
8
BLACK
6
CONTINUOUS
10
6.28548
20
-18.605
11
6.38071
21
-18.7002
0
LINE
8
BLACK
6
CONTINUOUS
10
6.38071
20
-18.7002
11
6.47595
21
-18.8907
0
LINE
8
BLACK
6
CONTINUOUS
10
6.47595
20
-18.8907
11
6.47595
21
-19.0812
0
LINE
8
BLACK
6
CONTINUOUS
10
6.47595
20
-19.0812
11
6.38071
21
-19.3669
0
LINE
8
BLACK
6
CONTINUOUS
10
6.38071
20
-19.3669
11
5.23786
21
-20.5098
0
LINE
8
BLACK
6
CONTINUOUS
10
5.23786
20
-20.5098
11
6.47595
21
-20.5098
0
LINE
8
BLACK
6
CONTINUOUS
10
7.71405
20
-18.5098
11
7.90452
21
-18.5098
0
LINE
8
BLACK
6
CONTINUOUS
10
7.90452
20
-18.5098
11
8.095
21
-18.605
0
LINE
8
BLACK
6
CONTINUOUS
10
8.095
20
-18.605
11
8.19024
21
-18.7002
0
LINE
8
BLACK
6
CONTINUOUS
10
8.19024
20
-18.7002
11
8.28548
21
-18.8907
0
LINE
8
BLACK
6
CONTINUOUS
10
8.28548
20
-18.8907
11
8.38071
21
-19.2717
0
LINE
8
BLACK
6
CONTINUOUS
10
8.38071
20
-19.2717
11
8.38071
21
-19.7479
0
LINE
8
BLACK
6
CONTINUOUS
10
8.38071
20
-19.7479
11
8.28548
21
-20.1288
0
LINE
8
BLACK
6
CONTINUOUS
10
8.28548
20
-20.1288
11
8.19024
21
-20.3193
0
LINE
8
BLACK
6
CONTINUOUS
10
8.19024
20
-20.3193
11
8.095
21
-20.4145
0
LINE
8
BLACK
6
CONTINUOUS
10
8.095
20
-20.4145
11
7.90452
21
-20.5098
0
LINE
8
BLACK
6
CONTINUOUS
10
7.90452
20
-20.5098
11
7.71405
21
-20.5098
0
LINE
8
BLACK
6
CONTINUOUS
10
7.71405
20
-20.5098
11
7.52357
21
-20.4145
0
LINE
8
BLACK
6
CONTINUOUS
10
7.52357
20
-20.4145
11
7.42833
21
-20.3193
0
LINE
8
BLACK
6
CONTINUOUS
10
7.42833
20
-20.3193
11
7.33309
21
-20.1288
0
LINE
8
BLACK
6
CONTINUOUS
10
7.33309
20
-20.1288
11
7.23786
21
-19.7479
0
LINE
8
BLACK
6
CONTINUOUS
10
7.23786
20
-19.7479
11
7.23786
21
-19.2717
0
LINE
8
BLACK
6
CONTINUOUS
10
7.23786
20
-19.2717
11
7.33309
21
-18.8907
0
LINE
8
BLACK
6
CONTINUOUS
10
7.33309
20
-18.8907
11
7.42833
21
-18.7002
0
LINE
8
BLACK
6
CONTINUOUS
10
7.42833
20
-18.7002
11
7.52357
21
-18.605
0
LINE
8
BLACK
6
CONTINUOUS
10
7.52357
20
-18.605
11
7.71405
21
-18.5098
0
LINE
8
BLACK
6
CONTINUOUS
10
9.61881
20
-18.5098
11
9.80928
21
-18.5098
0
LINE
8
BLACK
6
CONTINUOUS
10
9.80928
20
-18.5098
11
9.99976
21
-18.605
0
LINE
8
BLACK
6
CONTINUOUS
10
9.99976
20
-18.605
11
10.095
21
-18.7002
0
LINE
8
BLACK
6
CONTINUOUS
10
10.095
20
-18.7002
11
10.1902
21
-18.8907
0
LINE
8
BLACK
6
CONTINUOUS
10
10.1902
20
-18.8907
11
10.2855
21
-19.2717
0
LINE
8
BLACK
6
CONTINUOUS
10
10.2855
20
-19.2717
11
10.2855
21
-19.7479
0
LINE
8
BLACK
6
CONTINUOUS
10
10.2855
20
-19.7479
11
10.1902
21
-20.1288
0
LINE
8
BLACK
6
CONTINUOUS
10
10.1902
20
-20.1288
11
10.095
21
-20.3193
0
LINE
8
BLACK
6
CONTINUOUS
10
10.095
20
-20.3193
11
9.99976
21
-20.4145
0
LINE
8
BLACK
6
CONTINUOUS
10
9.99976
20
-20.4145
11
9.80928
21
-20.5098
0
LINE
8
BLACK
6
CONTINUOUS
10
9.80928
20
-20.5098
11
9.61881
21
-20.5098
0
LINE
8
BLACK
6
CONTINUOUS
10
9.61881
20
-20.5098
11
9.42833
21
-20.4145
0
LINE
8
BLACK
6
CONTINUOUS
10
9.42833
20
-20.4145
11
9.3331
21
-20.3193
0
LINE
8
BLACK
6
CONTINUOUS
10
9.3331
20
-20.3193
11
9.23786
21
-20.1288
0
LINE
8
BLACK
6
CONTINUOUS
10
9.23786
20
-20.1288
11
9.14262
21
-19.7479
0
LINE
8
BLACK
6
CONTINUOUS
10
9.14262
20
-19.7479
11
9.14262
21
-19.2717
0
LINE
8
BLACK
6
CONTINUOUS
10
9.14262
20
-19.2717
11
9.23786
21
-18.8907
0
LINE
8
BLACK
6
CONTINUOUS
10
9.23786
20
-18.8907
11
9.3331
21
-18.7002
0
LINE
8
BLACK
6
CONTINUOUS
10
9.3331
20
-18.7002
11
9.42833
21
-18.605
0
LINE
8
BLACK
6
CONTINUOUS
10
9.42833
20
-18.605
11
9.61881
21
-18.5098
0
LINE
8
BLACK
6
CONTINUOUS
10
11.1426
20
-20.5098
11
11.1426
21
-19.1764
0
LINE
8
BLACK
6
CONTINUOUS
10
11.1426
20
-19.3669
11
11.2379
21
-19.2717
0
LINE
8
BLACK
6
CONTINUOUS
10
11.2379
20
-19.2717
11
11.4283
21
-19.1764
0
LINE
8
BLACK
6
CONTINUOUS
10
11.4283
20
-19.1764
11
11.714
21
-19.1764
0
LINE
8
BLACK
6
CONTINUOUS
10
11.714
20
-19.1764
11
11.9045
21
-19.2717
0
LINE
8
BLACK
6
CONTINUOUS
10
11.9045
20
-19.2717
11
11.9998
21
-19.4621
0
LINE
8
BLACK
6
CONTINUOUS
10
11.9998
20
-19.4621
11
11.9998
21
-20.5098
0
LINE
8
BLACK
6
CONTINUOUS
10
11.9998
20
-19.4621
11
12.095
21
-19.2717
0
LINE
8
BLACK
6
CONTINUOUS
10
12.095
20
-19.2717
11
12.2855
21
-19.1764
0
LINE
8
BLACK
6
CONTINUOUS
10
12.2855
20
-19.1764
11
12.5712
21
-19.1764
0
LINE
8
BLACK
6
CONTINUOUS
10
12.5712
20
-19.1764
11
12.7617
21
-19.2717
0
LINE
8
BLACK
6
CONTINUOUS
10
12.7617
20
-19.2717
11
12.8569
21
-19.4621
0
LINE
8
BLACK
6
CONTINUOUS
10
12.8569
20
-19.4621
11
12.8569
21
-20.5098
0
LINE
8
BLACK
6
CONTINUOUS
10
13.8093
20
-20.5098
11
13.8093
21
-19.1764
0
LINE
8
BLACK
6
CONTINUOUS
10
13.8093
20
-19.3669
11
13.9045
21
-19.2717
0
LINE
8
BLACK
6
CONTINUOUS
10
13.9045
20
-19.2717
11
14.095
21
-19.1764
0
LINE
8
BLACK
6
CONTINUOUS
10
14.095
20
-19.1764
11
14.3807
21
-19.1764
0
LINE
8
BLACK
6
CONTINUOUS
10
14.3807
20
-19.1764
11
14.5712
21
-19.2717
0
LINE
8
BLACK
6
CONTINUOUS
10
14.5712
20
-19.2717
11
14.6664
21
-19.4621
0
LINE
8
BLACK
6
CONTINUOUS
10
14.6664
20
-19.4621
11
14.6664
21
-20.5098
0
LINE
8
BLACK
6
CONTINUOUS
10
14.6664
20
-19.4621
11
14.7617
21
-19.2717
0
LINE
8
BLACK
6
CONTINUOUS
10
14.7617
20
-19.2717
11
14.9521
21
-19.1764
0
LINE
8
BLACK
6
CONTINUOUS
10
14.9521
20
-19.1764
11
15.2379
21
-19.1764
0
LINE
8
BLACK
6
CONTINUOUS
10
15.2379
20
-19.1764
11
15.4283
21
-19.2717
0
LINE
8
BLACK
6
CONTINUOUS
10
15.4283
20
-19.2717
11
15.5236
21
-19.4621
0
LINE
8
BLACK
6
CONTINUOUS
10
15.5236
20
-19.4621
11
15.5236
21
-20.5098
0
LINE
8
BLACK
6
CONTINUOUS
10
19.4283
20
-18.4145
11
17.714
21
-20.986
0
LINE
8
BLACK
6
CONTINUOUS
10
21.9998
20
-18.5098
11
22.1902
21
-18.5098
0
LINE
8
BLACK
6
CONTINUOUS
10
22.1902
20
-18.5098
11
22.3807
21
-18.605
0
LINE
8
BLACK
6
CONTINUOUS
10
22.3807
20
-18.605
11
22.476
21
-18.7002
0
LINE
8
BLACK
6
CONTINUOUS
10
22.476
20
-18.7002
11
22.5712
21
-18.8907
0
LINE
8
BLACK
6
CONTINUOUS
10
22.5712
20
-18.8907
11
22.6664
21
-19.2717
0
LINE
8
BLACK
6
CONTINUOUS
10
22.6664
20
-19.2717
11
22.6664
21
-19.7479
0
LINE
8
BLACK
6
CONTINUOUS
10
22.6664
20
-19.7479
11
22.5712
21
-20.1288
0
LINE
8
BLACK
6
CONTINUOUS
10
22.5712
20
-20.1288
11
22.476
21
-20.3193
0
LINE
8
BLACK
6
CONTINUOUS
10
22.476
20
-20.3193
11
22.3807
21
-20.4145
0
LINE
8
BLACK
6
CONTINUOUS
10
22.3807
20
-20.4145
11
22.1902
21
-20.5098
0
LINE
8
BLACK
6
CONTINUOUS
10
22.1902
20
-20.5098
11
21.9998
21
-20.5098
0
LINE
8
BLACK
6
CONTINUOUS
10
21.9998
20
-20.5098
11
21.8093
21
-20.4145
0
LINE
8
BLACK
6
CONTINUOUS
10
21.8093
20
-20.4145
11
21.714
21
-20.3193
0
LINE
8
BLACK
6
CONTINUOUS
10
21.714
20
-20.3193
11
21.6188
21
-20.1288
0
LINE
8
BLACK
6
CONTINUOUS
10
21.6188
20
-20.1288
11
21.5236
21
-19.7479
0
LINE
8
BLACK
6
CONTINUOUS
10
21.5236
20
-19.7479
11
21.5236
21
-19.2717
0
LINE
8
BLACK
6
CONTINUOUS
10
21.5236
20
-19.2717
11
21.6188
21
-18.8907
0
LINE
8
BLACK
6
CONTINUOUS
10
21.6188
20
-18.8907
11
21.714
21
-18.7002
0
LINE
8
BLACK
6
CONTINUOUS
10
21.714
20
-18.7002
11
21.8093
21
-18.605
0
LINE
8
BLACK
6
CONTINUOUS
10
21.8093
20
-18.605
11
21.9998
21
-18.5098
0
LINE
8
BLACK
6
CONTINUOUS
10
23.5236
20
-20.3193
11
23.6188
21
-20.4145
0
LINE
8
BLACK
6
CONTINUOUS
10
23.6188
20
-20.4145
11
23.5236
21
-20.5098
0
LINE
8
BLACK
6
CONTINUOUS
10
23.5236
20
-20.5098
11
23.4283
21
-20.4145
0
LINE
8
BLACK
6
CONTINUOUS
10
23.4283
20
-20.4145
11
23.5236
21
-20.3193
0
LINE
8
BLACK
6
CONTINUOUS
10
23.5236
20
-20.3193
11
23.5236
21
-20.5098
0
LINE
8
BLACK
6
CONTINUOUS
10
25.5236
20
-20.5098
11
24.3807
21
-20.5098
0
LINE
8
BLACK
6
CONTINUOUS
10
24.9521
20
-20.5098
11
24.9521
21
-18.5098
0
LINE
8
BLACK
6
CONTINUOUS
10
24.9521
20
-18.5098
11
24.7617
21
-18.7955
0
LINE
8
BLACK
6
CONTINUOUS
10
24.7617
20
-18.7955
11
24.5712
21
-18.986
0
LINE
8
BLACK
6
CONTINUOUS
10
24.5712
20
-18.986
11
24.3807
21
-19.0812
0
LINE
8
BLACK
6
CONTINUOUS
10
26.2855
20
-18.7002
11
26.3807
21
-18.605
0
LINE
8
BLACK
6
CONTINUOUS
10
26.3807
20
-18.605
11
26.5712
21
-18.5098
0
LINE
8
BLACK
6
CONTINUOUS
10
26.5712
20
-18.5098
11
27.0474
21
-18.5098
0
LINE
8
BLACK
6
CONTINUOUS
10
27.0474
20
-18.5098
11
27.2379
21
-18.605
0
LINE
8
BLACK
6
CONTINUOUS
10
27.2379
20
-18.605
11
27.3331
21
-18.7002
0
LINE
8
BLACK
6
CONTINUOUS
10
27.3331
20
-18.7002
11
27.4283
21
-18.8907
0
LINE
8
BLACK
6
CONTINUOUS
10
27.4283
20
-18.8907
11
27.4283
21
-19.0812
0
LINE
8
BLACK
6
CONTINUOUS
10
27.4283
20
-19.0812
11
27.3331
21
-19.3669
0
LINE
8
BLACK
6
CONTINUOUS
10
27.3331
20
-19.3669
11
26.1902
21
-20.5098
0
LINE
8
BLACK
6
CONTINUOUS
10
26.1902
20
-20.5098
11
27.4283
21
-20.5098
0
LINE
8
BLACK
6
CONTINUOUS
10
29.1426
20
-18.5098
11
28.7617
21
-18.5098
0
LINE
8
BLACK
6
CONTINUOUS
10
28.7617
20
-18.5098
11
28.5712
21
-18.605
0
LINE
8
BLACK
6
CONTINUOUS
10
28.5712
20
-18.605
11
28.476
21
-18.7002
0
LINE
8
BLACK
6
CONTINUOUS
10
28.476
20
-18.7002
11
28.2855
21
-18.986
0
LINE
8
BLACK
6
CONTINUOUS
10
28.2855
20
-18.986
11
28.1902
21
-19.3669
0
LINE
8
BLACK
6
CONTINUOUS
10
28.1902
20
-19.3669
11
28.1902
21
-20.1288
0
LINE
8
BLACK
6
CONTINUOUS
10
28.1902
20
-20.1288
11
28.2855
21
-20.3193
0
LINE
8
BLACK
6
CONTINUOUS
10
28.2855
20
-20.3193
11
28.3807
21
-20.4145
0
LINE
8
BLACK
6
CONTINUOUS
10
28.3807
20
-20.4145
11
28.5712
21
-20.5098
0
LINE
8
BLACK
6
CONTINUOUS
10
28.5712
20
-20.5098
11
28.9521
21
-20.5098
0
LINE
8
BLACK
6
CONTINUOUS
10
28.9521
20
-20.5098
11
29.1426
21
-20.4145
0
LINE
8
BLACK
6
CONTINUOUS
10
29.1426
20
-20.4145
11
29.2379
21
-20.3193
0
LINE
8
BLACK
6
CONTINUOUS
10
29.2379
20
-20.3193
11
29.3331
21
-20.1288
0
LINE
8
BLACK
6
CONTINUOUS
10
29.3331
20
-20.1288
11
29.3331
21
-19.6526
0
LINE
8
BLACK
6
CONTINUOUS
10
29.3331
20
-19.6526
11
29.2379
21
-19.4621
0
LINE
8
BLACK
6
CONTINUOUS
10
29.2379
20
-19.4621
11
29.1426
21
-19.3669
0
LINE
8
BLACK
6
CONTINUOUS
10
29.1426
20
-19.3669
11
28.9521
21
-19.2717
0
LINE
8
BLACK
6
CONTINUOUS
10
28.9521
20
-19.2717
11
28.5712
21
-19.2717
0
LINE
8
BLACK
6
CONTINUOUS
10
28.5712
20
-19.2717
11
28.3807
21
-19.3669
0
LINE
8
BLACK
6
CONTINUOUS
10
28.3807
20
-19.3669
11
28.2855
21
-19.4621
0
LINE
8
BLACK
6
CONTINUOUS
10
28.2855
20
-19.4621
11
28.1902
21
-19.6526
0
LINE
8
BLACK
6
CONTINUOUS
10
30.5712
20
-18.5098
11
30.7617
21
-18.5098
0
LINE
8
BLACK
6
CONTINUOUS
10
30.7617
20
-18.5098
11
30.9521
21
-18.605
0
LINE
8
BLACK
6
CONTINUOUS
10
30.9521
20
-18.605
11
31.0474
21
-18.7002
0
LINE
8
BLACK
6
CONTINUOUS
10
31.0474
20
-18.7002
11
31.1426
21
-18.8907
0
LINE
8
BLACK
6
CONTINUOUS
10
31.1426
20
-18.8907
11
31.2379
21
-19.2717
0
LINE
8
BLACK
6
CONTINUOUS
10
31.2379
20
-19.2717
11
31.2379
21
-19.7479
0
LINE
8
BLACK
6
CONTINUOUS
10
31.2379
20
-19.7479
11
31.1426
21
-20.1288
0
LINE
8
BLACK
6
CONTINUOUS
10
31.1426
20
-20.1288
11
31.0474
21
-20.3193
0
LINE
8
BLACK
6
CONTINUOUS
10
31.0474
20
-20.3193
11
30.9521
21
-20.4145
0
LINE
8
BLACK
6
CONTINUOUS
10
30.9521
20
-20.4145
11
30.7617
21
-20.5098
0
LINE
8
BLACK
6
CONTINUOUS
10
30.7617
20
-20.5098
11
30.5712
21
-20.5098
0
LINE
8
BLACK
6
CONTINUOUS
10
30.5712
20
-20.5098
11
30.3807
21
-20.4145
0
LINE
8
BLACK
6
CONTINUOUS
10
30.3807
20
-20.4145
11
30.2855
21
-20.3193
0
LINE
8
BLACK
6
CONTINUOUS
10
30.2855
20
-20.3193
11
30.1902
21
-20.1288
0
LINE
8
BLACK
6
CONTINUOUS
10
30.1902
20
-20.1288
11
30.095
21
-19.7479
0
LINE
8
BLACK
6
CONTINUOUS
10
30.095
20
-19.7479
11
30.095
21
-19.2717
0
LINE
8
BLACK
6
CONTINUOUS
10
30.095
20
-19.2717
11
30.1902
21
-18.8907
0
LINE
8
BLACK
6
CONTINUOUS
10
30.1902
20
-18.8907
11
30.2855
21
-18.7002
0
LINE
8
BLACK
6
CONTINUOUS
10
30.2855
20
-18.7002
11
30.3807
21
-18.605
0
LINE
8
BLACK
6
CONTINUOUS
10
30.3807
20
-18.605
11
30.5712
21
-18.5098
0
LINE
8
BLACK
6
CONTINUOUS
10
31.9998
20
-18.5098
11
31.9998
21
-18.8907
0
LINE
8
BLACK
6
CONTINUOUS
10
32.7617
20
-18.5098
11
32.7617
21
-18.8907
0
LINE
8
BLACK
6
CONTINUOUS
10
35.714
20
-21.2717
11
35.6188
21
-21.1764
0
LINE
8
BLACK
6
CONTINUOUS
10
35.6188
20
-21.1764
11
35.4283
21
-20.8907
0
LINE
8
BLACK
6
CONTINUOUS
10
35.4283
20
-20.8907
11
35.3331
21
-20.7002
0
LINE
8
BLACK
6
CONTINUOUS
10
35.3331
20
-20.7002
11
35.2379
21
-20.4145
0
LINE
8
BLACK
6
CONTINUOUS
10
35.2379
20
-20.4145
11
35.1426
21
-19.9383
0
LINE
8
BLACK
6
CONTINUOUS
10
35.1426
20
-19.9383
11
35.1426
21
-19.5574
0
LINE
8
BLACK
6
CONTINUOUS
10
35.1426
20
-19.5574
11
35.2379
21
-19.0812
0
LINE
8
BLACK
6
CONTINUOUS
10
35.2379
20
-19.0812
11
35.3331
21
-18.7955
0
LINE
8
BLACK
6
CONTINUOUS
10
35.3331
20
-18.7955
11
35.4283
21
-18.605
0
LINE
8
BLACK
6
CONTINUOUS
10
35.4283
20
-18.605
11
35.6188
21
-18.3193
0
LINE
8
BLACK
6
CONTINUOUS
10
35.6188
20
-18.3193
11
35.714
21
-18.224
0
LINE
8
BLACK
6
CONTINUOUS
10
36.2855
20
-18.5098
11
37.5236
21
-18.5098
0
LINE
8
BLACK
6
CONTINUOUS
10
37.5236
20
-18.5098
11
36.8569
21
-19.2717
0
LINE
8
BLACK
6
CONTINUOUS
10
36.8569
20
-19.2717
11
37.1426
21
-19.2717
0
LINE
8
BLACK
6
CONTINUOUS
10
37.1426
20
-19.2717
11
37.3331
21
-19.3669
0
LINE
8
BLACK
6
CONTINUOUS
10
37.3331
20
-19.3669
11
37.4283
21
-19.4621
0
LINE
8
BLACK
6
CONTINUOUS
10
37.4283
20
-19.4621
11
37.5236
21
-19.6526
0
LINE
8
BLACK
6
CONTINUOUS
10
37.5236
20
-19.6526
11
37.5236
21
-20.1288
0
LINE
8
BLACK
6
CONTINUOUS
10
37.5236
20
-20.1288
11
37.4283
21
-20.3193
0
LINE
8
BLACK
6
CONTINUOUS
10
37.4283
20
-20.3193
11
37.3331
21
-20.4145
0
LINE
8
BLACK
6
CONTINUOUS
10
37.3331
20
-20.4145
11
37.1426
21
-20.5098
0
LINE
8
BLACK
6
CONTINUOUS
10
37.1426
20
-20.5098
11
36.5712
21
-20.5098
0
LINE
8
BLACK
6
CONTINUOUS
10
36.5712
20
-20.5098
11
36.3807
21
-20.4145
0
LINE
8
BLACK
6
CONTINUOUS
10
36.3807
20
-20.4145
11
36.2855
21
-20.3193
0
LINE
8
BLACK
6
CONTINUOUS
10
39.9045
20
-20.5098
11
39.9045
21
-18.5098
0
LINE
8
BLACK
6
CONTINUOUS
10
40.7617
20
-20.5098
11
40.7617
21
-19.4621
0
LINE
8
BLACK
6
CONTINUOUS
10
40.7617
20
-19.4621
11
40.6664
21
-19.2717
0
LINE
8
BLACK
6
CONTINUOUS
10
40.6664
20
-19.2717
11
40.476
21
-19.1764
0
LINE
8
BLACK
6
CONTINUOUS
10
40.476
20
-19.1764
11
40.1902
21
-19.1764
0
LINE
8
BLACK
6
CONTINUOUS
10
40.1902
20
-19.1764
11
39.9998
21
-19.2717
0
LINE
8
BLACK
6
CONTINUOUS
10
39.9998
20
-19.2717
11
39.9045
21
-19.3669
0
LINE
8
BLACK
6
CONTINUOUS
10
41.9998
20
-20.5098
11
41.8093
21
-20.4145
0
LINE
8
BLACK
6
CONTINUOUS
10
41.8093
20
-20.4145
11
41.714
21
-20.3193
0
LINE
8
BLACK
6
CONTINUOUS
10
41.714
20
-20.3193
11
41.6188
21
-20.1288
0
LINE
8
BLACK
6
CONTINUOUS
10
41.6188
20
-20.1288
11
41.6188
21
-19.5574
0
LINE
8
BLACK
6
CONTINUOUS
10
41.6188
20
-19.5574
11
41.714
21
-19.3669
0
LINE
8
BLACK
6
CONTINUOUS
10
41.714
20
-19.3669
11
41.8093
21
-19.2717
0
LINE
8
BLACK
6
CONTINUOUS
10
41.8093
20
-19.2717
11
41.9998
21
-19.1764
0
LINE
8
BLACK
6
CONTINUOUS
10
41.9998
20
-19.1764
11
42.2855
21
-19.1764
0
LINE
8
BLACK
6
CONTINUOUS
10
42.2855
20
-19.1764
11
42.476
21
-19.2717
0
LINE
8
BLACK
6
CONTINUOUS
10
42.476
20
-19.2717
11
42.5712
21
-19.3669
0
LINE
8
BLACK
6
CONTINUOUS
10
42.5712
20
-19.3669
11
42.6664
21
-19.5574
0
LINE
8
BLACK
6
CONTINUOUS
10
42.6664
20
-19.5574
11
42.6664
21
-20.1288
0
LINE
8
BLACK
6
CONTINUOUS
10
42.6664
20
-20.1288
11
42.5712
21
-20.3193
0
LINE
8
BLACK
6
CONTINUOUS
10
42.5712
20
-20.3193
11
42.476
21
-20.4145
0
LINE
8
BLACK
6
CONTINUOUS
10
42.476
20
-20.4145
11
42.2855
21
-20.5098
0
LINE
8
BLACK
6
CONTINUOUS
10
42.2855
20
-20.5098
11
41.9998
21
-20.5098
0
LINE
8
BLACK
6
CONTINUOUS
10
43.8093
20
-20.5098
11
43.6188
21
-20.4145
0
LINE
8
BLACK
6
CONTINUOUS
10
43.6188
20
-20.4145
11
43.5236
21
-20.224
0
LINE
8
BLACK
6
CONTINUOUS
10
43.5236
20
-20.224
11
43.5236
21
-18.5098
0
LINE
8
BLACK
6
CONTINUOUS
10
45.3331
20
-20.4145
11
45.1426
21
-20.5098
0
LINE
8
BLACK
6
CONTINUOUS
10
45.1426
20
-20.5098
11
44.7617
21
-20.5098
0
LINE
8
BLACK
6
CONTINUOUS
10
44.7617
20
-20.5098
11
44.5712
21
-20.4145
0
LINE
8
BLACK
6
CONTINUOUS
10
44.5712
20
-20.4145
11
44.476
21
-20.224
0
LINE
8
BLACK
6
CONTINUOUS
10
44.476
20
-20.224
11
44.476
21
-19.4621
0
LINE
8
BLACK
6
CONTINUOUS
10
44.476
20
-19.4621
11
44.5712
21
-19.2717
0
LINE
8
BLACK
6
CONTINUOUS
10
44.5712
20
-19.2717
11
44.7617
21
-19.1764
0
LINE
8
BLACK
6
CONTINUOUS
10
44.7617
20
-19.1764
11
45.1426
21
-19.1764
0
LINE
8
BLACK
6
CONTINUOUS
10
45.1426
20
-19.1764
11
45.3331
21
-19.2717
0
LINE
8
BLACK
6
CONTINUOUS
10
45.3331
20
-19.2717
11
45.4283
21
-19.4621
0
LINE
8
BLACK
6
CONTINUOUS
10
45.4283
20
-19.4621
11
45.4283
21
-19.6526
0
LINE
8
BLACK
6
CONTINUOUS
10
45.4283
20
-19.6526
11
44.476
21
-19.8431
0
LINE
8
BLACK
6
CONTINUOUS
10
46.1902
20
-20.4145
11
46.3807
21
-20.5098
0
LINE
8
BLACK
6
CONTINUOUS
10
46.3807
20
-20.5098
11
46.7617
21
-20.5098
0
LINE
8
BLACK
6
CONTINUOUS
10
46.7617
20
-20.5098
11
46.9521
21
-20.4145
0
LINE
8
BLACK
6
CONTINUOUS
10
46.9521
20
-20.4145
11
47.0474
21
-20.224
0
LINE
8
BLACK
6
CONTINUOUS
10
47.0474
20
-20.224
11
47.0474
21
-20.1288
0
LINE
8
BLACK
6
CONTINUOUS
10
47.0474
20
-20.1288
11
46.9521
21
-19.9383
0
LINE
8
BLACK
6
CONTINUOUS
10
46.9521
20
-19.9383
11
46.7617
21
-19.8431
0
LINE
8
BLACK
6
CONTINUOUS
10
46.7617
20
-19.8431
11
46.476
21
-19.8431
0
LINE
8
BLACK
6
CONTINUOUS
10
46.476
20
-19.8431
11
46.2855
21
-19.7479
0
LINE
8
BLACK
6
CONTINUOUS
10
46.2855
20
-19.7479
11
46.1902
21
-19.5574
0
LINE
8
BLACK
6
CONTINUOUS
10
46.1902
20
-19.5574
11
46.1902
21
-19.4621
0
LINE
8
BLACK
6
CONTINUOUS
10
46.1902
20
-19.4621
11
46.2855
21
-19.2717
0
LINE
8
BLACK
6
CONTINUOUS
10
46.2855
20
-19.2717
11
46.476
21
-19.1764
0
LINE
8
BLACK
6
CONTINUOUS
10
46.476
20
-19.1764
11
46.7617
21
-19.1764
0
LINE
8
BLACK
6
CONTINUOUS
10
46.7617
20
-19.1764
11
46.9521
21
-19.2717
0
LINE
8
BLACK
6
CONTINUOUS
10
47.714
20
-21.2717
11
47.8093
21
-21.1764
0
LINE
8
BLACK
6
CONTINUOUS
10
47.8093
20
-21.1764
11
47.9998
21
-20.8907
0
LINE
8
BLACK
6
CONTINUOUS
10
47.9998
20
-20.8907
11
48.095
21
-20.7002
0
LINE
8
BLACK
6
CONTINUOUS
10
48.095
20
-20.7002
11
48.1902
21
-20.4145
0
LINE
8
BLACK
6
CONTINUOUS
10
48.1902
20
-20.4145
11
48.2855
21
-19.9383
0
LINE
8
BLACK
6
CONTINUOUS
10
48.2855
20
-19.9383
11
48.2855
21
-19.5574
0
LINE
8
BLACK
6
CONTINUOUS
10
48.2855
20
-19.5574
11
48.1902
21
-19.0812
0
LINE
8
BLACK
6
CONTINUOUS
10
48.1902
20
-19.0812
11
48.095
21
-18.7955
0
LINE
8
BLACK
6
CONTINUOUS
10
48.095
20
-18.7955
11
47.9998
21
-18.605
0
LINE
8
BLACK
6
CONTINUOUS
10
47.9998
20
-18.605
11
47.8093
21
-18.3193
0
LINE
8
BLACK
6
CONTINUOUS
10
47.8093
20
-18.3193
11
47.714
21
-18.224
  0
ENDSEC
  0
EOF
