%TF.GenerationSoftware,KiCad,Pcbnew,(6.0.8)*%
%TF.CreationDate,2023-01-02T23:21:26-08:00*%
%TF.ProjectId,picow_ssr_control,7069636f-775f-4737-9372-5f636f6e7472,0.0.8*%
%TF.SameCoordinates,PXfbc520PY6516e80*%
%TF.FileFunction,Paste,Top*%
%TF.FilePolarity,Positive*%
%FSLAX46Y46*%
G04 Gerber Fmt 4.6, Leading zero omitted, Abs format (unit mm)*
G04 Created by KiCad (PCBNEW (6.0.8)) date 2023-01-02 23:21:26*
%MOMM*%
%LPD*%
G01*
G04 APERTURE LIST*
G04 Aperture macros list*
%AMRoundRect*
0 Rectangle with rounded corners*
0 $1 Rounding radius*
0 $2 $3 $4 $5 $6 $7 $8 $9 X,Y pos of 4 corners*
0 Add a 4 corners polygon primitive as box body*
4,1,4,$2,$3,$4,$5,$6,$7,$8,$9,$2,$3,0*
0 Add four circle primitives for the rounded corners*
1,1,$1+$1,$2,$3*
1,1,$1+$1,$4,$5*
1,1,$1+$1,$6,$7*
1,1,$1+$1,$8,$9*
0 Add four rect primitives between the rounded corners*
20,1,$1+$1,$2,$3,$4,$5,0*
20,1,$1+$1,$4,$5,$6,$7,0*
20,1,$1+$1,$6,$7,$8,$9,0*
20,1,$1+$1,$8,$9,$2,$3,0*%
G04 Aperture macros list end*
%ADD10R,0.950000X1.750000*%
%ADD11R,3.200000X1.750000*%
%ADD12RoundRect,0.200000X0.200000X0.275000X-0.200000X0.275000X-0.200000X-0.275000X0.200000X-0.275000X0*%
%ADD13RoundRect,0.200000X-0.200000X-0.275000X0.200000X-0.275000X0.200000X0.275000X-0.200000X0.275000X0*%
%ADD14RoundRect,0.150000X-0.587500X-0.150000X0.587500X-0.150000X0.587500X0.150000X-0.587500X0.150000X0*%
%ADD15RoundRect,0.150000X0.587500X0.150000X-0.587500X0.150000X-0.587500X-0.150000X0.587500X-0.150000X0*%
%ADD16RoundRect,0.250000X-0.250000X-0.475000X0.250000X-0.475000X0.250000X0.475000X-0.250000X0.475000X0*%
%ADD17R,1.130000X2.440000*%
%ADD18RoundRect,0.200000X0.275000X-0.200000X0.275000X0.200000X-0.275000X0.200000X-0.275000X-0.200000X0*%
%ADD19RoundRect,0.250000X0.450000X-0.262500X0.450000X0.262500X-0.450000X0.262500X-0.450000X-0.262500X0*%
%ADD20RoundRect,0.250000X-0.475000X0.250000X-0.475000X-0.250000X0.475000X-0.250000X0.475000X0.250000X0*%
%ADD21R,1.400000X1.300000*%
%ADD22R,0.900000X0.950000*%
G04 APERTURE END LIST*
D10*
%TO.C,REG1*%
X42900000Y69000000D03*
X40600000Y69000000D03*
X38300000Y69000000D03*
D11*
X40600000Y62700000D03*
%TD*%
D12*
%TO.C,RS4*%
X50325000Y55460000D03*
X48675000Y55460000D03*
%TD*%
D13*
%TO.C,RS7*%
X48675000Y33270000D03*
X50325000Y33270000D03*
%TD*%
D14*
%TO.C,QD8*%
X24562500Y32950000D03*
X24562500Y31050000D03*
X26437500Y32000000D03*
%TD*%
D13*
%TO.C,RS1*%
X52175000Y59270000D03*
X53825000Y59270000D03*
%TD*%
D15*
%TO.C,Q2*%
X9137500Y40100000D03*
X9137500Y42000000D03*
X7262500Y41050000D03*
%TD*%
D13*
%TO.C,RS5*%
X48675000Y30730000D03*
X50325000Y30730000D03*
%TD*%
%TO.C,RS2*%
X48675000Y58000000D03*
X50325000Y58000000D03*
%TD*%
D16*
%TO.C,C2*%
X40200000Y71750000D03*
X38300000Y71750000D03*
%TD*%
D17*
%TO.C,S1*%
X29600000Y11950000D03*
X32140000Y11950000D03*
X34680000Y11950000D03*
X37220000Y11950000D03*
X39760000Y11950000D03*
X42300000Y11950000D03*
X44840000Y11950000D03*
X47380000Y11950000D03*
X47380000Y3350000D03*
X44840000Y3350000D03*
X42300000Y3350000D03*
X39760000Y3350000D03*
X37220000Y3350000D03*
X34680000Y3350000D03*
X32140000Y3350000D03*
X29600000Y3350000D03*
%TD*%
D18*
%TO.C,RL1*%
X41950000Y76800000D03*
X41950000Y75150000D03*
%TD*%
D19*
%TO.C,RP1*%
X55850000Y68622500D03*
X55850000Y66797500D03*
%TD*%
D13*
%TO.C,RS6*%
X52175000Y32000000D03*
X53825000Y32000000D03*
%TD*%
D14*
%TO.C,QD2*%
X35062500Y52100000D03*
X35062500Y50200000D03*
X36937500Y51150000D03*
%TD*%
%TO.C,QD1*%
X36937500Y54600000D03*
X35062500Y53650000D03*
X35062500Y55550000D03*
%TD*%
D20*
%TO.C,C1*%
X45550000Y67100000D03*
X45550000Y69000000D03*
%TD*%
D14*
%TO.C,QD6*%
X26437500Y25100000D03*
X24562500Y24150000D03*
X24562500Y26050000D03*
%TD*%
D13*
%TO.C,RS8*%
X52175000Y34540000D03*
X53825000Y34540000D03*
%TD*%
%TO.C,RS3*%
X52175000Y56730000D03*
X53825000Y56730000D03*
%TD*%
D14*
%TO.C,QD4*%
X35062500Y45200000D03*
X35062500Y43300000D03*
X36937500Y44250000D03*
%TD*%
D21*
%TO.C,ZD1*%
X53550000Y66100000D03*
X53550000Y69000000D03*
%TD*%
D22*
%TO.C,LP1*%
X41950000Y81400000D03*
X43550000Y81400000D03*
%TD*%
D14*
%TO.C,QD3*%
X35062500Y48650000D03*
X35062500Y46750000D03*
X36937500Y47700000D03*
%TD*%
%TO.C,QD5*%
X26437500Y21650000D03*
X24562500Y20700000D03*
X24562500Y22600000D03*
%TD*%
%TO.C,QD7*%
X24562500Y29500000D03*
X24562500Y27600000D03*
X26437500Y28550000D03*
%TD*%
M02*
