%TF.GenerationSoftware,KiCad,Pcbnew,(6.0.8)*%
%TF.CreationDate,2023-01-02T23:21:26-08:00*%
%TF.ProjectId,picow_ssr_control,7069636f-775f-4737-9372-5f636f6e7472,0.0.8*%
%TF.SameCoordinates,PXfbc520PY6516e80*%
%TF.FileFunction,Soldermask,Bot*%
%TF.FilePolarity,Negative*%
%FSLAX46Y46*%
G04 Gerber Fmt 4.6, Leading zero omitted, Abs format (unit mm)*
G04 Created by KiCad (PCBNEW (6.0.8)) date 2023-01-02 23:21:26*
%MOMM*%
%LPD*%
G01*
G04 APERTURE LIST*
G04 Aperture macros list*
%AMRoundRect*
0 Rectangle with rounded corners*
0 $1 Rounding radius*
0 $2 $3 $4 $5 $6 $7 $8 $9 X,Y pos of 4 corners*
0 Add a 4 corners polygon primitive as box body*
4,1,4,$2,$3,$4,$5,$6,$7,$8,$9,$2,$3,0*
0 Add four circle primitives for the rounded corners*
1,1,$1+$1,$2,$3*
1,1,$1+$1,$4,$5*
1,1,$1+$1,$6,$7*
1,1,$1+$1,$8,$9*
0 Add four rect primitives between the rounded corners*
20,1,$1+$1,$2,$3,$4,$5,0*
20,1,$1+$1,$4,$5,$6,$7,0*
20,1,$1+$1,$6,$7,$8,$9,0*
20,1,$1+$1,$8,$9,$2,$3,0*%
%AMFreePoly0*
4,1,57,0.281438,0.792513,0.314631,0.788760,0.324366,0.782642,0.335575,0.780064,0.361670,0.759195,0.389950,0.741421,0.741668,0.389704,0.759398,0.361385,0.780215,0.335261,0.782772,0.324050,0.788875,0.314303,0.792571,0.281098,0.800000,0.248529,0.800000,-0.248878,0.792513,-0.281438,0.788760,-0.314632,0.782641,-0.324367,0.780064,-0.335575,0.759196,-0.361669,0.741421,-0.389950,
0.389704,-0.741668,0.361385,-0.759398,0.335261,-0.780215,0.324050,-0.782772,0.314303,-0.788875,0.281098,-0.792571,0.248529,-0.800000,-0.248878,-0.800000,-0.281438,-0.792513,-0.314632,-0.788760,-0.324367,-0.782641,-0.335575,-0.780064,-0.361669,-0.759196,-0.389950,-0.741421,-0.741668,-0.389704,-0.759398,-0.361385,-0.780215,-0.335261,-0.782772,-0.324050,-0.788875,-0.314303,-0.792571,-0.281098,
-0.800000,-0.248529,-0.800000,0.248878,-0.792513,0.281438,-0.788760,0.314631,-0.782642,0.324366,-0.780064,0.335575,-0.759195,0.361670,-0.741421,0.389950,-0.389704,0.741668,-0.361385,0.759398,-0.335261,0.780215,-0.324050,0.782772,-0.314303,0.788875,-0.281098,0.792571,-0.248529,0.800000,0.248878,0.800000,0.281438,0.792513,0.281438,0.792513,$1*%
%AMFreePoly1*
4,1,22,0.550000,-0.750000,0.000000,-0.750000,0.000000,-0.745033,-0.079941,-0.743568,-0.215256,-0.701293,-0.333266,-0.622738,-0.424486,-0.514219,-0.481581,-0.384460,-0.499164,-0.250000,-0.500000,-0.250000,-0.500000,0.250000,-0.499164,0.250000,-0.499963,0.256109,-0.478152,0.396186,-0.417904,0.524511,-0.324060,0.630769,-0.204165,0.706417,-0.067858,0.745374,0.000000,0.744959,0.000000,0.750000,
0.550000,0.750000,0.550000,-0.750000,0.550000,-0.750000,$1*%
%AMFreePoly2*
4,1,20,0.000000,0.744959,0.073905,0.744508,0.209726,0.703889,0.328688,0.626782,0.421226,0.519385,0.479903,0.390333,0.500000,0.250000,0.500000,-0.250000,0.499851,-0.262216,0.476331,-0.402017,0.414519,-0.529596,0.319384,-0.634700,0.198574,-0.708877,0.061801,-0.746166,0.000000,-0.745033,0.000000,-0.750000,-0.550000,-0.750000,-0.550000,0.750000,0.000000,0.750000,0.000000,0.744959,
0.000000,0.744959,$1*%
G04 Aperture macros list end*
%ADD10R,0.850000X0.850000*%
%ADD11O,0.850000X0.850000*%
%ADD12C,1.090000*%
%ADD13R,1.090000X1.090000*%
%ADD14C,0.800000*%
%ADD15C,6.400000*%
%ADD16R,0.800000X0.800000*%
%ADD17C,1.920000*%
%ADD18R,1.920000X1.920000*%
%ADD19C,3.800000*%
%ADD20FreePoly0,180.000000*%
%ADD21C,1.600000*%
%ADD22RoundRect,0.200000X0.600000X0.600000X-0.600000X0.600000X-0.600000X-0.600000X0.600000X-0.600000X0*%
%ADD23R,1.574800X1.574800*%
%ADD24C,1.574800*%
%ADD25FreePoly1,270.000000*%
%ADD26R,1.500000X1.000000*%
%ADD27FreePoly2,270.000000*%
G04 APERTURE END LIST*
D10*
%TO.C,JS2*%
X52000000Y45000000D03*
D11*
X52000000Y44000000D03*
%TD*%
D12*
%TO.C,JCNTL2*%
X58135000Y29460000D03*
X56865000Y29460000D03*
X58135000Y30730000D03*
X56865000Y30730000D03*
X58135000Y32000000D03*
X56865000Y32000000D03*
X58135000Y33270000D03*
X56865000Y33270000D03*
X58135000Y34540000D03*
D13*
X56865000Y34540000D03*
%TD*%
D14*
%TO.C,H2*%
X2600000Y5000000D03*
X6697056Y6697056D03*
X3302944Y3302944D03*
X7400000Y5000000D03*
D15*
X5000000Y5000000D03*
D14*
X5000000Y7400000D03*
X5000000Y2600000D03*
X3302944Y6697056D03*
X6697056Y3302944D03*
%TD*%
%TO.C,H1*%
X5000000Y82600000D03*
D15*
X5000000Y85000000D03*
D14*
X7400000Y85000000D03*
X5000000Y87400000D03*
X3302944Y86697056D03*
X2600000Y85000000D03*
X6697056Y86697056D03*
X6697056Y83302944D03*
X3302944Y83302944D03*
%TD*%
%TO.C,JL1*%
X41950000Y79150000D03*
D16*
X42950000Y79150000D03*
%TD*%
D17*
%TO.C,Q1*%
X50500000Y69000000D03*
X50500000Y66460000D03*
D18*
X50500000Y63920000D03*
%TD*%
D12*
%TO.C,JCNTL1*%
X58135000Y55460000D03*
X56865000Y55460000D03*
X58135000Y56730000D03*
X56865000Y56730000D03*
X58135000Y58000000D03*
X56865000Y58000000D03*
X58135000Y59270000D03*
X56865000Y59270000D03*
X58135000Y60540000D03*
D13*
X56865000Y60540000D03*
%TD*%
D14*
%TO.C,H3*%
X60000000Y47400000D03*
X60000000Y42600000D03*
X61697056Y43302944D03*
X58302944Y43302944D03*
X61697056Y46697056D03*
X58302944Y46697056D03*
X62400000Y45000000D03*
X57600000Y45000000D03*
D15*
X60000000Y45000000D03*
%TD*%
D19*
%TO.C,U1*%
X26810000Y87730000D03*
X15410000Y40730000D03*
X26810000Y40730000D03*
X15410000Y87730000D03*
D20*
X30000000Y40100000D03*
D21*
X30000000Y42640000D03*
D22*
X30000000Y45180000D03*
D21*
X30000000Y47720000D03*
X30000000Y50260000D03*
X30000000Y52800000D03*
X30000000Y55340000D03*
D22*
X30000000Y57880000D03*
D21*
X30000000Y60420000D03*
X30000000Y62960000D03*
X30000000Y65500000D03*
X30000000Y68040000D03*
D22*
X30000000Y70580000D03*
D21*
X30000000Y73120000D03*
X30000000Y75660000D03*
X30000000Y78200000D03*
X30000000Y80740000D03*
D22*
X30000000Y83280000D03*
D21*
X30000000Y85820000D03*
X30000000Y88360000D03*
X12220000Y88360000D03*
X12220000Y85820000D03*
D22*
X12220000Y83280000D03*
D21*
X12220000Y80740000D03*
X12220000Y78200000D03*
X12220000Y75660000D03*
X12220000Y73120000D03*
D22*
X12220000Y70580000D03*
D21*
X12220000Y68040000D03*
X12220000Y65500000D03*
X12220000Y62960000D03*
X12220000Y60420000D03*
D22*
X12220000Y57880000D03*
D21*
X12220000Y55340000D03*
X12220000Y52800000D03*
X12220000Y50260000D03*
X12220000Y47720000D03*
D22*
X12220000Y45180000D03*
D21*
X12220000Y42640000D03*
X12220000Y40100000D03*
D23*
X20525800Y69930000D03*
D24*
X17985800Y69930000D03*
X15445800Y69930000D03*
%TD*%
D25*
%TO.C,JS1*%
X55000000Y46300000D03*
D26*
X55000000Y45000000D03*
D27*
X55000000Y43700000D03*
%TD*%
M02*
