M48
METRIC,TZ
T1C0.400
T2C0.500
T3C0.740
T4C1.000
T5C1.280
T6C3.200
%
G90
G05
T1
X7250Y43350
X23500Y32200
X23500Y28750
X23500Y25300
X23500Y21850
X26150Y31050
X26150Y27600
X26150Y24150
X26150Y20700
X29125Y27325
X29138Y23912
X29150Y34250
X29175Y30825
X29600Y14600
X29600Y5400
X32140Y14600
X32140Y5400
X34000Y54750
X34000Y47900
X34000Y44450
X34098Y51309
X34680Y14600
X34680Y5400
X36550Y66950
X36602Y46791
X36602Y43341
X36650Y53650
X36650Y50200
X37220Y14600
X37220Y5400
X37950Y44800
X38150Y62700
X39625Y53375
X39625Y49925
X39650Y56850
X39760Y14600
X39760Y5400
X40600Y67150
X40600Y64410
X40600Y61010
X42300Y14600
X42300Y5400
X43050Y62700
X44840Y14600
X44840Y5400
X47380Y14600
X47380Y5400
X55850Y69960
T2
X2600Y85000
X2600Y5000
X3303Y86697
X3303Y83303
X3303Y6697
X3303Y3303
X5000Y87400
X5000Y82600
X5000Y7400
X5000Y2600
X6697Y86697
X6697Y83303
X6697Y6697
X6697Y3303
X7400Y85000
X7400Y5000
X41950Y79150
X42950Y79150
X52000Y45000
X52000Y44000
X57600Y45000
X58303Y46697
X58303Y43303
X60000Y47400
X60000Y42600
X61697Y46697
X61697Y43303
X62400Y45000
T3
X56865Y60540
X56865Y59270
X56865Y58000
X56865Y56730
X56865Y55460
X56865Y34540
X56865Y33270
X56865Y32000
X56865Y30730
X56865Y29460
X58135Y60540
X58135Y59270
X58135Y58000
X58135Y56730
X58135Y55460
X58135Y34540
X58135Y33270
X58135Y32000
X58135Y30730
X58135Y29460
T4
X12220Y88360
X12220Y85820
X12220Y83280
X12220Y80740
X12220Y78200
X12220Y75660
X12220Y73120
X12220Y70580
X12220Y68040
X12220Y65500
X12220Y62960
X12220Y60420
X12220Y57880
X12220Y55340
X12220Y52800
X12220Y50260
X12220Y47720
X12220Y45180
X12220Y42640
X12220Y40100
X15446Y69930
X17986Y69930
X20526Y69930
X30000Y88360
X30000Y85820
X30000Y83280
X30000Y80740
X30000Y78200
X30000Y75660
X30000Y73120
X30000Y70580
X30000Y68040
X30000Y65500
X30000Y62960
X30000Y60420
X30000Y57880
X30000Y55340
X30000Y52800
X30000Y50260
X30000Y47720
X30000Y45180
X30000Y42640
X30000Y40100
T5
X50500Y69000
X50500Y66460
X50500Y63920
T6
X5000Y85000
X5000Y5000
X60000Y45000
T0
M30
