  0
SECTION
  2
HEADER
  9
$ANGBASE
  50
0.0
  9
$ANGDIR
  70
1
  9
$MEASUREMENT
  70
1
  0
ENDSEC
  0
SECTION
  2
TABLES
  0
TABLE
  2
LTYPE
  70
4
  0
LTYPE
  5
40F
  2
CONTINUOUS
  70
0
  3
Solid line
  72
65
  73
0
  40
0.0
  0
LTYPE
  5
410
  2
DASHDOT
 70
0
  3
Dash Dot ____ _ ____ _
 72
65
 73
4
 40
2.0
 49
1.25
 49
-0.25
 49
0.25
 49
-0.25
  0
LTYPE
  5
411
  2
DASHED
 70
0
  3
Dashed __ __ __ __ __
 72
65
 73
2
 40
0.75
 49
0.5
 49
-0.25
  0
LTYPE
  5
43B
  2
DOTTED
 70
0
  3
Dotted .  .  .  .
 72
65
 73
2
 40
0.2
 49
0.0
 49
-0.2
  0
ENDTAB
  0
TABLE
  2
STYLE
  70
4
  0
STYLE
  2
KICAD
  70
0
  40
0
  41
1
  42
1
  50
0
  71
0
  3
isocp.shx
  0
STYLE
  2
KICADB
  70
0
  40
0
  41
1
  42
1
  50
0
  71
0
  3
isocp.shx
  0
STYLE
  2
KICADI
  70
0
  40
0
  41
1
  42
1
  50
15
  71
0
  3
isocp.shx
  0
STYLE
  2
KICADBI
  70
0
  40
0
  41
1
  42
1
  50
15
  71
0
  3
isocp.shx
  0
ENDTAB
  0
TABLE
  2
LAYER
  70
1
  0
LAYER
  2
BLACK
  70
0
  62
7
  6
CONTINUOUS
  0
ENDTAB
  0
ENDSEC
  0
SECTION
  2
ENTITIES
0
ARC
8
BLACK
10
60
20
85
40
5
50
-0
51
90
0
ARC
8
BLACK
10
5
20
5
40
5
50
-180
51
-90
0
ARC
8
BLACK
10
60
20
5
40
5
50
-90
51
-0
0
LINE
8
BLACK
6
CONTINUOUS
10
60
20
0
11
5
21
0
0
LINE
8
BLACK
6
CONTINUOUS
10
5
20
90
11
60
21
90
0
LINE
8
BLACK
6
CONTINUOUS
10
0
20
5
11
0
21
85
0
LINE
8
BLACK
6
CONTINUOUS
10
65
20
85
11
65
21
5
0
ARC
8
BLACK
10
5
20
85
40
5
50
90
51
180
0
LINE
8
BLACK
6
CONTINUOUS
10
14.36
20
88.78
11
16.46
21
86.68
0
LINE
8
BLACK
6
CONTINUOUS
10
16.46
20
88.78
11
14.36
21
86.68
0
LINE
8
BLACK
6
CONTINUOUS
10
14.36
20
41.78
11
16.46
21
39.68
0
LINE
8
BLACK
6
CONTINUOUS
10
16.46
20
41.78
11
14.36
21
39.68
0
LINE
8
BLACK
6
CONTINUOUS
10
25.76
20
88.78
11
27.86
21
86.68
0
LINE
8
BLACK
6
CONTINUOUS
10
27.86
20
88.78
11
25.76
21
86.68
0
LINE
8
BLACK
6
CONTINUOUS
10
25.76
20
41.78
11
27.86
21
39.68
0
LINE
8
BLACK
6
CONTINUOUS
10
27.86
20
41.78
11
25.76
21
39.68
0
LINE
8
BLACK
6
CONTINUOUS
10
2.57119
20
-3.10976
11
2.57119
21
-1.10976
0
LINE
8
BLACK
6
CONTINUOUS
10
2.57119
20
-1.10976
11
3.04738
21
-1.10976
0
LINE
8
BLACK
6
CONTINUOUS
10
3.04738
20
-1.10976
11
3.33309
21
-1.205
0
LINE
8
BLACK
6
CONTINUOUS
10
3.33309
20
-1.205
11
3.52357
21
-1.39548
0
LINE
8
BLACK
6
CONTINUOUS
10
3.52357
20
-1.39548
11
3.61881
21
-1.58595
0
LINE
8
BLACK
6
CONTINUOUS
10
3.61881
20
-1.58595
11
3.71405
21
-1.9669
0
LINE
8
BLACK
6
CONTINUOUS
10
3.71405
20
-1.9669
11
3.71405
21
-2.25262
0
LINE
8
BLACK
6
CONTINUOUS
10
3.71405
20
-2.25262
11
3.61881
21
-2.63357
0
LINE
8
BLACK
6
CONTINUOUS
10
3.61881
20
-2.63357
11
3.52357
21
-2.82405
0
LINE
8
BLACK
6
CONTINUOUS
10
3.52357
20
-2.82405
11
3.33309
21
-3.01452
0
LINE
8
BLACK
6
CONTINUOUS
10
3.33309
20
-3.01452
11
3.04738
21
-3.10976
0
LINE
8
BLACK
6
CONTINUOUS
10
3.04738
20
-3.10976
11
2.57119
21
-3.10976
0
LINE
8
BLACK
6
CONTINUOUS
10
4.57119
20
-3.10976
11
4.57119
21
-1.77643
0
LINE
8
BLACK
6
CONTINUOUS
10
4.57119
20
-2.15738
11
4.66643
21
-1.9669
0
LINE
8
BLACK
6
CONTINUOUS
10
4.66643
20
-1.9669
11
4.76167
21
-1.87167
0
LINE
8
BLACK
6
CONTINUOUS
10
4.76167
20
-1.87167
11
4.95214
21
-1.77643
0
LINE
8
BLACK
6
CONTINUOUS
10
4.95214
20
-1.77643
11
5.14262
21
-1.77643
0
LINE
8
BLACK
6
CONTINUOUS
10
5.80929
20
-3.10976
11
5.80929
21
-1.77643
0
LINE
8
BLACK
6
CONTINUOUS
10
5.80929
20
-1.10976
11
5.71405
21
-1.205
0
LINE
8
BLACK
6
CONTINUOUS
10
5.71405
20
-1.205
11
5.80929
21
-1.30024
0
LINE
8
BLACK
6
CONTINUOUS
10
5.80929
20
-1.30024
11
5.90452
21
-1.205
0
LINE
8
BLACK
6
CONTINUOUS
10
5.90452
20
-1.205
11
5.80929
21
-1.10976
0
LINE
8
BLACK
6
CONTINUOUS
10
5.80929
20
-1.10976
11
5.80929
21
-1.30024
0
LINE
8
BLACK
6
CONTINUOUS
10
7.04738
20
-3.10976
11
6.8569
21
-3.01452
0
LINE
8
BLACK
6
CONTINUOUS
10
6.8569
20
-3.01452
11
6.76167
21
-2.82405
0
LINE
8
BLACK
6
CONTINUOUS
10
6.76167
20
-2.82405
11
6.76167
21
-1.10976
0
LINE
8
BLACK
6
CONTINUOUS
10
8.095
20
-3.10976
11
7.90452
21
-3.01452
0
LINE
8
BLACK
6
CONTINUOUS
10
7.90452
20
-3.01452
11
7.80929
21
-2.82405
0
LINE
8
BLACK
6
CONTINUOUS
10
7.80929
20
-2.82405
11
7.80929
21
-1.10976
0
LINE
8
BLACK
6
CONTINUOUS
10
10.3807
20
-3.10976
11
10.3807
21
-1.10976
0
LINE
8
BLACK
6
CONTINUOUS
10
10.3807
20
-1.10976
11
11.0474
21
-2.53833
0
LINE
8
BLACK
6
CONTINUOUS
10
11.0474
20
-2.53833
11
11.714
21
-1.10976
0
LINE
8
BLACK
6
CONTINUOUS
10
11.714
20
-1.10976
11
11.714
21
-3.10976
0
LINE
8
BLACK
6
CONTINUOUS
10
13.5236
20
-3.10976
11
13.5236
21
-2.06214
0
LINE
8
BLACK
6
CONTINUOUS
10
13.5236
20
-2.06214
11
13.4283
21
-1.87167
0
LINE
8
BLACK
6
CONTINUOUS
10
13.4283
20
-1.87167
11
13.2379
21
-1.77643
0
LINE
8
BLACK
6
CONTINUOUS
10
13.2379
20
-1.77643
11
12.8569
21
-1.77643
0
LINE
8
BLACK
6
CONTINUOUS
10
12.8569
20
-1.77643
11
12.6664
21
-1.87167
0
LINE
8
BLACK
6
CONTINUOUS
10
13.5236
20
-3.01452
11
13.3331
21
-3.10976
0
LINE
8
BLACK
6
CONTINUOUS
10
13.3331
20
-3.10976
11
12.8569
21
-3.10976
0
LINE
8
BLACK
6
CONTINUOUS
10
12.8569
20
-3.10976
11
12.6664
21
-3.01452
0
LINE
8
BLACK
6
CONTINUOUS
10
12.6664
20
-3.01452
11
12.5712
21
-2.82405
0
LINE
8
BLACK
6
CONTINUOUS
10
12.5712
20
-2.82405
11
12.5712
21
-2.63357
0
LINE
8
BLACK
6
CONTINUOUS
10
12.5712
20
-2.63357
11
12.6664
21
-2.4431
0
LINE
8
BLACK
6
CONTINUOUS
10
12.6664
20
-2.4431
11
12.8569
21
-2.34786
0
LINE
8
BLACK
6
CONTINUOUS
10
12.8569
20
-2.34786
11
13.3331
21
-2.34786
0
LINE
8
BLACK
6
CONTINUOUS
10
13.3331
20
-2.34786
11
13.5236
21
-2.25262
0
LINE
8
BLACK
6
CONTINUOUS
10
14.476
20
-1.77643
11
14.476
21
-3.77643
0
LINE
8
BLACK
6
CONTINUOUS
10
14.476
20
-1.87167
11
14.6664
21
-1.77643
0
LINE
8
BLACK
6
CONTINUOUS
10
14.6664
20
-1.77643
11
15.0474
21
-1.77643
0
LINE
8
BLACK
6
CONTINUOUS
10
15.0474
20
-1.77643
11
15.2379
21
-1.87167
0
LINE
8
BLACK
6
CONTINUOUS
10
15.2379
20
-1.87167
11
15.3331
21
-1.9669
0
LINE
8
BLACK
6
CONTINUOUS
10
15.3331
20
-1.9669
11
15.4283
21
-2.15738
0
LINE
8
BLACK
6
CONTINUOUS
10
15.4283
20
-2.15738
11
15.4283
21
-2.72881
0
LINE
8
BLACK
6
CONTINUOUS
10
15.4283
20
-2.72881
11
15.3331
21
-2.91928
0
LINE
8
BLACK
6
CONTINUOUS
10
15.3331
20
-2.91928
11
15.2379
21
-3.01452
0
LINE
8
BLACK
6
CONTINUOUS
10
15.2379
20
-3.01452
11
15.0474
21
-3.10976
0
LINE
8
BLACK
6
CONTINUOUS
10
15.0474
20
-3.10976
11
14.6664
21
-3.10976
0
LINE
8
BLACK
6
CONTINUOUS
10
14.6664
20
-3.10976
11
14.476
21
-3.01452
0
LINE
8
BLACK
6
CONTINUOUS
10
16.2855
20
-2.91928
11
16.3807
21
-3.01452
0
LINE
8
BLACK
6
CONTINUOUS
10
16.3807
20
-3.01452
11
16.2855
21
-3.10976
0
LINE
8
BLACK
6
CONTINUOUS
10
16.2855
20
-3.10976
11
16.1902
21
-3.01452
0
LINE
8
BLACK
6
CONTINUOUS
10
16.1902
20
-3.01452
11
16.2855
21
-2.91928
0
LINE
8
BLACK
6
CONTINUOUS
10
16.2855
20
-2.91928
11
16.2855
21
-3.10976
0
LINE
8
BLACK
6
CONTINUOUS
10
16.2855
20
-1.87167
11
16.3807
21
-1.9669
0
LINE
8
BLACK
6
CONTINUOUS
10
16.3807
20
-1.9669
11
16.2855
21
-2.06214
0
LINE
8
BLACK
6
CONTINUOUS
10
16.2855
20
-2.06214
11
16.1902
21
-1.9669
0
LINE
8
BLACK
6
CONTINUOUS
10
16.1902
20
-1.9669
11
16.2855
21
-1.87167
0
LINE
8
BLACK
6
CONTINUOUS
10
16.2855
20
-1.87167
11
16.2855
21
-2.06214
0
LINE
8
BLACK
6
CONTINUOUS
10
-2.005
20
-5.405
11
-0.005
21
-7.405
0
LINE
8
BLACK
6
CONTINUOUS
10
-0.005
20
-5.405
11
-2.005
21
-7.405
0
LINE
8
BLACK
6
CONTINUOUS
10
2.47595
20
-5.50024
11
2.57119
21
-5.405
0
LINE
8
BLACK
6
CONTINUOUS
10
2.57119
20
-5.405
11
2.76167
21
-5.30976
0
LINE
8
BLACK
6
CONTINUOUS
10
2.76167
20
-5.30976
11
3.23786
21
-5.30976
0
LINE
8
BLACK
6
CONTINUOUS
10
3.23786
20
-5.30976
11
3.42833
21
-5.405
0
LINE
8
BLACK
6
CONTINUOUS
10
3.42833
20
-5.405
11
3.52357
21
-5.50024
0
LINE
8
BLACK
6
CONTINUOUS
10
3.52357
20
-5.50024
11
3.61881
21
-5.69071
0
LINE
8
BLACK
6
CONTINUOUS
10
3.61881
20
-5.69071
11
3.61881
21
-5.88119
0
LINE
8
BLACK
6
CONTINUOUS
10
3.61881
20
-5.88119
11
3.52357
21
-6.1669
0
LINE
8
BLACK
6
CONTINUOUS
10
3.52357
20
-6.1669
11
2.38071
21
-7.30976
0
LINE
8
BLACK
6
CONTINUOUS
10
2.38071
20
-7.30976
11
3.61881
21
-7.30976
0
LINE
8
BLACK
6
CONTINUOUS
10
4.47595
20
-7.11928
11
4.57119
21
-7.21452
0
LINE
8
BLACK
6
CONTINUOUS
10
4.57119
20
-7.21452
11
4.47595
21
-7.30976
0
LINE
8
BLACK
6
CONTINUOUS
10
4.47595
20
-7.30976
11
4.38071
21
-7.21452
0
LINE
8
BLACK
6
CONTINUOUS
10
4.38071
20
-7.21452
11
4.47595
21
-7.11928
0
LINE
8
BLACK
6
CONTINUOUS
10
4.47595
20
-7.11928
11
4.47595
21
-7.30976
0
LINE
8
BLACK
6
CONTINUOUS
10
6.47595
20
-7.30976
11
5.3331
21
-7.30976
0
LINE
8
BLACK
6
CONTINUOUS
10
5.90452
20
-7.30976
11
5.90452
21
-5.30976
0
LINE
8
BLACK
6
CONTINUOUS
10
5.90452
20
-5.30976
11
5.71405
21
-5.59548
0
LINE
8
BLACK
6
CONTINUOUS
10
5.71405
20
-5.59548
11
5.52357
21
-5.78595
0
LINE
8
BLACK
6
CONTINUOUS
10
5.52357
20
-5.78595
11
5.3331
21
-5.88119
0
LINE
8
BLACK
6
CONTINUOUS
10
7.71405
20
-5.30976
11
7.90452
21
-5.30976
0
LINE
8
BLACK
6
CONTINUOUS
10
7.90452
20
-5.30976
11
8.095
21
-5.405
0
LINE
8
BLACK
6
CONTINUOUS
10
8.095
20
-5.405
11
8.19024
21
-5.50024
0
LINE
8
BLACK
6
CONTINUOUS
10
8.19024
20
-5.50024
11
8.28548
21
-5.69071
0
LINE
8
BLACK
6
CONTINUOUS
10
8.28548
20
-5.69071
11
8.38071
21
-6.07167
0
LINE
8
BLACK
6
CONTINUOUS
10
8.38071
20
-6.07167
11
8.38071
21
-6.54786
0
LINE
8
BLACK
6
CONTINUOUS
10
8.38071
20
-6.54786
11
8.28548
21
-6.92881
0
LINE
8
BLACK
6
CONTINUOUS
10
8.28548
20
-6.92881
11
8.19024
21
-7.11928
0
LINE
8
BLACK
6
CONTINUOUS
10
8.19024
20
-7.11928
11
8.095
21
-7.21452
0
LINE
8
BLACK
6
CONTINUOUS
10
8.095
20
-7.21452
11
7.90452
21
-7.30976
0
LINE
8
BLACK
6
CONTINUOUS
10
7.90452
20
-7.30976
11
7.71405
21
-7.30976
0
LINE
8
BLACK
6
CONTINUOUS
10
7.71405
20
-7.30976
11
7.52357
21
-7.21452
0
LINE
8
BLACK
6
CONTINUOUS
10
7.52357
20
-7.21452
11
7.42833
21
-7.11928
0
LINE
8
BLACK
6
CONTINUOUS
10
7.42833
20
-7.11928
11
7.33309
21
-6.92881
0
LINE
8
BLACK
6
CONTINUOUS
10
7.33309
20
-6.92881
11
7.23786
21
-6.54786
0
LINE
8
BLACK
6
CONTINUOUS
10
7.23786
20
-6.54786
11
7.23786
21
-6.07167
0
LINE
8
BLACK
6
CONTINUOUS
10
7.23786
20
-6.07167
11
7.33309
21
-5.69071
0
LINE
8
BLACK
6
CONTINUOUS
10
7.33309
20
-5.69071
11
7.42833
21
-5.50024
0
LINE
8
BLACK
6
CONTINUOUS
10
7.42833
20
-5.50024
11
7.52357
21
-5.405
0
LINE
8
BLACK
6
CONTINUOUS
10
7.52357
20
-5.405
11
7.71405
21
-5.30976
0
LINE
8
BLACK
6
CONTINUOUS
10
9.61881
20
-5.30976
11
9.80928
21
-5.30976
0
LINE
8
BLACK
6
CONTINUOUS
10
9.80928
20
-5.30976
11
9.99976
21
-5.405
0
LINE
8
BLACK
6
CONTINUOUS
10
9.99976
20
-5.405
11
10.095
21
-5.50024
0
LINE
8
BLACK
6
CONTINUOUS
10
10.095
20
-5.50024
11
10.1902
21
-5.69071
0
LINE
8
BLACK
6
CONTINUOUS
10
10.1902
20
-5.69071
11
10.2855
21
-6.07167
0
LINE
8
BLACK
6
CONTINUOUS
10
10.2855
20
-6.07167
11
10.2855
21
-6.54786
0
LINE
8
BLACK
6
CONTINUOUS
10
10.2855
20
-6.54786
11
10.1902
21
-6.92881
0
LINE
8
BLACK
6
CONTINUOUS
10
10.1902
20
-6.92881
11
10.095
21
-7.11928
0
LINE
8
BLACK
6
CONTINUOUS
10
10.095
20
-7.11928
11
9.99976
21
-7.21452
0
LINE
8
BLACK
6
CONTINUOUS
10
9.99976
20
-7.21452
11
9.80928
21
-7.30976
0
LINE
8
BLACK
6
CONTINUOUS
10
9.80928
20
-7.30976
11
9.61881
21
-7.30976
0
LINE
8
BLACK
6
CONTINUOUS
10
9.61881
20
-7.30976
11
9.42833
21
-7.21452
0
LINE
8
BLACK
6
CONTINUOUS
10
9.42833
20
-7.21452
11
9.3331
21
-7.11928
0
LINE
8
BLACK
6
CONTINUOUS
10
9.3331
20
-7.11928
11
9.23786
21
-6.92881
0
LINE
8
BLACK
6
CONTINUOUS
10
9.23786
20
-6.92881
11
9.14262
21
-6.54786
0
LINE
8
BLACK
6
CONTINUOUS
10
9.14262
20
-6.54786
11
9.14262
21
-6.07167
0
LINE
8
BLACK
6
CONTINUOUS
10
9.14262
20
-6.07167
11
9.23786
21
-5.69071
0
LINE
8
BLACK
6
CONTINUOUS
10
9.23786
20
-5.69071
11
9.3331
21
-5.50024
0
LINE
8
BLACK
6
CONTINUOUS
10
9.3331
20
-5.50024
11
9.42833
21
-5.405
0
LINE
8
BLACK
6
CONTINUOUS
10
9.42833
20
-5.405
11
9.61881
21
-5.30976
0
LINE
8
BLACK
6
CONTINUOUS
10
11.1426
20
-7.30976
11
11.1426
21
-5.97643
0
LINE
8
BLACK
6
CONTINUOUS
10
11.1426
20
-6.1669
11
11.2379
21
-6.07167
0
LINE
8
BLACK
6
CONTINUOUS
10
11.2379
20
-6.07167
11
11.4283
21
-5.97643
0
LINE
8
BLACK
6
CONTINUOUS
10
11.4283
20
-5.97643
11
11.714
21
-5.97643
0
LINE
8
BLACK
6
CONTINUOUS
10
11.714
20
-5.97643
11
11.9045
21
-6.07167
0
LINE
8
BLACK
6
CONTINUOUS
10
11.9045
20
-6.07167
11
11.9998
21
-6.26214
0
LINE
8
BLACK
6
CONTINUOUS
10
11.9998
20
-6.26214
11
11.9998
21
-7.30976
0
LINE
8
BLACK
6
CONTINUOUS
10
11.9998
20
-6.26214
11
12.095
21
-6.07167
0
LINE
8
BLACK
6
CONTINUOUS
10
12.095
20
-6.07167
11
12.2855
21
-5.97643
0
LINE
8
BLACK
6
CONTINUOUS
10
12.2855
20
-5.97643
11
12.5712
21
-5.97643
0
LINE
8
BLACK
6
CONTINUOUS
10
12.5712
20
-5.97643
11
12.7617
21
-6.07167
0
LINE
8
BLACK
6
CONTINUOUS
10
12.7617
20
-6.07167
11
12.8569
21
-6.26214
0
LINE
8
BLACK
6
CONTINUOUS
10
12.8569
20
-6.26214
11
12.8569
21
-7.30976
0
LINE
8
BLACK
6
CONTINUOUS
10
13.8093
20
-7.30976
11
13.8093
21
-5.97643
0
LINE
8
BLACK
6
CONTINUOUS
10
13.8093
20
-6.1669
11
13.9045
21
-6.07167
0
LINE
8
BLACK
6
CONTINUOUS
10
13.9045
20
-6.07167
11
14.095
21
-5.97643
0
LINE
8
BLACK
6
CONTINUOUS
10
14.095
20
-5.97643
11
14.3807
21
-5.97643
0
LINE
8
BLACK
6
CONTINUOUS
10
14.3807
20
-5.97643
11
14.5712
21
-6.07167
0
LINE
8
BLACK
6
CONTINUOUS
10
14.5712
20
-6.07167
11
14.6664
21
-6.26214
0
LINE
8
BLACK
6
CONTINUOUS
10
14.6664
20
-6.26214
11
14.6664
21
-7.30976
0
LINE
8
BLACK
6
CONTINUOUS
10
14.6664
20
-6.26214
11
14.7617
21
-6.07167
0
LINE
8
BLACK
6
CONTINUOUS
10
14.7617
20
-6.07167
11
14.9521
21
-5.97643
0
LINE
8
BLACK
6
CONTINUOUS
10
14.9521
20
-5.97643
11
15.2379
21
-5.97643
0
LINE
8
BLACK
6
CONTINUOUS
10
15.2379
20
-5.97643
11
15.4283
21
-6.07167
0
LINE
8
BLACK
6
CONTINUOUS
10
15.4283
20
-6.07167
11
15.5236
21
-6.26214
0
LINE
8
BLACK
6
CONTINUOUS
10
15.5236
20
-6.26214
11
15.5236
21
-7.30976
0
LINE
8
BLACK
6
CONTINUOUS
10
19.4283
20
-5.21452
11
17.714
21
-7.78595
0
LINE
8
BLACK
6
CONTINUOUS
10
21.9998
20
-5.30976
11
22.1902
21
-5.30976
0
LINE
8
BLACK
6
CONTINUOUS
10
22.1902
20
-5.30976
11
22.3807
21
-5.405
0
LINE
8
BLACK
6
CONTINUOUS
10
22.3807
20
-5.405
11
22.476
21
-5.50024
0
LINE
8
BLACK
6
CONTINUOUS
10
22.476
20
-5.50024
11
22.5712
21
-5.69071
0
LINE
8
BLACK
6
CONTINUOUS
10
22.5712
20
-5.69071
11
22.6664
21
-6.07167
0
LINE
8
BLACK
6
CONTINUOUS
10
22.6664
20
-6.07167
11
22.6664
21
-6.54786
0
LINE
8
BLACK
6
CONTINUOUS
10
22.6664
20
-6.54786
11
22.5712
21
-6.92881
0
LINE
8
BLACK
6
CONTINUOUS
10
22.5712
20
-6.92881
11
22.476
21
-7.11928
0
LINE
8
BLACK
6
CONTINUOUS
10
22.476
20
-7.11928
11
22.3807
21
-7.21452
0
LINE
8
BLACK
6
CONTINUOUS
10
22.3807
20
-7.21452
11
22.1902
21
-7.30976
0
LINE
8
BLACK
6
CONTINUOUS
10
22.1902
20
-7.30976
11
21.9998
21
-7.30976
0
LINE
8
BLACK
6
CONTINUOUS
10
21.9998
20
-7.30976
11
21.8093
21
-7.21452
0
LINE
8
BLACK
6
CONTINUOUS
10
21.8093
20
-7.21452
11
21.714
21
-7.11928
0
LINE
8
BLACK
6
CONTINUOUS
10
21.714
20
-7.11928
11
21.6188
21
-6.92881
0
LINE
8
BLACK
6
CONTINUOUS
10
21.6188
20
-6.92881
11
21.5236
21
-6.54786
0
LINE
8
BLACK
6
CONTINUOUS
10
21.5236
20
-6.54786
11
21.5236
21
-6.07167
0
LINE
8
BLACK
6
CONTINUOUS
10
21.5236
20
-6.07167
11
21.6188
21
-5.69071
0
LINE
8
BLACK
6
CONTINUOUS
10
21.6188
20
-5.69071
11
21.714
21
-5.50024
0
LINE
8
BLACK
6
CONTINUOUS
10
21.714
20
-5.50024
11
21.8093
21
-5.405
0
LINE
8
BLACK
6
CONTINUOUS
10
21.8093
20
-5.405
11
21.9998
21
-5.30976
0
LINE
8
BLACK
6
CONTINUOUS
10
23.5236
20
-7.11928
11
23.6188
21
-7.21452
0
LINE
8
BLACK
6
CONTINUOUS
10
23.6188
20
-7.21452
11
23.5236
21
-7.30976
0
LINE
8
BLACK
6
CONTINUOUS
10
23.5236
20
-7.30976
11
23.4283
21
-7.21452
0
LINE
8
BLACK
6
CONTINUOUS
10
23.4283
20
-7.21452
11
23.5236
21
-7.11928
0
LINE
8
BLACK
6
CONTINUOUS
10
23.5236
20
-7.11928
11
23.5236
21
-7.30976
0
LINE
8
BLACK
6
CONTINUOUS
10
24.8569
20
-5.30976
11
25.0474
21
-5.30976
0
LINE
8
BLACK
6
CONTINUOUS
10
25.0474
20
-5.30976
11
25.2379
21
-5.405
0
LINE
8
BLACK
6
CONTINUOUS
10
25.2379
20
-5.405
11
25.3331
21
-5.50024
0
LINE
8
BLACK
6
CONTINUOUS
10
25.3331
20
-5.50024
11
25.4283
21
-5.69071
0
LINE
8
BLACK
6
CONTINUOUS
10
25.4283
20
-5.69071
11
25.5236
21
-6.07167
0
LINE
8
BLACK
6
CONTINUOUS
10
25.5236
20
-6.07167
11
25.5236
21
-6.54786
0
LINE
8
BLACK
6
CONTINUOUS
10
25.5236
20
-6.54786
11
25.4283
21
-6.92881
0
LINE
8
BLACK
6
CONTINUOUS
10
25.4283
20
-6.92881
11
25.3331
21
-7.11928
0
LINE
8
BLACK
6
CONTINUOUS
10
25.3331
20
-7.11928
11
25.2379
21
-7.21452
0
LINE
8
BLACK
6
CONTINUOUS
10
25.2379
20
-7.21452
11
25.0474
21
-7.30976
0
LINE
8
BLACK
6
CONTINUOUS
10
25.0474
20
-7.30976
11
24.8569
21
-7.30976
0
LINE
8
BLACK
6
CONTINUOUS
10
24.8569
20
-7.30976
11
24.6664
21
-7.21452
0
LINE
8
BLACK
6
CONTINUOUS
10
24.6664
20
-7.21452
11
24.5712
21
-7.11928
0
LINE
8
BLACK
6
CONTINUOUS
10
24.5712
20
-7.11928
11
24.476
21
-6.92881
0
LINE
8
BLACK
6
CONTINUOUS
10
24.476
20
-6.92881
11
24.3807
21
-6.54786
0
LINE
8
BLACK
6
CONTINUOUS
10
24.3807
20
-6.54786
11
24.3807
21
-6.07167
0
LINE
8
BLACK
6
CONTINUOUS
10
24.3807
20
-6.07167
11
24.476
21
-5.69071
0
LINE
8
BLACK
6
CONTINUOUS
10
24.476
20
-5.69071
11
24.5712
21
-5.50024
0
LINE
8
BLACK
6
CONTINUOUS
10
24.5712
20
-5.50024
11
24.6664
21
-5.405
0
LINE
8
BLACK
6
CONTINUOUS
10
24.6664
20
-5.405
11
24.8569
21
-5.30976
0
LINE
8
BLACK
6
CONTINUOUS
10
26.6664
20
-6.1669
11
26.476
21
-6.07167
0
LINE
8
BLACK
6
CONTINUOUS
10
26.476
20
-6.07167
11
26.3807
21
-5.97643
0
LINE
8
BLACK
6
CONTINUOUS
10
26.3807
20
-5.97643
11
26.2855
21
-5.78595
0
LINE
8
BLACK
6
CONTINUOUS
10
26.2855
20
-5.78595
11
26.2855
21
-5.69071
0
LINE
8
BLACK
6
CONTINUOUS
10
26.2855
20
-5.69071
11
26.3807
21
-5.50024
0
LINE
8
BLACK
6
CONTINUOUS
10
26.3807
20
-5.50024
11
26.476
21
-5.405
0
LINE
8
BLACK
6
CONTINUOUS
10
26.476
20
-5.405
11
26.6664
21
-5.30976
0
LINE
8
BLACK
6
CONTINUOUS
10
26.6664
20
-5.30976
11
27.0474
21
-5.30976
0
LINE
8
BLACK
6
CONTINUOUS
10
27.0474
20
-5.30976
11
27.2379
21
-5.405
0
LINE
8
BLACK
6
CONTINUOUS
10
27.2379
20
-5.405
11
27.3331
21
-5.50024
0
LINE
8
BLACK
6
CONTINUOUS
10
27.3331
20
-5.50024
11
27.4283
21
-5.69071
0
LINE
8
BLACK
6
CONTINUOUS
10
27.4283
20
-5.69071
11
27.4283
21
-5.78595
0
LINE
8
BLACK
6
CONTINUOUS
10
27.4283
20
-5.78595
11
27.3331
21
-5.97643
0
LINE
8
BLACK
6
CONTINUOUS
10
27.3331
20
-5.97643
11
27.2379
21
-6.07167
0
LINE
8
BLACK
6
CONTINUOUS
10
27.2379
20
-6.07167
11
27.0474
21
-6.1669
0
LINE
8
BLACK
6
CONTINUOUS
10
27.0474
20
-6.1669
11
26.6664
21
-6.1669
0
LINE
8
BLACK
6
CONTINUOUS
10
26.6664
20
-6.1669
11
26.476
21
-6.26214
0
LINE
8
BLACK
6
CONTINUOUS
10
26.476
20
-6.26214
11
26.3807
21
-6.35738
0
LINE
8
BLACK
6
CONTINUOUS
10
26.3807
20
-6.35738
11
26.2855
21
-6.54786
0
LINE
8
BLACK
6
CONTINUOUS
10
26.2855
20
-6.54786
11
26.2855
21
-6.92881
0
LINE
8
BLACK
6
CONTINUOUS
10
26.2855
20
-6.92881
11
26.3807
21
-7.11928
0
LINE
8
BLACK
6
CONTINUOUS
10
26.3807
20
-7.11928
11
26.476
21
-7.21452
0
LINE
8
BLACK
6
CONTINUOUS
10
26.476
20
-7.21452
11
26.6664
21
-7.30976
0
LINE
8
BLACK
6
CONTINUOUS
10
26.6664
20
-7.30976
11
27.0474
21
-7.30976
0
LINE
8
BLACK
6
CONTINUOUS
10
27.0474
20
-7.30976
11
27.2379
21
-7.21452
0
LINE
8
BLACK
6
CONTINUOUS
10
27.2379
20
-7.21452
11
27.3331
21
-7.11928
0
LINE
8
BLACK
6
CONTINUOUS
10
27.3331
20
-7.11928
11
27.4283
21
-6.92881
0
LINE
8
BLACK
6
CONTINUOUS
10
27.4283
20
-6.92881
11
27.4283
21
-6.54786
0
LINE
8
BLACK
6
CONTINUOUS
10
27.4283
20
-6.54786
11
27.3331
21
-6.35738
0
LINE
8
BLACK
6
CONTINUOUS
10
27.3331
20
-6.35738
11
27.2379
21
-6.26214
0
LINE
8
BLACK
6
CONTINUOUS
10
27.2379
20
-6.26214
11
27.0474
21
-6.1669
0
LINE
8
BLACK
6
CONTINUOUS
10
28.1902
20
-5.50024
11
28.2855
21
-5.405
0
LINE
8
BLACK
6
CONTINUOUS
10
28.2855
20
-5.405
11
28.476
21
-5.30976
0
LINE
8
BLACK
6
CONTINUOUS
10
28.476
20
-5.30976
11
28.9521
21
-5.30976
0
LINE
8
BLACK
6
CONTINUOUS
10
28.9521
20
-5.30976
11
29.1426
21
-5.405
0
LINE
8
BLACK
6
CONTINUOUS
10
29.1426
20
-5.405
11
29.2379
21
-5.50024
0
LINE
8
BLACK
6
CONTINUOUS
10
29.2379
20
-5.50024
11
29.3331
21
-5.69071
0
LINE
8
BLACK
6
CONTINUOUS
10
29.3331
20
-5.69071
11
29.3331
21
-5.88119
0
LINE
8
BLACK
6
CONTINUOUS
10
29.3331
20
-5.88119
11
29.2379
21
-6.1669
0
LINE
8
BLACK
6
CONTINUOUS
10
29.2379
20
-6.1669
11
28.095
21
-7.30976
0
LINE
8
BLACK
6
CONTINUOUS
10
28.095
20
-7.30976
11
29.3331
21
-7.30976
0
LINE
8
BLACK
6
CONTINUOUS
10
29.9998
20
-5.30976
11
31.3331
21
-5.30976
0
LINE
8
BLACK
6
CONTINUOUS
10
31.3331
20
-5.30976
11
30.476
21
-7.30976
0
LINE
8
BLACK
6
CONTINUOUS
10
31.9998
20
-5.30976
11
31.9998
21
-5.69071
0
LINE
8
BLACK
6
CONTINUOUS
10
32.7617
20
-5.30976
11
32.7617
21
-5.69071
0
LINE
8
BLACK
6
CONTINUOUS
10
35.714
20
-8.07167
11
35.6188
21
-7.97643
0
LINE
8
BLACK
6
CONTINUOUS
10
35.6188
20
-7.97643
11
35.4283
21
-7.69071
0
LINE
8
BLACK
6
CONTINUOUS
10
35.4283
20
-7.69071
11
35.3331
21
-7.50024
0
LINE
8
BLACK
6
CONTINUOUS
10
35.3331
20
-7.50024
11
35.2379
21
-7.21452
0
LINE
8
BLACK
6
CONTINUOUS
10
35.2379
20
-7.21452
11
35.1426
21
-6.73833
0
LINE
8
BLACK
6
CONTINUOUS
10
35.1426
20
-6.73833
11
35.1426
21
-6.35738
0
LINE
8
BLACK
6
CONTINUOUS
10
35.1426
20
-6.35738
11
35.2379
21
-5.88119
0
LINE
8
BLACK
6
CONTINUOUS
10
35.2379
20
-5.88119
11
35.3331
21
-5.59548
0
LINE
8
BLACK
6
CONTINUOUS
10
35.3331
20
-5.59548
11
35.4283
21
-5.405
0
LINE
8
BLACK
6
CONTINUOUS
10
35.4283
20
-5.405
11
35.6188
21
-5.11928
0
LINE
8
BLACK
6
CONTINUOUS
10
35.6188
20
-5.11928
11
35.714
21
-5.02405
0
LINE
8
BLACK
6
CONTINUOUS
10
37.3331
20
-5.97643
11
37.3331
21
-7.30976
0
LINE
8
BLACK
6
CONTINUOUS
10
36.8569
20
-5.21452
11
36.3807
21
-6.64309
0
LINE
8
BLACK
6
CONTINUOUS
10
36.3807
20
-6.64309
11
37.6188
21
-6.64309
0
LINE
8
BLACK
6
CONTINUOUS
10
39.9045
20
-7.30976
11
39.9045
21
-5.30976
0
LINE
8
BLACK
6
CONTINUOUS
10
40.7617
20
-7.30976
11
40.7617
21
-6.26214
0
LINE
8
BLACK
6
CONTINUOUS
10
40.7617
20
-6.26214
11
40.6664
21
-6.07167
0
LINE
8
BLACK
6
CONTINUOUS
10
40.6664
20
-6.07167
11
40.476
21
-5.97643
0
LINE
8
BLACK
6
CONTINUOUS
10
40.476
20
-5.97643
11
40.1902
21
-5.97643
0
LINE
8
BLACK
6
CONTINUOUS
10
40.1902
20
-5.97643
11
39.9998
21
-6.07167
0
LINE
8
BLACK
6
CONTINUOUS
10
39.9998
20
-6.07167
11
39.9045
21
-6.1669
0
LINE
8
BLACK
6
CONTINUOUS
10
41.9998
20
-7.30976
11
41.8093
21
-7.21452
0
LINE
8
BLACK
6
CONTINUOUS
10
41.8093
20
-7.21452
11
41.714
21
-7.11928
0
LINE
8
BLACK
6
CONTINUOUS
10
41.714
20
-7.11928
11
41.6188
21
-6.92881
0
LINE
8
BLACK
6
CONTINUOUS
10
41.6188
20
-6.92881
11
41.6188
21
-6.35738
0
LINE
8
BLACK
6
CONTINUOUS
10
41.6188
20
-6.35738
11
41.714
21
-6.1669
0
LINE
8
BLACK
6
CONTINUOUS
10
41.714
20
-6.1669
11
41.8093
21
-6.07167
0
LINE
8
BLACK
6
CONTINUOUS
10
41.8093
20
-6.07167
11
41.9998
21
-5.97643
0
LINE
8
BLACK
6
CONTINUOUS
10
41.9998
20
-5.97643
11
42.2855
21
-5.97643
0
LINE
8
BLACK
6
CONTINUOUS
10
42.2855
20
-5.97643
11
42.476
21
-6.07167
0
LINE
8
BLACK
6
CONTINUOUS
10
42.476
20
-6.07167
11
42.5712
21
-6.1669
0
LINE
8
BLACK
6
CONTINUOUS
10
42.5712
20
-6.1669
11
42.6664
21
-6.35738
0
LINE
8
BLACK
6
CONTINUOUS
10
42.6664
20
-6.35738
11
42.6664
21
-6.92881
0
LINE
8
BLACK
6
CONTINUOUS
10
42.6664
20
-6.92881
11
42.5712
21
-7.11928
0
LINE
8
BLACK
6
CONTINUOUS
10
42.5712
20
-7.11928
11
42.476
21
-7.21452
0
LINE
8
BLACK
6
CONTINUOUS
10
42.476
20
-7.21452
11
42.2855
21
-7.30976
0
LINE
8
BLACK
6
CONTINUOUS
10
42.2855
20
-7.30976
11
41.9998
21
-7.30976
0
LINE
8
BLACK
6
CONTINUOUS
10
43.8093
20
-7.30976
11
43.6188
21
-7.21452
0
LINE
8
BLACK
6
CONTINUOUS
10
43.6188
20
-7.21452
11
43.5236
21
-7.02405
0
LINE
8
BLACK
6
CONTINUOUS
10
43.5236
20
-7.02405
11
43.5236
21
-5.30976
0
LINE
8
BLACK
6
CONTINUOUS
10
45.3331
20
-7.21452
11
45.1426
21
-7.30976
0
LINE
8
BLACK
6
CONTINUOUS
10
45.1426
20
-7.30976
11
44.7617
21
-7.30976
0
LINE
8
BLACK
6
CONTINUOUS
10
44.7617
20
-7.30976
11
44.5712
21
-7.21452
0
LINE
8
BLACK
6
CONTINUOUS
10
44.5712
20
-7.21452
11
44.476
21
-7.02405
0
LINE
8
BLACK
6
CONTINUOUS
10
44.476
20
-7.02405
11
44.476
21
-6.26214
0
LINE
8
BLACK
6
CONTINUOUS
10
44.476
20
-6.26214
11
44.5712
21
-6.07167
0
LINE
8
BLACK
6
CONTINUOUS
10
44.5712
20
-6.07167
11
44.7617
21
-5.97643
0
LINE
8
BLACK
6
CONTINUOUS
10
44.7617
20
-5.97643
11
45.1426
21
-5.97643
0
LINE
8
BLACK
6
CONTINUOUS
10
45.1426
20
-5.97643
11
45.3331
21
-6.07167
0
LINE
8
BLACK
6
CONTINUOUS
10
45.3331
20
-6.07167
11
45.4283
21
-6.26214
0
LINE
8
BLACK
6
CONTINUOUS
10
45.4283
20
-6.26214
11
45.4283
21
-6.45262
0
LINE
8
BLACK
6
CONTINUOUS
10
45.4283
20
-6.45262
11
44.476
21
-6.64309
0
LINE
8
BLACK
6
CONTINUOUS
10
46.1902
20
-7.21452
11
46.3807
21
-7.30976
0
LINE
8
BLACK
6
CONTINUOUS
10
46.3807
20
-7.30976
11
46.7617
21
-7.30976
0
LINE
8
BLACK
6
CONTINUOUS
10
46.7617
20
-7.30976
11
46.9521
21
-7.21452
0
LINE
8
BLACK
6
CONTINUOUS
10
46.9521
20
-7.21452
11
47.0474
21
-7.02405
0
LINE
8
BLACK
6
CONTINUOUS
10
47.0474
20
-7.02405
11
47.0474
21
-6.92881
0
LINE
8
BLACK
6
CONTINUOUS
10
47.0474
20
-6.92881
11
46.9521
21
-6.73833
0
LINE
8
BLACK
6
CONTINUOUS
10
46.9521
20
-6.73833
11
46.7617
21
-6.64309
0
LINE
8
BLACK
6
CONTINUOUS
10
46.7617
20
-6.64309
11
46.476
21
-6.64309
0
LINE
8
BLACK
6
CONTINUOUS
10
46.476
20
-6.64309
11
46.2855
21
-6.54786
0
LINE
8
BLACK
6
CONTINUOUS
10
46.2855
20
-6.54786
11
46.1902
21
-6.35738
0
LINE
8
BLACK
6
CONTINUOUS
10
46.1902
20
-6.35738
11
46.1902
21
-6.26214
0
LINE
8
BLACK
6
CONTINUOUS
10
46.1902
20
-6.26214
11
46.2855
21
-6.07167
0
LINE
8
BLACK
6
CONTINUOUS
10
46.2855
20
-6.07167
11
46.476
21
-5.97643
0
LINE
8
BLACK
6
CONTINUOUS
10
46.476
20
-5.97643
11
46.7617
21
-5.97643
0
LINE
8
BLACK
6
CONTINUOUS
10
46.7617
20
-5.97643
11
46.9521
21
-6.07167
0
LINE
8
BLACK
6
CONTINUOUS
10
47.714
20
-8.07167
11
47.8093
21
-7.97643
0
LINE
8
BLACK
6
CONTINUOUS
10
47.8093
20
-7.97643
11
47.9998
21
-7.69071
0
LINE
8
BLACK
6
CONTINUOUS
10
47.9998
20
-7.69071
11
48.095
21
-7.50024
0
LINE
8
BLACK
6
CONTINUOUS
10
48.095
20
-7.50024
11
48.1902
21
-7.21452
0
LINE
8
BLACK
6
CONTINUOUS
10
48.1902
20
-7.21452
11
48.2855
21
-6.73833
0
LINE
8
BLACK
6
CONTINUOUS
10
48.2855
20
-6.73833
11
48.2855
21
-6.35738
0
LINE
8
BLACK
6
CONTINUOUS
10
48.2855
20
-6.35738
11
48.1902
21
-5.88119
0
LINE
8
BLACK
6
CONTINUOUS
10
48.1902
20
-5.88119
11
48.095
21
-5.59548
0
LINE
8
BLACK
6
CONTINUOUS
10
48.095
20
-5.59548
11
47.9998
21
-5.405
0
LINE
8
BLACK
6
CONTINUOUS
10
47.9998
20
-5.405
11
47.8093
21
-5.11928
0
LINE
8
BLACK
6
CONTINUOUS
10
47.8093
20
-5.11928
11
47.714
21
-5.02405
0
LINE
8
BLACK
6
CONTINUOUS
10
51.3331
20
-8.07167
11
51.2379
21
-7.97643
0
LINE
8
BLACK
6
CONTINUOUS
10
51.2379
20
-7.97643
11
51.0474
21
-7.69071
0
LINE
8
BLACK
6
CONTINUOUS
10
51.0474
20
-7.69071
11
50.9521
21
-7.50024
0
LINE
8
BLACK
6
CONTINUOUS
10
50.9521
20
-7.50024
11
50.8569
21
-7.21452
0
LINE
8
BLACK
6
CONTINUOUS
10
50.8569
20
-7.21452
11
50.7617
21
-6.73833
0
LINE
8
BLACK
6
CONTINUOUS
10
50.7617
20
-6.73833
11
50.7617
21
-6.35738
0
LINE
8
BLACK
6
CONTINUOUS
10
50.7617
20
-6.35738
11
50.8569
21
-5.88119
0
LINE
8
BLACK
6
CONTINUOUS
10
50.8569
20
-5.88119
11
50.9521
21
-5.59548
0
LINE
8
BLACK
6
CONTINUOUS
10
50.9521
20
-5.59548
11
51.0474
21
-5.405
0
LINE
8
BLACK
6
CONTINUOUS
10
51.0474
20
-5.405
11
51.2379
21
-5.11928
0
LINE
8
BLACK
6
CONTINUOUS
10
51.2379
20
-5.11928
11
51.3331
21
-5.02405
0
LINE
8
BLACK
6
CONTINUOUS
10
52.095
20
-5.97643
11
52.095
21
-7.30976
0
LINE
8
BLACK
6
CONTINUOUS
10
52.095
20
-6.1669
11
52.1902
21
-6.07167
0
LINE
8
BLACK
6
CONTINUOUS
10
52.1902
20
-6.07167
11
52.3807
21
-5.97643
0
LINE
8
BLACK
6
CONTINUOUS
10
52.3807
20
-5.97643
11
52.6664
21
-5.97643
0
LINE
8
BLACK
6
CONTINUOUS
10
52.6664
20
-5.97643
11
52.8569
21
-6.07167
0
LINE
8
BLACK
6
CONTINUOUS
10
52.8569
20
-6.07167
11
52.9521
21
-6.26214
0
LINE
8
BLACK
6
CONTINUOUS
10
52.9521
20
-6.26214
11
52.9521
21
-7.30976
0
LINE
8
BLACK
6
CONTINUOUS
10
54.1902
20
-7.30976
11
53.9998
21
-7.21452
0
LINE
8
BLACK
6
CONTINUOUS
10
53.9998
20
-7.21452
11
53.9045
21
-7.11928
0
LINE
8
BLACK
6
CONTINUOUS
10
53.9045
20
-7.11928
11
53.8093
21
-6.92881
0
LINE
8
BLACK
6
CONTINUOUS
10
53.8093
20
-6.92881
11
53.8093
21
-6.35738
0
LINE
8
BLACK
6
CONTINUOUS
10
53.8093
20
-6.35738
11
53.9045
21
-6.1669
0
LINE
8
BLACK
6
CONTINUOUS
10
53.9045
20
-6.1669
11
53.9998
21
-6.07167
0
LINE
8
BLACK
6
CONTINUOUS
10
53.9998
20
-6.07167
11
54.1902
21
-5.97643
0
LINE
8
BLACK
6
CONTINUOUS
10
54.1902
20
-5.97643
11
54.476
21
-5.97643
0
LINE
8
BLACK
6
CONTINUOUS
10
54.476
20
-5.97643
11
54.6664
21
-6.07167
0
LINE
8
BLACK
6
CONTINUOUS
10
54.6664
20
-6.07167
11
54.7617
21
-6.1669
0
LINE
8
BLACK
6
CONTINUOUS
10
54.7617
20
-6.1669
11
54.8569
21
-6.35738
0
LINE
8
BLACK
6
CONTINUOUS
10
54.8569
20
-6.35738
11
54.8569
21
-6.92881
0
LINE
8
BLACK
6
CONTINUOUS
10
54.8569
20
-6.92881
11
54.7617
21
-7.11928
0
LINE
8
BLACK
6
CONTINUOUS
10
54.7617
20
-7.11928
11
54.6664
21
-7.21452
0
LINE
8
BLACK
6
CONTINUOUS
10
54.6664
20
-7.21452
11
54.476
21
-7.30976
0
LINE
8
BLACK
6
CONTINUOUS
10
54.476
20
-7.30976
11
54.1902
21
-7.30976
0
LINE
8
BLACK
6
CONTINUOUS
10
55.4283
20
-5.97643
11
56.1902
21
-5.97643
0
LINE
8
BLACK
6
CONTINUOUS
10
55.714
20
-5.30976
11
55.714
21
-7.02405
0
LINE
8
BLACK
6
CONTINUOUS
10
55.714
20
-7.02405
11
55.8093
21
-7.21452
0
LINE
8
BLACK
6
CONTINUOUS
10
55.8093
20
-7.21452
11
55.9998
21
-7.30976
0
LINE
8
BLACK
6
CONTINUOUS
10
55.9998
20
-7.30976
11
56.1902
21
-7.30976
0
LINE
8
BLACK
6
CONTINUOUS
10
58.3807
20
-5.97643
11
58.3807
21
-7.97643
0
LINE
8
BLACK
6
CONTINUOUS
10
58.3807
20
-6.07167
11
58.5712
21
-5.97643
0
LINE
8
BLACK
6
CONTINUOUS
10
58.5712
20
-5.97643
11
58.9521
21
-5.97643
0
LINE
8
BLACK
6
CONTINUOUS
10
58.9521
20
-5.97643
11
59.1426
21
-6.07167
0
LINE
8
BLACK
6
CONTINUOUS
10
59.1426
20
-6.07167
11
59.2379
21
-6.1669
0
LINE
8
BLACK
6
CONTINUOUS
10
59.2379
20
-6.1669
11
59.3331
21
-6.35738
0
LINE
8
BLACK
6
CONTINUOUS
10
59.3331
20
-6.35738
11
59.3331
21
-6.92881
0
LINE
8
BLACK
6
CONTINUOUS
10
59.3331
20
-6.92881
11
59.2379
21
-7.11928
0
LINE
8
BLACK
6
CONTINUOUS
10
59.2379
20
-7.11928
11
59.1426
21
-7.21452
0
LINE
8
BLACK
6
CONTINUOUS
10
59.1426
20
-7.21452
11
58.9521
21
-7.30976
0
LINE
8
BLACK
6
CONTINUOUS
10
58.9521
20
-7.30976
11
58.5712
21
-7.30976
0
LINE
8
BLACK
6
CONTINUOUS
10
58.5712
20
-7.30976
11
58.3807
21
-7.21452
0
LINE
8
BLACK
6
CONTINUOUS
10
60.476
20
-7.30976
11
60.2855
21
-7.21452
0
LINE
8
BLACK
6
CONTINUOUS
10
60.2855
20
-7.21452
11
60.1902
21
-7.02405
0
LINE
8
BLACK
6
CONTINUOUS
10
60.1902
20
-7.02405
11
60.1902
21
-5.30976
0
LINE
8
BLACK
6
CONTINUOUS
10
62.095
20
-7.30976
11
62.095
21
-6.26214
0
LINE
8
BLACK
6
CONTINUOUS
10
62.095
20
-6.26214
11
61.9998
21
-6.07167
0
LINE
8
BLACK
6
CONTINUOUS
10
61.9998
20
-6.07167
11
61.8093
21
-5.97643
0
LINE
8
BLACK
6
CONTINUOUS
10
61.8093
20
-5.97643
11
61.4283
21
-5.97643
0
LINE
8
BLACK
6
CONTINUOUS
10
61.4283
20
-5.97643
11
61.2379
21
-6.07167
0
LINE
8
BLACK
6
CONTINUOUS
10
62.095
20
-7.21452
11
61.9045
21
-7.30976
0
LINE
8
BLACK
6
CONTINUOUS
10
61.9045
20
-7.30976
11
61.4283
21
-7.30976
0
LINE
8
BLACK
6
CONTINUOUS
10
61.4283
20
-7.30976
11
61.2379
21
-7.21452
0
LINE
8
BLACK
6
CONTINUOUS
10
61.2379
20
-7.21452
11
61.1426
21
-7.02405
0
LINE
8
BLACK
6
CONTINUOUS
10
61.1426
20
-7.02405
11
61.1426
21
-6.83357
0
LINE
8
BLACK
6
CONTINUOUS
10
61.1426
20
-6.83357
11
61.2379
21
-6.64309
0
LINE
8
BLACK
6
CONTINUOUS
10
61.2379
20
-6.64309
11
61.4283
21
-6.54786
0
LINE
8
BLACK
6
CONTINUOUS
10
61.4283
20
-6.54786
11
61.9045
21
-6.54786
0
LINE
8
BLACK
6
CONTINUOUS
10
61.9045
20
-6.54786
11
62.095
21
-6.45262
0
LINE
8
BLACK
6
CONTINUOUS
10
62.7617
20
-5.97643
11
63.5236
21
-5.97643
0
LINE
8
BLACK
6
CONTINUOUS
10
63.0474
20
-5.30976
11
63.0474
21
-7.02405
0
LINE
8
BLACK
6
CONTINUOUS
10
63.0474
20
-7.02405
11
63.1426
21
-7.21452
0
LINE
8
BLACK
6
CONTINUOUS
10
63.1426
20
-7.21452
11
63.3331
21
-7.30976
0
LINE
8
BLACK
6
CONTINUOUS
10
63.3331
20
-7.30976
11
63.5236
21
-7.30976
0
LINE
8
BLACK
6
CONTINUOUS
10
64.9521
20
-7.21452
11
64.7617
21
-7.30976
0
LINE
8
BLACK
6
CONTINUOUS
10
64.7617
20
-7.30976
11
64.3807
21
-7.30976
0
LINE
8
BLACK
6
CONTINUOUS
10
64.3807
20
-7.30976
11
64.1902
21
-7.21452
0
LINE
8
BLACK
6
CONTINUOUS
10
64.1902
20
-7.21452
11
64.095
21
-7.02405
0
LINE
8
BLACK
6
CONTINUOUS
10
64.095
20
-7.02405
11
64.095
21
-6.26214
0
LINE
8
BLACK
6
CONTINUOUS
10
64.095
20
-6.26214
11
64.1902
21
-6.07167
0
LINE
8
BLACK
6
CONTINUOUS
10
64.1902
20
-6.07167
11
64.3807
21
-5.97643
0
LINE
8
BLACK
6
CONTINUOUS
10
64.3807
20
-5.97643
11
64.7617
21
-5.97643
0
LINE
8
BLACK
6
CONTINUOUS
10
64.7617
20
-5.97643
11
64.9521
21
-6.07167
0
LINE
8
BLACK
6
CONTINUOUS
10
64.9521
20
-6.07167
11
65.0474
21
-6.26214
0
LINE
8
BLACK
6
CONTINUOUS
10
65.0474
20
-6.26214
11
65.0474
21
-6.45262
0
LINE
8
BLACK
6
CONTINUOUS
10
65.0474
20
-6.45262
11
64.095
21
-6.64309
0
LINE
8
BLACK
6
CONTINUOUS
10
66.7617
20
-7.30976
11
66.7617
21
-5.30976
0
LINE
8
BLACK
6
CONTINUOUS
10
66.7617
20
-7.21452
11
66.5712
21
-7.30976
0
LINE
8
BLACK
6
CONTINUOUS
10
66.5712
20
-7.30976
11
66.1902
21
-7.30976
0
LINE
8
BLACK
6
CONTINUOUS
10
66.1902
20
-7.30976
11
65.9998
21
-7.21452
0
LINE
8
BLACK
6
CONTINUOUS
10
65.9998
20
-7.21452
11
65.9045
21
-7.11928
0
LINE
8
BLACK
6
CONTINUOUS
10
65.9045
20
-7.11928
11
65.8093
21
-6.92881
0
LINE
8
BLACK
6
CONTINUOUS
10
65.8093
20
-6.92881
11
65.8093
21
-6.35738
0
LINE
8
BLACK
6
CONTINUOUS
10
65.8093
20
-6.35738
11
65.9045
21
-6.1669
0
LINE
8
BLACK
6
CONTINUOUS
10
65.9045
20
-6.1669
11
65.9998
21
-6.07167
0
LINE
8
BLACK
6
CONTINUOUS
10
65.9998
20
-6.07167
11
66.1902
21
-5.97643
0
LINE
8
BLACK
6
CONTINUOUS
10
66.1902
20
-5.97643
11
66.5712
21
-5.97643
0
LINE
8
BLACK
6
CONTINUOUS
10
66.5712
20
-5.97643
11
66.7617
21
-6.07167
0
LINE
8
BLACK
6
CONTINUOUS
10
67.5236
20
-8.07167
11
67.6188
21
-7.97643
0
LINE
8
BLACK
6
CONTINUOUS
10
67.6188
20
-7.97643
11
67.8093
21
-7.69071
0
LINE
8
BLACK
6
CONTINUOUS
10
67.8093
20
-7.69071
11
67.9045
21
-7.50024
0
LINE
8
BLACK
6
CONTINUOUS
10
67.9045
20
-7.50024
11
67.9998
21
-7.21452
0
LINE
8
BLACK
6
CONTINUOUS
10
67.9998
20
-7.21452
11
68.095
21
-6.73833
0
LINE
8
BLACK
6
CONTINUOUS
10
68.095
20
-6.73833
11
68.095
21
-6.35738
0
LINE
8
BLACK
6
CONTINUOUS
10
68.095
20
-6.35738
11
67.9998
21
-5.88119
0
LINE
8
BLACK
6
CONTINUOUS
10
67.9998
20
-5.88119
11
67.9045
21
-5.59548
0
LINE
8
BLACK
6
CONTINUOUS
10
67.9045
20
-5.59548
11
67.8093
21
-5.405
0
LINE
8
BLACK
6
CONTINUOUS
10
67.8093
20
-5.405
11
67.6188
21
-5.11928
0
LINE
8
BLACK
6
CONTINUOUS
10
67.6188
20
-5.11928
11
67.5236
21
-5.02405
  0
ENDSEC
  0
EOF
