%TF.GenerationSoftware,KiCad,Pcbnew,(6.0.8)*%
%TF.CreationDate,2023-01-02T23:21:26-08:00*%
%TF.ProjectId,picow_ssr_control,7069636f-775f-4737-9372-5f636f6e7472,0.0.8*%
%TF.SameCoordinates,PXfbc520PY6516e80*%
%TF.FileFunction,Legend,Top*%
%TF.FilePolarity,Positive*%
%FSLAX46Y46*%
G04 Gerber Fmt 4.6, Leading zero omitted, Abs format (unit mm)*
G04 Created by KiCad (PCBNEW (6.0.8)) date 2023-01-02 23:21:26*
%MOMM*%
%LPD*%
G01*
G04 APERTURE LIST*
%ADD10C,0.250000*%
%ADD11C,0.150000*%
%ADD12C,0.080000*%
%ADD13C,0.254000*%
%ADD14C,0.200000*%
%ADD15C,0.120000*%
%ADD16C,0.002540*%
%ADD17C,0.100000*%
%ADD18C,0.010000*%
G04 APERTURE END LIST*
D10*
X2472023Y18886905D02*
X2352976Y18946429D01*
X2114880Y18946429D01*
X1995833Y18886905D01*
X1876785Y18767858D01*
X1817261Y18648810D01*
X1817261Y18410715D01*
X1876785Y18291667D01*
X1995833Y18172620D01*
X2114880Y18113096D01*
X2352976Y18113096D01*
X2472023Y18172620D01*
X2233928Y19363096D02*
X1936309Y19303572D01*
X1638690Y19125000D01*
X1460119Y18827381D01*
X1400595Y18529762D01*
X1460119Y18232143D01*
X1638690Y17934524D01*
X1936309Y17755953D01*
X2233928Y17696429D01*
X2531547Y17755953D01*
X2829166Y17934524D01*
X3007738Y18232143D01*
X3067261Y18529762D01*
X3007738Y18827381D01*
X2829166Y19125000D01*
X2531547Y19303572D01*
X2233928Y19363096D01*
X4495833Y19065477D02*
X4555357Y19125000D01*
X4674404Y19184524D01*
X4972023Y19184524D01*
X5091071Y19125000D01*
X5150595Y19065477D01*
X5210119Y18946429D01*
X5210119Y18827381D01*
X5150595Y18648810D01*
X4436309Y17934524D01*
X5210119Y17934524D01*
X5983928Y19184524D02*
X6102976Y19184524D01*
X6222023Y19125000D01*
X6281547Y19065477D01*
X6341071Y18946429D01*
X6400595Y18708334D01*
X6400595Y18410715D01*
X6341071Y18172620D01*
X6281547Y18053572D01*
X6222023Y17994048D01*
X6102976Y17934524D01*
X5983928Y17934524D01*
X5864880Y17994048D01*
X5805357Y18053572D01*
X5745833Y18172620D01*
X5686309Y18410715D01*
X5686309Y18708334D01*
X5745833Y18946429D01*
X5805357Y19065477D01*
X5864880Y19125000D01*
X5983928Y19184524D01*
X6876785Y19065477D02*
X6936309Y19125000D01*
X7055357Y19184524D01*
X7352976Y19184524D01*
X7472023Y19125000D01*
X7531547Y19065477D01*
X7591071Y18946429D01*
X7591071Y18827381D01*
X7531547Y18648810D01*
X6817261Y17934524D01*
X7591071Y17934524D01*
X8067261Y19065477D02*
X8126785Y19125000D01*
X8245833Y19184524D01*
X8543452Y19184524D01*
X8662500Y19125000D01*
X8722023Y19065477D01*
X8781547Y18946429D01*
X8781547Y18827381D01*
X8722023Y18648810D01*
X8007738Y17934524D01*
X8781547Y17934524D01*
X10269642Y17934524D02*
X10269642Y19184524D01*
X10686309Y18291667D01*
X11102976Y19184524D01*
X11102976Y17934524D01*
X11698214Y17934524D02*
X11698214Y18767858D01*
X11698214Y19184524D02*
X11638690Y19125000D01*
X11698214Y19065477D01*
X11757738Y19125000D01*
X11698214Y19184524D01*
X11698214Y19065477D01*
X12829166Y17994048D02*
X12710119Y17934524D01*
X12472023Y17934524D01*
X12352976Y17994048D01*
X12293452Y18053572D01*
X12233928Y18172620D01*
X12233928Y18529762D01*
X12293452Y18648810D01*
X12352976Y18708334D01*
X12472023Y18767858D01*
X12710119Y18767858D01*
X12829166Y18708334D01*
X13364880Y17934524D02*
X13364880Y19184524D01*
X13900595Y17934524D02*
X13900595Y18589286D01*
X13841071Y18708334D01*
X13722023Y18767858D01*
X13543452Y18767858D01*
X13424404Y18708334D01*
X13364880Y18648810D01*
X15031547Y17934524D02*
X15031547Y18589286D01*
X14972023Y18708334D01*
X14852976Y18767858D01*
X14614880Y18767858D01*
X14495833Y18708334D01*
X15031547Y17994048D02*
X14912500Y17934524D01*
X14614880Y17934524D01*
X14495833Y17994048D01*
X14436309Y18113096D01*
X14436309Y18232143D01*
X14495833Y18351191D01*
X14614880Y18410715D01*
X14912500Y18410715D01*
X15031547Y18470239D01*
X16102976Y17994048D02*
X15983928Y17934524D01*
X15745833Y17934524D01*
X15626785Y17994048D01*
X15567261Y18113096D01*
X15567261Y18589286D01*
X15626785Y18708334D01*
X15745833Y18767858D01*
X15983928Y18767858D01*
X16102976Y18708334D01*
X16162500Y18589286D01*
X16162500Y18470239D01*
X15567261Y18351191D01*
X16876785Y17934524D02*
X16757738Y17994048D01*
X16698214Y18113096D01*
X16698214Y19184524D01*
X19019642Y18053572D02*
X18960119Y17994048D01*
X18781547Y17934524D01*
X18662500Y17934524D01*
X18483928Y17994048D01*
X18364880Y18113096D01*
X18305357Y18232143D01*
X18245833Y18470239D01*
X18245833Y18648810D01*
X18305357Y18886905D01*
X18364880Y19005953D01*
X18483928Y19125000D01*
X18662500Y19184524D01*
X18781547Y19184524D01*
X18960119Y19125000D01*
X19019642Y19065477D01*
X20091071Y18767858D02*
X20091071Y17934524D01*
X19555357Y18767858D02*
X19555357Y18113096D01*
X19614880Y17994048D01*
X19733928Y17934524D01*
X19912500Y17934524D01*
X20031547Y17994048D01*
X20091071Y18053572D01*
X20686309Y17934524D02*
X20686309Y18767858D01*
X20686309Y18648810D02*
X20745833Y18708334D01*
X20864880Y18767858D01*
X21043452Y18767858D01*
X21162500Y18708334D01*
X21222023Y18589286D01*
X21222023Y17934524D01*
X21222023Y18589286D02*
X21281547Y18708334D01*
X21400595Y18767858D01*
X21579166Y18767858D01*
X21698214Y18708334D01*
X21757738Y18589286D01*
X21757738Y17934524D01*
X22352976Y17934524D02*
X22352976Y18767858D01*
X22352976Y18648810D02*
X22412500Y18708334D01*
X22531547Y18767858D01*
X22710119Y18767858D01*
X22829166Y18708334D01*
X22888690Y18589286D01*
X22888690Y17934524D01*
X22888690Y18589286D02*
X22948214Y18708334D01*
X23067261Y18767858D01*
X23245833Y18767858D01*
X23364880Y18708334D01*
X23424404Y18589286D01*
X23424404Y17934524D01*
X24019642Y17934524D02*
X24019642Y18767858D01*
X24019642Y19184524D02*
X23960119Y19125000D01*
X24019642Y19065477D01*
X24079166Y19125000D01*
X24019642Y19184524D01*
X24019642Y19065477D01*
X24614880Y18767858D02*
X24614880Y17934524D01*
X24614880Y18648810D02*
X24674404Y18708334D01*
X24793452Y18767858D01*
X24972023Y18767858D01*
X25091071Y18708334D01*
X25150595Y18589286D01*
X25150595Y17934524D01*
X26281547Y18767858D02*
X26281547Y17755953D01*
X26222023Y17636905D01*
X26162500Y17577381D01*
X26043452Y17517858D01*
X25864880Y17517858D01*
X25745833Y17577381D01*
X26281547Y17994048D02*
X26162500Y17934524D01*
X25924404Y17934524D01*
X25805357Y17994048D01*
X25745833Y18053572D01*
X25686309Y18172620D01*
X25686309Y18529762D01*
X25745833Y18648810D01*
X25805357Y18708334D01*
X25924404Y18767858D01*
X26162500Y18767858D01*
X26281547Y18708334D01*
X26817261Y17994048D02*
X26936309Y17934524D01*
X27174404Y17934524D01*
X27293452Y17994048D01*
X27352976Y18113096D01*
X27352976Y18172620D01*
X27293452Y18291667D01*
X27174404Y18351191D01*
X26995833Y18351191D01*
X26876785Y18410715D01*
X26817261Y18529762D01*
X26817261Y18589286D01*
X26876785Y18708334D01*
X26995833Y18767858D01*
X27174404Y18767858D01*
X27293452Y18708334D01*
D11*
X1811785Y16047620D02*
X1335595Y16047620D01*
X1335595Y17047620D01*
X2145119Y16047620D02*
X2145119Y16714286D01*
X2145119Y17047620D02*
X2097500Y17000000D01*
X2145119Y16952381D01*
X2192738Y17000000D01*
X2145119Y17047620D01*
X2145119Y16952381D01*
X3049880Y16095239D02*
X2954642Y16047620D01*
X2764166Y16047620D01*
X2668928Y16095239D01*
X2621309Y16142858D01*
X2573690Y16238096D01*
X2573690Y16523810D01*
X2621309Y16619048D01*
X2668928Y16666667D01*
X2764166Y16714286D01*
X2954642Y16714286D01*
X3049880Y16666667D01*
X3859404Y16095239D02*
X3764166Y16047620D01*
X3573690Y16047620D01*
X3478452Y16095239D01*
X3430833Y16190477D01*
X3430833Y16571429D01*
X3478452Y16666667D01*
X3573690Y16714286D01*
X3764166Y16714286D01*
X3859404Y16666667D01*
X3907023Y16571429D01*
X3907023Y16476191D01*
X3430833Y16380953D01*
X4335595Y16714286D02*
X4335595Y16047620D01*
X4335595Y16619048D02*
X4383214Y16666667D01*
X4478452Y16714286D01*
X4621309Y16714286D01*
X4716547Y16666667D01*
X4764166Y16571429D01*
X4764166Y16047620D01*
X5192738Y16095239D02*
X5287976Y16047620D01*
X5478452Y16047620D01*
X5573690Y16095239D01*
X5621309Y16190477D01*
X5621309Y16238096D01*
X5573690Y16333334D01*
X5478452Y16380953D01*
X5335595Y16380953D01*
X5240357Y16428572D01*
X5192738Y16523810D01*
X5192738Y16571429D01*
X5240357Y16666667D01*
X5335595Y16714286D01*
X5478452Y16714286D01*
X5573690Y16666667D01*
X6430833Y16095239D02*
X6335595Y16047620D01*
X6145119Y16047620D01*
X6049880Y16095239D01*
X6002261Y16190477D01*
X6002261Y16571429D01*
X6049880Y16666667D01*
X6145119Y16714286D01*
X6335595Y16714286D01*
X6430833Y16666667D01*
X6478452Y16571429D01*
X6478452Y16476191D01*
X6002261Y16380953D01*
X7335595Y16047620D02*
X7335595Y17047620D01*
X7335595Y16095239D02*
X7240357Y16047620D01*
X7049880Y16047620D01*
X6954642Y16095239D01*
X6907023Y16142858D01*
X6859404Y16238096D01*
X6859404Y16523810D01*
X6907023Y16619048D01*
X6954642Y16666667D01*
X7049880Y16714286D01*
X7240357Y16714286D01*
X7335595Y16666667D01*
X9002261Y16714286D02*
X9002261Y16047620D01*
X8573690Y16714286D02*
X8573690Y16190477D01*
X8621309Y16095239D01*
X8716547Y16047620D01*
X8859404Y16047620D01*
X8954642Y16095239D01*
X9002261Y16142858D01*
X9478452Y16714286D02*
X9478452Y16047620D01*
X9478452Y16619048D02*
X9526071Y16666667D01*
X9621309Y16714286D01*
X9764166Y16714286D01*
X9859404Y16666667D01*
X9907023Y16571429D01*
X9907023Y16047620D01*
X10811785Y16047620D02*
X10811785Y17047620D01*
X10811785Y16095239D02*
X10716547Y16047620D01*
X10526071Y16047620D01*
X10430833Y16095239D01*
X10383214Y16142858D01*
X10335595Y16238096D01*
X10335595Y16523810D01*
X10383214Y16619048D01*
X10430833Y16666667D01*
X10526071Y16714286D01*
X10716547Y16714286D01*
X10811785Y16666667D01*
X11668928Y16095239D02*
X11573690Y16047620D01*
X11383214Y16047620D01*
X11287976Y16095239D01*
X11240357Y16190477D01*
X11240357Y16571429D01*
X11287976Y16666667D01*
X11383214Y16714286D01*
X11573690Y16714286D01*
X11668928Y16666667D01*
X11716547Y16571429D01*
X11716547Y16476191D01*
X11240357Y16380953D01*
X12145119Y16047620D02*
X12145119Y16714286D01*
X12145119Y16523810D02*
X12192738Y16619048D01*
X12240357Y16666667D01*
X12335595Y16714286D01*
X12430833Y16714286D01*
X14097500Y16142858D02*
X14049880Y16095239D01*
X13907023Y16047620D01*
X13811785Y16047620D01*
X13668928Y16095239D01*
X13573690Y16190477D01*
X13526071Y16285715D01*
X13478452Y16476191D01*
X13478452Y16619048D01*
X13526071Y16809524D01*
X13573690Y16904762D01*
X13668928Y17000000D01*
X13811785Y17047620D01*
X13907023Y17047620D01*
X14049880Y17000000D01*
X14097500Y16952381D01*
X14526071Y16571429D02*
X14859404Y16571429D01*
X15002261Y16047620D02*
X14526071Y16047620D01*
X14526071Y17047620D01*
X15002261Y17047620D01*
X16002261Y16047620D02*
X15668928Y16523810D01*
X15430833Y16047620D02*
X15430833Y17047620D01*
X15811785Y17047620D01*
X15907023Y17000000D01*
X15954642Y16952381D01*
X16002261Y16857143D01*
X16002261Y16714286D01*
X15954642Y16619048D01*
X15907023Y16571429D01*
X15811785Y16523810D01*
X15430833Y16523810D01*
X16430833Y16047620D02*
X16430833Y17047620D01*
X17002261Y16047620D01*
X17002261Y17047620D01*
X17478452Y16428572D02*
X18240357Y16428572D01*
X18907023Y17047620D02*
X19097500Y17047620D01*
X19192738Y17000000D01*
X19287976Y16904762D01*
X19335595Y16714286D01*
X19335595Y16380953D01*
X19287976Y16190477D01*
X19192738Y16095239D01*
X19097500Y16047620D01*
X18907023Y16047620D01*
X18811785Y16095239D01*
X18716547Y16190477D01*
X18668928Y16380953D01*
X18668928Y16714286D01*
X18716547Y16904762D01*
X18811785Y17000000D01*
X18907023Y17047620D01*
X19764166Y16047620D02*
X19764166Y17047620D01*
X19764166Y16571429D02*
X20335595Y16571429D01*
X20335595Y16047620D02*
X20335595Y17047620D01*
X21287976Y16047620D02*
X20811785Y16047620D01*
X20811785Y17047620D01*
X21621309Y16428572D02*
X22383214Y16428572D01*
X22764166Y17047620D02*
X23002261Y16047620D01*
X23192738Y16761905D01*
X23383214Y16047620D01*
X23621309Y17047620D01*
X24668928Y16714286D02*
X24907023Y16047620D01*
X25145119Y16714286D01*
X25478452Y16952381D02*
X25526071Y17000000D01*
X25621309Y17047620D01*
X25859404Y17047620D01*
X25954642Y17000000D01*
X26002261Y16952381D01*
X26049880Y16857143D01*
X26049880Y16761905D01*
X26002261Y16619048D01*
X25430833Y16047620D01*
X26049880Y16047620D01*
D10*
X1885714Y13421429D02*
X2242857Y12421429D01*
X2600000Y13421429D01*
X3457142Y13921429D02*
X3600000Y13921429D01*
X3742857Y13850000D01*
X3814285Y13778572D01*
X3885714Y13635715D01*
X3957142Y13350000D01*
X3957142Y12992858D01*
X3885714Y12707143D01*
X3814285Y12564286D01*
X3742857Y12492858D01*
X3600000Y12421429D01*
X3457142Y12421429D01*
X3314285Y12492858D01*
X3242857Y12564286D01*
X3171428Y12707143D01*
X3100000Y12992858D01*
X3100000Y13350000D01*
X3171428Y13635715D01*
X3242857Y13778572D01*
X3314285Y13850000D01*
X3457142Y13921429D01*
X4600000Y12564286D02*
X4671428Y12492858D01*
X4600000Y12421429D01*
X4528571Y12492858D01*
X4600000Y12564286D01*
X4600000Y12421429D01*
X5600000Y13921429D02*
X5742857Y13921429D01*
X5885714Y13850000D01*
X5957142Y13778572D01*
X6028571Y13635715D01*
X6100000Y13350000D01*
X6100000Y12992858D01*
X6028571Y12707143D01*
X5957142Y12564286D01*
X5885714Y12492858D01*
X5742857Y12421429D01*
X5600000Y12421429D01*
X5457142Y12492858D01*
X5385714Y12564286D01*
X5314285Y12707143D01*
X5242857Y12992858D01*
X5242857Y13350000D01*
X5314285Y13635715D01*
X5385714Y13778572D01*
X5457142Y13850000D01*
X5600000Y13921429D01*
X6742857Y12564286D02*
X6814285Y12492858D01*
X6742857Y12421429D01*
X6671428Y12492858D01*
X6742857Y12564286D01*
X6742857Y12421429D01*
X7671428Y13278572D02*
X7528571Y13350000D01*
X7457142Y13421429D01*
X7385714Y13564286D01*
X7385714Y13635715D01*
X7457142Y13778572D01*
X7528571Y13850000D01*
X7671428Y13921429D01*
X7957142Y13921429D01*
X8100000Y13850000D01*
X8171428Y13778572D01*
X8242857Y13635715D01*
X8242857Y13564286D01*
X8171428Y13421429D01*
X8100000Y13350000D01*
X7957142Y13278572D01*
X7671428Y13278572D01*
X7528571Y13207143D01*
X7457142Y13135715D01*
X7385714Y12992858D01*
X7385714Y12707143D01*
X7457142Y12564286D01*
X7528571Y12492858D01*
X7671428Y12421429D01*
X7957142Y12421429D01*
X8100000Y12492858D01*
X8171428Y12564286D01*
X8242857Y12707143D01*
X8242857Y12992858D01*
X8171428Y13135715D01*
X8100000Y13207143D01*
X7957142Y13278572D01*
D11*
%TO.C,REG1*%
X41630952Y70447620D02*
X41297619Y70923810D01*
X41059523Y70447620D02*
X41059523Y71447620D01*
X41440476Y71447620D01*
X41535714Y71400000D01*
X41583333Y71352381D01*
X41630952Y71257143D01*
X41630952Y71114286D01*
X41583333Y71019048D01*
X41535714Y70971429D01*
X41440476Y70923810D01*
X41059523Y70923810D01*
X42059523Y70971429D02*
X42392857Y70971429D01*
X42535714Y70447620D02*
X42059523Y70447620D01*
X42059523Y71447620D01*
X42535714Y71447620D01*
X43488095Y71400000D02*
X43392857Y71447620D01*
X43250000Y71447620D01*
X43107142Y71400000D01*
X43011904Y71304762D01*
X42964285Y71209524D01*
X42916666Y71019048D01*
X42916666Y70876191D01*
X42964285Y70685715D01*
X43011904Y70590477D01*
X43107142Y70495239D01*
X43250000Y70447620D01*
X43345238Y70447620D01*
X43488095Y70495239D01*
X43535714Y70542858D01*
X43535714Y70876191D01*
X43345238Y70876191D01*
X44488095Y70447620D02*
X43916666Y70447620D01*
X44202380Y70447620D02*
X44202380Y71447620D01*
X44107142Y71304762D01*
X44011904Y71209524D01*
X43916666Y71161905D01*
%TO.C,JS2*%
X51190476Y47047620D02*
X51190476Y46333334D01*
X51142857Y46190477D01*
X51047619Y46095239D01*
X50904761Y46047620D01*
X50809523Y46047620D01*
X51619047Y46095239D02*
X51761904Y46047620D01*
X52000000Y46047620D01*
X52095238Y46095239D01*
X52142857Y46142858D01*
X52190476Y46238096D01*
X52190476Y46333334D01*
X52142857Y46428572D01*
X52095238Y46476191D01*
X52000000Y46523810D01*
X51809523Y46571429D01*
X51714285Y46619048D01*
X51666666Y46666667D01*
X51619047Y46761905D01*
X51619047Y46857143D01*
X51666666Y46952381D01*
X51714285Y47000000D01*
X51809523Y47047620D01*
X52047619Y47047620D01*
X52190476Y47000000D01*
X52571428Y46952381D02*
X52619047Y47000000D01*
X52714285Y47047620D01*
X52952380Y47047620D01*
X53047619Y47000000D01*
X53095238Y46952381D01*
X53142857Y46857143D01*
X53142857Y46761905D01*
X53095238Y46619048D01*
X52523809Y46047620D01*
X53142857Y46047620D01*
%TO.C,RS4*%
X45957142Y55007620D02*
X45623809Y55483810D01*
X45385714Y55007620D02*
X45385714Y56007620D01*
X45766666Y56007620D01*
X45861904Y55960000D01*
X45909523Y55912381D01*
X45957142Y55817143D01*
X45957142Y55674286D01*
X45909523Y55579048D01*
X45861904Y55531429D01*
X45766666Y55483810D01*
X45385714Y55483810D01*
X46338095Y55055239D02*
X46480952Y55007620D01*
X46719047Y55007620D01*
X46814285Y55055239D01*
X46861904Y55102858D01*
X46909523Y55198096D01*
X46909523Y55293334D01*
X46861904Y55388572D01*
X46814285Y55436191D01*
X46719047Y55483810D01*
X46528571Y55531429D01*
X46433333Y55579048D01*
X46385714Y55626667D01*
X46338095Y55721905D01*
X46338095Y55817143D01*
X46385714Y55912381D01*
X46433333Y55960000D01*
X46528571Y56007620D01*
X46766666Y56007620D01*
X46909523Y55960000D01*
X47766666Y55674286D02*
X47766666Y55007620D01*
X47528571Y56055239D02*
X47290476Y55340953D01*
X47909523Y55340953D01*
%TO.C,RS7*%
X45957142Y32817620D02*
X45623809Y33293810D01*
X45385714Y32817620D02*
X45385714Y33817620D01*
X45766666Y33817620D01*
X45861904Y33770000D01*
X45909523Y33722381D01*
X45957142Y33627143D01*
X45957142Y33484286D01*
X45909523Y33389048D01*
X45861904Y33341429D01*
X45766666Y33293810D01*
X45385714Y33293810D01*
X46338095Y32865239D02*
X46480952Y32817620D01*
X46719047Y32817620D01*
X46814285Y32865239D01*
X46861904Y32912858D01*
X46909523Y33008096D01*
X46909523Y33103334D01*
X46861904Y33198572D01*
X46814285Y33246191D01*
X46719047Y33293810D01*
X46528571Y33341429D01*
X46433333Y33389048D01*
X46385714Y33436667D01*
X46338095Y33531905D01*
X46338095Y33627143D01*
X46385714Y33722381D01*
X46433333Y33770000D01*
X46528571Y33817620D01*
X46766666Y33817620D01*
X46909523Y33770000D01*
X47242857Y33817620D02*
X47909523Y33817620D01*
X47480952Y32817620D01*
%TO.C,QD8*%
X27154761Y32602381D02*
X27059523Y32650000D01*
X26964285Y32745239D01*
X26821428Y32888096D01*
X26726190Y32935715D01*
X26630952Y32935715D01*
X26678571Y32697620D02*
X26583333Y32745239D01*
X26488095Y32840477D01*
X26440476Y33030953D01*
X26440476Y33364286D01*
X26488095Y33554762D01*
X26583333Y33650000D01*
X26678571Y33697620D01*
X26869047Y33697620D01*
X26964285Y33650000D01*
X27059523Y33554762D01*
X27107142Y33364286D01*
X27107142Y33030953D01*
X27059523Y32840477D01*
X26964285Y32745239D01*
X26869047Y32697620D01*
X26678571Y32697620D01*
X27535714Y32697620D02*
X27535714Y33697620D01*
X27773809Y33697620D01*
X27916666Y33650000D01*
X28011904Y33554762D01*
X28059523Y33459524D01*
X28107142Y33269048D01*
X28107142Y33126191D01*
X28059523Y32935715D01*
X28011904Y32840477D01*
X27916666Y32745239D01*
X27773809Y32697620D01*
X27535714Y32697620D01*
X28678571Y33269048D02*
X28583333Y33316667D01*
X28535714Y33364286D01*
X28488095Y33459524D01*
X28488095Y33507143D01*
X28535714Y33602381D01*
X28583333Y33650000D01*
X28678571Y33697620D01*
X28869047Y33697620D01*
X28964285Y33650000D01*
X29011904Y33602381D01*
X29059523Y33507143D01*
X29059523Y33459524D01*
X29011904Y33364286D01*
X28964285Y33316667D01*
X28869047Y33269048D01*
X28678571Y33269048D01*
X28583333Y33221429D01*
X28535714Y33173810D01*
X28488095Y33078572D01*
X28488095Y32888096D01*
X28535714Y32792858D01*
X28583333Y32745239D01*
X28678571Y32697620D01*
X28869047Y32697620D01*
X28964285Y32745239D01*
X29011904Y32792858D01*
X29059523Y32888096D01*
X29059523Y33078572D01*
X29011904Y33173810D01*
X28964285Y33221429D01*
X28869047Y33269048D01*
%TO.C,JCNTL2*%
X54557142Y37297620D02*
X54557142Y36583334D01*
X54509523Y36440477D01*
X54414285Y36345239D01*
X54271428Y36297620D01*
X54176190Y36297620D01*
X55604761Y36392858D02*
X55557142Y36345239D01*
X55414285Y36297620D01*
X55319047Y36297620D01*
X55176190Y36345239D01*
X55080952Y36440477D01*
X55033333Y36535715D01*
X54985714Y36726191D01*
X54985714Y36869048D01*
X55033333Y37059524D01*
X55080952Y37154762D01*
X55176190Y37250000D01*
X55319047Y37297620D01*
X55414285Y37297620D01*
X55557142Y37250000D01*
X55604761Y37202381D01*
X56033333Y36297620D02*
X56033333Y37297620D01*
X56604761Y36297620D01*
X56604761Y37297620D01*
X56938095Y37297620D02*
X57509523Y37297620D01*
X57223809Y36297620D02*
X57223809Y37297620D01*
X58319047Y36297620D02*
X57842857Y36297620D01*
X57842857Y37297620D01*
X58604761Y37202381D02*
X58652380Y37250000D01*
X58747619Y37297620D01*
X58985714Y37297620D01*
X59080952Y37250000D01*
X59128571Y37202381D01*
X59176190Y37107143D01*
X59176190Y37011905D01*
X59128571Y36869048D01*
X58557142Y36297620D01*
X59176190Y36297620D01*
%TO.C,RS1*%
X49507142Y58797620D02*
X49173809Y59273810D01*
X48935714Y58797620D02*
X48935714Y59797620D01*
X49316666Y59797620D01*
X49411904Y59750000D01*
X49459523Y59702381D01*
X49507142Y59607143D01*
X49507142Y59464286D01*
X49459523Y59369048D01*
X49411904Y59321429D01*
X49316666Y59273810D01*
X48935714Y59273810D01*
X49888095Y58845239D02*
X50030952Y58797620D01*
X50269047Y58797620D01*
X50364285Y58845239D01*
X50411904Y58892858D01*
X50459523Y58988096D01*
X50459523Y59083334D01*
X50411904Y59178572D01*
X50364285Y59226191D01*
X50269047Y59273810D01*
X50078571Y59321429D01*
X49983333Y59369048D01*
X49935714Y59416667D01*
X49888095Y59511905D01*
X49888095Y59607143D01*
X49935714Y59702381D01*
X49983333Y59750000D01*
X50078571Y59797620D01*
X50316666Y59797620D01*
X50459523Y59750000D01*
X51411904Y58797620D02*
X50840476Y58797620D01*
X51126190Y58797620D02*
X51126190Y59797620D01*
X51030952Y59654762D01*
X50935714Y59559524D01*
X50840476Y59511905D01*
D12*
%TO.C,OSHW_Mono_0.1_Scale*%
X21114761Y11623096D02*
X21114761Y11145477D01*
X21142857Y11089286D01*
X21170952Y11061191D01*
X21227142Y11033096D01*
X21339523Y11033096D01*
X21395714Y11061191D01*
X21423809Y11089286D01*
X21451904Y11145477D01*
X21451904Y11623096D01*
X21704761Y11061191D02*
X21789047Y11033096D01*
X21929523Y11033096D01*
X21985714Y11061191D01*
X22013809Y11089286D01*
X22041904Y11145477D01*
X22041904Y11201667D01*
X22013809Y11257858D01*
X21985714Y11285953D01*
X21929523Y11314048D01*
X21817142Y11342143D01*
X21760952Y11370239D01*
X21732857Y11398334D01*
X21704761Y11454524D01*
X21704761Y11510715D01*
X21732857Y11566905D01*
X21760952Y11595000D01*
X21817142Y11623096D01*
X21957619Y11623096D01*
X22041904Y11595000D01*
X22407142Y11623096D02*
X22463333Y11623096D01*
X22519523Y11595000D01*
X22547619Y11566905D01*
X22575714Y11510715D01*
X22603809Y11398334D01*
X22603809Y11257858D01*
X22575714Y11145477D01*
X22547619Y11089286D01*
X22519523Y11061191D01*
X22463333Y11033096D01*
X22407142Y11033096D01*
X22350952Y11061191D01*
X22322857Y11089286D01*
X22294761Y11145477D01*
X22266666Y11257858D01*
X22266666Y11398334D01*
X22294761Y11510715D01*
X22322857Y11566905D01*
X22350952Y11595000D01*
X22407142Y11623096D01*
X22969047Y11623096D02*
X23025238Y11623096D01*
X23081428Y11595000D01*
X23109523Y11566905D01*
X23137619Y11510715D01*
X23165714Y11398334D01*
X23165714Y11257858D01*
X23137619Y11145477D01*
X23109523Y11089286D01*
X23081428Y11061191D01*
X23025238Y11033096D01*
X22969047Y11033096D01*
X22912857Y11061191D01*
X22884761Y11089286D01*
X22856666Y11145477D01*
X22828571Y11257858D01*
X22828571Y11398334D01*
X22856666Y11510715D01*
X22884761Y11566905D01*
X22912857Y11595000D01*
X22969047Y11623096D01*
X23390476Y11566905D02*
X23418571Y11595000D01*
X23474761Y11623096D01*
X23615238Y11623096D01*
X23671428Y11595000D01*
X23699523Y11566905D01*
X23727619Y11510715D01*
X23727619Y11454524D01*
X23699523Y11370239D01*
X23362380Y11033096D01*
X23727619Y11033096D01*
X24289523Y11033096D02*
X23952380Y11033096D01*
X24120952Y11033096D02*
X24120952Y11623096D01*
X24064761Y11538810D01*
X24008571Y11482620D01*
X23952380Y11454524D01*
X24514285Y11566905D02*
X24542380Y11595000D01*
X24598571Y11623096D01*
X24739047Y11623096D01*
X24795238Y11595000D01*
X24823333Y11566905D01*
X24851428Y11510715D01*
X24851428Y11454524D01*
X24823333Y11370239D01*
X24486190Y11033096D01*
X24851428Y11033096D01*
X25076190Y11566905D02*
X25104285Y11595000D01*
X25160476Y11623096D01*
X25300952Y11623096D01*
X25357142Y11595000D01*
X25385238Y11566905D01*
X25413333Y11510715D01*
X25413333Y11454524D01*
X25385238Y11370239D01*
X25048095Y11033096D01*
X25413333Y11033096D01*
D11*
%TO.C,Q2*%
X9054761Y38102381D02*
X8959523Y38150000D01*
X8864285Y38245239D01*
X8721428Y38388096D01*
X8626190Y38435715D01*
X8530952Y38435715D01*
X8578571Y38197620D02*
X8483333Y38245239D01*
X8388095Y38340477D01*
X8340476Y38530953D01*
X8340476Y38864286D01*
X8388095Y39054762D01*
X8483333Y39150000D01*
X8578571Y39197620D01*
X8769047Y39197620D01*
X8864285Y39150000D01*
X8959523Y39054762D01*
X9007142Y38864286D01*
X9007142Y38530953D01*
X8959523Y38340477D01*
X8864285Y38245239D01*
X8769047Y38197620D01*
X8578571Y38197620D01*
X9388095Y39102381D02*
X9435714Y39150000D01*
X9530952Y39197620D01*
X9769047Y39197620D01*
X9864285Y39150000D01*
X9911904Y39102381D01*
X9959523Y39007143D01*
X9959523Y38911905D01*
X9911904Y38769048D01*
X9340476Y38197620D01*
X9959523Y38197620D01*
%TO.C,RS5*%
X46007142Y30277620D02*
X45673809Y30753810D01*
X45435714Y30277620D02*
X45435714Y31277620D01*
X45816666Y31277620D01*
X45911904Y31230000D01*
X45959523Y31182381D01*
X46007142Y31087143D01*
X46007142Y30944286D01*
X45959523Y30849048D01*
X45911904Y30801429D01*
X45816666Y30753810D01*
X45435714Y30753810D01*
X46388095Y30325239D02*
X46530952Y30277620D01*
X46769047Y30277620D01*
X46864285Y30325239D01*
X46911904Y30372858D01*
X46959523Y30468096D01*
X46959523Y30563334D01*
X46911904Y30658572D01*
X46864285Y30706191D01*
X46769047Y30753810D01*
X46578571Y30801429D01*
X46483333Y30849048D01*
X46435714Y30896667D01*
X46388095Y30991905D01*
X46388095Y31087143D01*
X46435714Y31182381D01*
X46483333Y31230000D01*
X46578571Y31277620D01*
X46816666Y31277620D01*
X46959523Y31230000D01*
X47864285Y31277620D02*
X47388095Y31277620D01*
X47340476Y30801429D01*
X47388095Y30849048D01*
X47483333Y30896667D01*
X47721428Y30896667D01*
X47816666Y30849048D01*
X47864285Y30801429D01*
X47911904Y30706191D01*
X47911904Y30468096D01*
X47864285Y30372858D01*
X47816666Y30325239D01*
X47721428Y30277620D01*
X47483333Y30277620D01*
X47388095Y30325239D01*
X47340476Y30372858D01*
%TO.C,RS2*%
X46007142Y57547620D02*
X45673809Y58023810D01*
X45435714Y57547620D02*
X45435714Y58547620D01*
X45816666Y58547620D01*
X45911904Y58500000D01*
X45959523Y58452381D01*
X46007142Y58357143D01*
X46007142Y58214286D01*
X45959523Y58119048D01*
X45911904Y58071429D01*
X45816666Y58023810D01*
X45435714Y58023810D01*
X46388095Y57595239D02*
X46530952Y57547620D01*
X46769047Y57547620D01*
X46864285Y57595239D01*
X46911904Y57642858D01*
X46959523Y57738096D01*
X46959523Y57833334D01*
X46911904Y57928572D01*
X46864285Y57976191D01*
X46769047Y58023810D01*
X46578571Y58071429D01*
X46483333Y58119048D01*
X46435714Y58166667D01*
X46388095Y58261905D01*
X46388095Y58357143D01*
X46435714Y58452381D01*
X46483333Y58500000D01*
X46578571Y58547620D01*
X46816666Y58547620D01*
X46959523Y58500000D01*
X47340476Y58452381D02*
X47388095Y58500000D01*
X47483333Y58547620D01*
X47721428Y58547620D01*
X47816666Y58500000D01*
X47864285Y58452381D01*
X47911904Y58357143D01*
X47911904Y58261905D01*
X47864285Y58119048D01*
X47292857Y57547620D01*
X47911904Y57547620D01*
%TO.C,C2*%
X36483333Y71392858D02*
X36435714Y71345239D01*
X36292857Y71297620D01*
X36197619Y71297620D01*
X36054761Y71345239D01*
X35959523Y71440477D01*
X35911904Y71535715D01*
X35864285Y71726191D01*
X35864285Y71869048D01*
X35911904Y72059524D01*
X35959523Y72154762D01*
X36054761Y72250000D01*
X36197619Y72297620D01*
X36292857Y72297620D01*
X36435714Y72250000D01*
X36483333Y72202381D01*
X36864285Y72202381D02*
X36911904Y72250000D01*
X37007142Y72297620D01*
X37245238Y72297620D01*
X37340476Y72250000D01*
X37388095Y72202381D01*
X37435714Y72107143D01*
X37435714Y72011905D01*
X37388095Y71869048D01*
X36816666Y71297620D01*
X37435714Y71297620D01*
D13*
%TO.C,S1*%
X23932380Y835953D02*
X24113809Y775477D01*
X24416190Y775477D01*
X24537142Y835953D01*
X24597619Y896429D01*
X24658095Y1017381D01*
X24658095Y1138334D01*
X24597619Y1259286D01*
X24537142Y1319762D01*
X24416190Y1380239D01*
X24174285Y1440715D01*
X24053333Y1501191D01*
X23992857Y1561667D01*
X23932380Y1682620D01*
X23932380Y1803572D01*
X23992857Y1924524D01*
X24053333Y1985000D01*
X24174285Y2045477D01*
X24476666Y2045477D01*
X24658095Y1985000D01*
X25867619Y775477D02*
X25141904Y775477D01*
X25504761Y775477D02*
X25504761Y2045477D01*
X25383809Y1864048D01*
X25262857Y1743096D01*
X25141904Y1682620D01*
D11*
%TO.C,RL1*%
X43428571Y74697620D02*
X43095238Y75173810D01*
X42857142Y74697620D02*
X42857142Y75697620D01*
X43238095Y75697620D01*
X43333333Y75650000D01*
X43380952Y75602381D01*
X43428571Y75507143D01*
X43428571Y75364286D01*
X43380952Y75269048D01*
X43333333Y75221429D01*
X43238095Y75173810D01*
X42857142Y75173810D01*
X44333333Y74697620D02*
X43857142Y74697620D01*
X43857142Y75697620D01*
X45190476Y74697620D02*
X44619047Y74697620D01*
X44904761Y74697620D02*
X44904761Y75697620D01*
X44809523Y75554762D01*
X44714285Y75459524D01*
X44619047Y75411905D01*
%TO.C,RP1*%
X57583333Y66157620D02*
X57250000Y66633810D01*
X57011904Y66157620D02*
X57011904Y67157620D01*
X57392857Y67157620D01*
X57488095Y67110000D01*
X57535714Y67062381D01*
X57583333Y66967143D01*
X57583333Y66824286D01*
X57535714Y66729048D01*
X57488095Y66681429D01*
X57392857Y66633810D01*
X57011904Y66633810D01*
X58011904Y66157620D02*
X58011904Y67157620D01*
X58392857Y67157620D01*
X58488095Y67110000D01*
X58535714Y67062381D01*
X58583333Y66967143D01*
X58583333Y66824286D01*
X58535714Y66729048D01*
X58488095Y66681429D01*
X58392857Y66633810D01*
X58011904Y66633810D01*
X59535714Y66157620D02*
X58964285Y66157620D01*
X59250000Y66157620D02*
X59250000Y67157620D01*
X59154761Y67014762D01*
X59059523Y66919524D01*
X58964285Y66871905D01*
%TO.C,H2*%
X3857142Y8821429D02*
X3857142Y10321429D01*
X3857142Y9607143D02*
X4714285Y9607143D01*
X4714285Y8821429D02*
X4714285Y10321429D01*
X5357142Y10178572D02*
X5428571Y10250000D01*
X5571428Y10321429D01*
X5928571Y10321429D01*
X6071428Y10250000D01*
X6142857Y10178572D01*
X6214285Y10035715D01*
X6214285Y9892858D01*
X6142857Y9678572D01*
X5285714Y8821429D01*
X6214285Y8821429D01*
%TO.C,H1*%
X7407142Y87671429D02*
X7407142Y89171429D01*
X7407142Y88457143D02*
X8264285Y88457143D01*
X8264285Y87671429D02*
X8264285Y89171429D01*
X9764285Y87671429D02*
X8907142Y87671429D01*
X9335714Y87671429D02*
X9335714Y89171429D01*
X9192857Y88957143D01*
X9050000Y88814286D01*
X8907142Y88742858D01*
%TO.C,RS6*%
X49507142Y31547620D02*
X49173809Y32023810D01*
X48935714Y31547620D02*
X48935714Y32547620D01*
X49316666Y32547620D01*
X49411904Y32500000D01*
X49459523Y32452381D01*
X49507142Y32357143D01*
X49507142Y32214286D01*
X49459523Y32119048D01*
X49411904Y32071429D01*
X49316666Y32023810D01*
X48935714Y32023810D01*
X49888095Y31595239D02*
X50030952Y31547620D01*
X50269047Y31547620D01*
X50364285Y31595239D01*
X50411904Y31642858D01*
X50459523Y31738096D01*
X50459523Y31833334D01*
X50411904Y31928572D01*
X50364285Y31976191D01*
X50269047Y32023810D01*
X50078571Y32071429D01*
X49983333Y32119048D01*
X49935714Y32166667D01*
X49888095Y32261905D01*
X49888095Y32357143D01*
X49935714Y32452381D01*
X49983333Y32500000D01*
X50078571Y32547620D01*
X50316666Y32547620D01*
X50459523Y32500000D01*
X51316666Y32547620D02*
X51126190Y32547620D01*
X51030952Y32500000D01*
X50983333Y32452381D01*
X50888095Y32309524D01*
X50840476Y32119048D01*
X50840476Y31738096D01*
X50888095Y31642858D01*
X50935714Y31595239D01*
X51030952Y31547620D01*
X51221428Y31547620D01*
X51316666Y31595239D01*
X51364285Y31642858D01*
X51411904Y31738096D01*
X51411904Y31976191D01*
X51364285Y32071429D01*
X51316666Y32119048D01*
X51221428Y32166667D01*
X51030952Y32166667D01*
X50935714Y32119048D01*
X50888095Y32071429D01*
X50840476Y31976191D01*
%TO.C,QD2*%
X37654761Y51752381D02*
X37559523Y51800000D01*
X37464285Y51895239D01*
X37321428Y52038096D01*
X37226190Y52085715D01*
X37130952Y52085715D01*
X37178571Y51847620D02*
X37083333Y51895239D01*
X36988095Y51990477D01*
X36940476Y52180953D01*
X36940476Y52514286D01*
X36988095Y52704762D01*
X37083333Y52800000D01*
X37178571Y52847620D01*
X37369047Y52847620D01*
X37464285Y52800000D01*
X37559523Y52704762D01*
X37607142Y52514286D01*
X37607142Y52180953D01*
X37559523Y51990477D01*
X37464285Y51895239D01*
X37369047Y51847620D01*
X37178571Y51847620D01*
X38035714Y51847620D02*
X38035714Y52847620D01*
X38273809Y52847620D01*
X38416666Y52800000D01*
X38511904Y52704762D01*
X38559523Y52609524D01*
X38607142Y52419048D01*
X38607142Y52276191D01*
X38559523Y52085715D01*
X38511904Y51990477D01*
X38416666Y51895239D01*
X38273809Y51847620D01*
X38035714Y51847620D01*
X38988095Y52752381D02*
X39035714Y52800000D01*
X39130952Y52847620D01*
X39369047Y52847620D01*
X39464285Y52800000D01*
X39511904Y52752381D01*
X39559523Y52657143D01*
X39559523Y52561905D01*
X39511904Y52419048D01*
X38940476Y51847620D01*
X39559523Y51847620D01*
%TO.C,QD1*%
X37654761Y55202381D02*
X37559523Y55250000D01*
X37464285Y55345239D01*
X37321428Y55488096D01*
X37226190Y55535715D01*
X37130952Y55535715D01*
X37178571Y55297620D02*
X37083333Y55345239D01*
X36988095Y55440477D01*
X36940476Y55630953D01*
X36940476Y55964286D01*
X36988095Y56154762D01*
X37083333Y56250000D01*
X37178571Y56297620D01*
X37369047Y56297620D01*
X37464285Y56250000D01*
X37559523Y56154762D01*
X37607142Y55964286D01*
X37607142Y55630953D01*
X37559523Y55440477D01*
X37464285Y55345239D01*
X37369047Y55297620D01*
X37178571Y55297620D01*
X38035714Y55297620D02*
X38035714Y56297620D01*
X38273809Y56297620D01*
X38416666Y56250000D01*
X38511904Y56154762D01*
X38559523Y56059524D01*
X38607142Y55869048D01*
X38607142Y55726191D01*
X38559523Y55535715D01*
X38511904Y55440477D01*
X38416666Y55345239D01*
X38273809Y55297620D01*
X38035714Y55297620D01*
X39559523Y55297620D02*
X38988095Y55297620D01*
X39273809Y55297620D02*
X39273809Y56297620D01*
X39178571Y56154762D01*
X39083333Y56059524D01*
X38988095Y56011905D01*
%TO.C,C1*%
X45383333Y70102858D02*
X45335714Y70055239D01*
X45192857Y70007620D01*
X45097619Y70007620D01*
X44954761Y70055239D01*
X44859523Y70150477D01*
X44811904Y70245715D01*
X44764285Y70436191D01*
X44764285Y70579048D01*
X44811904Y70769524D01*
X44859523Y70864762D01*
X44954761Y70960000D01*
X45097619Y71007620D01*
X45192857Y71007620D01*
X45335714Y70960000D01*
X45383333Y70912381D01*
X46335714Y70007620D02*
X45764285Y70007620D01*
X46050000Y70007620D02*
X46050000Y71007620D01*
X45954761Y70864762D01*
X45859523Y70769524D01*
X45764285Y70721905D01*
%TO.C,JL1*%
X44511904Y79697620D02*
X44511904Y78983334D01*
X44464285Y78840477D01*
X44369047Y78745239D01*
X44226190Y78697620D01*
X44130952Y78697620D01*
X45464285Y78697620D02*
X44988095Y78697620D01*
X44988095Y79697620D01*
X46321428Y78697620D02*
X45750000Y78697620D01*
X46035714Y78697620D02*
X46035714Y79697620D01*
X45940476Y79554762D01*
X45845238Y79459524D01*
X45750000Y79411905D01*
%TO.C,QD6*%
X27154761Y25702381D02*
X27059523Y25750000D01*
X26964285Y25845239D01*
X26821428Y25988096D01*
X26726190Y26035715D01*
X26630952Y26035715D01*
X26678571Y25797620D02*
X26583333Y25845239D01*
X26488095Y25940477D01*
X26440476Y26130953D01*
X26440476Y26464286D01*
X26488095Y26654762D01*
X26583333Y26750000D01*
X26678571Y26797620D01*
X26869047Y26797620D01*
X26964285Y26750000D01*
X27059523Y26654762D01*
X27107142Y26464286D01*
X27107142Y26130953D01*
X27059523Y25940477D01*
X26964285Y25845239D01*
X26869047Y25797620D01*
X26678571Y25797620D01*
X27535714Y25797620D02*
X27535714Y26797620D01*
X27773809Y26797620D01*
X27916666Y26750000D01*
X28011904Y26654762D01*
X28059523Y26559524D01*
X28107142Y26369048D01*
X28107142Y26226191D01*
X28059523Y26035715D01*
X28011904Y25940477D01*
X27916666Y25845239D01*
X27773809Y25797620D01*
X27535714Y25797620D01*
X28964285Y26797620D02*
X28773809Y26797620D01*
X28678571Y26750000D01*
X28630952Y26702381D01*
X28535714Y26559524D01*
X28488095Y26369048D01*
X28488095Y25988096D01*
X28535714Y25892858D01*
X28583333Y25845239D01*
X28678571Y25797620D01*
X28869047Y25797620D01*
X28964285Y25845239D01*
X29011904Y25892858D01*
X29059523Y25988096D01*
X29059523Y26226191D01*
X29011904Y26321429D01*
X28964285Y26369048D01*
X28869047Y26416667D01*
X28678571Y26416667D01*
X28583333Y26369048D01*
X28535714Y26321429D01*
X28488095Y26226191D01*
%TO.C,Q1*%
X45630952Y62525477D02*
X45511904Y62585000D01*
X45392857Y62704048D01*
X45214285Y62882620D01*
X45095238Y62942143D01*
X44976190Y62942143D01*
X45035714Y62644524D02*
X44916666Y62704048D01*
X44797619Y62823096D01*
X44738095Y63061191D01*
X44738095Y63477858D01*
X44797619Y63715953D01*
X44916666Y63835000D01*
X45035714Y63894524D01*
X45273809Y63894524D01*
X45392857Y63835000D01*
X45511904Y63715953D01*
X45571428Y63477858D01*
X45571428Y63061191D01*
X45511904Y62823096D01*
X45392857Y62704048D01*
X45273809Y62644524D01*
X45035714Y62644524D01*
X46761904Y62644524D02*
X46047619Y62644524D01*
X46404761Y62644524D02*
X46404761Y63894524D01*
X46285714Y63715953D01*
X46166666Y63596905D01*
X46047619Y63537381D01*
%TO.C,RS8*%
X49507142Y34087620D02*
X49173809Y34563810D01*
X48935714Y34087620D02*
X48935714Y35087620D01*
X49316666Y35087620D01*
X49411904Y35040000D01*
X49459523Y34992381D01*
X49507142Y34897143D01*
X49507142Y34754286D01*
X49459523Y34659048D01*
X49411904Y34611429D01*
X49316666Y34563810D01*
X48935714Y34563810D01*
X49888095Y34135239D02*
X50030952Y34087620D01*
X50269047Y34087620D01*
X50364285Y34135239D01*
X50411904Y34182858D01*
X50459523Y34278096D01*
X50459523Y34373334D01*
X50411904Y34468572D01*
X50364285Y34516191D01*
X50269047Y34563810D01*
X50078571Y34611429D01*
X49983333Y34659048D01*
X49935714Y34706667D01*
X49888095Y34801905D01*
X49888095Y34897143D01*
X49935714Y34992381D01*
X49983333Y35040000D01*
X50078571Y35087620D01*
X50316666Y35087620D01*
X50459523Y35040000D01*
X51030952Y34659048D02*
X50935714Y34706667D01*
X50888095Y34754286D01*
X50840476Y34849524D01*
X50840476Y34897143D01*
X50888095Y34992381D01*
X50935714Y35040000D01*
X51030952Y35087620D01*
X51221428Y35087620D01*
X51316666Y35040000D01*
X51364285Y34992381D01*
X51411904Y34897143D01*
X51411904Y34849524D01*
X51364285Y34754286D01*
X51316666Y34706667D01*
X51221428Y34659048D01*
X51030952Y34659048D01*
X50935714Y34611429D01*
X50888095Y34563810D01*
X50840476Y34468572D01*
X50840476Y34278096D01*
X50888095Y34182858D01*
X50935714Y34135239D01*
X51030952Y34087620D01*
X51221428Y34087620D01*
X51316666Y34135239D01*
X51364285Y34182858D01*
X51411904Y34278096D01*
X51411904Y34468572D01*
X51364285Y34563810D01*
X51316666Y34611429D01*
X51221428Y34659048D01*
%TO.C,RS3*%
X49507142Y56277620D02*
X49173809Y56753810D01*
X48935714Y56277620D02*
X48935714Y57277620D01*
X49316666Y57277620D01*
X49411904Y57230000D01*
X49459523Y57182381D01*
X49507142Y57087143D01*
X49507142Y56944286D01*
X49459523Y56849048D01*
X49411904Y56801429D01*
X49316666Y56753810D01*
X48935714Y56753810D01*
X49888095Y56325239D02*
X50030952Y56277620D01*
X50269047Y56277620D01*
X50364285Y56325239D01*
X50411904Y56372858D01*
X50459523Y56468096D01*
X50459523Y56563334D01*
X50411904Y56658572D01*
X50364285Y56706191D01*
X50269047Y56753810D01*
X50078571Y56801429D01*
X49983333Y56849048D01*
X49935714Y56896667D01*
X49888095Y56991905D01*
X49888095Y57087143D01*
X49935714Y57182381D01*
X49983333Y57230000D01*
X50078571Y57277620D01*
X50316666Y57277620D01*
X50459523Y57230000D01*
X50792857Y57277620D02*
X51411904Y57277620D01*
X51078571Y56896667D01*
X51221428Y56896667D01*
X51316666Y56849048D01*
X51364285Y56801429D01*
X51411904Y56706191D01*
X51411904Y56468096D01*
X51364285Y56372858D01*
X51316666Y56325239D01*
X51221428Y56277620D01*
X50935714Y56277620D01*
X50840476Y56325239D01*
X50792857Y56372858D01*
%TO.C,QD4*%
X37654761Y44852381D02*
X37559523Y44900000D01*
X37464285Y44995239D01*
X37321428Y45138096D01*
X37226190Y45185715D01*
X37130952Y45185715D01*
X37178571Y44947620D02*
X37083333Y44995239D01*
X36988095Y45090477D01*
X36940476Y45280953D01*
X36940476Y45614286D01*
X36988095Y45804762D01*
X37083333Y45900000D01*
X37178571Y45947620D01*
X37369047Y45947620D01*
X37464285Y45900000D01*
X37559523Y45804762D01*
X37607142Y45614286D01*
X37607142Y45280953D01*
X37559523Y45090477D01*
X37464285Y44995239D01*
X37369047Y44947620D01*
X37178571Y44947620D01*
X38035714Y44947620D02*
X38035714Y45947620D01*
X38273809Y45947620D01*
X38416666Y45900000D01*
X38511904Y45804762D01*
X38559523Y45709524D01*
X38607142Y45519048D01*
X38607142Y45376191D01*
X38559523Y45185715D01*
X38511904Y45090477D01*
X38416666Y44995239D01*
X38273809Y44947620D01*
X38035714Y44947620D01*
X39464285Y45614286D02*
X39464285Y44947620D01*
X39226190Y45995239D02*
X38988095Y45280953D01*
X39607142Y45280953D01*
%TO.C,ZD1*%
X52490476Y71147620D02*
X53157142Y71147620D01*
X52490476Y70147620D01*
X53157142Y70147620D01*
X53538095Y70147620D02*
X53538095Y71147620D01*
X53776190Y71147620D01*
X53919047Y71100000D01*
X54014285Y71004762D01*
X54061904Y70909524D01*
X54109523Y70719048D01*
X54109523Y70576191D01*
X54061904Y70385715D01*
X54014285Y70290477D01*
X53919047Y70195239D01*
X53776190Y70147620D01*
X53538095Y70147620D01*
X55061904Y70147620D02*
X54490476Y70147620D01*
X54776190Y70147620D02*
X54776190Y71147620D01*
X54680952Y71004762D01*
X54585714Y70909524D01*
X54490476Y70861905D01*
%TO.C,LP1*%
X45133333Y80947620D02*
X44657142Y80947620D01*
X44657142Y81947620D01*
X45466666Y80947620D02*
X45466666Y81947620D01*
X45847619Y81947620D01*
X45942857Y81900000D01*
X45990476Y81852381D01*
X46038095Y81757143D01*
X46038095Y81614286D01*
X45990476Y81519048D01*
X45942857Y81471429D01*
X45847619Y81423810D01*
X45466666Y81423810D01*
X46990476Y80947620D02*
X46419047Y80947620D01*
X46704761Y80947620D02*
X46704761Y81947620D01*
X46609523Y81804762D01*
X46514285Y81709524D01*
X46419047Y81661905D01*
%TO.C,JCNTL1*%
X54557142Y63297620D02*
X54557142Y62583334D01*
X54509523Y62440477D01*
X54414285Y62345239D01*
X54271428Y62297620D01*
X54176190Y62297620D01*
X55604761Y62392858D02*
X55557142Y62345239D01*
X55414285Y62297620D01*
X55319047Y62297620D01*
X55176190Y62345239D01*
X55080952Y62440477D01*
X55033333Y62535715D01*
X54985714Y62726191D01*
X54985714Y62869048D01*
X55033333Y63059524D01*
X55080952Y63154762D01*
X55176190Y63250000D01*
X55319047Y63297620D01*
X55414285Y63297620D01*
X55557142Y63250000D01*
X55604761Y63202381D01*
X56033333Y62297620D02*
X56033333Y63297620D01*
X56604761Y62297620D01*
X56604761Y63297620D01*
X56938095Y63297620D02*
X57509523Y63297620D01*
X57223809Y62297620D02*
X57223809Y63297620D01*
X58319047Y62297620D02*
X57842857Y62297620D01*
X57842857Y63297620D01*
X59176190Y62297620D02*
X58604761Y62297620D01*
X58890476Y62297620D02*
X58890476Y63297620D01*
X58795238Y63154762D01*
X58700000Y63059524D01*
X58604761Y63011905D01*
%TO.C,H3*%
X54057142Y44321429D02*
X54057142Y45821429D01*
X54057142Y45107143D02*
X54914285Y45107143D01*
X54914285Y44321429D02*
X54914285Y45821429D01*
X55485714Y45821429D02*
X56414285Y45821429D01*
X55914285Y45250000D01*
X56128571Y45250000D01*
X56271428Y45178572D01*
X56342857Y45107143D01*
X56414285Y44964286D01*
X56414285Y44607143D01*
X56342857Y44464286D01*
X56271428Y44392858D01*
X56128571Y44321429D01*
X55700000Y44321429D01*
X55557142Y44392858D01*
X55485714Y44464286D01*
%TO.C,QD3*%
X37654761Y48302381D02*
X37559523Y48350000D01*
X37464285Y48445239D01*
X37321428Y48588096D01*
X37226190Y48635715D01*
X37130952Y48635715D01*
X37178571Y48397620D02*
X37083333Y48445239D01*
X36988095Y48540477D01*
X36940476Y48730953D01*
X36940476Y49064286D01*
X36988095Y49254762D01*
X37083333Y49350000D01*
X37178571Y49397620D01*
X37369047Y49397620D01*
X37464285Y49350000D01*
X37559523Y49254762D01*
X37607142Y49064286D01*
X37607142Y48730953D01*
X37559523Y48540477D01*
X37464285Y48445239D01*
X37369047Y48397620D01*
X37178571Y48397620D01*
X38035714Y48397620D02*
X38035714Y49397620D01*
X38273809Y49397620D01*
X38416666Y49350000D01*
X38511904Y49254762D01*
X38559523Y49159524D01*
X38607142Y48969048D01*
X38607142Y48826191D01*
X38559523Y48635715D01*
X38511904Y48540477D01*
X38416666Y48445239D01*
X38273809Y48397620D01*
X38035714Y48397620D01*
X38940476Y49397620D02*
X39559523Y49397620D01*
X39226190Y49016667D01*
X39369047Y49016667D01*
X39464285Y48969048D01*
X39511904Y48921429D01*
X39559523Y48826191D01*
X39559523Y48588096D01*
X39511904Y48492858D01*
X39464285Y48445239D01*
X39369047Y48397620D01*
X39083333Y48397620D01*
X38988095Y48445239D01*
X38940476Y48492858D01*
%TO.C,QD5*%
X27154761Y22252381D02*
X27059523Y22300000D01*
X26964285Y22395239D01*
X26821428Y22538096D01*
X26726190Y22585715D01*
X26630952Y22585715D01*
X26678571Y22347620D02*
X26583333Y22395239D01*
X26488095Y22490477D01*
X26440476Y22680953D01*
X26440476Y23014286D01*
X26488095Y23204762D01*
X26583333Y23300000D01*
X26678571Y23347620D01*
X26869047Y23347620D01*
X26964285Y23300000D01*
X27059523Y23204762D01*
X27107142Y23014286D01*
X27107142Y22680953D01*
X27059523Y22490477D01*
X26964285Y22395239D01*
X26869047Y22347620D01*
X26678571Y22347620D01*
X27535714Y22347620D02*
X27535714Y23347620D01*
X27773809Y23347620D01*
X27916666Y23300000D01*
X28011904Y23204762D01*
X28059523Y23109524D01*
X28107142Y22919048D01*
X28107142Y22776191D01*
X28059523Y22585715D01*
X28011904Y22490477D01*
X27916666Y22395239D01*
X27773809Y22347620D01*
X27535714Y22347620D01*
X29011904Y23347620D02*
X28535714Y23347620D01*
X28488095Y22871429D01*
X28535714Y22919048D01*
X28630952Y22966667D01*
X28869047Y22966667D01*
X28964285Y22919048D01*
X29011904Y22871429D01*
X29059523Y22776191D01*
X29059523Y22538096D01*
X29011904Y22442858D01*
X28964285Y22395239D01*
X28869047Y22347620D01*
X28630952Y22347620D01*
X28535714Y22395239D01*
X28488095Y22442858D01*
%TO.C,JP1*%
X37666666Y77497620D02*
X37666666Y76783334D01*
X37619047Y76640477D01*
X37523809Y76545239D01*
X37380952Y76497620D01*
X37285714Y76497620D01*
X38142857Y76497620D02*
X38142857Y77497620D01*
X38523809Y77497620D01*
X38619047Y77450000D01*
X38666666Y77402381D01*
X38714285Y77307143D01*
X38714285Y77164286D01*
X38666666Y77069048D01*
X38619047Y77021429D01*
X38523809Y76973810D01*
X38142857Y76973810D01*
X39666666Y76497620D02*
X39095238Y76497620D01*
X39380952Y76497620D02*
X39380952Y77497620D01*
X39285714Y77354762D01*
X39190476Y77259524D01*
X39095238Y77211905D01*
%TO.C,U1*%
X32138095Y40647620D02*
X32138095Y39838096D01*
X32185714Y39742858D01*
X32233333Y39695239D01*
X32328571Y39647620D01*
X32519047Y39647620D01*
X32614285Y39695239D01*
X32661904Y39742858D01*
X32709523Y39838096D01*
X32709523Y40647620D01*
X33709523Y39647620D02*
X33138095Y39647620D01*
X33423809Y39647620D02*
X33423809Y40647620D01*
X33328571Y40504762D01*
X33233333Y40409524D01*
X33138095Y40361905D01*
%TO.C,QD7*%
X27154761Y29152381D02*
X27059523Y29200000D01*
X26964285Y29295239D01*
X26821428Y29438096D01*
X26726190Y29485715D01*
X26630952Y29485715D01*
X26678571Y29247620D02*
X26583333Y29295239D01*
X26488095Y29390477D01*
X26440476Y29580953D01*
X26440476Y29914286D01*
X26488095Y30104762D01*
X26583333Y30200000D01*
X26678571Y30247620D01*
X26869047Y30247620D01*
X26964285Y30200000D01*
X27059523Y30104762D01*
X27107142Y29914286D01*
X27107142Y29580953D01*
X27059523Y29390477D01*
X26964285Y29295239D01*
X26869047Y29247620D01*
X26678571Y29247620D01*
X27535714Y29247620D02*
X27535714Y30247620D01*
X27773809Y30247620D01*
X27916666Y30200000D01*
X28011904Y30104762D01*
X28059523Y30009524D01*
X28107142Y29819048D01*
X28107142Y29676191D01*
X28059523Y29485715D01*
X28011904Y29390477D01*
X27916666Y29295239D01*
X27773809Y29247620D01*
X27535714Y29247620D01*
X28440476Y30247620D02*
X29107142Y30247620D01*
X28678571Y29247620D01*
D14*
%TO.C,REG1*%
X43850000Y64100000D02*
X37350000Y64100000D01*
X43850000Y67600000D02*
X43850000Y64100000D01*
X43725000Y69875000D02*
X43725000Y68125000D01*
X37350000Y67600000D02*
X43850000Y67600000D01*
X37350000Y64100000D02*
X37350000Y67600000D01*
D15*
%TO.C,JS2*%
X51305000Y44315000D02*
X51305000Y43440000D01*
X52608276Y44315000D02*
X52695000Y44315000D01*
X52394493Y43440000D02*
X52695000Y43440000D01*
X52695000Y44315000D02*
X52695000Y43440000D01*
X51305000Y45685000D02*
X52000000Y45685000D01*
X51305000Y45000000D02*
X51305000Y45685000D01*
X51305000Y44315000D02*
X51391724Y44315000D01*
X51305000Y43440000D02*
X51605507Y43440000D01*
%TO.C,RS4*%
X49737258Y55982500D02*
X49262742Y55982500D01*
X49737258Y54937500D02*
X49262742Y54937500D01*
%TO.C,RS7*%
X49262742Y33792500D02*
X49737258Y33792500D01*
X49262742Y32747500D02*
X49737258Y32747500D01*
%TO.C,QD8*%
X25500000Y30440000D02*
X24850000Y30440000D01*
X25500000Y33560000D02*
X26150000Y33560000D01*
X25500000Y30440000D02*
X26150000Y30440000D01*
X25500000Y33560000D02*
X23825000Y33560000D01*
D14*
%TO.C,JCNTL2*%
X58870000Y38350000D02*
G75*
G03*
X58870000Y38350000I-100000J0D01*
G01*
X59405000Y38350000D02*
X64735000Y38350000D01*
X64735000Y25650000D02*
X59405000Y25650000D01*
X59405000Y25650000D02*
X59405000Y38350000D01*
X64735000Y25650000D02*
X64735000Y38350000D01*
D15*
%TO.C,RS1*%
X52762742Y59792500D02*
X53237258Y59792500D01*
X52762742Y58747500D02*
X53237258Y58747500D01*
%TO.C,OSHW_Mono_0.1_Scale*%
G36*
X22817077Y13466762D02*
G01*
X22856985Y13462352D01*
X22898216Y13455004D01*
X22940843Y13445155D01*
X22984941Y13432366D01*
X23030508Y13416639D01*
X23030508Y13281040D01*
X22989865Y13304925D01*
X22949075Y13324549D01*
X22908138Y13339910D01*
X22867422Y13350933D01*
X22826411Y13357548D01*
X22785107Y13359754D01*
X22726458Y13354829D01*
X22676628Y13340056D01*
X22635617Y13315436D01*
X22605117Y13282877D01*
X22586816Y13243410D01*
X22580716Y13197035D01*
X22589646Y13139322D01*
X22616435Y13097154D01*
X22647597Y13075473D01*
X22692576Y13056291D01*
X22751373Y13039608D01*
X22821487Y13023733D01*
X22874033Y13009286D01*
X22920547Y12991877D01*
X22961028Y12971504D01*
X22995477Y12948168D01*
X23023894Y12921868D01*
X23051674Y12883999D01*
X23071518Y12839847D01*
X23083424Y12789411D01*
X23087394Y12732691D01*
X23083901Y12679007D01*
X23073423Y12630668D01*
X23055961Y12587673D01*
X23031513Y12550023D01*
X23000081Y12517717D01*
X22961981Y12491047D01*
X22917531Y12470304D01*
X22866731Y12455487D01*
X22809581Y12446597D01*
X22746081Y12443634D01*
X22699705Y12445324D01*
X22653183Y12450395D01*
X22606513Y12458847D01*
X22559697Y12470239D01*
X22512733Y12485012D01*
X22465623Y12503165D01*
X22465623Y12645379D01*
X22515379Y12616054D01*
X22563224Y12592462D01*
X22609159Y12574603D01*
X22654653Y12562108D01*
X22700293Y12554612D01*
X22746081Y12552113D01*
X22793871Y12554924D01*
X22836039Y12563358D01*
X22872585Y12577414D01*
X22903508Y12597092D01*
X22934743Y12631488D01*
X22953485Y12673821D01*
X22959732Y12724092D01*
X22955396Y12769585D01*
X22942387Y12807289D01*
X22920706Y12837202D01*
X22888735Y12861234D01*
X22843977Y12881298D01*
X22786430Y12897394D01*
X22714992Y12913931D01*
X22662975Y12927636D01*
X22616991Y12943881D01*
X22577039Y12962667D01*
X22543119Y12983992D01*
X22515232Y13007858D01*
X22488030Y13041964D01*
X22468599Y13081444D01*
X22456941Y13126300D01*
X22453055Y13176529D01*
X22456600Y13227329D01*
X22467237Y13273896D01*
X22484964Y13316229D01*
X22509782Y13354329D01*
X22541691Y13388196D01*
X22579737Y13417009D01*
X22622441Y13439419D01*
X22669801Y13455426D01*
X22721819Y13465031D01*
X22778492Y13468233D01*
X22817077Y13466762D01*
G37*
D16*
X22817077Y13466762D02*
X22856985Y13462352D01*
X22898216Y13455004D01*
X22940843Y13445155D01*
X22984941Y13432366D01*
X23030508Y13416639D01*
X23030508Y13281040D01*
X22989865Y13304925D01*
X22949075Y13324549D01*
X22908138Y13339910D01*
X22867422Y13350933D01*
X22826411Y13357548D01*
X22785107Y13359754D01*
X22726458Y13354829D01*
X22676628Y13340056D01*
X22635617Y13315436D01*
X22605117Y13282877D01*
X22586816Y13243410D01*
X22580716Y13197035D01*
X22589646Y13139322D01*
X22616435Y13097154D01*
X22647597Y13075473D01*
X22692576Y13056291D01*
X22751373Y13039608D01*
X22821487Y13023733D01*
X22874033Y13009286D01*
X22920547Y12991877D01*
X22961028Y12971504D01*
X22995477Y12948168D01*
X23023894Y12921868D01*
X23051674Y12883999D01*
X23071518Y12839847D01*
X23083424Y12789411D01*
X23087394Y12732691D01*
X23083901Y12679007D01*
X23073423Y12630668D01*
X23055961Y12587673D01*
X23031513Y12550023D01*
X23000081Y12517717D01*
X22961981Y12491047D01*
X22917531Y12470304D01*
X22866731Y12455487D01*
X22809581Y12446597D01*
X22746081Y12443634D01*
X22699705Y12445324D01*
X22653183Y12450395D01*
X22606513Y12458847D01*
X22559697Y12470239D01*
X22512733Y12485012D01*
X22465623Y12503165D01*
X22465623Y12645379D01*
X22515379Y12616054D01*
X22563224Y12592462D01*
X22609159Y12574603D01*
X22654653Y12562108D01*
X22700293Y12554612D01*
X22746081Y12552113D01*
X22793871Y12554924D01*
X22836039Y12563358D01*
X22872585Y12577414D01*
X22903508Y12597092D01*
X22934743Y12631488D01*
X22953485Y12673821D01*
X22959732Y12724092D01*
X22955396Y12769585D01*
X22942387Y12807289D01*
X22920706Y12837202D01*
X22888735Y12861234D01*
X22843977Y12881298D01*
X22786430Y12897394D01*
X22714992Y12913931D01*
X22662975Y12927636D01*
X22616991Y12943881D01*
X22577039Y12962667D01*
X22543119Y12983992D01*
X22515232Y13007858D01*
X22488030Y13041964D01*
X22468599Y13081444D01*
X22456941Y13126300D01*
X22453055Y13176529D01*
X22456600Y13227329D01*
X22467237Y13273896D01*
X22484964Y13316229D01*
X22509782Y13354329D01*
X22541691Y13388196D01*
X22579737Y13417009D01*
X22622441Y13439419D01*
X22669801Y13455426D01*
X22721819Y13465031D01*
X22778492Y13468233D01*
X22817077Y13466762D01*
G36*
X22279256Y12834804D02*
G01*
X22272848Y12780543D01*
X22263877Y12730376D01*
X22252343Y12684301D01*
X22238246Y12642319D01*
X22221586Y12604430D01*
X22202362Y12570634D01*
X22172854Y12531828D01*
X22138568Y12500078D01*
X22099505Y12475384D01*
X22055665Y12457745D01*
X22007048Y12447161D01*
X21953654Y12443634D01*
X21900259Y12447143D01*
X21851642Y12457671D01*
X21807802Y12475218D01*
X21768739Y12499784D01*
X21734454Y12531369D01*
X21704946Y12569972D01*
X21685877Y12603634D01*
X21669351Y12641451D01*
X21655367Y12683423D01*
X21643926Y12729549D01*
X21635027Y12779830D01*
X21628671Y12834266D01*
X21624858Y12892857D01*
X21623586Y12955603D01*
X21763154Y12955603D01*
X21764385Y12886719D01*
X21768078Y12824707D01*
X21774233Y12769567D01*
X21782851Y12721299D01*
X21793930Y12679903D01*
X21807472Y12645379D01*
X21833475Y12604575D01*
X21866507Y12575429D01*
X21906566Y12557942D01*
X21953654Y12552113D01*
X22000989Y12557901D01*
X22041131Y12575264D01*
X22074080Y12604203D01*
X22099836Y12644717D01*
X22113580Y12679260D01*
X22124824Y12720711D01*
X22133570Y12769071D01*
X22139817Y12824340D01*
X22143566Y12886517D01*
X22144816Y12955603D01*
X22143566Y13024688D01*
X22139817Y13086865D01*
X22133570Y13142133D01*
X22124824Y13190493D01*
X22113580Y13231945D01*
X22099836Y13266488D01*
X22074080Y13307291D01*
X22041131Y13336436D01*
X22000989Y13353924D01*
X21953654Y13359754D01*
X21906566Y13353924D01*
X21866507Y13336436D01*
X21833475Y13307291D01*
X21807472Y13266488D01*
X21793930Y13231945D01*
X21782851Y13190493D01*
X21774233Y13142133D01*
X21768078Y13086865D01*
X21764385Y13024688D01*
X21763154Y12955603D01*
X21623586Y12955603D01*
X21624858Y13018203D01*
X21628671Y13076690D01*
X21635027Y13131064D01*
X21643926Y13181325D01*
X21655367Y13227472D01*
X21669351Y13269505D01*
X21685877Y13307426D01*
X21704946Y13341233D01*
X21734638Y13380038D01*
X21769033Y13411788D01*
X21808133Y13436482D01*
X21851936Y13454121D01*
X21900443Y13464704D01*
X21953654Y13468233D01*
X22007048Y13464704D01*
X22055665Y13454121D01*
X22099505Y13436482D01*
X22138568Y13411788D01*
X22172854Y13380038D01*
X22202362Y13341233D01*
X22221586Y13307426D01*
X22238246Y13269505D01*
X22252343Y13227472D01*
X22263877Y13181325D01*
X22272848Y13131064D01*
X22279256Y13076690D01*
X22283101Y13018203D01*
X22284383Y12955603D01*
X22283101Y12893157D01*
X22279256Y12834804D01*
G37*
X22279256Y12834804D02*
X22272848Y12780543D01*
X22263877Y12730376D01*
X22252343Y12684301D01*
X22238246Y12642319D01*
X22221586Y12604430D01*
X22202362Y12570634D01*
X22172854Y12531828D01*
X22138568Y12500078D01*
X22099505Y12475384D01*
X22055665Y12457745D01*
X22007048Y12447161D01*
X21953654Y12443634D01*
X21900259Y12447143D01*
X21851642Y12457671D01*
X21807802Y12475218D01*
X21768739Y12499784D01*
X21734454Y12531369D01*
X21704946Y12569972D01*
X21685877Y12603634D01*
X21669351Y12641451D01*
X21655367Y12683423D01*
X21643926Y12729549D01*
X21635027Y12779830D01*
X21628671Y12834266D01*
X21624858Y12892857D01*
X21623586Y12955603D01*
X21763154Y12955603D01*
X21764385Y12886719D01*
X21768078Y12824707D01*
X21774233Y12769567D01*
X21782851Y12721299D01*
X21793930Y12679903D01*
X21807472Y12645379D01*
X21833475Y12604575D01*
X21866507Y12575429D01*
X21906566Y12557942D01*
X21953654Y12552113D01*
X22000989Y12557901D01*
X22041131Y12575264D01*
X22074080Y12604203D01*
X22099836Y12644717D01*
X22113580Y12679260D01*
X22124824Y12720711D01*
X22133570Y12769071D01*
X22139817Y12824340D01*
X22143566Y12886517D01*
X22144816Y12955603D01*
X22143566Y13024688D01*
X22139817Y13086865D01*
X22133570Y13142133D01*
X22124824Y13190493D01*
X22113580Y13231945D01*
X22099836Y13266488D01*
X22074080Y13307291D01*
X22041131Y13336436D01*
X22000989Y13353924D01*
X21953654Y13359754D01*
X21906566Y13353924D01*
X21866507Y13336436D01*
X21833475Y13307291D01*
X21807472Y13266488D01*
X21793930Y13231945D01*
X21782851Y13190493D01*
X21774233Y13142133D01*
X21768078Y13086865D01*
X21764385Y13024688D01*
X21763154Y12955603D01*
X21623586Y12955603D01*
X21624858Y13018203D01*
X21628671Y13076690D01*
X21635027Y13131064D01*
X21643926Y13181325D01*
X21655367Y13227472D01*
X21669351Y13269505D01*
X21685877Y13307426D01*
X21704946Y13341233D01*
X21734638Y13380038D01*
X21769033Y13411788D01*
X21808133Y13436482D01*
X21851936Y13454121D01*
X21900443Y13464704D01*
X21953654Y13468233D01*
X22007048Y13464704D01*
X22055665Y13454121D01*
X22099505Y13436482D01*
X22138568Y13411788D01*
X22172854Y13380038D01*
X22202362Y13341233D01*
X22221586Y13307426D01*
X22238246Y13269505D01*
X22252343Y13227472D01*
X22263877Y13181325D01*
X22272848Y13131064D01*
X22279256Y13076690D01*
X22283101Y13018203D01*
X22284383Y12955603D01*
X22283101Y12893157D01*
X22279256Y12834804D01*
G36*
X23400925Y13045561D02*
G01*
X23766711Y13045561D01*
X23766711Y13450373D01*
X23900987Y13450373D01*
X23900987Y12462816D01*
X23766711Y12462816D01*
X23766711Y12933113D01*
X23400925Y12933113D01*
X23400925Y12462816D01*
X23266649Y12462816D01*
X23266649Y13450373D01*
X23400925Y13450373D01*
X23400925Y13045561D01*
G37*
X23400925Y13045561D02*
X23766711Y13045561D01*
X23766711Y13450373D01*
X23900987Y13450373D01*
X23900987Y12462816D01*
X23766711Y12462816D01*
X23766711Y12933113D01*
X23400925Y12933113D01*
X23400925Y12462816D01*
X23266649Y12462816D01*
X23266649Y13450373D01*
X23400925Y13450373D01*
X23400925Y13045561D01*
G36*
X24592319Y13767391D02*
G01*
X21337062Y13767391D01*
X21337062Y12185182D01*
X25162938Y12185182D01*
X25166572Y13936724D01*
X25332271Y13936724D01*
X25332271Y12015849D01*
X21167729Y12015849D01*
X21167729Y13936724D01*
X24592319Y13936724D01*
X24592319Y13767391D01*
G37*
X24592319Y13767391D02*
X21337062Y13767391D01*
X21337062Y12185182D01*
X25162938Y12185182D01*
X25166572Y13936724D01*
X25332271Y13936724D01*
X25332271Y12015849D01*
X21167729Y12015849D01*
X21167729Y13936724D01*
X24592319Y13936724D01*
X24592319Y13767391D01*
G36*
X24659018Y12462816D02*
G01*
X24532680Y12462816D01*
X24398404Y13049529D01*
X24264789Y12462816D01*
X24138451Y12462816D01*
X23990946Y13450373D01*
X24121253Y13450373D01*
X24215841Y12648686D01*
X24328289Y13179175D01*
X24467857Y13179175D01*
X24581628Y12647363D01*
X24901994Y14184151D01*
X25032302Y14184151D01*
X24659018Y12462816D01*
G37*
X24659018Y12462816D02*
X24532680Y12462816D01*
X24398404Y13049529D01*
X24264789Y12462816D01*
X24138451Y12462816D01*
X23990946Y13450373D01*
X24121253Y13450373D01*
X24215841Y12648686D01*
X24328289Y13179175D01*
X24467857Y13179175D01*
X24581628Y12647363D01*
X24901994Y14184151D01*
X25032302Y14184151D01*
X24659018Y12462816D01*
D15*
%TO.C,Q2*%
X8200000Y39490000D02*
X9875000Y39490000D01*
X8200000Y39490000D02*
X7550000Y39490000D01*
X8200000Y42610000D02*
X8850000Y42610000D01*
X8200000Y42610000D02*
X7550000Y42610000D01*
%TO.C,RS5*%
X49262742Y30207500D02*
X49737258Y30207500D01*
X49262742Y31252500D02*
X49737258Y31252500D01*
%TO.C,RS2*%
X49262742Y57477500D02*
X49737258Y57477500D01*
X49262742Y58522500D02*
X49737258Y58522500D01*
%TO.C,C2*%
X38988748Y72485000D02*
X39511252Y72485000D01*
X38988748Y71015000D02*
X39511252Y71015000D01*
D17*
%TO.C,S1*%
X29490000Y1250000D02*
G75*
G03*
X29590000Y1250000I50000J0D01*
G01*
X29590000Y1250000D02*
G75*
G03*
X29490000Y1250000I-50000J0D01*
G01*
X49740000Y2760000D02*
X48142000Y2760000D01*
X49740000Y12540000D02*
X49740000Y2760000D01*
X29490000Y1250000D02*
X29490000Y1250000D01*
X28838000Y12540000D02*
X27240000Y12540000D01*
X27240000Y12540000D02*
X27240000Y2760000D01*
X27240000Y2760000D02*
X27240000Y2760000D01*
X27240000Y2760000D02*
X28838000Y2760000D01*
X48142000Y12540000D02*
X49740000Y12540000D01*
X29590000Y1250000D02*
X29590000Y1250000D01*
D11*
%TO.C,#LOGO2*%
X43501260Y20449140D02*
X43900040Y21950280D01*
X42701160Y18848940D02*
X43501260Y20449140D01*
X39101980Y22951040D02*
X39002920Y22450660D01*
X39500760Y23250760D02*
X40102740Y23951800D01*
X35401200Y23149160D02*
X35200540Y22549720D01*
X36003180Y20251020D02*
X36602620Y19849700D01*
X39500760Y20550740D02*
X40001140Y20050360D01*
X35502800Y21051120D02*
X35901580Y21051120D01*
X34700160Y18351100D02*
X35899040Y17449400D01*
X36602620Y19849700D02*
X37303660Y19651580D01*
X38500000Y27650040D02*
X37999620Y27650040D01*
X38301880Y20151960D02*
X38202820Y19849700D01*
X41502280Y24350580D02*
X41601340Y24149920D01*
X41901060Y19651580D02*
X42302380Y19750640D01*
X41100960Y19651580D02*
X41502280Y19651580D01*
X42200780Y19951300D02*
X41301620Y19849700D01*
X37999620Y27650040D02*
X37199520Y27350320D01*
X36800740Y24248980D02*
X37301120Y24449640D01*
X39701420Y20649800D02*
X39302640Y21551500D01*
X39899540Y27449380D02*
X38500000Y27550980D01*
X39302640Y21551500D02*
X39201040Y22549720D01*
X43199000Y24749360D02*
X41901060Y26349560D01*
X37603380Y20050360D02*
X38002160Y20050360D01*
X37499240Y24749360D02*
X37001400Y24647760D01*
X35799980Y23050100D02*
X35700920Y22549720D01*
X36300360Y23949260D02*
X36800740Y24248980D01*
X38200280Y24449640D02*
X38299340Y24647760D01*
X38599060Y16949020D02*
X40100200Y17050620D01*
X40102740Y23951800D02*
X40801240Y24350580D01*
X38002160Y20050360D02*
X38301880Y20151960D01*
X35200540Y22750380D02*
X35098940Y21851220D01*
X35799980Y23349820D02*
X36300360Y23850200D01*
X35799980Y26949000D02*
X35200540Y26451160D01*
X37001400Y24647760D02*
X36399420Y24348040D01*
X39500760Y22651320D02*
X39500760Y22150940D01*
X35401200Y22250000D02*
X35500260Y22849440D01*
X33300620Y20949520D02*
X33699400Y19849700D01*
X38200280Y19649040D02*
X38299340Y20149420D01*
X42200780Y20149420D02*
X42299840Y19849700D01*
X35700920Y22549720D02*
X35700920Y22049340D01*
X36600080Y23847660D02*
X36099700Y23448880D01*
X37202060Y20151960D02*
X37603380Y20050360D01*
X35500260Y21548960D02*
X35401200Y22250000D01*
X36203840Y20751400D02*
X36704220Y20350080D01*
X35601860Y20751400D02*
X36003180Y20251020D01*
X40902840Y24650300D02*
X40501520Y24452180D01*
X40501520Y24452180D02*
X40001140Y24251520D01*
X39800480Y21051120D02*
X40201800Y20550740D01*
X35098940Y21851220D02*
X35200540Y21350840D01*
X40001140Y24251520D02*
X39602360Y23850200D01*
X36099700Y23550480D02*
X35799980Y23050100D01*
X41901060Y20151960D02*
X42200780Y20251020D01*
X37603380Y19750640D02*
X36902340Y19951300D01*
X35401200Y23250760D02*
X35200540Y22750380D01*
X40001140Y20050360D02*
X40600580Y19750640D01*
X41799460Y24551240D02*
X41598800Y24248980D01*
X36399420Y24348040D02*
X35901580Y23949260D01*
X40100200Y17050620D02*
X41100960Y17551000D01*
X37798960Y19549980D02*
X38200280Y19649040D01*
X35200540Y21449900D02*
X35500260Y20850460D01*
X39101980Y21150180D02*
X39500760Y20550740D01*
X35899040Y17449400D02*
X37199520Y16949020D01*
X38299340Y24647760D02*
X37900560Y24749360D01*
X39201040Y22549720D02*
X39500760Y23250760D01*
X33199020Y23349820D02*
X33099960Y22150940D01*
X36203840Y20451680D02*
X35703460Y20952060D01*
X41502280Y19651580D02*
X41901060Y19651580D01*
X33699400Y19849700D02*
X34700160Y18351100D01*
X37303660Y19651580D02*
X37804040Y19549980D01*
X39002920Y22450660D02*
X39002920Y21752160D01*
X43699380Y23649540D02*
X43199000Y24749360D01*
X37199520Y16949020D02*
X38599060Y16949020D01*
X40600580Y19750640D02*
X41100960Y19651580D01*
X40801240Y20251020D02*
X41400680Y20151960D01*
X37199520Y27350320D02*
X36501020Y27149660D01*
X41001900Y24149920D02*
X40300860Y23850200D01*
X43900040Y21950280D02*
X43699380Y23649540D01*
X37301120Y24449640D02*
X37801500Y24449640D01*
X39302640Y23349820D02*
X39101980Y22951040D01*
X35901580Y23850200D02*
X35401200Y23149160D01*
X39800480Y23250760D02*
X39500760Y22651320D01*
X38202820Y19849700D02*
X37603380Y19750640D01*
X36501020Y27149660D02*
X35799980Y26949000D01*
X39602360Y23850200D02*
X39302640Y23349820D01*
X33498740Y24350580D02*
X33199020Y23349820D01*
X36704220Y20350080D02*
X37202060Y20151960D01*
X41400680Y20151960D02*
X41901060Y20151960D01*
X37100460Y24147380D02*
X36600080Y23847660D01*
X35200540Y21848680D02*
X35299600Y21249240D01*
X38101220Y24248980D02*
X37600840Y24248980D01*
X37900560Y24749360D02*
X37499240Y24749360D01*
X37801500Y24449640D02*
X38200280Y24449640D01*
X40801240Y24350580D02*
X41502280Y24350580D01*
X36000640Y23949260D02*
X35799980Y23850200D01*
X40900300Y27050600D02*
X39899540Y27449380D01*
X35200540Y22549720D02*
X35200540Y21848680D01*
X38301880Y19849700D02*
X38202820Y19651580D01*
X40300860Y20151960D02*
X39701420Y20649800D01*
X41601340Y24149920D02*
X41001900Y24149920D01*
X41100960Y17551000D02*
X42701160Y18848940D01*
X40300860Y23850200D02*
X39800480Y23250760D01*
X40201800Y20550740D02*
X40801240Y20251020D01*
X39500760Y22150940D02*
X39500760Y21551500D01*
X41502280Y24650300D02*
X40902840Y24650300D01*
X41499740Y24650300D02*
X41799460Y24551240D01*
X35802520Y21249240D02*
X36102240Y20850460D01*
X41901060Y26349560D02*
X40900300Y27050600D01*
X39002920Y21752160D02*
X39101980Y21150180D01*
X36902340Y19951300D02*
X36203840Y20451680D01*
X35500260Y23050100D02*
X35799980Y23550480D01*
X42302380Y19750640D02*
X42200780Y19951300D01*
X35799980Y23850200D02*
X35401200Y23250760D01*
X35700920Y20850460D02*
X35500260Y21548960D01*
X34499500Y25849180D02*
X33999120Y25249740D01*
X33099960Y22150940D02*
X33300620Y20949520D01*
X39500760Y21551500D02*
X39800480Y21051120D01*
X37600840Y24248980D02*
X37100460Y24147380D01*
X35200540Y26451160D02*
X34499500Y25849180D01*
X33999120Y25249740D02*
X33498740Y24350580D01*
X35700920Y22049340D02*
X35901580Y21249240D01*
X41301620Y19849700D02*
X40300860Y20151960D01*
X44088000Y22250000D02*
G75*
G03*
X44088000Y22250000I-5588000J0D01*
G01*
X43680604Y22250000D02*
G75*
G03*
X43680604Y22250000I-5180604J0D01*
G01*
D15*
%TO.C,RL1*%
X41427500Y75737742D02*
X41427500Y76212258D01*
X42472500Y75737742D02*
X42472500Y76212258D01*
%TO.C,RP1*%
X55115000Y67482936D02*
X55115000Y67937064D01*
X56585000Y67482936D02*
X56585000Y67937064D01*
%TO.C,RS6*%
X52762742Y32522500D02*
X53237258Y32522500D01*
X52762742Y31477500D02*
X53237258Y31477500D01*
%TO.C,QD2*%
X36000000Y49590000D02*
X35350000Y49590000D01*
X36000000Y52710000D02*
X36650000Y52710000D01*
X36000000Y49590000D02*
X36650000Y49590000D01*
X36000000Y52710000D02*
X34325000Y52710000D01*
%TO.C,QD1*%
X36000000Y56160000D02*
X34325000Y56160000D01*
X36000000Y56160000D02*
X36650000Y56160000D01*
X36000000Y53040000D02*
X35350000Y53040000D01*
X36000000Y53040000D02*
X36650000Y53040000D01*
%TO.C,C1*%
X46285000Y68311252D02*
X46285000Y67788748D01*
X44815000Y68311252D02*
X44815000Y67788748D01*
%TO.C,JL1*%
X42265000Y78541724D02*
X42265000Y78455000D01*
X42265000Y78455000D02*
X41390000Y78455000D01*
X42265000Y79845000D02*
X42265000Y79758276D01*
X41390000Y78755507D02*
X41390000Y78455000D01*
X41390000Y79845000D02*
X41390000Y79544493D01*
X42950000Y79845000D02*
X43635000Y79845000D01*
X43635000Y79845000D02*
X43635000Y79150000D01*
X42265000Y79845000D02*
X41390000Y79845000D01*
%TO.C,QD6*%
X25500000Y26660000D02*
X26150000Y26660000D01*
X25500000Y23540000D02*
X26150000Y23540000D01*
X25500000Y26660000D02*
X23825000Y26660000D01*
X25500000Y23540000D02*
X24850000Y23540000D01*
D14*
%TO.C,Q1*%
X47305000Y71730000D02*
X47305000Y61190000D01*
X47305000Y61190000D02*
X50500000Y61190000D01*
X51995000Y71730000D02*
X47305000Y71730000D01*
D15*
%TO.C,RS8*%
X52762742Y35062500D02*
X53237258Y35062500D01*
X52762742Y34017500D02*
X53237258Y34017500D01*
%TO.C,RS3*%
X52762742Y57252500D02*
X53237258Y57252500D01*
X52762742Y56207500D02*
X53237258Y56207500D01*
%TO.C,QD4*%
X36000000Y45810000D02*
X34325000Y45810000D01*
X36000000Y45810000D02*
X36650000Y45810000D01*
X36000000Y42690000D02*
X35350000Y42690000D01*
X36000000Y42690000D02*
X36650000Y42690000D01*
%TO.C,ZD1*%
X52540000Y69830000D02*
X52540000Y66150000D01*
X54560000Y69830000D02*
X54560000Y66150000D01*
X54560000Y69830000D02*
X52540000Y69830000D01*
D14*
%TO.C,LP1*%
X44350000Y80575000D02*
X44350000Y82225000D01*
X41950000Y80575000D02*
X44350000Y80575000D01*
X44350000Y82225000D02*
X41950000Y82225000D01*
%TO.C,JCNTL1*%
X58870000Y64350000D02*
G75*
G03*
X58870000Y64350000I-100000J0D01*
G01*
X64735000Y51650000D02*
X59405000Y51650000D01*
X59405000Y51650000D02*
X59405000Y64350000D01*
X64735000Y51650000D02*
X64735000Y64350000D01*
X59405000Y64350000D02*
X64735000Y64350000D01*
D15*
%TO.C,QD3*%
X36000000Y46140000D02*
X35350000Y46140000D01*
X36000000Y46140000D02*
X36650000Y46140000D01*
X36000000Y49260000D02*
X36650000Y49260000D01*
X36000000Y49260000D02*
X34325000Y49260000D01*
%TO.C,QD5*%
X25500000Y20090000D02*
X24850000Y20090000D01*
X25500000Y20090000D02*
X26150000Y20090000D01*
X25500000Y23210000D02*
X23825000Y23210000D01*
X25500000Y23210000D02*
X26150000Y23210000D01*
%TO.C,#LOGO1*%
G36*
X57890976Y19350944D02*
G01*
X58035256Y19289652D01*
X58080699Y19259815D01*
X58138779Y19213964D01*
X58175238Y19177911D01*
X58181568Y19166168D01*
X58163693Y19140111D01*
X58117950Y19095895D01*
X58081328Y19065035D01*
X57981088Y18984480D01*
X57901935Y19051082D01*
X57840769Y19094079D01*
X57781129Y19108921D01*
X57712872Y19105296D01*
X57604482Y19078348D01*
X57529872Y19022413D01*
X57484530Y18931986D01*
X57463947Y18801565D01*
X57463942Y18801483D01*
X57465722Y18655710D01*
X57493387Y18548755D01*
X57548571Y18475936D01*
X57586192Y18451277D01*
X57686105Y18420569D01*
X57792822Y18420551D01*
X57885669Y18450345D01*
X57907647Y18464902D01*
X57962765Y18502086D01*
X58005859Y18508180D01*
X58052335Y18480504D01*
X58103716Y18430795D01*
X58185046Y18346884D01*
X58094749Y18272454D01*
X57955236Y18188451D01*
X57797912Y18147053D01*
X57633503Y18150050D01*
X57525531Y18177500D01*
X57399331Y18245380D01*
X57298401Y18352169D01*
X57252548Y18427549D01*
X57215410Y18535703D01*
X57196827Y18672682D01*
X57196684Y18821136D01*
X57214865Y18963719D01*
X57251255Y19083082D01*
X57256987Y19095320D01*
X57341865Y19215345D01*
X57456782Y19302733D01*
X57592659Y19355671D01*
X57740417Y19372346D01*
X57890976Y19350944D01*
G37*
D18*
X57890976Y19350944D02*
X58035256Y19289652D01*
X58080699Y19259815D01*
X58138779Y19213964D01*
X58175238Y19177911D01*
X58181568Y19166168D01*
X58163693Y19140111D01*
X58117950Y19095895D01*
X58081328Y19065035D01*
X57981088Y18984480D01*
X57901935Y19051082D01*
X57840769Y19094079D01*
X57781129Y19108921D01*
X57712872Y19105296D01*
X57604482Y19078348D01*
X57529872Y19022413D01*
X57484530Y18931986D01*
X57463947Y18801565D01*
X57463942Y18801483D01*
X57465722Y18655710D01*
X57493387Y18548755D01*
X57548571Y18475936D01*
X57586192Y18451277D01*
X57686105Y18420569D01*
X57792822Y18420551D01*
X57885669Y18450345D01*
X57907647Y18464902D01*
X57962765Y18502086D01*
X58005859Y18508180D01*
X58052335Y18480504D01*
X58103716Y18430795D01*
X58185046Y18346884D01*
X58094749Y18272454D01*
X57955236Y18188451D01*
X57797912Y18147053D01*
X57633503Y18150050D01*
X57525531Y18177500D01*
X57399331Y18245380D01*
X57298401Y18352169D01*
X57252548Y18427549D01*
X57215410Y18535703D01*
X57196827Y18672682D01*
X57196684Y18821136D01*
X57214865Y18963719D01*
X57251255Y19083082D01*
X57256987Y19095320D01*
X57341865Y19215345D01*
X57456782Y19302733D01*
X57592659Y19355671D01*
X57740417Y19372346D01*
X57890976Y19350944D01*
G36*
X58309773Y19152289D02*
G01*
X58400878Y19262026D01*
X58515978Y19336826D01*
X58651355Y19372696D01*
X58803287Y19365645D01*
X58867051Y19350155D01*
X58989300Y19293431D01*
X59093834Y19206798D01*
X59166180Y19102926D01*
X59176119Y19079604D01*
X59189754Y19018516D01*
X59199298Y18928147D01*
X59202549Y18836810D01*
X59202549Y18664118D01*
X58841470Y18664118D01*
X58692546Y18663555D01*
X58587632Y18660136D01*
X58520937Y18651269D01*
X58486666Y18634359D01*
X58479028Y18606811D01*
X58492229Y18566032D01*
X58515877Y18518317D01*
X58581843Y18438686D01*
X58673512Y18399013D01*
X58785555Y18400305D01*
X58912472Y18443486D01*
X59022158Y18496776D01*
X59113173Y18424809D01*
X59204188Y18352843D01*
X59118563Y18273731D01*
X59004250Y18198983D01*
X58863666Y18153916D01*
X58712449Y18141304D01*
X58566236Y18163921D01*
X58542647Y18171595D01*
X58414141Y18238704D01*
X58318551Y18338753D01*
X58253861Y18474729D01*
X58218057Y18649620D01*
X58217640Y18653368D01*
X58214434Y18843968D01*
X58227393Y18911965D01*
X58480392Y18911965D01*
X58503627Y18901509D01*
X58566710Y18893500D01*
X58659706Y18888927D01*
X58718638Y18888235D01*
X58828537Y18888668D01*
X58897252Y18891422D01*
X58933405Y18898679D01*
X58945615Y18912624D01*
X58942504Y18935438D01*
X58939894Y18944265D01*
X58895344Y19027200D01*
X58825279Y19094040D01*
X58763446Y19123411D01*
X58681301Y19121638D01*
X58598062Y19085010D01*
X58528238Y19024366D01*
X58486337Y18950544D01*
X58480392Y18911965D01*
X58227393Y18911965D01*
X58246385Y19011605D01*
X58309773Y19152289D01*
G37*
X58309773Y19152289D02*
X58400878Y19262026D01*
X58515978Y19336826D01*
X58651355Y19372696D01*
X58803287Y19365645D01*
X58867051Y19350155D01*
X58989300Y19293431D01*
X59093834Y19206798D01*
X59166180Y19102926D01*
X59176119Y19079604D01*
X59189754Y19018516D01*
X59199298Y18928147D01*
X59202549Y18836810D01*
X59202549Y18664118D01*
X58841470Y18664118D01*
X58692546Y18663555D01*
X58587632Y18660136D01*
X58520937Y18651269D01*
X58486666Y18634359D01*
X58479028Y18606811D01*
X58492229Y18566032D01*
X58515877Y18518317D01*
X58581843Y18438686D01*
X58673512Y18399013D01*
X58785555Y18400305D01*
X58912472Y18443486D01*
X59022158Y18496776D01*
X59113173Y18424809D01*
X59204188Y18352843D01*
X59118563Y18273731D01*
X59004250Y18198983D01*
X58863666Y18153916D01*
X58712449Y18141304D01*
X58566236Y18163921D01*
X58542647Y18171595D01*
X58414141Y18238704D01*
X58318551Y18338753D01*
X58253861Y18474729D01*
X58218057Y18649620D01*
X58217640Y18653368D01*
X58214434Y18843968D01*
X58227393Y18911965D01*
X58480392Y18911965D01*
X58503627Y18901509D01*
X58566710Y18893500D01*
X58659706Y18888927D01*
X58718638Y18888235D01*
X58828537Y18888668D01*
X58897252Y18891422D01*
X58933405Y18898679D01*
X58945615Y18912624D01*
X58942504Y18935438D01*
X58939894Y18944265D01*
X58895344Y19027200D01*
X58825279Y19094040D01*
X58763446Y19123411D01*
X58681301Y19121638D01*
X58598062Y19085010D01*
X58528238Y19024366D01*
X58486337Y18950544D01*
X58480392Y18911965D01*
X58227393Y18911965D01*
X58246385Y19011605D01*
X58309773Y19152289D01*
G36*
X52134194Y16977082D02*
G01*
X52146373Y17138645D01*
X52171685Y17259947D01*
X52213793Y17349621D01*
X52276359Y17416301D01*
X52337100Y17455443D01*
X52421964Y17482960D01*
X52527515Y17492397D01*
X52635598Y17484710D01*
X52728058Y17460854D01*
X52776910Y17432315D01*
X52827647Y17386399D01*
X52827647Y17966863D01*
X53101568Y17966863D01*
X53101568Y16273529D01*
X52964607Y16273529D01*
X52885111Y16275860D01*
X52843708Y16285512D01*
X52828801Y16306475D01*
X52827647Y16320649D01*
X52825133Y16349073D01*
X52809280Y16354525D01*
X52767621Y16337002D01*
X52735224Y16320649D01*
X52610849Y16281897D01*
X52475646Y16279654D01*
X52365726Y16308556D01*
X52263366Y16378381D01*
X52185340Y16481445D01*
X52142614Y16603011D01*
X52141526Y16609808D01*
X52135178Y16683968D01*
X52132021Y16790430D01*
X52132275Y16870948D01*
X52404289Y16870948D01*
X52410590Y16763930D01*
X52424925Y16675722D01*
X52444331Y16625910D01*
X52517746Y16557838D01*
X52604914Y16533436D01*
X52694804Y16553169D01*
X52771617Y16612032D01*
X52800708Y16651621D01*
X52817717Y16698862D01*
X52825684Y16767819D01*
X52827647Y16871393D01*
X52824134Y16973961D01*
X52814857Y17064079D01*
X52801706Y17124387D01*
X52799514Y17129792D01*
X52746478Y17194060D01*
X52669067Y17229344D01*
X52582454Y17235041D01*
X52501807Y17210547D01*
X52442297Y17155258D01*
X52436124Y17144257D01*
X52416801Y17077173D01*
X52406274Y16980716D01*
X52404289Y16870948D01*
X52132275Y16870948D01*
X52132404Y16911775D01*
X52134194Y16977082D01*
G37*
X52134194Y16977082D02*
X52146373Y17138645D01*
X52171685Y17259947D01*
X52213793Y17349621D01*
X52276359Y17416301D01*
X52337100Y17455443D01*
X52421964Y17482960D01*
X52527515Y17492397D01*
X52635598Y17484710D01*
X52728058Y17460854D01*
X52776910Y17432315D01*
X52827647Y17386399D01*
X52827647Y17966863D01*
X53101568Y17966863D01*
X53101568Y16273529D01*
X52964607Y16273529D01*
X52885111Y16275860D01*
X52843708Y16285512D01*
X52828801Y16306475D01*
X52827647Y16320649D01*
X52825133Y16349073D01*
X52809280Y16354525D01*
X52767621Y16337002D01*
X52735224Y16320649D01*
X52610849Y16281897D01*
X52475646Y16279654D01*
X52365726Y16308556D01*
X52263366Y16378381D01*
X52185340Y16481445D01*
X52142614Y16603011D01*
X52141526Y16609808D01*
X52135178Y16683968D01*
X52132021Y16790430D01*
X52132275Y16870948D01*
X52404289Y16870948D01*
X52410590Y16763930D01*
X52424925Y16675722D01*
X52444331Y16625910D01*
X52517746Y16557838D01*
X52604914Y16533436D01*
X52694804Y16553169D01*
X52771617Y16612032D01*
X52800708Y16651621D01*
X52817717Y16698862D01*
X52825684Y16767819D01*
X52827647Y16871393D01*
X52824134Y16973961D01*
X52814857Y17064079D01*
X52801706Y17124387D01*
X52799514Y17129792D01*
X52746478Y17194060D01*
X52669067Y17229344D01*
X52582454Y17235041D01*
X52501807Y17210547D01*
X52442297Y17155258D01*
X52436124Y17144257D01*
X52416801Y17077173D01*
X52406274Y16980716D01*
X52404289Y16870948D01*
X52132275Y16870948D01*
X52132404Y16911775D01*
X52134194Y16977082D01*
G36*
X54057528Y17488668D02*
G01*
X54156014Y17481274D01*
X54284776Y17095294D01*
X54413537Y16709314D01*
X54453911Y16846274D01*
X54478207Y16930917D01*
X54510167Y17045303D01*
X54544679Y17171037D01*
X54562928Y17238480D01*
X54631571Y17493725D01*
X54914773Y17493725D01*
X54830122Y17226029D01*
X54788435Y17094362D01*
X54738074Y16935542D01*
X54685481Y16769872D01*
X54638530Y16622157D01*
X54531589Y16285980D01*
X54300661Y16270956D01*
X54238050Y16477684D01*
X54199438Y16606104D01*
X54157300Y16747678D01*
X54120472Y16872715D01*
X54119018Y16877691D01*
X54091511Y16962414D01*
X54067242Y17020222D01*
X54050243Y17042082D01*
X54046750Y17039554D01*
X54034490Y17005664D01*
X54011195Y16933070D01*
X53979700Y16830899D01*
X53942842Y16708280D01*
X53922899Y16640833D01*
X53814895Y16273529D01*
X53585679Y16273529D01*
X53402439Y16852500D01*
X53350963Y17014909D01*
X53304070Y17162398D01*
X53263977Y17288040D01*
X53232897Y17384905D01*
X53213045Y17446066D01*
X53207011Y17463935D01*
X53211788Y17482232D01*
X53249297Y17490245D01*
X53327355Y17489443D01*
X53339574Y17488837D01*
X53484326Y17481274D01*
X53579130Y17132647D01*
X53613977Y17005503D01*
X53645117Y16893735D01*
X53669809Y16807047D01*
X53685312Y16755144D01*
X53688176Y16746682D01*
X53700046Y16756413D01*
X53723983Y16806828D01*
X53757239Y16891065D01*
X53797064Y17002259D01*
X53830730Y17102703D01*
X53959041Y17496061D01*
X54057528Y17488668D01*
G37*
X54057528Y17488668D02*
X54156014Y17481274D01*
X54284776Y17095294D01*
X54413537Y16709314D01*
X54453911Y16846274D01*
X54478207Y16930917D01*
X54510167Y17045303D01*
X54544679Y17171037D01*
X54562928Y17238480D01*
X54631571Y17493725D01*
X54914773Y17493725D01*
X54830122Y17226029D01*
X54788435Y17094362D01*
X54738074Y16935542D01*
X54685481Y16769872D01*
X54638530Y16622157D01*
X54531589Y16285980D01*
X54300661Y16270956D01*
X54238050Y16477684D01*
X54199438Y16606104D01*
X54157300Y16747678D01*
X54120472Y16872715D01*
X54119018Y16877691D01*
X54091511Y16962414D01*
X54067242Y17020222D01*
X54050243Y17042082D01*
X54046750Y17039554D01*
X54034490Y17005664D01*
X54011195Y16933070D01*
X53979700Y16830899D01*
X53942842Y16708280D01*
X53922899Y16640833D01*
X53814895Y16273529D01*
X53585679Y16273529D01*
X53402439Y16852500D01*
X53350963Y17014909D01*
X53304070Y17162398D01*
X53263977Y17288040D01*
X53232897Y17384905D01*
X53213045Y17446066D01*
X53207011Y17463935D01*
X53211788Y17482232D01*
X53249297Y17490245D01*
X53327355Y17489443D01*
X53339574Y17488837D01*
X53484326Y17481274D01*
X53579130Y17132647D01*
X53613977Y17005503D01*
X53645117Y16893735D01*
X53669809Y16807047D01*
X53685312Y16755144D01*
X53688176Y16746682D01*
X53700046Y16756413D01*
X53723983Y16806828D01*
X53757239Y16891065D01*
X53797064Y17002259D01*
X53830730Y17102703D01*
X53959041Y17496061D01*
X54057528Y17488668D01*
G36*
X54246535Y27616828D02*
G01*
X54359117Y27019637D01*
X54774531Y26848390D01*
X55189944Y26677143D01*
X55688302Y27016022D01*
X55827868Y27110378D01*
X55954028Y27194625D01*
X56060895Y27264917D01*
X56142582Y27317408D01*
X56193201Y27348251D01*
X56206986Y27354902D01*
X56231820Y27337797D01*
X56284888Y27290511D01*
X56360240Y27219083D01*
X56451929Y27129555D01*
X56554007Y27027966D01*
X56660526Y26920357D01*
X56765536Y26812768D01*
X56863091Y26711240D01*
X56947242Y26621814D01*
X57012040Y26550529D01*
X57051538Y26503427D01*
X57060980Y26487663D01*
X57047391Y26458602D01*
X57009293Y26394934D01*
X56950694Y26302888D01*
X56875597Y26188691D01*
X56788009Y26058571D01*
X56737254Y25984354D01*
X56644745Y25848833D01*
X56562540Y25726539D01*
X56494630Y25623560D01*
X56445000Y25545982D01*
X56417640Y25499894D01*
X56413529Y25490208D01*
X56422849Y25462681D01*
X56448254Y25398527D01*
X56485911Y25306765D01*
X56531986Y25196416D01*
X56582646Y25076500D01*
X56634059Y24956036D01*
X56682389Y24844046D01*
X56723806Y24749548D01*
X56754474Y24681563D01*
X56770562Y24649112D01*
X56771511Y24647835D01*
X56796772Y24641638D01*
X56864046Y24627815D01*
X56966360Y24607723D01*
X57096741Y24582721D01*
X57248216Y24554169D01*
X57336594Y24537704D01*
X57498452Y24506886D01*
X57644649Y24477561D01*
X57767787Y24451334D01*
X57860469Y24429809D01*
X57915301Y24414590D01*
X57926323Y24409762D01*
X57937119Y24377081D01*
X57945829Y24303270D01*
X57952460Y24196963D01*
X57957018Y24066788D01*
X57959509Y23921379D01*
X57959938Y23769365D01*
X57958311Y23619378D01*
X57954635Y23480049D01*
X57948915Y23360010D01*
X57941158Y23267890D01*
X57931368Y23212323D01*
X57925496Y23200755D01*
X57890399Y23186890D01*
X57816028Y23167067D01*
X57712223Y23143616D01*
X57588819Y23118864D01*
X57545741Y23110857D01*
X57338047Y23072814D01*
X57173984Y23042176D01*
X57048130Y23017726D01*
X56955065Y22998246D01*
X56889367Y22982519D01*
X56845617Y22969327D01*
X56818392Y22957451D01*
X56802272Y22945675D01*
X56800017Y22943347D01*
X56777503Y22905855D01*
X56743158Y22832890D01*
X56700411Y22733388D01*
X56652692Y22616282D01*
X56603430Y22490507D01*
X56556055Y22364998D01*
X56513995Y22248690D01*
X56480680Y22150516D01*
X56459541Y22079412D01*
X56454005Y22044313D01*
X56454466Y22043083D01*
X56473223Y22014394D01*
X56515776Y21951270D01*
X56577653Y21860282D01*
X56654382Y21748000D01*
X56741491Y21620995D01*
X56766299Y21584902D01*
X56854753Y21454052D01*
X56932588Y21334664D01*
X56995566Y21233593D01*
X57039445Y21157696D01*
X57059985Y21113828D01*
X57060980Y21108438D01*
X57043722Y21080111D01*
X56996036Y21023994D01*
X56924050Y20946118D01*
X56833897Y20852515D01*
X56731705Y20749214D01*
X56623606Y20642249D01*
X56515728Y20537649D01*
X56414204Y20441446D01*
X56325162Y20359671D01*
X56254733Y20298355D01*
X56209047Y20263529D01*
X56196409Y20257843D01*
X56166991Y20271235D01*
X56106761Y20307356D01*
X56025530Y20360119D01*
X55963030Y20402588D01*
X55849785Y20480515D01*
X55715674Y20572271D01*
X55581155Y20663880D01*
X55508833Y20712909D01*
X55264038Y20878485D01*
X55058551Y20767380D01*
X54964936Y20718707D01*
X54885330Y20680874D01*
X54831467Y20659297D01*
X54817757Y20656294D01*
X54801270Y20678462D01*
X54768745Y20741106D01*
X54722609Y20838446D01*
X54665290Y20964706D01*
X54599216Y21114105D01*
X54526815Y21280867D01*
X54450516Y21459213D01*
X54372746Y21643364D01*
X54295934Y21827543D01*
X54222506Y22005970D01*
X54154892Y22172868D01*
X54095520Y22322458D01*
X54046816Y22448962D01*
X54011210Y22546601D01*
X53991130Y22609598D01*
X53987900Y22631234D01*
X54013496Y22658831D01*
X54069539Y22703630D01*
X54144311Y22756321D01*
X54150587Y22760490D01*
X54343845Y22915186D01*
X54499674Y23095664D01*
X54616724Y23296153D01*
X54693645Y23510881D01*
X54729086Y23734078D01*
X54721697Y23959974D01*
X54670127Y24182796D01*
X54573026Y24396776D01*
X54544458Y24443591D01*
X54395868Y24632637D01*
X54220327Y24784443D01*
X54023910Y24898221D01*
X53812693Y24973180D01*
X53592753Y25008533D01*
X53370163Y25003488D01*
X53151001Y24957256D01*
X52941342Y24869049D01*
X52747261Y24738076D01*
X52687226Y24684918D01*
X52534435Y24518516D01*
X52423097Y24343343D01*
X52346723Y24146989D01*
X52304187Y23952538D01*
X52293686Y23733913D01*
X52328701Y23514203D01*
X52405673Y23300835D01*
X52521047Y23101233D01*
X52671266Y22922826D01*
X52852773Y22773038D01*
X52876627Y22757249D01*
X52952201Y22705543D01*
X53009651Y22660743D01*
X53037117Y22632138D01*
X53037517Y22631234D01*
X53031620Y22600291D01*
X53008245Y22530064D01*
X52969821Y22426330D01*
X52918777Y22294865D01*
X52857542Y22141448D01*
X52788544Y21971854D01*
X52714214Y21791862D01*
X52636978Y21607247D01*
X52559268Y21423787D01*
X52483511Y21247259D01*
X52412137Y21083441D01*
X52347574Y20938108D01*
X52292252Y20817038D01*
X52248600Y20726008D01*
X52219046Y20670795D01*
X52207144Y20656294D01*
X52170777Y20667586D01*
X52102730Y20697870D01*
X52014737Y20741735D01*
X51966351Y20767380D01*
X51760863Y20878485D01*
X51516068Y20712909D01*
X51391106Y20628085D01*
X51254295Y20534739D01*
X51126089Y20446847D01*
X51061871Y20402588D01*
X50971551Y20341937D01*
X50895071Y20293874D01*
X50842407Y20264485D01*
X50825302Y20258273D01*
X50800405Y20275032D01*
X50745305Y20321819D01*
X50665343Y20393775D01*
X50565861Y20486043D01*
X50452200Y20593765D01*
X50380315Y20662929D01*
X50254551Y20786498D01*
X50145863Y20897021D01*
X50058645Y20989770D01*
X49997289Y21060018D01*
X49966191Y21103035D01*
X49963208Y21111765D01*
X49977053Y21144971D01*
X50015312Y21212113D01*
X50073742Y21306392D01*
X50148097Y21421010D01*
X50234135Y21549172D01*
X50258603Y21584902D01*
X50347755Y21714766D01*
X50427738Y21831686D01*
X50494080Y21929093D01*
X50542311Y22000416D01*
X50567957Y22039085D01*
X50570435Y22043083D01*
X50566729Y22073900D01*
X50547061Y22141656D01*
X50514860Y22237416D01*
X50473555Y22352246D01*
X50426575Y22477211D01*
X50377349Y22603376D01*
X50329308Y22721807D01*
X50285881Y22823570D01*
X50250496Y22899729D01*
X50226584Y22941351D01*
X50224884Y22943347D01*
X50210262Y22955242D01*
X50185565Y22967005D01*
X50145372Y22979854D01*
X50084263Y22995006D01*
X49996817Y23013679D01*
X49877612Y23037090D01*
X49721227Y23066458D01*
X49522243Y23103000D01*
X49479160Y23110857D01*
X49351471Y23135528D01*
X49240153Y23159662D01*
X49155045Y23180931D01*
X49105983Y23197007D01*
X49099405Y23200755D01*
X49088564Y23233982D01*
X49079753Y23308234D01*
X49072976Y23414879D01*
X49068240Y23545288D01*
X49065550Y23690828D01*
X49064913Y23842869D01*
X49066334Y23992779D01*
X49069820Y24131927D01*
X49075376Y24251683D01*
X49083008Y24343414D01*
X49092722Y24398489D01*
X49098578Y24409762D01*
X49131180Y24421132D01*
X49205418Y24439631D01*
X49313896Y24463653D01*
X49449217Y24491593D01*
X49603985Y24521847D01*
X49688308Y24537704D01*
X49848296Y24567611D01*
X49990967Y24594705D01*
X50109348Y24617624D01*
X50196465Y24635012D01*
X50245345Y24645508D01*
X50253390Y24647835D01*
X50266987Y24674069D01*
X50295729Y24737260D01*
X50335785Y24828378D01*
X50383324Y24938398D01*
X50434515Y25058290D01*
X50485526Y25179028D01*
X50532526Y25291584D01*
X50571684Y25386929D01*
X50599169Y25456038D01*
X50611149Y25489881D01*
X50611372Y25491360D01*
X50597791Y25518058D01*
X50559715Y25579495D01*
X50501147Y25669566D01*
X50426088Y25782165D01*
X50338540Y25911185D01*
X50287647Y25985294D01*
X50194909Y26121178D01*
X50112541Y26244546D01*
X50044561Y26349158D01*
X49994988Y26428772D01*
X49967842Y26477148D01*
X49963921Y26487993D01*
X49980775Y26513235D01*
X50027368Y26567131D01*
X50097749Y26643642D01*
X50185965Y26736732D01*
X50286065Y26840360D01*
X50392098Y26948491D01*
X50498111Y27055085D01*
X50598152Y27154105D01*
X50686270Y27239513D01*
X50756513Y27305270D01*
X50802928Y27345339D01*
X50818456Y27354902D01*
X50843739Y27341455D01*
X50904211Y27303680D01*
X50993992Y27245420D01*
X51107203Y27170521D01*
X51237964Y27082830D01*
X51336600Y27016022D01*
X51834957Y26677143D01*
X52250371Y26848390D01*
X52665784Y27019637D01*
X52778366Y27616828D01*
X52890949Y28214020D01*
X54133952Y28214020D01*
X54246535Y27616828D01*
G37*
X54246535Y27616828D02*
X54359117Y27019637D01*
X54774531Y26848390D01*
X55189944Y26677143D01*
X55688302Y27016022D01*
X55827868Y27110378D01*
X55954028Y27194625D01*
X56060895Y27264917D01*
X56142582Y27317408D01*
X56193201Y27348251D01*
X56206986Y27354902D01*
X56231820Y27337797D01*
X56284888Y27290511D01*
X56360240Y27219083D01*
X56451929Y27129555D01*
X56554007Y27027966D01*
X56660526Y26920357D01*
X56765536Y26812768D01*
X56863091Y26711240D01*
X56947242Y26621814D01*
X57012040Y26550529D01*
X57051538Y26503427D01*
X57060980Y26487663D01*
X57047391Y26458602D01*
X57009293Y26394934D01*
X56950694Y26302888D01*
X56875597Y26188691D01*
X56788009Y26058571D01*
X56737254Y25984354D01*
X56644745Y25848833D01*
X56562540Y25726539D01*
X56494630Y25623560D01*
X56445000Y25545982D01*
X56417640Y25499894D01*
X56413529Y25490208D01*
X56422849Y25462681D01*
X56448254Y25398527D01*
X56485911Y25306765D01*
X56531986Y25196416D01*
X56582646Y25076500D01*
X56634059Y24956036D01*
X56682389Y24844046D01*
X56723806Y24749548D01*
X56754474Y24681563D01*
X56770562Y24649112D01*
X56771511Y24647835D01*
X56796772Y24641638D01*
X56864046Y24627815D01*
X56966360Y24607723D01*
X57096741Y24582721D01*
X57248216Y24554169D01*
X57336594Y24537704D01*
X57498452Y24506886D01*
X57644649Y24477561D01*
X57767787Y24451334D01*
X57860469Y24429809D01*
X57915301Y24414590D01*
X57926323Y24409762D01*
X57937119Y24377081D01*
X57945829Y24303270D01*
X57952460Y24196963D01*
X57957018Y24066788D01*
X57959509Y23921379D01*
X57959938Y23769365D01*
X57958311Y23619378D01*
X57954635Y23480049D01*
X57948915Y23360010D01*
X57941158Y23267890D01*
X57931368Y23212323D01*
X57925496Y23200755D01*
X57890399Y23186890D01*
X57816028Y23167067D01*
X57712223Y23143616D01*
X57588819Y23118864D01*
X57545741Y23110857D01*
X57338047Y23072814D01*
X57173984Y23042176D01*
X57048130Y23017726D01*
X56955065Y22998246D01*
X56889367Y22982519D01*
X56845617Y22969327D01*
X56818392Y22957451D01*
X56802272Y22945675D01*
X56800017Y22943347D01*
X56777503Y22905855D01*
X56743158Y22832890D01*
X56700411Y22733388D01*
X56652692Y22616282D01*
X56603430Y22490507D01*
X56556055Y22364998D01*
X56513995Y22248690D01*
X56480680Y22150516D01*
X56459541Y22079412D01*
X56454005Y22044313D01*
X56454466Y22043083D01*
X56473223Y22014394D01*
X56515776Y21951270D01*
X56577653Y21860282D01*
X56654382Y21748000D01*
X56741491Y21620995D01*
X56766299Y21584902D01*
X56854753Y21454052D01*
X56932588Y21334664D01*
X56995566Y21233593D01*
X57039445Y21157696D01*
X57059985Y21113828D01*
X57060980Y21108438D01*
X57043722Y21080111D01*
X56996036Y21023994D01*
X56924050Y20946118D01*
X56833897Y20852515D01*
X56731705Y20749214D01*
X56623606Y20642249D01*
X56515728Y20537649D01*
X56414204Y20441446D01*
X56325162Y20359671D01*
X56254733Y20298355D01*
X56209047Y20263529D01*
X56196409Y20257843D01*
X56166991Y20271235D01*
X56106761Y20307356D01*
X56025530Y20360119D01*
X55963030Y20402588D01*
X55849785Y20480515D01*
X55715674Y20572271D01*
X55581155Y20663880D01*
X55508833Y20712909D01*
X55264038Y20878485D01*
X55058551Y20767380D01*
X54964936Y20718707D01*
X54885330Y20680874D01*
X54831467Y20659297D01*
X54817757Y20656294D01*
X54801270Y20678462D01*
X54768745Y20741106D01*
X54722609Y20838446D01*
X54665290Y20964706D01*
X54599216Y21114105D01*
X54526815Y21280867D01*
X54450516Y21459213D01*
X54372746Y21643364D01*
X54295934Y21827543D01*
X54222506Y22005970D01*
X54154892Y22172868D01*
X54095520Y22322458D01*
X54046816Y22448962D01*
X54011210Y22546601D01*
X53991130Y22609598D01*
X53987900Y22631234D01*
X54013496Y22658831D01*
X54069539Y22703630D01*
X54144311Y22756321D01*
X54150587Y22760490D01*
X54343845Y22915186D01*
X54499674Y23095664D01*
X54616724Y23296153D01*
X54693645Y23510881D01*
X54729086Y23734078D01*
X54721697Y23959974D01*
X54670127Y24182796D01*
X54573026Y24396776D01*
X54544458Y24443591D01*
X54395868Y24632637D01*
X54220327Y24784443D01*
X54023910Y24898221D01*
X53812693Y24973180D01*
X53592753Y25008533D01*
X53370163Y25003488D01*
X53151001Y24957256D01*
X52941342Y24869049D01*
X52747261Y24738076D01*
X52687226Y24684918D01*
X52534435Y24518516D01*
X52423097Y24343343D01*
X52346723Y24146989D01*
X52304187Y23952538D01*
X52293686Y23733913D01*
X52328701Y23514203D01*
X52405673Y23300835D01*
X52521047Y23101233D01*
X52671266Y22922826D01*
X52852773Y22773038D01*
X52876627Y22757249D01*
X52952201Y22705543D01*
X53009651Y22660743D01*
X53037117Y22632138D01*
X53037517Y22631234D01*
X53031620Y22600291D01*
X53008245Y22530064D01*
X52969821Y22426330D01*
X52918777Y22294865D01*
X52857542Y22141448D01*
X52788544Y21971854D01*
X52714214Y21791862D01*
X52636978Y21607247D01*
X52559268Y21423787D01*
X52483511Y21247259D01*
X52412137Y21083441D01*
X52347574Y20938108D01*
X52292252Y20817038D01*
X52248600Y20726008D01*
X52219046Y20670795D01*
X52207144Y20656294D01*
X52170777Y20667586D01*
X52102730Y20697870D01*
X52014737Y20741735D01*
X51966351Y20767380D01*
X51760863Y20878485D01*
X51516068Y20712909D01*
X51391106Y20628085D01*
X51254295Y20534739D01*
X51126089Y20446847D01*
X51061871Y20402588D01*
X50971551Y20341937D01*
X50895071Y20293874D01*
X50842407Y20264485D01*
X50825302Y20258273D01*
X50800405Y20275032D01*
X50745305Y20321819D01*
X50665343Y20393775D01*
X50565861Y20486043D01*
X50452200Y20593765D01*
X50380315Y20662929D01*
X50254551Y20786498D01*
X50145863Y20897021D01*
X50058645Y20989770D01*
X49997289Y21060018D01*
X49966191Y21103035D01*
X49963208Y21111765D01*
X49977053Y21144971D01*
X50015312Y21212113D01*
X50073742Y21306392D01*
X50148097Y21421010D01*
X50234135Y21549172D01*
X50258603Y21584902D01*
X50347755Y21714766D01*
X50427738Y21831686D01*
X50494080Y21929093D01*
X50542311Y22000416D01*
X50567957Y22039085D01*
X50570435Y22043083D01*
X50566729Y22073900D01*
X50547061Y22141656D01*
X50514860Y22237416D01*
X50473555Y22352246D01*
X50426575Y22477211D01*
X50377349Y22603376D01*
X50329308Y22721807D01*
X50285881Y22823570D01*
X50250496Y22899729D01*
X50226584Y22941351D01*
X50224884Y22943347D01*
X50210262Y22955242D01*
X50185565Y22967005D01*
X50145372Y22979854D01*
X50084263Y22995006D01*
X49996817Y23013679D01*
X49877612Y23037090D01*
X49721227Y23066458D01*
X49522243Y23103000D01*
X49479160Y23110857D01*
X49351471Y23135528D01*
X49240153Y23159662D01*
X49155045Y23180931D01*
X49105983Y23197007D01*
X49099405Y23200755D01*
X49088564Y23233982D01*
X49079753Y23308234D01*
X49072976Y23414879D01*
X49068240Y23545288D01*
X49065550Y23690828D01*
X49064913Y23842869D01*
X49066334Y23992779D01*
X49069820Y24131927D01*
X49075376Y24251683D01*
X49083008Y24343414D01*
X49092722Y24398489D01*
X49098578Y24409762D01*
X49131180Y24421132D01*
X49205418Y24439631D01*
X49313896Y24463653D01*
X49449217Y24491593D01*
X49603985Y24521847D01*
X49688308Y24537704D01*
X49848296Y24567611D01*
X49990967Y24594705D01*
X50109348Y24617624D01*
X50196465Y24635012D01*
X50245345Y24645508D01*
X50253390Y24647835D01*
X50266987Y24674069D01*
X50295729Y24737260D01*
X50335785Y24828378D01*
X50383324Y24938398D01*
X50434515Y25058290D01*
X50485526Y25179028D01*
X50532526Y25291584D01*
X50571684Y25386929D01*
X50599169Y25456038D01*
X50611149Y25489881D01*
X50611372Y25491360D01*
X50597791Y25518058D01*
X50559715Y25579495D01*
X50501147Y25669566D01*
X50426088Y25782165D01*
X50338540Y25911185D01*
X50287647Y25985294D01*
X50194909Y26121178D01*
X50112541Y26244546D01*
X50044561Y26349158D01*
X49994988Y26428772D01*
X49967842Y26477148D01*
X49963921Y26487993D01*
X49980775Y26513235D01*
X50027368Y26567131D01*
X50097749Y26643642D01*
X50185965Y26736732D01*
X50286065Y26840360D01*
X50392098Y26948491D01*
X50498111Y27055085D01*
X50598152Y27154105D01*
X50686270Y27239513D01*
X50756513Y27305270D01*
X50802928Y27345339D01*
X50818456Y27354902D01*
X50843739Y27341455D01*
X50904211Y27303680D01*
X50993992Y27245420D01*
X51107203Y27170521D01*
X51237964Y27082830D01*
X51336600Y27016022D01*
X51834957Y26677143D01*
X52250371Y26848390D01*
X52665784Y27019637D01*
X52778366Y27616828D01*
X52890949Y28214020D01*
X54133952Y28214020D01*
X54246535Y27616828D01*
G36*
X49129705Y19361372D02*
G01*
X49211935Y19358121D01*
X49254360Y19346574D01*
X49266661Y19324048D01*
X49266666Y19323380D01*
X49272374Y19301319D01*
X49297547Y19303824D01*
X49347598Y19328065D01*
X49464219Y19365149D01*
X49595429Y19369047D01*
X49719909Y19340440D01*
X49772412Y19314501D01*
X49837158Y19269300D01*
X49884347Y19220009D01*
X49916665Y19158115D01*
X49936797Y19075104D01*
X49947430Y18962462D01*
X49951247Y18811676D01*
X49951470Y18746851D01*
X49950818Y18604779D01*
X49948112Y18503243D01*
X49942224Y18432985D01*
X49932027Y18384744D01*
X49916394Y18349262D01*
X49900128Y18325057D01*
X49796295Y18222071D01*
X49674021Y18160126D01*
X49542114Y18141494D01*
X49409384Y18168451D01*
X49367333Y18187514D01*
X49266666Y18239985D01*
X49266666Y17417741D01*
X49340135Y17455733D01*
X49436941Y17485128D01*
X49555928Y17492658D01*
X49674745Y17478755D01*
X49764473Y17447524D01*
X49838899Y17388046D01*
X49902490Y17302934D01*
X49907271Y17294195D01*
X49927437Y17253034D01*
X49942165Y17211546D01*
X49952303Y17161287D01*
X49958699Y17093816D01*
X49962201Y17000691D01*
X49963658Y16873469D01*
X49963921Y16730299D01*
X49963921Y16273529D01*
X49690000Y16273529D01*
X49690000Y17115769D01*
X49613383Y17180237D01*
X49533793Y17231806D01*
X49458422Y17241182D01*
X49382633Y17217053D01*
X49342241Y17193426D01*
X49312179Y17159773D01*
X49290797Y17108913D01*
X49276450Y17033666D01*
X49267490Y16926854D01*
X49262270Y16781296D01*
X49260431Y16684412D01*
X49254215Y16285980D01*
X49123480Y16278453D01*
X48992745Y16270927D01*
X48992745Y18743418D01*
X49266666Y18743418D01*
X49273650Y18605577D01*
X49297182Y18509893D01*
X49341135Y18450359D01*
X49409382Y18420971D01*
X49478333Y18415098D01*
X49556386Y18421846D01*
X49608189Y18448406D01*
X49640583Y18483501D01*
X49666084Y18521248D01*
X49681265Y18563300D01*
X49688019Y18622221D01*
X49688241Y18710572D01*
X49685968Y18784552D01*
X49680749Y18896000D01*
X49672979Y18969167D01*
X49659895Y19015578D01*
X49638732Y19046756D01*
X49618760Y19064777D01*
X49535314Y19104075D01*
X49436551Y19110421D01*
X49379841Y19096884D01*
X49323692Y19048767D01*
X49286499Y18955167D01*
X49268472Y18816746D01*
X49266666Y18743418D01*
X48992745Y18743418D01*
X48992745Y19361372D01*
X49129705Y19361372D01*
G37*
X49129705Y19361372D02*
X49211935Y19358121D01*
X49254360Y19346574D01*
X49266661Y19324048D01*
X49266666Y19323380D01*
X49272374Y19301319D01*
X49297547Y19303824D01*
X49347598Y19328065D01*
X49464219Y19365149D01*
X49595429Y19369047D01*
X49719909Y19340440D01*
X49772412Y19314501D01*
X49837158Y19269300D01*
X49884347Y19220009D01*
X49916665Y19158115D01*
X49936797Y19075104D01*
X49947430Y18962462D01*
X49951247Y18811676D01*
X49951470Y18746851D01*
X49950818Y18604779D01*
X49948112Y18503243D01*
X49942224Y18432985D01*
X49932027Y18384744D01*
X49916394Y18349262D01*
X49900128Y18325057D01*
X49796295Y18222071D01*
X49674021Y18160126D01*
X49542114Y18141494D01*
X49409384Y18168451D01*
X49367333Y18187514D01*
X49266666Y18239985D01*
X49266666Y17417741D01*
X49340135Y17455733D01*
X49436941Y17485128D01*
X49555928Y17492658D01*
X49674745Y17478755D01*
X49764473Y17447524D01*
X49838899Y17388046D01*
X49902490Y17302934D01*
X49907271Y17294195D01*
X49927437Y17253034D01*
X49942165Y17211546D01*
X49952303Y17161287D01*
X49958699Y17093816D01*
X49962201Y17000691D01*
X49963658Y16873469D01*
X49963921Y16730299D01*
X49963921Y16273529D01*
X49690000Y16273529D01*
X49690000Y17115769D01*
X49613383Y17180237D01*
X49533793Y17231806D01*
X49458422Y17241182D01*
X49382633Y17217053D01*
X49342241Y17193426D01*
X49312179Y17159773D01*
X49290797Y17108913D01*
X49276450Y17033666D01*
X49267490Y16926854D01*
X49262270Y16781296D01*
X49260431Y16684412D01*
X49254215Y16285980D01*
X49123480Y16278453D01*
X48992745Y16270927D01*
X48992745Y18743418D01*
X49266666Y18743418D01*
X49273650Y18605577D01*
X49297182Y18509893D01*
X49341135Y18450359D01*
X49409382Y18420971D01*
X49478333Y18415098D01*
X49556386Y18421846D01*
X49608189Y18448406D01*
X49640583Y18483501D01*
X49666084Y18521248D01*
X49681265Y18563300D01*
X49688019Y18622221D01*
X49688241Y18710572D01*
X49685968Y18784552D01*
X49680749Y18896000D01*
X49672979Y18969167D01*
X49659895Y19015578D01*
X49638732Y19046756D01*
X49618760Y19064777D01*
X49535314Y19104075D01*
X49436551Y19110421D01*
X49379841Y19096884D01*
X49323692Y19048767D01*
X49286499Y18955167D01*
X49268472Y18816746D01*
X49266666Y18743418D01*
X48992745Y18743418D01*
X48992745Y19361372D01*
X49129705Y19361372D01*
G36*
X57063637Y19362528D02*
G01*
X57149290Y19336359D01*
X57204437Y19303293D01*
X57222401Y19277145D01*
X57217457Y19246148D01*
X57185372Y19197453D01*
X57158243Y19162965D01*
X57102317Y19100617D01*
X57060299Y19074385D01*
X57024480Y19076097D01*
X56918224Y19103137D01*
X56840189Y19101909D01*
X56776820Y19071265D01*
X56755546Y19053330D01*
X56687451Y18990221D01*
X56687451Y18166078D01*
X56413529Y18166078D01*
X56413529Y19361372D01*
X56550490Y19361372D01*
X56632719Y19358121D01*
X56675144Y19346574D01*
X56687445Y19324048D01*
X56687451Y19323380D01*
X56693260Y19299785D01*
X56719531Y19302862D01*
X56755931Y19319885D01*
X56831111Y19351561D01*
X56892158Y19370619D01*
X56970708Y19375504D01*
X57063637Y19362528D01*
G37*
X57063637Y19362528D02*
X57149290Y19336359D01*
X57204437Y19303293D01*
X57222401Y19277145D01*
X57217457Y19246148D01*
X57185372Y19197453D01*
X57158243Y19162965D01*
X57102317Y19100617D01*
X57060299Y19074385D01*
X57024480Y19076097D01*
X56918224Y19103137D01*
X56840189Y19101909D01*
X56776820Y19071265D01*
X56755546Y19053330D01*
X56687451Y18990221D01*
X56687451Y18166078D01*
X56413529Y18166078D01*
X56413529Y19361372D01*
X56550490Y19361372D01*
X56632719Y19358121D01*
X56675144Y19346574D01*
X56687445Y19324048D01*
X56687451Y19323380D01*
X56693260Y19299785D01*
X56719531Y19302862D01*
X56755931Y19319885D01*
X56831111Y19351561D01*
X56892158Y19370619D01*
X56970708Y19375504D01*
X57063637Y19362528D01*
G36*
X55467254Y18973755D02*
G01*
X55469608Y18791121D01*
X55478207Y18652400D01*
X55495360Y18551853D01*
X55523374Y18483746D01*
X55564557Y18442341D01*
X55621217Y18421903D01*
X55691372Y18416682D01*
X55764848Y18422532D01*
X55820657Y18443907D01*
X55861109Y18486542D01*
X55888509Y18556175D01*
X55905167Y18658540D01*
X55913389Y18799376D01*
X55915490Y18973755D01*
X55915490Y19361372D01*
X56189411Y19361372D01*
X56189411Y18166078D01*
X56052451Y18166078D01*
X55969884Y18169424D01*
X55927368Y18181174D01*
X55915490Y18203480D01*
X55908336Y18223346D01*
X55879865Y18219143D01*
X55822476Y18191029D01*
X55690945Y18147658D01*
X55551438Y18150730D01*
X55417765Y18197826D01*
X55354108Y18235029D01*
X55305553Y18275309D01*
X55270081Y18325709D01*
X55245674Y18393271D01*
X55230313Y18485035D01*
X55221982Y18608045D01*
X55218662Y18769341D01*
X55218235Y18894072D01*
X55218235Y19361372D01*
X55467254Y19361372D01*
X55467254Y18973755D01*
G37*
X55467254Y18973755D02*
X55469608Y18791121D01*
X55478207Y18652400D01*
X55495360Y18551853D01*
X55523374Y18483746D01*
X55564557Y18442341D01*
X55621217Y18421903D01*
X55691372Y18416682D01*
X55764848Y18422532D01*
X55820657Y18443907D01*
X55861109Y18486542D01*
X55888509Y18556175D01*
X55905167Y18658540D01*
X55913389Y18799376D01*
X55915490Y18973755D01*
X55915490Y19361372D01*
X56189411Y19361372D01*
X56189411Y18166078D01*
X56052451Y18166078D01*
X55969884Y18169424D01*
X55927368Y18181174D01*
X55915490Y18203480D01*
X55908336Y18223346D01*
X55879865Y18219143D01*
X55822476Y18191029D01*
X55690945Y18147658D01*
X55551438Y18150730D01*
X55417765Y18197826D01*
X55354108Y18235029D01*
X55305553Y18275309D01*
X55270081Y18325709D01*
X55245674Y18393271D01*
X55230313Y18485035D01*
X55221982Y18608045D01*
X55218662Y18769341D01*
X55218235Y18894072D01*
X55218235Y19361372D01*
X55467254Y19361372D01*
X55467254Y18973755D01*
G36*
X52006760Y19340801D02*
G01*
X52068736Y19311198D01*
X52128759Y19268439D01*
X52174486Y19219225D01*
X52207793Y19156456D01*
X52230555Y19073029D01*
X52244647Y18961841D01*
X52251942Y18815791D01*
X52254318Y18627777D01*
X52254355Y18608088D01*
X52254902Y18166078D01*
X51980980Y18166078D01*
X51980980Y18573565D01*
X51980785Y18724529D01*
X51979436Y18833944D01*
X51975788Y18910067D01*
X51968696Y18961152D01*
X51957013Y18995455D01*
X51939594Y19021232D01*
X51915329Y19046702D01*
X51830435Y19101429D01*
X51737761Y19111584D01*
X51649473Y19076983D01*
X51618770Y19051230D01*
X51596229Y19027018D01*
X51580046Y19001088D01*
X51569168Y18965292D01*
X51562542Y18911481D01*
X51559115Y18831507D01*
X51557834Y18717221D01*
X51557647Y18578093D01*
X51557647Y18166078D01*
X51283725Y18166078D01*
X51283725Y19361372D01*
X51420686Y19361372D01*
X51502916Y19358121D01*
X51545340Y19346574D01*
X51557641Y19324048D01*
X51557647Y19323380D01*
X51563354Y19301319D01*
X51588527Y19303823D01*
X51638578Y19328063D01*
X51752094Y19363729D01*
X51881945Y19367695D01*
X52006760Y19340801D01*
G37*
X52006760Y19340801D02*
X52068736Y19311198D01*
X52128759Y19268439D01*
X52174486Y19219225D01*
X52207793Y19156456D01*
X52230555Y19073029D01*
X52244647Y18961841D01*
X52251942Y18815791D01*
X52254318Y18627777D01*
X52254355Y18608088D01*
X52254902Y18166078D01*
X51980980Y18166078D01*
X51980980Y18573565D01*
X51980785Y18724529D01*
X51979436Y18833944D01*
X51975788Y18910067D01*
X51968696Y18961152D01*
X51957013Y18995455D01*
X51939594Y19021232D01*
X51915329Y19046702D01*
X51830435Y19101429D01*
X51737761Y19111584D01*
X51649473Y19076983D01*
X51618770Y19051230D01*
X51596229Y19027018D01*
X51580046Y19001088D01*
X51569168Y18965292D01*
X51562542Y18911481D01*
X51559115Y18831507D01*
X51557834Y18717221D01*
X51557647Y18578093D01*
X51557647Y18166078D01*
X51283725Y18166078D01*
X51283725Y19361372D01*
X51420686Y19361372D01*
X51502916Y19358121D01*
X51545340Y19346574D01*
X51557641Y19324048D01*
X51557647Y19323380D01*
X51563354Y19301319D01*
X51588527Y19303823D01*
X51638578Y19328063D01*
X51752094Y19363729D01*
X51881945Y19367695D01*
X52006760Y19340801D01*
G36*
X53527759Y19365655D02*
G01*
X53622059Y19347771D01*
X53719890Y19310367D01*
X53730343Y19305598D01*
X53804531Y19266588D01*
X53855910Y19230336D01*
X53872517Y19207113D01*
X53856702Y19169239D01*
X53818288Y19113356D01*
X53801237Y19092495D01*
X53730969Y19010382D01*
X53640379Y19063832D01*
X53554164Y19099439D01*
X53454549Y19118471D01*
X53359019Y19119674D01*
X53285061Y19101790D01*
X53267312Y19090627D01*
X53233512Y19039447D01*
X53229404Y18980491D01*
X53254696Y18934433D01*
X53269656Y18925501D01*
X53314486Y18914408D01*
X53393286Y18901370D01*
X53490426Y18888912D01*
X53508346Y18886958D01*
X53664365Y18859970D01*
X53777523Y18814127D01*
X53852569Y18745197D01*
X53894253Y18648946D01*
X53907238Y18531383D01*
X53889299Y18397746D01*
X53831050Y18292805D01*
X53732255Y18216370D01*
X53592682Y18168252D01*
X53437745Y18149268D01*
X53311398Y18149496D01*
X53208913Y18166738D01*
X53138921Y18190543D01*
X53050483Y18232022D01*
X52968754Y18280158D01*
X52939705Y18301345D01*
X52865000Y18362324D01*
X52955098Y18453492D01*
X53045196Y18544661D01*
X53147632Y18476872D01*
X53250374Y18425958D01*
X53360087Y18399327D01*
X53465551Y18396517D01*
X53555546Y18417065D01*
X53618854Y18460507D01*
X53639296Y18497162D01*
X53636229Y18555947D01*
X53585434Y18600901D01*
X53487048Y18631943D01*
X53379256Y18646290D01*
X53213365Y18673663D01*
X53090124Y18725307D01*
X53007886Y18802734D01*
X52965001Y18907456D01*
X52959060Y19031613D01*
X52988406Y19161298D01*
X53055309Y19259323D01*
X53160371Y19326134D01*
X53304190Y19362180D01*
X53410738Y19369246D01*
X53527759Y19365655D01*
G37*
X53527759Y19365655D02*
X53622059Y19347771D01*
X53719890Y19310367D01*
X53730343Y19305598D01*
X53804531Y19266588D01*
X53855910Y19230336D01*
X53872517Y19207113D01*
X53856702Y19169239D01*
X53818288Y19113356D01*
X53801237Y19092495D01*
X53730969Y19010382D01*
X53640379Y19063832D01*
X53554164Y19099439D01*
X53454549Y19118471D01*
X53359019Y19119674D01*
X53285061Y19101790D01*
X53267312Y19090627D01*
X53233512Y19039447D01*
X53229404Y18980491D01*
X53254696Y18934433D01*
X53269656Y18925501D01*
X53314486Y18914408D01*
X53393286Y18901370D01*
X53490426Y18888912D01*
X53508346Y18886958D01*
X53664365Y18859970D01*
X53777523Y18814127D01*
X53852569Y18745197D01*
X53894253Y18648946D01*
X53907238Y18531383D01*
X53889299Y18397746D01*
X53831050Y18292805D01*
X53732255Y18216370D01*
X53592682Y18168252D01*
X53437745Y18149268D01*
X53311398Y18149496D01*
X53208913Y18166738D01*
X53138921Y18190543D01*
X53050483Y18232022D01*
X52968754Y18280158D01*
X52939705Y18301345D01*
X52865000Y18362324D01*
X52955098Y18453492D01*
X53045196Y18544661D01*
X53147632Y18476872D01*
X53250374Y18425958D01*
X53360087Y18399327D01*
X53465551Y18396517D01*
X53555546Y18417065D01*
X53618854Y18460507D01*
X53639296Y18497162D01*
X53636229Y18555947D01*
X53585434Y18600901D01*
X53487048Y18631943D01*
X53379256Y18646290D01*
X53213365Y18673663D01*
X53090124Y18725307D01*
X53007886Y18802734D01*
X52965001Y18907456D01*
X52959060Y19031613D01*
X52988406Y19161298D01*
X53055309Y19259323D01*
X53160371Y19326134D01*
X53304190Y19362180D01*
X53410738Y19369246D01*
X53527759Y19365655D01*
G36*
X50200590Y19160539D02*
G01*
X50264421Y19238539D01*
X50382433Y19323118D01*
X50521158Y19368314D01*
X50668710Y19372400D01*
X50813204Y19333646D01*
X50838019Y19321963D01*
X50923906Y19259049D01*
X51005121Y19167231D01*
X51065764Y19066132D01*
X51083012Y19019651D01*
X51098749Y18936624D01*
X51108133Y18836287D01*
X51109272Y18794853D01*
X51109411Y18664118D01*
X50356953Y18664118D01*
X50372993Y18595637D01*
X50412363Y18514645D01*
X50481194Y18444649D01*
X50563081Y18399559D01*
X50615263Y18390196D01*
X50686029Y18401559D01*
X50770460Y18430057D01*
X50799142Y18443169D01*
X50905209Y18496142D01*
X50995728Y18427099D01*
X51047961Y18380403D01*
X51075753Y18341860D01*
X51077160Y18330548D01*
X51052332Y18303132D01*
X50997917Y18261468D01*
X50948528Y18228963D01*
X50815252Y18170532D01*
X50665839Y18144085D01*
X50517751Y18150961D01*
X50399705Y18186904D01*
X50278018Y18263899D01*
X50191540Y18365272D01*
X50137441Y18496430D01*
X50112891Y18662776D01*
X50110714Y18738892D01*
X50119427Y18913315D01*
X50120497Y18918389D01*
X50369827Y18918389D01*
X50376694Y18902032D01*
X50404917Y18893012D01*
X50463127Y18889146D01*
X50559958Y18888251D01*
X50597243Y18888235D01*
X50710683Y18889587D01*
X50782622Y18894495D01*
X50821313Y18904240D01*
X50835005Y18920101D01*
X50835490Y18925195D01*
X50819863Y18965674D01*
X50780753Y19022379D01*
X50763939Y19042234D01*
X50701519Y19098389D01*
X50636453Y19120468D01*
X50601397Y19122314D01*
X50506558Y19099234D01*
X50427027Y19037241D01*
X50376577Y18947198D01*
X50375683Y18944265D01*
X50369827Y18918389D01*
X50120497Y18918389D01*
X50148399Y19050657D01*
X50200590Y19160539D01*
G37*
X50200590Y19160539D02*
X50264421Y19238539D01*
X50382433Y19323118D01*
X50521158Y19368314D01*
X50668710Y19372400D01*
X50813204Y19333646D01*
X50838019Y19321963D01*
X50923906Y19259049D01*
X51005121Y19167231D01*
X51065764Y19066132D01*
X51083012Y19019651D01*
X51098749Y18936624D01*
X51108133Y18836287D01*
X51109272Y18794853D01*
X51109411Y18664118D01*
X50356953Y18664118D01*
X50372993Y18595637D01*
X50412363Y18514645D01*
X50481194Y18444649D01*
X50563081Y18399559D01*
X50615263Y18390196D01*
X50686029Y18401559D01*
X50770460Y18430057D01*
X50799142Y18443169D01*
X50905209Y18496142D01*
X50995728Y18427099D01*
X51047961Y18380403D01*
X51075753Y18341860D01*
X51077160Y18330548D01*
X51052332Y18303132D01*
X50997917Y18261468D01*
X50948528Y18228963D01*
X50815252Y18170532D01*
X50665839Y18144085D01*
X50517751Y18150961D01*
X50399705Y18186904D01*
X50278018Y18263899D01*
X50191540Y18365272D01*
X50137441Y18496430D01*
X50112891Y18662776D01*
X50110714Y18738892D01*
X50119427Y18913315D01*
X50120497Y18918389D01*
X50369827Y18918389D01*
X50376694Y18902032D01*
X50404917Y18893012D01*
X50463127Y18889146D01*
X50559958Y18888251D01*
X50597243Y18888235D01*
X50710683Y18889587D01*
X50782622Y18894495D01*
X50821313Y18904240D01*
X50835005Y18920101D01*
X50835490Y18925195D01*
X50819863Y18965674D01*
X50780753Y19022379D01*
X50763939Y19042234D01*
X50701519Y19098389D01*
X50636453Y19120468D01*
X50601397Y19122314D01*
X50506558Y19099234D01*
X50427027Y19037241D01*
X50376577Y18947198D01*
X50375683Y18944265D01*
X50369827Y18918389D01*
X50120497Y18918389D01*
X50148399Y19050657D01*
X50200590Y19160539D01*
G36*
X54065180Y19060577D02*
G01*
X54131802Y19195186D01*
X54230799Y19291960D01*
X54362175Y19350906D01*
X54390385Y19357741D01*
X54559926Y19373787D01*
X54709547Y19346636D01*
X54835502Y19278041D01*
X54934047Y19169755D01*
X54980478Y19081685D01*
X55000412Y19003899D01*
X55013328Y18893007D01*
X55018863Y18765262D01*
X55016654Y18636916D01*
X55006337Y18524221D01*
X54994286Y18464031D01*
X54953634Y18381689D01*
X54883230Y18294230D01*
X54798382Y18217749D01*
X54714397Y18168345D01*
X54712349Y18167561D01*
X54608134Y18145973D01*
X54484627Y18145438D01*
X54367261Y18165092D01*
X54321942Y18180845D01*
X54205220Y18247034D01*
X54121624Y18333754D01*
X54066701Y18448562D01*
X54035995Y18599018D01*
X54029047Y18677827D01*
X54029933Y18776855D01*
X54296862Y18776855D01*
X54305854Y18632355D01*
X54331736Y18522240D01*
X54372868Y18451884D01*
X54402172Y18431765D01*
X54477251Y18417735D01*
X54566494Y18421889D01*
X54643650Y18442078D01*
X54663883Y18453185D01*
X54717265Y18517877D01*
X54752500Y18616881D01*
X54767498Y18737368D01*
X54760172Y18866506D01*
X54743799Y18944225D01*
X54696790Y19034229D01*
X54622582Y19090491D01*
X54533209Y19109943D01*
X54440707Y19089519D01*
X54369653Y19039563D01*
X54332312Y18998345D01*
X54310518Y18957719D01*
X54300130Y18902736D01*
X54297006Y18818451D01*
X54296862Y18776855D01*
X54029933Y18776855D01*
X54030930Y18888126D01*
X54065180Y19060577D01*
G37*
X54065180Y19060577D02*
X54131802Y19195186D01*
X54230799Y19291960D01*
X54362175Y19350906D01*
X54390385Y19357741D01*
X54559926Y19373787D01*
X54709547Y19346636D01*
X54835502Y19278041D01*
X54934047Y19169755D01*
X54980478Y19081685D01*
X55000412Y19003899D01*
X55013328Y18893007D01*
X55018863Y18765262D01*
X55016654Y18636916D01*
X55006337Y18524221D01*
X54994286Y18464031D01*
X54953634Y18381689D01*
X54883230Y18294230D01*
X54798382Y18217749D01*
X54714397Y18168345D01*
X54712349Y18167561D01*
X54608134Y18145973D01*
X54484627Y18145438D01*
X54367261Y18165092D01*
X54321942Y18180845D01*
X54205220Y18247034D01*
X54121624Y18333754D01*
X54066701Y18448562D01*
X54035995Y18599018D01*
X54029047Y18677827D01*
X54029933Y18776855D01*
X54296862Y18776855D01*
X54305854Y18632355D01*
X54331736Y18522240D01*
X54372868Y18451884D01*
X54402172Y18431765D01*
X54477251Y18417735D01*
X54566494Y18421889D01*
X54643650Y18442078D01*
X54663883Y18453185D01*
X54717265Y18517877D01*
X54752500Y18616881D01*
X54767498Y18737368D01*
X54760172Y18866506D01*
X54743799Y18944225D01*
X54696790Y19034229D01*
X54622582Y19090491D01*
X54533209Y19109943D01*
X54440707Y19089519D01*
X54369653Y19039563D01*
X54332312Y18998345D01*
X54310518Y18957719D01*
X54300130Y18902736D01*
X54297006Y18818451D01*
X54296862Y18776855D01*
X54029933Y18776855D01*
X54030930Y18888126D01*
X54065180Y19060577D01*
G36*
X50171534Y16855718D02*
G01*
X50258200Y16939288D01*
X50270179Y16946890D01*
X50321655Y16971643D01*
X50385368Y16986632D01*
X50474435Y16993918D01*
X50580245Y16995593D01*
X50810588Y16995686D01*
X50810588Y17092245D01*
X50800817Y17167164D01*
X50775884Y17217356D01*
X50772965Y17220028D01*
X50717481Y17241985D01*
X50633727Y17250495D01*
X50541167Y17246313D01*
X50459270Y17230191D01*
X50410673Y17206010D01*
X50384341Y17186641D01*
X50356535Y17182943D01*
X50318161Y17198812D01*
X50260125Y17238145D01*
X50173331Y17304836D01*
X50165365Y17311084D01*
X50169447Y17334200D01*
X50203501Y17372648D01*
X50255260Y17415373D01*
X50312455Y17451321D01*
X50330425Y17459809D01*
X50395972Y17476748D01*
X50492020Y17488830D01*
X50599329Y17493677D01*
X50604347Y17493687D01*
X50758720Y17484078D01*
X50875870Y17452820D01*
X50965051Y17396163D01*
X51027984Y17321955D01*
X51047548Y17290284D01*
X51061992Y17257109D01*
X51072089Y17214671D01*
X51078615Y17155212D01*
X51082342Y17070971D01*
X51084046Y16954190D01*
X51084500Y16797110D01*
X51084509Y16755435D01*
X51084509Y16273529D01*
X50964980Y16273529D01*
X50888739Y16278869D01*
X50832366Y16292396D01*
X50818242Y16300738D01*
X50779630Y16315136D01*
X50740192Y16300738D01*
X50675262Y16282763D01*
X50580945Y16275528D01*
X50476407Y16278667D01*
X50380811Y16291814D01*
X50325000Y16308682D01*
X50216998Y16378014D01*
X50149503Y16474228D01*
X50119159Y16602156D01*
X50118877Y16605441D01*
X50121540Y16662192D01*
X50362353Y16662192D01*
X50383405Y16597642D01*
X50417697Y16561314D01*
X50486532Y16533838D01*
X50577390Y16522871D01*
X50670042Y16528269D01*
X50744256Y16549890D01*
X50765049Y16563761D01*
X50801381Y16627857D01*
X50810588Y16700722D01*
X50810588Y16796470D01*
X50672827Y16796470D01*
X50541953Y16786395D01*
X50442741Y16757852D01*
X50381023Y16713361D01*
X50362353Y16662192D01*
X50121540Y16662192D01*
X50125436Y16745210D01*
X50171534Y16855718D01*
G37*
X50171534Y16855718D02*
X50258200Y16939288D01*
X50270179Y16946890D01*
X50321655Y16971643D01*
X50385368Y16986632D01*
X50474435Y16993918D01*
X50580245Y16995593D01*
X50810588Y16995686D01*
X50810588Y17092245D01*
X50800817Y17167164D01*
X50775884Y17217356D01*
X50772965Y17220028D01*
X50717481Y17241985D01*
X50633727Y17250495D01*
X50541167Y17246313D01*
X50459270Y17230191D01*
X50410673Y17206010D01*
X50384341Y17186641D01*
X50356535Y17182943D01*
X50318161Y17198812D01*
X50260125Y17238145D01*
X50173331Y17304836D01*
X50165365Y17311084D01*
X50169447Y17334200D01*
X50203501Y17372648D01*
X50255260Y17415373D01*
X50312455Y17451321D01*
X50330425Y17459809D01*
X50395972Y17476748D01*
X50492020Y17488830D01*
X50599329Y17493677D01*
X50604347Y17493687D01*
X50758720Y17484078D01*
X50875870Y17452820D01*
X50965051Y17396163D01*
X51027984Y17321955D01*
X51047548Y17290284D01*
X51061992Y17257109D01*
X51072089Y17214671D01*
X51078615Y17155212D01*
X51082342Y17070971D01*
X51084046Y16954190D01*
X51084500Y16797110D01*
X51084509Y16755435D01*
X51084509Y16273529D01*
X50964980Y16273529D01*
X50888739Y16278869D01*
X50832366Y16292396D01*
X50818242Y16300738D01*
X50779630Y16315136D01*
X50740192Y16300738D01*
X50675262Y16282763D01*
X50580945Y16275528D01*
X50476407Y16278667D01*
X50380811Y16291814D01*
X50325000Y16308682D01*
X50216998Y16378014D01*
X50149503Y16474228D01*
X50119159Y16602156D01*
X50118877Y16605441D01*
X50121540Y16662192D01*
X50362353Y16662192D01*
X50383405Y16597642D01*
X50417697Y16561314D01*
X50486532Y16533838D01*
X50577390Y16522871D01*
X50670042Y16528269D01*
X50744256Y16549890D01*
X50765049Y16563761D01*
X50801381Y16627857D01*
X50810588Y16700722D01*
X50810588Y16796470D01*
X50672827Y16796470D01*
X50541953Y16786395D01*
X50442741Y16757852D01*
X50381023Y16713361D01*
X50362353Y16662192D01*
X50121540Y16662192D01*
X50125436Y16745210D01*
X50171534Y16855718D01*
G36*
X56738446Y17494117D02*
G01*
X56834177Y17475245D01*
X56888677Y17447301D01*
X56946008Y17400877D01*
X56864441Y17297889D01*
X56814150Y17235521D01*
X56780001Y17205093D01*
X56746063Y17200445D01*
X56696406Y17215414D01*
X56673096Y17223883D01*
X56578063Y17236378D01*
X56491032Y17209594D01*
X56427138Y17149085D01*
X56416759Y17129792D01*
X56405456Y17078686D01*
X56396732Y16984500D01*
X56390997Y16853911D01*
X56388660Y16693595D01*
X56388627Y16670789D01*
X56388627Y16273529D01*
X56114705Y16273529D01*
X56114705Y17493725D01*
X56251666Y17493725D01*
X56330638Y17491663D01*
X56371779Y17482487D01*
X56386992Y17461710D01*
X56388627Y17442114D01*
X56388627Y17390503D01*
X56454240Y17442114D01*
X56529475Y17477325D01*
X56630544Y17494735D01*
X56738446Y17494117D01*
G37*
X56738446Y17494117D02*
X56834177Y17475245D01*
X56888677Y17447301D01*
X56946008Y17400877D01*
X56864441Y17297889D01*
X56814150Y17235521D01*
X56780001Y17205093D01*
X56746063Y17200445D01*
X56696406Y17215414D01*
X56673096Y17223883D01*
X56578063Y17236378D01*
X56491032Y17209594D01*
X56427138Y17149085D01*
X56416759Y17129792D01*
X56405456Y17078686D01*
X56396732Y16984500D01*
X56390997Y16853911D01*
X56388660Y16693595D01*
X56388627Y16670789D01*
X56388627Y16273529D01*
X56114705Y16273529D01*
X56114705Y17493725D01*
X56251666Y17493725D01*
X56330638Y17491663D01*
X56371779Y17482487D01*
X56386992Y17461710D01*
X56388627Y17442114D01*
X56388627Y17390503D01*
X56454240Y17442114D01*
X56529475Y17477325D01*
X56630544Y17494735D01*
X56738446Y17494117D01*
G36*
X51532764Y17491079D02*
G01*
X51570030Y17479909D01*
X51582043Y17455367D01*
X51582549Y17444288D01*
X51584704Y17413428D01*
X51599551Y17408583D01*
X51639657Y17429740D01*
X51663480Y17444194D01*
X51738638Y17475150D01*
X51828406Y17490456D01*
X51922529Y17491633D01*
X52010754Y17480201D01*
X52082826Y17457680D01*
X52128492Y17425591D01*
X52137498Y17385455D01*
X52132953Y17374585D01*
X52099821Y17329466D01*
X52048445Y17273974D01*
X52039152Y17265004D01*
X51990182Y17223755D01*
X51947931Y17210428D01*
X51888841Y17219729D01*
X51865169Y17225910D01*
X51791504Y17240754D01*
X51739710Y17234079D01*
X51695969Y17210535D01*
X51655902Y17178939D01*
X51626392Y17139202D01*
X51605884Y17083748D01*
X51592824Y17004997D01*
X51585656Y16895371D01*
X51582824Y16747294D01*
X51582549Y16657889D01*
X51582549Y16273529D01*
X51333529Y16273529D01*
X51333529Y17493725D01*
X51458039Y17493725D01*
X51532764Y17491079D01*
G37*
X51532764Y17491079D02*
X51570030Y17479909D01*
X51582043Y17455367D01*
X51582549Y17444288D01*
X51584704Y17413428D01*
X51599551Y17408583D01*
X51639657Y17429740D01*
X51663480Y17444194D01*
X51738638Y17475150D01*
X51828406Y17490456D01*
X51922529Y17491633D01*
X52010754Y17480201D01*
X52082826Y17457680D01*
X52128492Y17425591D01*
X52137498Y17385455D01*
X52132953Y17374585D01*
X52099821Y17329466D01*
X52048445Y17273974D01*
X52039152Y17265004D01*
X51990182Y17223755D01*
X51947931Y17210428D01*
X51888841Y17219729D01*
X51865169Y17225910D01*
X51791504Y17240754D01*
X51739710Y17234079D01*
X51695969Y17210535D01*
X51655902Y17178939D01*
X51626392Y17139202D01*
X51605884Y17083748D01*
X51592824Y17004997D01*
X51585656Y16895371D01*
X51582824Y16747294D01*
X51582549Y16657889D01*
X51582549Y16273529D01*
X51333529Y16273529D01*
X51333529Y17493725D01*
X51458039Y17493725D01*
X51532764Y17491079D01*
G36*
X56993520Y17237729D02*
G01*
X57065635Y17355931D01*
X57168273Y17436560D01*
X57302332Y17480861D01*
X57374957Y17489393D01*
X57525307Y17487216D01*
X57644337Y17456269D01*
X57744021Y17392400D01*
X57792288Y17344687D01*
X57871408Y17231894D01*
X57916752Y17101050D01*
X57932330Y16940208D01*
X57932410Y16927206D01*
X57932549Y16796470D01*
X57180091Y16796470D01*
X57196130Y16727990D01*
X57225091Y16665969D01*
X57275778Y16601346D01*
X57286379Y16591029D01*
X57377494Y16535195D01*
X57481400Y16525725D01*
X57601000Y16562460D01*
X57621274Y16572353D01*
X57683456Y16602426D01*
X57725106Y16619560D01*
X57732373Y16621145D01*
X57757740Y16605758D01*
X57806120Y16568113D01*
X57830679Y16547541D01*
X57881570Y16500286D01*
X57898281Y16469083D01*
X57886683Y16440380D01*
X57880483Y16432532D01*
X57838493Y16398181D01*
X57769206Y16356435D01*
X57720882Y16332065D01*
X57583711Y16289127D01*
X57431847Y16275214D01*
X57288024Y16291700D01*
X57247745Y16303504D01*
X57123078Y16370311D01*
X57030671Y16473108D01*
X56969990Y16612895D01*
X56940498Y16790670D01*
X56937260Y16883627D01*
X56946714Y17018967D01*
X57185490Y17018967D01*
X57208584Y17008962D01*
X57270662Y17001112D01*
X57360914Y16996479D01*
X57422058Y16995686D01*
X57532040Y16996451D01*
X57601457Y17000030D01*
X57639538Y17008351D01*
X57655515Y17023343D01*
X57658627Y17045097D01*
X57637278Y17112108D01*
X57583529Y17178336D01*
X57512822Y17229168D01*
X57442089Y17249962D01*
X57346016Y17231516D01*
X57262849Y17178189D01*
X57205186Y17101323D01*
X57185490Y17018967D01*
X56946714Y17018967D01*
X56951028Y17080709D01*
X56993520Y17237729D01*
G37*
X56993520Y17237729D02*
X57065635Y17355931D01*
X57168273Y17436560D01*
X57302332Y17480861D01*
X57374957Y17489393D01*
X57525307Y17487216D01*
X57644337Y17456269D01*
X57744021Y17392400D01*
X57792288Y17344687D01*
X57871408Y17231894D01*
X57916752Y17101050D01*
X57932330Y16940208D01*
X57932410Y16927206D01*
X57932549Y16796470D01*
X57180091Y16796470D01*
X57196130Y16727990D01*
X57225091Y16665969D01*
X57275778Y16601346D01*
X57286379Y16591029D01*
X57377494Y16535195D01*
X57481400Y16525725D01*
X57601000Y16562460D01*
X57621274Y16572353D01*
X57683456Y16602426D01*
X57725106Y16619560D01*
X57732373Y16621145D01*
X57757740Y16605758D01*
X57806120Y16568113D01*
X57830679Y16547541D01*
X57881570Y16500286D01*
X57898281Y16469083D01*
X57886683Y16440380D01*
X57880483Y16432532D01*
X57838493Y16398181D01*
X57769206Y16356435D01*
X57720882Y16332065D01*
X57583711Y16289127D01*
X57431847Y16275214D01*
X57288024Y16291700D01*
X57247745Y16303504D01*
X57123078Y16370311D01*
X57030671Y16473108D01*
X56969990Y16612895D01*
X56940498Y16790670D01*
X56937260Y16883627D01*
X56946714Y17018967D01*
X57185490Y17018967D01*
X57208584Y17008962D01*
X57270662Y17001112D01*
X57360914Y16996479D01*
X57422058Y16995686D01*
X57532040Y16996451D01*
X57601457Y17000030D01*
X57639538Y17008351D01*
X57655515Y17023343D01*
X57658627Y17045097D01*
X57637278Y17112108D01*
X57583529Y17178336D01*
X57512822Y17229168D01*
X57442089Y17249962D01*
X57346016Y17231516D01*
X57262849Y17178189D01*
X57205186Y17101323D01*
X57185490Y17018967D01*
X56946714Y17018967D01*
X56951028Y17080709D01*
X56993520Y17237729D01*
G36*
X54958880Y16833145D02*
G01*
X55020196Y16909715D01*
X55057332Y16942819D01*
X55093687Y16964575D01*
X55140990Y16977839D01*
X55210973Y16985472D01*
X55315364Y16990330D01*
X55356770Y16991727D01*
X55616666Y17000220D01*
X55616285Y17078884D01*
X55606219Y17161572D01*
X55569829Y17211569D01*
X55496311Y17243511D01*
X55494339Y17244080D01*
X55390105Y17256639D01*
X55288108Y17240234D01*
X55212305Y17200343D01*
X55181890Y17180646D01*
X55149132Y17183371D01*
X55098721Y17211909D01*
X55069119Y17232050D01*
X55011218Y17275081D01*
X54975352Y17307338D01*
X54969597Y17316573D01*
X54993295Y17364364D01*
X55063313Y17421438D01*
X55093725Y17440695D01*
X55181155Y17473860D01*
X55298983Y17492650D01*
X55429866Y17496871D01*
X55556459Y17486331D01*
X55661420Y17460837D01*
X55691761Y17447331D01*
X55750573Y17411954D01*
X55795709Y17372110D01*
X55829106Y17320880D01*
X55852701Y17251346D01*
X55868433Y17156591D01*
X55878239Y17029695D01*
X55884057Y16863742D01*
X55886266Y16752892D01*
X55894396Y16273529D01*
X55755531Y16273529D01*
X55671287Y16277062D01*
X55627884Y16289134D01*
X55616666Y16309406D01*
X55610744Y16331326D01*
X55584266Y16327135D01*
X55548186Y16309559D01*
X55457862Y16282618D01*
X55341777Y16275358D01*
X55219680Y16287233D01*
X55111321Y16317695D01*
X55101602Y16321923D01*
X55002568Y16391495D01*
X54937281Y16488211D01*
X54907240Y16601262D01*
X54909535Y16641878D01*
X55154633Y16641878D01*
X55176229Y16587218D01*
X55240259Y16548048D01*
X55343565Y16527026D01*
X55398774Y16524234D01*
X55490782Y16531380D01*
X55551941Y16559152D01*
X55566862Y16572353D01*
X55607287Y16644171D01*
X55616666Y16709314D01*
X55616666Y16796470D01*
X55495269Y16796470D01*
X55354153Y16789278D01*
X55255173Y16766655D01*
X55192633Y16727036D01*
X55178631Y16709372D01*
X55154633Y16641878D01*
X54909535Y16641878D01*
X54913941Y16719843D01*
X54958880Y16833145D01*
G37*
X54958880Y16833145D02*
X55020196Y16909715D01*
X55057332Y16942819D01*
X55093687Y16964575D01*
X55140990Y16977839D01*
X55210973Y16985472D01*
X55315364Y16990330D01*
X55356770Y16991727D01*
X55616666Y17000220D01*
X55616285Y17078884D01*
X55606219Y17161572D01*
X55569829Y17211569D01*
X55496311Y17243511D01*
X55494339Y17244080D01*
X55390105Y17256639D01*
X55288108Y17240234D01*
X55212305Y17200343D01*
X55181890Y17180646D01*
X55149132Y17183371D01*
X55098721Y17211909D01*
X55069119Y17232050D01*
X55011218Y17275081D01*
X54975352Y17307338D01*
X54969597Y17316573D01*
X54993295Y17364364D01*
X55063313Y17421438D01*
X55093725Y17440695D01*
X55181155Y17473860D01*
X55298983Y17492650D01*
X55429866Y17496871D01*
X55556459Y17486331D01*
X55661420Y17460837D01*
X55691761Y17447331D01*
X55750573Y17411954D01*
X55795709Y17372110D01*
X55829106Y17320880D01*
X55852701Y17251346D01*
X55868433Y17156591D01*
X55878239Y17029695D01*
X55884057Y16863742D01*
X55886266Y16752892D01*
X55894396Y16273529D01*
X55755531Y16273529D01*
X55671287Y16277062D01*
X55627884Y16289134D01*
X55616666Y16309406D01*
X55610744Y16331326D01*
X55584266Y16327135D01*
X55548186Y16309559D01*
X55457862Y16282618D01*
X55341777Y16275358D01*
X55219680Y16287233D01*
X55111321Y16317695D01*
X55101602Y16321923D01*
X55002568Y16391495D01*
X54937281Y16488211D01*
X54907240Y16601262D01*
X54909535Y16641878D01*
X55154633Y16641878D01*
X55176229Y16587218D01*
X55240259Y16548048D01*
X55343565Y16527026D01*
X55398774Y16524234D01*
X55490782Y16531380D01*
X55551941Y16559152D01*
X55566862Y16572353D01*
X55607287Y16644171D01*
X55616666Y16709314D01*
X55616666Y16796470D01*
X55495269Y16796470D01*
X55354153Y16789278D01*
X55255173Y16766655D01*
X55192633Y16727036D01*
X55178631Y16709372D01*
X55154633Y16641878D01*
X54909535Y16641878D01*
X54913941Y16719843D01*
X54958880Y16833145D01*
G36*
X47828260Y18966400D02*
G01*
X47843283Y19053633D01*
X47870376Y19122470D01*
X47911600Y19183263D01*
X47926885Y19201314D01*
X48022454Y19291254D01*
X48124961Y19343789D01*
X48250321Y19365799D01*
X48311450Y19367598D01*
X48473247Y19348432D01*
X48603522Y19290837D01*
X48702419Y19194666D01*
X48770082Y19059771D01*
X48806655Y18886004D01*
X48809276Y18858874D01*
X48811330Y18667592D01*
X48784699Y18499927D01*
X48731001Y18364033D01*
X48702247Y18320319D01*
X48602091Y18227802D01*
X48474537Y18167881D01*
X48331837Y18143015D01*
X48186240Y18155661D01*
X48075562Y18194609D01*
X47980384Y18260245D01*
X47902594Y18346301D01*
X47901249Y18348315D01*
X47869657Y18401430D01*
X47849127Y18454840D01*
X47836695Y18522246D01*
X47829397Y18617347D01*
X47826182Y18695334D01*
X47824844Y18766056D01*
X48073814Y18766056D01*
X48076247Y18695652D01*
X48085080Y18601932D01*
X48100664Y18541786D01*
X48128766Y18498994D01*
X48155086Y18473998D01*
X48248392Y18421662D01*
X48346020Y18414667D01*
X48436942Y18452324D01*
X48482402Y18494521D01*
X48515162Y18537044D01*
X48534323Y18577733D01*
X48542733Y18630686D01*
X48543237Y18710003D01*
X48540645Y18783050D01*
X48535071Y18887399D01*
X48526234Y18955080D01*
X48510307Y18999226D01*
X48483462Y19032969D01*
X48462189Y19052254D01*
X48373206Y19102914D01*
X48277211Y19105440D01*
X48196719Y19075433D01*
X48128053Y19012769D01*
X48087144Y18909832D01*
X48073814Y18766056D01*
X47824844Y18766056D01*
X47823246Y18850418D01*
X47828260Y18966400D01*
G37*
X47828260Y18966400D02*
X47843283Y19053633D01*
X47870376Y19122470D01*
X47911600Y19183263D01*
X47926885Y19201314D01*
X48022454Y19291254D01*
X48124961Y19343789D01*
X48250321Y19365799D01*
X48311450Y19367598D01*
X48473247Y19348432D01*
X48603522Y19290837D01*
X48702419Y19194666D01*
X48770082Y19059771D01*
X48806655Y18886004D01*
X48809276Y18858874D01*
X48811330Y18667592D01*
X48784699Y18499927D01*
X48731001Y18364033D01*
X48702247Y18320319D01*
X48602091Y18227802D01*
X48474537Y18167881D01*
X48331837Y18143015D01*
X48186240Y18155661D01*
X48075562Y18194609D01*
X47980384Y18260245D01*
X47902594Y18346301D01*
X47901249Y18348315D01*
X47869657Y18401430D01*
X47849127Y18454840D01*
X47836695Y18522246D01*
X47829397Y18617347D01*
X47826182Y18695334D01*
X47824844Y18766056D01*
X48073814Y18766056D01*
X48076247Y18695652D01*
X48085080Y18601932D01*
X48100664Y18541786D01*
X48128766Y18498994D01*
X48155086Y18473998D01*
X48248392Y18421662D01*
X48346020Y18414667D01*
X48436942Y18452324D01*
X48482402Y18494521D01*
X48515162Y18537044D01*
X48534323Y18577733D01*
X48542733Y18630686D01*
X48543237Y18710003D01*
X48540645Y18783050D01*
X48535071Y18887399D01*
X48526234Y18955080D01*
X48510307Y18999226D01*
X48483462Y19032969D01*
X48462189Y19052254D01*
X48373206Y19102914D01*
X48277211Y19105440D01*
X48196719Y19075433D01*
X48128053Y19012769D01*
X48087144Y18909832D01*
X48073814Y18766056D01*
X47824844Y18766056D01*
X47823246Y18850418D01*
X47828260Y18966400D01*
D15*
%TO.C,JP1*%
X39650000Y74150000D02*
G75*
G03*
X40350000Y74850000I0J700000D01*
G01*
X37550000Y74850000D02*
G75*
G03*
X38250000Y74150000I699999J-1D01*
G01*
X40350000Y75450000D02*
G75*
G03*
X39650000Y76150000I-700000J0D01*
G01*
X38250000Y76150000D02*
G75*
G03*
X37550000Y75450000I-1J-699999D01*
G01*
X40350000Y75450000D02*
X40350000Y74850000D01*
X39650000Y74150000D02*
X38250000Y74150000D01*
X37550000Y74850000D02*
X37550000Y75450000D01*
X38250000Y76150000D02*
X39650000Y76150000D01*
%TO.C,U1*%
X24880000Y37350000D02*
X17340000Y37350000D01*
X31670000Y39230000D02*
X31670000Y89230000D01*
X24920000Y38040000D02*
X25210000Y37540000D01*
X10550000Y39230000D02*
X10550000Y89230000D01*
X31110000Y38670000D02*
X24920000Y38670000D01*
X24920000Y38670000D02*
X24920000Y38040000D01*
X24920000Y38670000D02*
X31110000Y38670000D01*
X17010000Y37540000D02*
X17300000Y38040000D01*
X11110000Y38670000D02*
X17300000Y38670000D01*
X25210000Y37540000D02*
X24880000Y37350000D01*
X17300000Y38040000D02*
X17300000Y38670000D01*
X17340000Y37350000D02*
X17010000Y37540000D01*
X31110000Y89790000D02*
X11110000Y89790000D01*
X10550000Y39230000D02*
G75*
G03*
X11110000Y38670000I560000J0D01*
G01*
X31670000Y89230000D02*
G75*
G03*
X31110000Y89790000I-559999J1D01*
G01*
X11110000Y89790000D02*
G75*
G03*
X10550000Y89230000I0J-560000D01*
G01*
X31110000Y38670000D02*
G75*
G03*
X31670000Y39230000I1J559999D01*
G01*
%TO.C,QD7*%
X25500000Y30110000D02*
X26150000Y30110000D01*
X25500000Y30110000D02*
X23825000Y30110000D01*
X25500000Y26990000D02*
X26150000Y26990000D01*
X25500000Y26990000D02*
X24850000Y26990000D01*
%TD*%
M02*
