%TF.GenerationSoftware,KiCad,Pcbnew,(6.0.8)*%
%TF.CreationDate,2023-01-02T23:21:26-08:00*%
%TF.ProjectId,picow_ssr_control,7069636f-775f-4737-9372-5f636f6e7472,0.0.8*%
%TF.SameCoordinates,PXfbc520PY6516e80*%
%TF.FileFunction,Soldermask,Top*%
%TF.FilePolarity,Negative*%
%FSLAX46Y46*%
G04 Gerber Fmt 4.6, Leading zero omitted, Abs format (unit mm)*
G04 Created by KiCad (PCBNEW (6.0.8)) date 2023-01-02 23:21:26*
%MOMM*%
%LPD*%
G01*
G04 APERTURE LIST*
G04 Aperture macros list*
%AMRoundRect*
0 Rectangle with rounded corners*
0 $1 Rounding radius*
0 $2 $3 $4 $5 $6 $7 $8 $9 X,Y pos of 4 corners*
0 Add a 4 corners polygon primitive as box body*
4,1,4,$2,$3,$4,$5,$6,$7,$8,$9,$2,$3,0*
0 Add four circle primitives for the rounded corners*
1,1,$1+$1,$2,$3*
1,1,$1+$1,$4,$5*
1,1,$1+$1,$6,$7*
1,1,$1+$1,$8,$9*
0 Add four rect primitives between the rounded corners*
20,1,$1+$1,$2,$3,$4,$5,0*
20,1,$1+$1,$4,$5,$6,$7,0*
20,1,$1+$1,$6,$7,$8,$9,0*
20,1,$1+$1,$8,$9,$2,$3,0*%
%AMFreePoly0*
4,1,20,0.000000,0.744959,0.073905,0.744508,0.209726,0.703889,0.328688,0.626782,0.421226,0.519385,0.479903,0.390333,0.500000,0.250000,0.500000,-0.250000,0.499851,-0.262216,0.476331,-0.402017,0.414519,-0.529596,0.319384,-0.634700,0.198574,-0.708877,0.061801,-0.746166,0.000000,-0.745033,0.000000,-0.750000,-0.500000,-0.750000,-0.500000,0.750000,0.000000,0.750000,0.000000,0.744959,
0.000000,0.744959,$1*%
%AMFreePoly1*
4,1,22,0.500000,-0.750000,0.000000,-0.750000,0.000000,-0.745033,-0.079941,-0.743568,-0.215256,-0.701293,-0.333266,-0.622738,-0.424486,-0.514219,-0.481581,-0.384460,-0.499164,-0.250000,-0.500000,-0.250000,-0.500000,0.250000,-0.499164,0.250000,-0.499963,0.256109,-0.478152,0.396186,-0.417904,0.524511,-0.324060,0.630769,-0.204165,0.706417,-0.067858,0.745374,0.000000,0.744959,0.000000,0.750000,
0.500000,0.750000,0.500000,-0.750000,0.500000,-0.750000,$1*%
%AMFreePoly2*
4,1,57,0.281438,0.792513,0.314631,0.788760,0.324366,0.782642,0.335575,0.780064,0.361670,0.759195,0.389950,0.741421,0.741668,0.389704,0.759398,0.361385,0.780215,0.335261,0.782772,0.324050,0.788875,0.314303,0.792571,0.281098,0.800000,0.248529,0.800000,-0.248878,0.792513,-0.281438,0.788760,-0.314632,0.782641,-0.324367,0.780064,-0.335575,0.759196,-0.361669,0.741421,-0.389950,
0.389704,-0.741668,0.361385,-0.759398,0.335261,-0.780215,0.324050,-0.782772,0.314303,-0.788875,0.281098,-0.792571,0.248529,-0.800000,-0.248878,-0.800000,-0.281438,-0.792513,-0.314632,-0.788760,-0.324367,-0.782641,-0.335575,-0.780064,-0.361669,-0.759196,-0.389950,-0.741421,-0.741668,-0.389704,-0.759398,-0.361385,-0.780215,-0.335261,-0.782772,-0.324050,-0.788875,-0.314303,-0.792571,-0.281098,
-0.800000,-0.248529,-0.800000,0.248878,-0.792513,0.281438,-0.788760,0.314631,-0.782642,0.324366,-0.780064,0.335575,-0.759195,0.361670,-0.741421,0.389950,-0.389704,0.741668,-0.361385,0.759398,-0.335261,0.780215,-0.324050,0.782772,-0.314303,0.788875,-0.281098,0.792571,-0.248529,0.800000,0.248878,0.800000,0.281438,0.792513,0.281438,0.792513,$1*%
G04 Aperture macros list end*
%ADD10R,0.950000X1.750000*%
%ADD11R,3.200000X1.750000*%
%ADD12R,0.850000X0.850000*%
%ADD13O,0.850000X0.850000*%
%ADD14RoundRect,0.200000X0.200000X0.275000X-0.200000X0.275000X-0.200000X-0.275000X0.200000X-0.275000X0*%
%ADD15RoundRect,0.200000X-0.200000X-0.275000X0.200000X-0.275000X0.200000X0.275000X-0.200000X0.275000X0*%
%ADD16RoundRect,0.150000X-0.587500X-0.150000X0.587500X-0.150000X0.587500X0.150000X-0.587500X0.150000X0*%
%ADD17C,1.090000*%
%ADD18R,1.090000X1.090000*%
%ADD19RoundRect,0.150000X0.587500X0.150000X-0.587500X0.150000X-0.587500X-0.150000X0.587500X-0.150000X0*%
%ADD20RoundRect,0.250000X-0.250000X-0.475000X0.250000X-0.475000X0.250000X0.475000X-0.250000X0.475000X0*%
%ADD21C,1.000000*%
%ADD22R,1.130000X2.440000*%
%ADD23RoundRect,0.200000X0.275000X-0.200000X0.275000X0.200000X-0.275000X0.200000X-0.275000X-0.200000X0*%
%ADD24RoundRect,0.250000X0.450000X-0.262500X0.450000X0.262500X-0.450000X0.262500X-0.450000X-0.262500X0*%
%ADD25C,0.800000*%
%ADD26C,6.400000*%
%ADD27RoundRect,0.250000X-0.475000X0.250000X-0.475000X-0.250000X0.475000X-0.250000X0.475000X0.250000X0*%
%ADD28R,0.800000X0.800000*%
%ADD29C,1.920000*%
%ADD30R,1.920000X1.920000*%
%ADD31R,1.400000X1.300000*%
%ADD32R,0.900000X0.950000*%
%ADD33FreePoly0,0.000000*%
%ADD34FreePoly1,0.000000*%
%ADD35C,3.800000*%
%ADD36FreePoly2,180.000000*%
%ADD37C,1.600000*%
%ADD38RoundRect,0.200000X0.600000X0.600000X-0.600000X0.600000X-0.600000X-0.600000X0.600000X-0.600000X0*%
%ADD39R,1.574800X1.574800*%
%ADD40C,1.574800*%
G04 APERTURE END LIST*
D10*
%TO.C,REG1*%
X42900000Y69000000D03*
X40600000Y69000000D03*
X38300000Y69000000D03*
D11*
X40600000Y62700000D03*
%TD*%
D12*
%TO.C,JS2*%
X52000000Y45000000D03*
D13*
X52000000Y44000000D03*
%TD*%
D14*
%TO.C,RS4*%
X50325000Y55460000D03*
X48675000Y55460000D03*
%TD*%
D15*
%TO.C,RS7*%
X48675000Y33270000D03*
X50325000Y33270000D03*
%TD*%
D16*
%TO.C,QD8*%
X24562500Y32950000D03*
X24562500Y31050000D03*
X26437500Y32000000D03*
%TD*%
D17*
%TO.C,JCNTL2*%
X58135000Y29460000D03*
X56865000Y29460000D03*
X58135000Y30730000D03*
X56865000Y30730000D03*
X58135000Y32000000D03*
X56865000Y32000000D03*
X58135000Y33270000D03*
X56865000Y33270000D03*
X58135000Y34540000D03*
D18*
X56865000Y34540000D03*
%TD*%
D15*
%TO.C,RS1*%
X52175000Y59270000D03*
X53825000Y59270000D03*
%TD*%
D19*
%TO.C,Q2*%
X9137500Y40100000D03*
X9137500Y42000000D03*
X7262500Y41050000D03*
%TD*%
D15*
%TO.C,RS5*%
X48675000Y30730000D03*
X50325000Y30730000D03*
%TD*%
%TO.C,RS2*%
X48675000Y58000000D03*
X50325000Y58000000D03*
%TD*%
D20*
%TO.C,C2*%
X40200000Y71750000D03*
X38300000Y71750000D03*
%TD*%
D21*
%TO.C,FID1*%
X5000000Y80000000D03*
%TD*%
D22*
%TO.C,S1*%
X29600000Y11950000D03*
X32140000Y11950000D03*
X34680000Y11950000D03*
X37220000Y11950000D03*
X39760000Y11950000D03*
X42300000Y11950000D03*
X44840000Y11950000D03*
X47380000Y11950000D03*
X47380000Y3350000D03*
X44840000Y3350000D03*
X42300000Y3350000D03*
X39760000Y3350000D03*
X37220000Y3350000D03*
X34680000Y3350000D03*
X32140000Y3350000D03*
X29600000Y3350000D03*
%TD*%
D21*
%TO.C,FID3*%
X60000000Y5000000D03*
%TD*%
D23*
%TO.C,RL1*%
X41950000Y76800000D03*
X41950000Y75150000D03*
%TD*%
D24*
%TO.C,RP1*%
X55850000Y68622500D03*
X55850000Y66797500D03*
%TD*%
D25*
%TO.C,H2*%
X2600000Y5000000D03*
X6697056Y6697056D03*
X3302944Y3302944D03*
X7400000Y5000000D03*
D26*
X5000000Y5000000D03*
D25*
X5000000Y7400000D03*
X5000000Y2600000D03*
X3302944Y6697056D03*
X6697056Y3302944D03*
%TD*%
%TO.C,H1*%
X5000000Y82600000D03*
D26*
X5000000Y85000000D03*
D25*
X7400000Y85000000D03*
X5000000Y87400000D03*
X3302944Y86697056D03*
X2600000Y85000000D03*
X6697056Y86697056D03*
X6697056Y83302944D03*
X3302944Y83302944D03*
%TD*%
D15*
%TO.C,RS6*%
X52175000Y32000000D03*
X53825000Y32000000D03*
%TD*%
D16*
%TO.C,QD2*%
X35062500Y52100000D03*
X35062500Y50200000D03*
X36937500Y51150000D03*
%TD*%
%TO.C,QD1*%
X36937500Y54600000D03*
X35062500Y53650000D03*
X35062500Y55550000D03*
%TD*%
D27*
%TO.C,C1*%
X45550000Y67100000D03*
X45550000Y69000000D03*
%TD*%
D25*
%TO.C,JL1*%
X41950000Y79150000D03*
D28*
X42950000Y79150000D03*
%TD*%
D16*
%TO.C,QD6*%
X26437500Y25100000D03*
X24562500Y24150000D03*
X24562500Y26050000D03*
%TD*%
D29*
%TO.C,Q1*%
X50500000Y69000000D03*
X50500000Y66460000D03*
D30*
X50500000Y63920000D03*
%TD*%
D15*
%TO.C,RS8*%
X52175000Y34540000D03*
X53825000Y34540000D03*
%TD*%
%TO.C,RS3*%
X52175000Y56730000D03*
X53825000Y56730000D03*
%TD*%
D16*
%TO.C,QD4*%
X35062500Y45200000D03*
X35062500Y43300000D03*
X36937500Y44250000D03*
%TD*%
D31*
%TO.C,ZD1*%
X53550000Y66100000D03*
X53550000Y69000000D03*
%TD*%
D32*
%TO.C,LP1*%
X41950000Y81400000D03*
X43550000Y81400000D03*
%TD*%
D21*
%TO.C,FID2*%
X60000000Y80000000D03*
%TD*%
D17*
%TO.C,JCNTL1*%
X58135000Y55460000D03*
X56865000Y55460000D03*
X58135000Y56730000D03*
X56865000Y56730000D03*
X58135000Y58000000D03*
X56865000Y58000000D03*
X58135000Y59270000D03*
X56865000Y59270000D03*
X58135000Y60540000D03*
D18*
X56865000Y60540000D03*
%TD*%
D25*
%TO.C,H3*%
X60000000Y47400000D03*
X60000000Y42600000D03*
X61697056Y43302944D03*
X58302944Y43302944D03*
X61697056Y46697056D03*
X58302944Y46697056D03*
X62400000Y45000000D03*
X57600000Y45000000D03*
D26*
X60000000Y45000000D03*
%TD*%
D16*
%TO.C,QD3*%
X35062500Y48650000D03*
X35062500Y46750000D03*
X36937500Y47700000D03*
%TD*%
%TO.C,QD5*%
X26437500Y21650000D03*
X24562500Y20700000D03*
X24562500Y22600000D03*
%TD*%
D33*
%TO.C,JP1*%
X39600000Y75150000D03*
D34*
X38300000Y75150000D03*
%TD*%
D35*
%TO.C,U1*%
X26810000Y87730000D03*
X15410000Y40730000D03*
X26810000Y40730000D03*
X15410000Y87730000D03*
D36*
X30000000Y40100000D03*
D37*
X30000000Y42640000D03*
D38*
X30000000Y45180000D03*
D37*
X30000000Y47720000D03*
X30000000Y50260000D03*
X30000000Y52800000D03*
X30000000Y55340000D03*
D38*
X30000000Y57880000D03*
D37*
X30000000Y60420000D03*
X30000000Y62960000D03*
X30000000Y65500000D03*
X30000000Y68040000D03*
D38*
X30000000Y70580000D03*
D37*
X30000000Y73120000D03*
X30000000Y75660000D03*
X30000000Y78200000D03*
X30000000Y80740000D03*
D38*
X30000000Y83280000D03*
D37*
X30000000Y85820000D03*
X30000000Y88360000D03*
X12220000Y88360000D03*
X12220000Y85820000D03*
D38*
X12220000Y83280000D03*
D37*
X12220000Y80740000D03*
X12220000Y78200000D03*
X12220000Y75660000D03*
X12220000Y73120000D03*
D38*
X12220000Y70580000D03*
D37*
X12220000Y68040000D03*
X12220000Y65500000D03*
X12220000Y62960000D03*
X12220000Y60420000D03*
D38*
X12220000Y57880000D03*
D37*
X12220000Y55340000D03*
X12220000Y52800000D03*
X12220000Y50260000D03*
X12220000Y47720000D03*
D38*
X12220000Y45180000D03*
D37*
X12220000Y42640000D03*
X12220000Y40100000D03*
D39*
X20525800Y69930000D03*
D40*
X17985800Y69930000D03*
X15445800Y69930000D03*
%TD*%
D16*
%TO.C,QD7*%
X24562500Y29500000D03*
X24562500Y27600000D03*
X26437500Y28550000D03*
%TD*%
M02*
